<svg id="Capa_1" data-name="Capa 1" xmlns="http://www.w3.org/2000/svg" viewBox="0 0 1000 1000"><defs><style>.cls-1{fill:#fff;}</style></defs><path class="cls-1" d="M174.42,536.24c3.58-45,13.91-85.87,33.07-124.24,3.24-6.48,1.2-10.34-3.49-14.53q-49.81-44.55-99.39-89.34c-5.27-4.78-8.56-4.6-11.73,2-4.32,8.95-9,17.74-13.67,26.52-4.95,9.26-11.75,15.4-23,11-9.36-3.69-12-13.4-6.33-25.52,18.55-39.87,43.05-75.91,71.18-109.6q78.6-94.11,157.15-188.27c26.69-31.83,56.1-31.2,82.44.66q87.24,105.5,174.81,210.71c4,4.8,8.73,6.47,14.34,7.73,105.93,23.85,183,84.57,226.76,183.88,39,88.5,35.39,177.62-7.3,264.55-4.73,9.63-4.75,15.38,3.8,21.88,7.89,6,15.06,13,22.3,19.8s9.25,15,2.4,23c-7.25,8.47-16,7.7-24.12,1-6.69-5.47-13.21-11.19-19.34-17.28-5.77-5.75-10.61-7.22-15.28.94a31.65,31.65,0,0,1-3.16,4.11c-19.34,23.67-19,23.26,3.53,43.13q90,79.39,179.46,159.4c1.62,1.44,3.16,3,4.77,4.41,16.61,15.06,35,10.1,42.46-11.54,2.42-7.06-.44-12.49-5.78-17.22q-58.8-52-117.48-104.14c-6.79-6-13.61-12.05-20.11-18.38-7.07-6.88-9.38-15-2.41-23,7.32-8.44,16-7.84,24-.84q43.42,38.06,86.53,76.46c17.15,15.21,34.41,30.3,51.23,45.87,22.63,20.94,24,45.23,4.51,68.83-5.79,7-11.27,14.33-18.88,19.53-19,13-40.08,11.51-58.36-4.65q-71-62.71-141.62-125.81c-22.31-19.83-44.78-39.47-66.87-59.53-5.69-5.17-9.67-6.54-16.42-1.06-42.54,34.57-91.15,56-145.24,64.69-11.29,1.82-19.3,6.74-27,15.56-38.05,43.85-82.31,80.67-133.7,107.68-42.64,22.42-86.57,20.06-127.69-4.72C118.68,900.17,37.16,784.55,8.46,632.59c-14.52-76.88-10.57-153.22,10-228.68A124.12,124.12,0,0,1,25,385.6c3.66-8.08,10.4-12.06,19-9.26,8.88,2.88,12.82,9.81,11.34,19.32a14.93,14.93,0,0,1-1.24,5c-9.78,17.5-.8,27.84,12.31,39.14C100.8,469.48,134,500.5,167.68,531,169.23,532.34,171,533.53,174.42,536.24Zm314.6-265C341.41,268.29,207.89,389.73,207.7,550.86c-.18,152.55,119,281.94,281.16,281.74,165.78-.2,280.82-134.15,280.7-280.93C769.43,396.16,644.72,271.32,489,271.21ZM302.31,831.12c0-26,0-26.06-17.05-40.75-60.18-51.75-95.78-117.08-107.5-195.4-1.38-9.22-5.11-15.84-12-21.94C127.07,538.56,88.64,503.75,50.07,469.1c-2.5-2.25-4.7-6.21-8.37-5.3-4.17,1-3,5.69-3.56,8.91-7.37,45.12-6.91,90.22-.55,135.47,1.74,12.42,6.65,21.61,15.89,29.8,34.6,30.65,68.81,61.75,103.15,92.7Q224.51,791.87,292.38,853c2.15,1.94,4.1,5.4,7.41,4.25,3.59-1.25,2.34-5.18,2.44-8C302.43,843.23,302.29,837.17,302.31,831.12Zm-.17-543c1.28-7.89-2.08-13.89-8.12-19.09-9.17-7.9-18-16.22-27-24.31q-33.28-29.94-66.62-59.81c-3.82-3.41-7.56-7.75-12.8-1.24q-33.35,41.43-67,82.63C116,272,117.73,276,122.8,280.54c32.26,28.81,64.47,57.68,96.27,87,7.53,6.95,11.57,5.83,17.14-2A278.7,278.7,0,0,1,294.53,305C300.32,300.57,303,295.45,302.14,288.15ZM57.37,685.59c-.59,1.74-1.16,2.56-1,3.25A43.59,43.59,0,0,0,58,695.1c33.54,97,91.58,175.73,175.75,234.75,17.66,12.38,35.21,25.14,56.21,31.83,8.09,2.58,12.54,1.24,12.4-8.26q-.3-20.11,0-40.22c.08-6.32-3.29-10.32-7.64-14.23Q204.5,817.87,114.46,736.63C95.6,719.64,76.63,702.79,57.37,685.59Zm243.79-454.4V48.1c-28.94,34.64-55.74,66.75-82.6,98.82-3.71,4.42-2.16,7.88,1.47,11.16C246.31,181.78,272.61,205.46,301.16,231.19ZM337.71,52.27V230.35c28.14-25.13,54.41-48.73,80.88-72.1,6.64-5.87,1.92-9.83-1.58-14.05q-35.55-42.87-71.28-85.6C343.66,56.13,342.08,52.65,337.71,52.27Zm-1.3,877.88V940c0,26.5,2.48,28.48,26.58,15.66,39.93-21.23,75.23-48.81,106.53-81.46,1.71-1.79,4.54-3.49,3.44-6.37s-4.37-2.11-6.82-2.37a393.82,393.82,0,0,1-61.07-11.07c-6.67-1.78-11.6-.12-16.44,4.4-10.1,9.42-19.73,19.57-30.87,27.58C341.16,898.26,331.62,912.36,336.41,930.15ZM494.09,236.38c-16-19.15-30.07-35.91-44.07-52.74-5.13-6.18-8.76-2.17-12.78,1.47-16.34,14.8-32.78,29.49-49.15,44.25Q364,251.11,340,272.92C387.63,249.12,437.89,238.39,494.09,236.38Z"/><path class="cls-1" d="M731.16,47.11c26.82,0,53.65-.21,80.47.12,8.57.1,13.76-1.68,17.83-10.71C841.7,9.42,869.64-4.07,899.17,1.08c26,4.55,48.4,29.15,50.59,55.66,2.46,29.75-13.88,55.82-41.61,66.4-29.62,11.3-64.73-2.71-78.6-32.76-4.09-8.84-9-10.94-17.7-10.89-48.45.28-96.92.55-145.37-.16-12.29-.18-20.06,4.54-27.54,13.35C616.26,119.38,593,145.59,570,172c-6.29,7.22-13.53,11-22.83,5.8-9.11-5.09-10.67-16.3-2.82-25.56,20.69-24.41,43.69-47.13,62.21-73.06,19.08-26.71,42.21-36.54,74-32.46C697.18,48.86,714.28,47.11,731.16,47.11ZM886.31,93.84c16.31.16,30.63-13.79,30.87-30.08S903.5,33.28,887,32.89,856.66,46.22,856.48,63,869.78,93.67,886.31,93.84Z"/><path class="cls-1" d="M808.32,261.06c-20.3,0-40.61.07-60.91,0-10.94-.06-20-3.32-21.3-15.95-1-10,7.52-17.7,21-17.82q62.21-.52,124.42,0c14,.12,22.32,7.09,22.38,16.7.06,10.15-8.78,16.86-23.37,17C849.8,261.24,829.06,261.07,808.32,261.06Z"/><path class="cls-1" d="M809.18,188.77c-21.15,0-42.29.17-63.44-.07-12.56-.13-20.14-6.15-19.67-15.64.59-11.85,8.4-16.5,19.18-16.54,43.15-.17,86.3-.25,129.45,0,11.87.08,19.77,7.24,19.06,16.69-.9,11.94-9,15.59-19.85,15.55C852.33,188.71,830.75,188.77,809.18,188.77Z"/><path class="cls-1" d="M829.6,299.17q22,0,44,0c10.88,0,19.12,4.72,20,15.94.89,11.83-7.84,17.24-18.23,17.43q-45.87.84-91.76-.09c-10.28-.23-19-5.56-18-17.6.88-11.65,9.55-15.54,20.12-15.65C800.29,299.06,815,299.17,829.6,299.17Z"/><path class="cls-1" d="M488.89,793.74c-128,1.35-242.84-101.6-242.86-242.26C246,414,357.06,309,489,309.15c133.56.2,242.71,109.5,242.53,243.13C731.37,685.21,622.35,793.68,488.89,793.74Zm126.6-408.86c.9,5.79,1,8.32,1.71,10.67,10,33.24,16.13,67.22,19.38,101.75,1.13,12-5,21.18-14.74,22-9,.76-16.59-6.71-18.13-18.24-1.21-9-1.93-18.06-3-27.08-.39-3.35.6-7.67-2.83-9.52-4.5-2.42-7.07,2.23-9.7,4.54-18.18,16-36.12,32.27-54.12,48.47q-94,84.64-188.16,169.16c-7.91,7.06-7.43,11.43,0,18.35,24.57,22.89,53.2,38.11,84.95,48.39,13.32,4.31,23.46,2.62,34.05-7.35,30.22-28.46,60.09-57.55,92.58-83.26,29.49-23.34,50.08-48.51,46.77-88.67-1.18-14.27,7.09-21.3,17.7-20.75,11,.57,17.22,9.35,15.62,23.83-3.89,35.25-8.37,70.42-19.05,104.45-4.25,13.55-8.18,27.2-12.25,40.8,67.11-47.47,97.42-111.81,90.33-192.49C691.46,471.1,663.83,424,615.49,384.88ZM336.41,566.09c0,23.36-.08,46.72.09,70.08,0,3.6-1.87,8.68,2.86,10.29,3.57,1.21,5.92-2.93,8.39-5.16,24.75-22.28,49.36-44.72,74.1-67q81-72.93,162-145.76c2.91-2.62,6.22-5.09,5.14-9.7-4.71-20.27-9.36-41.3-20.81-58.32-8.23-12.23-26.41-11.07-40.39-15-6.55-1.85-13.84-.95-20.56-2.38-8.18-1.73-13.8,1.21-19.71,6.57q-71.13,64.47-142.77,128.38c-6,5.39-8.55,11.29-8.45,19.24C336.6,520.23,336.42,543.16,336.41,566.09ZM301.5,461.16c-30.6,46-27.43,144.09,0,179.3ZM434.23,350.83c-4.61-1.77-8.66.65-12.51,2C395.27,362,371.69,376,350.15,394c-10.66,8.88-15.77,19-13.74,32.73.48,3.27-1.3,7.6,2.37,9.46,3.91,2,6.18-2.08,8.6-4.25q40.58-36.37,80.95-73C430.73,356.75,434.2,355.07,434.23,350.83ZM500,758c18.5.85,35.48-.78,51.76-6.73,3.36-1.23,6.4-2.86,7.94-6.19,8.62-18.64,16.91-37.41,20.26-58.74Z"/></svg>
