<svg id="Capa_1" data-name="Capa 1" xmlns="http://www.w3.org/2000/svg" viewBox="0 0 1080 1080"><defs><style>.cls-1{fill:#182660;}.cls-2{fill:#fff;}</style></defs><path class="cls-1" d="M609.79,921.62H464A11.64,11.64,0,0,1,452.31,910V878.8A11.64,11.64,0,0,1,464,867.16h8.48V855.24H472a11.64,11.64,0,0,1-11.64-11.64v-170A11.64,11.64,0,0,1,472,662h6.46V524.32H476a11.64,11.64,0,0,1-11.64-11.64V309.08h-12.5a11.64,11.64,0,0,1-11.64-11.53l-.5-51.8A11.64,11.64,0,0,1,451.38,234h179a11.64,11.64,0,0,1,11.64,11.64V301a11.64,11.64,0,0,1-11.64,11.64H613.89V511.18a11.64,11.64,0,0,1-11.64,11.63h-1.44V661.47h5a11.64,11.64,0,0,1,11.64,11.64V840.58a11.64,11.64,0,0,1-11.64,11.64h-3.45v12.93h7.47a11.64,11.64,0,0,1,11.64,11.64V910A11.64,11.64,0,0,1,609.79,921.62Zm-134.2-23.28H598.15v-9.91h-7.47A11.64,11.64,0,0,1,579,876.79V840.58a11.64,11.64,0,0,1,11.64-11.64h3.45V684.75h-5a11.64,11.64,0,0,1-11.63-11.64V511.18a11.64,11.64,0,0,1,11.63-11.64h1.44V301a11.64,11.64,0,0,1,11.64-11.64h16.52v-32H463.13l.28,28.52H476a11.64,11.64,0,0,1,11.64,11.64V501h2.44a11.64,11.64,0,0,1,11.64,11.64V673.62a11.64,11.64,0,0,1-11.64,11.63h-6.46V832h.43a11.64,11.64,0,0,1,11.64,11.64v35.2a11.64,11.64,0,0,1-11.64,11.64h-8.48Z"/><path class="cls-1" d="M575.7,435.45H502.51a11.64,11.64,0,0,1-11.64-11.64V375.25a11.64,11.64,0,0,1,11.64-11.64H575.7a11.64,11.64,0,0,1,11.64,11.64v48.56A11.64,11.64,0,0,1,575.7,435.45Zm-61.55-23.28h49.91V386.89H514.15Z"/><path class="cls-1" d="M564.46,828.18H515.54a11.65,11.65,0,0,1-11.64-11.64V553.83a11.64,11.64,0,0,1,11.64-11.64h48.92a11.64,11.64,0,0,1,11.64,11.64V816.54A11.65,11.65,0,0,1,564.46,828.18ZM527.18,804.9h25.64V565.47H527.18Z"/><rect class="cls-1" x="495.51" y="290.29" width="88.97" height="36.42" rx="11.64"/><path class="cls-1" d="M651.83,1033.76a12.88,12.88,0,0,0-18.22-18.22c-51.61,51.62-135.61,51.62-187.22,0a12.88,12.88,0,0,0-18.22,18.22C489.82,1095.41,590.18,1095.41,651.83,1033.76Z"/><path class="cls-1" d="M618.69,1000.62a12.88,12.88,0,0,0-18.22-18.22,85.6,85.6,0,0,1-120.94,0,12.88,12.88,0,1,0-18.22,18.22A111.43,111.43,0,0,0,618.69,1000.62Z"/><path class="cls-1" d="M585.55,967.47a12.88,12.88,0,1,0-18.22-18.22,38.68,38.68,0,0,1-54.66,0,12.88,12.88,0,1,0-18.22,18.22A64.48,64.48,0,0,0,585.55,967.47Z"/><path class="cls-2" d="M594.12,180.49c0,.41,0,.83,0,1.24-.79,14-16.15,22.21-28.07,14.89-6.53-4-8.91-10.16-8.89-17.68q.14-57.34,0-114.69c0-1.24.34-2.75-.24-3.66-.82-1.31-2.32-3-3.55-3s-2.68,1.72-3.48,3c-.56.92-.22,2.42-.22,3.66q0,65.27,0,130.54a44.43,44.43,0,0,1-.28,5.89,18.3,18.3,0,0,1-22,15.37c-9.11-2-14.7-9.07-14.7-18.88q0-66.66,0-133.34c0-1.14.37-2.57-.18-3.34-.9-1.28-2.41-2.94-3.65-2.93s-2.61,1.77-3.51,3c-.49.7-.14,2-.14,3v67.45c0,15.43.12,30.87-.05,46.31a18.44,18.44,0,0,1-27.47,15.9c-6.81-3.78-9.56-9.92-9.55-17.6q.08-55.78,0-111.58c0-1.24.34-2.72-.21-3.67-.72-1.26-2.2-3-3.28-2.92-1.32.06-2.83,1.55-3.76,2.79-.57.75-.24,2.2-.24,3.34,0,28.18-.17,56.36.08,84.54.09,9.91-7.17,17.71-16.47,17.58-9.5-.13-16.12-7.24-16.14-17.52,0-4,0-7.94,0-11.92h0V119.47a12.34,12.34,0,0,0,0-1.36v-.5a13.13,13.13,0,0,0,0-1.66v-15.3c.05-.72,0-1.46,0-2.19V94.75h0c0-13.79-.09-27.57,0-41.35A42.32,42.32,0,0,1,470,11.47c27.46-.17,54.92-.24,82.38.13a43,43,0,0,1,16.78,3.75C585.29,22.76,593.87,35.9,594,53.68,594.28,96,594.11,138.22,594.12,180.49Z"/><path class="cls-2" d="M650.56,121.46c-2.83,7-8.42,10.85-16,11.37a15.48,15.48,0,0,1-12.08-3.92c-6.77-6.4-13.33-13-19.91-19.63a3.87,3.87,0,0,1-.89-2.47q-.06-24.54,0-49.09a1.48,1.48,0,0,1,.18-.51c7.38,7.19,14.77,14.28,22,21.49,7.71,7.66,15.4,15.35,22.92,23.2C652.14,107.51,653.45,114.31,650.56,121.46Z"/><path class="cls-1" d="M656.41,94.28h0q-12.87-13.1-25.79-26.12-11.68-11.81-23.35-23.62a2.83,2.83,0,0,1-.53-.69C600.14,17.25,578.19.05,550.77,0c-29.34,0-55.27,0-79.29,0a57.31,57.31,0,0,0-40.8,16.5,57.16,57.16,0,0,0-16.53,40.74q0,16,0,32v12.08l0,.24a10.92,10.92,0,0,0,0,2.84V138c0,5.45,0,9.93,0,14.11A30.8,30.8,0,0,0,424.33,175a29.48,29.48,0,0,0,23.12,7.11,32.28,32.28,0,0,0,6.65-1.57c.61,9.62,3.92,19.6,14.79,26.39,10.3,6.43,20.88,7.26,31.06,2.56A32.46,32.46,0,0,0,528.58,233c1,.08,2,.12,3,.12,13.25,0,23.77-7.56,29.38-20.93a33.33,33.33,0,0,0,6.7,2.61,32.26,32.26,0,0,0,40.39-31.37c.09-13.46.07-27.14,0-40.37,0-1.92,0-3.85,0-5.77,1.54,1.5,3.12,3,4.76,4.42a31.63,31.63,0,0,0,25.22,7.45,32.38,32.38,0,0,0,18.32-54.9ZM642.07,109c3.58,3.73,4.39,7.86,2.47,12.62s-5.2,7-10.46,7.33c-3,.2-5.44-.52-7.18-2.17-6-5.7-12-11.72-17.83-17.55l-.93-.93c0-11.07,0-22.27,0-33.3,3.71,3.6,7.47,7.27,11.14,10.91C626.22,92.8,634.3,100.85,642.07,109Zm-78.4-16.53V66.82c0-.19,0-.39,0-.6a10.36,10.36,0,0,0-1.27-6.52c-1.14-1.81-4.3-6-9-6h0c-4.77,0-7.9,4.3-9,6.15a10.32,10.32,0,0,0-1.2,6.45c0,.2,0,.4,0,.59v49q0,40.8,0,81.59a40.08,40.08,0,0,1-.22,5,11.53,11.53,0,0,1-4.87,8,11.69,11.69,0,0,1-9.29,1.89c-6.17-1.33-9.57-5.78-9.57-12.52q0-44.45,0-88.89V66.44c0-.15,0-.32,0-.48a9.55,9.55,0,0,0-1.4-6.62c-1.83-2.6-4.87-5.68-9-5.68h-.07c-4.72,0-7.67,4.24-8.78,5.83a9.23,9.23,0,0,0-1.34,6.41c0,.14,0,.27,0,.36v67.45q0,6.89,0,13.77c0,10.64,0,21.66-.07,32.46a11.7,11.7,0,0,1-5.92,10.22,11.93,11.93,0,0,1-11.89.08c-4.3-2.39-6.22-6.06-6.21-11.91,0-29.25,0-59,0-87.76V66.74c0-.2,0-.4,0-.6a10.5,10.5,0,0,0-1.1-6.3c-.87-1.51-4.12-6.38-9.2-6.18-4,.16-6.9,3-8.68,5.38a9.57,9.57,0,0,0-1.57,6.75c0,.17,0,.33,0,.49q0,11.41,0,22.84c0,20.24-.07,41.16.11,61.76a11.41,11.41,0,0,1-3.21,8.31,9.11,9.11,0,0,1-6.53,2.71h-.14c-6-.08-9.72-4.31-9.73-11,0-1.63,0-3.25,0-4.87q0-3.3,0-6.59V122.24a16.63,16.63,0,0,0,0-1.73v-.16c0-.75,0-1.41,0-2v-14.9c0-.67,0-1.29,0-1.8,0-.19,0-.38,0-.57V97.31c0-3.4,0-6.79,0-10.19,0-10.2,0-20.74,0-31.09A35.85,35.85,0,0,1,470,20.54c24.62-.15,53.64-.26,82.25.13a36.65,36.65,0,0,1,14.17,3.16c13.88,6.36,21,17.28,21.08,32.46.21,30.11.18,60.74.15,90.37q0,18.19,0,36.4c0,.29,0,.58,0,.88a12.06,12.06,0,0,1-6.49,10.1,11.62,11.62,0,0,1-11.69-.39c-4.07-2.5-5.8-6.13-5.79-12.13C563.7,151.83,563.68,121.64,563.67,92.44Z"/></svg>
