<svg id="Capa_1" data-name="Capa 1" xmlns="http://www.w3.org/2000/svg" viewBox="0 0 1080 1080"><defs><style>.cls-1{fill:none;}.cls-2{fill:#182660;}.cls-3{fill:#182660;}.cls-4{fill:#063;}</style></defs><path class="cls-1" d="M670.85,431.18a17.51,17.51,0,0,0-5.71-12.92h0A17.53,17.53,0,0,1,670.85,431.18Z"/><polygon class="cls-1" points="549.66 366.96 549.66 411.79 602.94 411.79 549.66 366.96"/><polygon class="cls-1" points="660.38 414.2 543.4 315.8 660.37 414.19 660.38 414.2"/><path class="cls-1" d="M575.48,686.07v-62.8H456.72a17.57,17.57,0,0,1-17.56-17.57V479.56A17.57,17.57,0,0,1,456.72,462h179V446.91H532.1a17.57,17.57,0,0,1-17.57-17.56c0-.3,0-.59.05-.88s-.05-.58-.05-.88V346.8H242.3V850.87H635.72V703.63H593A17.56,17.56,0,0,1,575.48,686.07Z"/><path class="cls-1" d="M533.77,311.76l.63.08c.33.05.66.09,1,.15l.78.18c.26.06.53.12.79.2l.81.25.72.27.78.32.71.34.72.38c.25.14.49.29.73.44s.43.26.63.41l.13.08.66.5.49.38.07.06,117,98.4a23,23,0,0,1,10.47,17V462H705a17.57,17.57,0,0,1,17.56,17.57V605.7c0,.17,0,.34,0,.51s0,.34,0,.51v79.35A17.56,17.56,0,0,1,705,703.63h-34.1V733.2H837.7V229.13H444.28v82.54H532.1C532.66,311.67,533.21,311.71,533.77,311.76Z"/><path class="cls-2" d="M855.26,194H426.72a17.57,17.57,0,0,0-17.57,17.56V311.67h35.13V229.13H837.7V733.2H670.85v35.12H855.26a17.57,17.57,0,0,0,17.57-17.56V211.56A17.57,17.57,0,0,0,855.26,194Z"/><path class="cls-3" d="M540,313.55l-.7-.33Z"/><path class="cls-2" d="M665.14,418.26a17.56,17.56,0,0,1-13.61,28.65H635.72V462h35.13V431.18A17.53,17.53,0,0,0,665.14,418.26Z"/><path class="cls-3" d="M538.48,312.89l-.72-.26Z"/><path class="cls-3" d="M537,312.37c-.26-.08-.53-.14-.79-.2C536.42,312.23,536.69,312.29,537,312.37Z"/><path class="cls-3" d="M535.38,312c-.32-.06-.64-.1-1-.14C534.74,311.89,535.06,311.93,535.38,312Z"/><path class="cls-3" d="M542.84,315.36l-.66-.5-.13-.08C542.32,315,542.58,315.16,542.84,315.36Z"/><path class="cls-3" d="M541.42,314.37l-.72-.44Z"/><path class="cls-2" d="M549.66,329.24V367l53.28,44.83h48.59a17.35,17.35,0,0,1,8.84,2.41l-117-98.4-.07-.06A17.53,17.53,0,0,1,549.66,329.24Z"/><path class="cls-2" d="M670.85,733.2V703.63H635.72V850.87H242.3V346.8H514.53V329.24a17.57,17.57,0,0,1,17.57-17.56c.56,0,1.11,0,1.66.08-.55-.05-1.1-.09-1.66-.09H224.74a17.57,17.57,0,0,0-17.57,17.57v539.2A17.57,17.57,0,0,0,224.74,886H653.28a17.57,17.57,0,0,0,17.57-17.56V733.2Z"/><path class="cls-3" d="M532.1,311.67c.56,0,1.11,0,1.66.09h0c-.56-.05-1.11-.09-1.67-.09h0Z"/><path class="cls-3" d="M540,313.55h0l-.71-.34h0Z"/><path class="cls-3" d="M538.48,312.89h0l-.72-.27h0Z"/><path class="cls-3" d="M535.38,312h0c-.32-.06-.65-.1-1-.15h0C534.74,311.89,535.06,311.93,535.38,312Z"/><path class="cls-3" d="M541.42,314.37h0c-.24-.15-.48-.3-.73-.44h0Z"/><path class="cls-3" d="M537,312.37h0c-.26-.08-.53-.14-.79-.2h0C536.42,312.23,536.69,312.29,537,312.37Z"/><path class="cls-3" d="M542.18,314.86l-.13-.08h0Z"/><path class="cls-2" d="M514.58,428.47a17.54,17.54,0,0,1,17.52-16.68h17.56V367l-24-20.16H514.53v80.79C514.53,427.89,514.56,428.18,514.58,428.47Z"/><path class="cls-3" d="M538.48,312.89l.78.32Z"/><path class="cls-3" d="M541.42,314.37c.21.14.43.26.63.41C541.85,314.63,541.63,314.51,541.42,314.37Z"/><path class="cls-3" d="M542.84,315.36l.49.38Z"/><path class="cls-3" d="M540,313.55l.72.38Z"/><path class="cls-3" d="M533.77,311.76l.63.08Z"/><path class="cls-3" d="M537,312.37l.81.25Z"/><path class="cls-3" d="M535.38,312l.78.18Z"/><path class="cls-2" d="M549.66,367V329.24a17.53,17.53,0,0,0-6.33-13.5l-.49-.38c-.26-.2-.52-.4-.79-.58s-.42-.27-.63-.41l-.72-.44-.73-.38-.7-.33c-.26-.12-.53-.23-.79-.33l-.72-.26c-.27-.1-.54-.18-.81-.26s-.53-.14-.79-.2l-.78-.18c-.32-.06-.64-.1-1-.14s-.44-.07-.66-.09c-.55-.05-1.1-.08-1.66-.08a17.57,17.57,0,0,0-17.57,17.56V346.8h11.16Z"/><path class="cls-3" d="M542.05,314.78h0c-.2-.15-.42-.27-.63-.41h0C541.63,314.51,541.85,314.63,542.05,314.78Z"/><path class="cls-3" d="M536.16,312.17h0l-.78-.18h0Z"/><path class="cls-3" d="M534.4,311.84l-.63-.08h0c.22,0,.44.06.66.09Z"/><path class="cls-3" d="M540.7,313.93h0l-.72-.38h0Z"/><path class="cls-3" d="M537.76,312.63h0l-.81-.25h0C537.22,312.45,537.49,312.53,537.76,312.63Z"/><path class="cls-3" d="M539.27,313.22h0l-.78-.32h0C538.74,313,539,313.1,539.27,313.22Z"/><path class="cls-2" d="M602.94,411.79H549.66v15.8a17.55,17.55,0,0,1-35.08.88c0,.29-.05.58-.05.88a17.57,17.57,0,0,0,17.57,17.56H635.72v-7.55Z"/><path class="cls-3" d="M664.59,417.74c.19.16.36.35.55.52h0c-.19-.17-.36-.36-.55-.52l-4.21-3.54h0Z"/><path class="cls-3" d="M665.14,418.26a17.5,17.5,0,0,0-4.76-4.06l4.21,3.54C664.78,417.9,665,418.09,665.14,418.26Z"/><path class="cls-2" d="M669.09,429.35a17.45,17.45,0,0,0-4-11.09c-.19-.17-.36-.36-.55-.52l-4.22-3.54a17.35,17.35,0,0,0-8.84-2.41H602.94l32.78,27.57v7.55h15.81A17.56,17.56,0,0,0,669.09,429.35Z"/><path class="cls-2" d="M532.1,445.16a17.57,17.57,0,0,0,17.56-17.57v-15.8H532.1a16.7,16.7,0,1,0,0,33.37Z"/><rect class="cls-4" x="635.72" y="605.7" width="35.13" height="1.02"/><path class="cls-2" d="M518.19,517.17a22,22,0,1,0,22,22A22,22,0,0,0,518.19,517.17Z"/><path class="cls-2" d="M647.19,517.17a22,22,0,1,0,22,22A21.86,21.86,0,0,0,647.19,517.17Z"/><path class="cls-2" d="M581.19,517.17a22,22,0,1,0,22,22A22,22,0,0,0,581.19,517.17Z"/><path class="cls-2" d="M722.51,480.56A17.57,17.57,0,0,0,705,463H456.72a17.57,17.57,0,0,0-17.56,17.57V606.7a17.57,17.57,0,0,0,17.56,17.57H575.48v62.8A17.56,17.56,0,0,0,593,704.63H705a17.56,17.56,0,0,0,17.56-17.56V607.72c0-.17,0-.34,0-.51s0-.34,0-.51Zm-35.13,189H610.61V625.28h76.77Zm0-80.37H474.29v-91H687.38Z"/></svg>
