<svg id="Capa_1" data-name="Capa 1" xmlns="http://www.w3.org/2000/svg" viewBox="0 0 1000 1000"><defs><style>.cls-1{fill:#fff;}</style></defs><path class="cls-1" d="M500,0C223.86,0,0,223.86,0,500s223.86,500,500,500,500-223.86,500-500S776.14,0,500,0ZM245.17,243.26H754.84a78.46,78.46,0,0,1,31.51,6.61,24.49,24.49,0,0,0-6.45,5.1L552.11,513.43a69.44,69.44,0,0,1-104.2,0l-231.81-263c-.36-.42-.8-.72-1.19-1.11A78.71,78.71,0,0,1,245.17,243.26ZM833.57,678a78.73,78.73,0,0,1-78.73,78.74H245.17A78.74,78.74,0,0,1,166.43,678V322a78.28,78.28,0,0,1,11.35-40.56c.42.55.75,1.15,1.22,1.69l231.81,263a118.92,118.92,0,0,0,178.39,0L817,287.67a24.69,24.69,0,0,0,4.45-7.5A78.31,78.31,0,0,1,833.57,322Z"/></svg>