<svg id="Capa_1" data-name="Capa 1" xmlns="http://www.w3.org/2000/svg" viewBox="0 0 1080 1080"><defs><style>.cls-1{fill:#1d1d1b;}.cls-2{fill:none;}</style></defs><path class="cls-1" d="M1049.57,199.13l-287.85-84.3a531.89,531.89,0,0,0-306.1,1.89l-.39.12-268.78,76-10.33-36.54L444.7,80.36a569.67,569.67,0,0,1,327.69-2l287.85,84.3Z"/><path class="cls-2" d="M842.55,897.69c-18.07.39-36.16.1-54.24.1s-36.17.25-54.24-.1c-10.9-.21-16.18,4.08-16,15.38q.42,33.24,0,66.49c-.13,11,4.55,16,15.68,15.92q54.24-.3,108.49,0c10.94.07,16-4.39,15.89-15.6q-.43-33.24,0-66.49C858.31,902.36,853.79,897.45,842.55,897.69Z"/><path class="cls-2" d="M842.5,662.58c-17.5.34-35,.09-52.51.09-18.67,0-37.34.22-56-.08-11-.18-16.14,4.38-15.93,15.57q.44,24.5,0,49c-.17,11,4.65,16,15.74,15.9q54.26-.27,108.52,0c11,.07,16-4.6,15.8-15.73q-.47-24.5,0-49C858.36,667.3,853.67,662.36,842.5,662.58Z"/><path class="cls-2" d="M840.79,781.35c-16.91.54-33.85.14-50.77.17-18.68,0-37.36.19-56-.07-11-.15-16.11,4.58-15.93,15.7.27,16.92.15,33.85.09,50.77,0,9.36,4.39,14,13.84,14,37.36,0,74.71-.11,112.06,0,10.79,0,14.16-5.74,14-15.5-.2-15.76-.44-31.53.11-47.27C858.63,786.56,853.68,780.94,840.79,781.35Z"/><path class="cls-2" d="M209.26,919.41c0-38.91-.85-39.45-40.63-36.37-10.09.78-15,4.63-14.84,14.92.21,13.41.05,26.83.05,40.25h-.1v21c0,38.39,0,38,38.94,36.43,11.79-.49,16.93-4.73,16.66-16.73C208.9,959.09,209.26,939.25,209.26,919.41Z"/><path class="cls-2" d="M842.54,427.53c-17.5.35-35,.09-52.52.09-18.68,0-37.36.22-56-.08-11-.18-16.14,4.38-15.94,15.58q.44,24.5,0,49c-.18,10.95,4.57,16,15.69,15.93q54.28-.29,108.56,0c11,.07,16-4.58,15.81-15.72q-.47-24.5,0-49C858.36,432.34,853.76,427.31,842.54,427.53Z"/><path class="cls-2" d="M735.92,627c16.91-.52,33.84-.13,50.76-.13,18.09,0,36.18-.3,54.26.1,11.42.26,17.58-3.56,17.22-16-.48-16.32-.36-32.67-.06-49,.21-11.26-5.11-15.61-16-15.55q-54.27.33-108.52,0c-11.21-.06-15.73,5.23-15.55,16.08.26,15.75.46,31.52-.09,47.26C717.5,622.86,723.5,627.41,735.92,627Z"/><path class="cls-2" d="M1043.78,253.09c-1-11-.17-22.19-.19-33.29,0-27.34,0-27.39-26.66-27.39q-199.87,0-399.76,0H268.27c-21,0-42.09.32-63.12-.06-12-.21-17.05,5-16.62,16.84.38,10.51,0,21,0,31.56,0,31.91,0,31.92,31.07,31.93q203.39,0,406.77,0c21.26,0,33,6.88,31.35,19.24-2.48,19.19-17.84,16.81-31.17,16.82q-178.83.09-357.66,0c-23.43,0-23.53.09-23.53,23.2q0,320,0,640c0,23.12.37,23.5,23.52,23.51q190.24.07,380.47,0c30.29,0,30.3,0,30.3-31.18q0-353.29,0-706.58c0-22.82,6.44-33.59,19.42-33.67,13.23-.08,18.78,9.58,18.86,33.74.13,38.57.4,77.15-.12,115.71-.18,13.6,4.92,18.7,18.55,18.47,35.05-.59,70.13-.46,105.19-.06,12,.13,16.77-4.74,16.57-16.66-.41-24.54-.13-49.09-.08-73.64,0-19.87-.1-39.74.33-59.6.24-10.86,5.91-17.83,17.3-17.93s17,6.64,17.71,17.55c.43,6.4.31,12.85.31,19.27q0,350.67,0,701.32c0,5.85.28,11.7,0,17.54-.48,11.14,4.7,15.94,15.77,15.73,15.78-.29,31.56,0,47.34,0,27.2,0,27.25-.05,27.25-27q0-308.58,0-617.16c0-41.6,0-41.7-41.14-42.52-12.57-.25-24.77-1.65-24.91-17.64-.15-15.83,12-18.28,24.53-18.39,26.88-.23,53.78-.73,80.64.12C1038.13,273.37,1045.17,268.92,1043.78,253.09ZM466.69,798.24c-70,1.21-116.33-59.22-113.94-113.12,1.28-47.32,21.13-88,46.75-126.16,13.29-19.8,26.91-39.68,44.81-55.89,15.2-13.76,24.12-15.1,37.61-.73C527.72,551.11,565.2,605,574,673.6,582,736.22,530.58,797.14,466.69,798.24Zm367.24-506c-.79,10.32-7.31,15.65-17.26,16.15s-19.76.11-29.64.11v-.15c-9.88,0-19.81.61-29.63-.17-9.66-.77-16.86-5.92-16.7-16.54.15-9.89,6-17.47,15.77-17.91a606.32,606.32,0,0,1,62.66.26C828.74,274.54,834.73,281.81,833.93,292.24Z"/><path class="cls-2" d="M193.67,844.76c17.58.47,15.58-11.8,15.56-22.87s2.11-23.29-15.49-23c-22.19.39-44.39-.18-66.58.11-34.36.45-56.58,22.56-57.44,57.35-.47,19.26-.08,38.54-.08,57.82h-.07q0,25.41,0,50.82c0,30.41,0,30.41,23.8,30.46,24.58,0,24.59,0,24.6-29.54,0-30.37-.1-60.75,0-91.12.12-24.23,5.37-29.47,30.09-30C163.3,844.52,178.5,844.35,193.67,844.76Z"/><path class="cls-2" d="M312.07,153.7q151.5.36,303,.14H842.75c27.44,0,54.88-.23,82.32.06a34.71,34.71,0,0,0,6.17-.41H295.5C300.41,154.82,306.71,153.69,312.07,153.7Z"/><path class="cls-2" d="M472.78,546.11c-6.14-8.12-11.52-8.33-17.92-.22-25.79,32.71-48.93,66.86-60.95,107.39C377.09,710,410.08,760.54,464,760.38c45.49-.14,80-42.41,72.77-87.58C528.83,623.6,501.8,584.46,472.78,546.11Z"/><path class="cls-1" d="M1040.07,308.41c26.39.19,38.77-12.34,39.42-38.4q.94-37.66,0-75.37c-.69-25.43-15.23-39.5-41-40.6a381.51,381.51,0,0,0-40.3,0,32.43,32.43,0,0,1-9.14-.53H931.24a34.71,34.71,0,0,1-6.17.41c-27.44-.29-54.88-.06-82.32-.06H615.07q-151.5,0-303-.14c-5.36,0-11.66,1.12-16.57-.21H240.75a28.22,28.22,0,0,1-5.48.37c-14.61-.26-29.24-.4-43.82.16-25.95,1-40.36,14.82-41.15,40.39-.76,24.52-.8,49.1,0,73.61.95,28.62,12.48,40,41.19,40.52,12.36.23,17.95,3.75,17.92,17q-.43,208.6,0,417.21c0,14.18-6.1,18.32-19.09,17.92-18.68-.57-37.41-.49-56.09,0-63.81,1.65-100.32,39.24-100.41,103,0,35.65-.29,71.29.13,106.93.16,13.8.43,25.61-18.57,26.62-9.47.51-15.53,8.54-15.42,18.47.12,10.46,7.68,15.49,17,17,7.43,1.23,15.12,1.19,22.7,1.2q248.91.07,497.84,0,250.68,0,501.36-.06c8.14,0,16.43-.14,24.39-1.62,8.64-1.6,15.31-7,15.35-16.55,0-9.94-5.9-16.66-15.42-18.67a81.4,81.4,0,0,0-22.62-1.48c-15,1.12-20.6-4.55-20.57-20q.54-323.43,0-646.85C1019.94,313.57,1024.68,308.3,1040.07,308.41ZM118,874.82c-.15,30.37,0,60.75,0,91.12,0,29.59,0,29.59-24.6,29.54-23.79-.05-23.79-.05-23.8-30.46q0-25.41,0-50.82h.07c0-19.28-.39-38.56.08-57.82.86-34.79,23.08-56.9,57.44-57.35,22.19-.29,44.39.28,66.58-.11,17.6-.32,15.47,11.93,15.49,23s2,23.34-15.56,22.87c-15.17-.41-30.37-.24-45.55.08C123.4,845.35,118.15,850.59,118,874.82Zm74.65,120.82c-39,1.62-38.94,2-38.94-36.43v-21h.1c0-13.42.16-26.84-.05-40.25-.16-10.29,4.75-14.14,14.84-14.92,39.78-3.08,40.64-2.54,40.63,36.37,0,19.84-.36,39.68.08,59.5C209.61,990.91,204.47,995.15,192.68,995.64ZM718.05,562.55c-.18-10.85,4.34-16.14,15.55-16.08q54.26.27,108.52,0c10.87-.06,16.19,4.29,16,15.55-.3,16.33-.42,32.68.06,49,.36,12.46-5.8,16.28-17.22,16-18.08-.4-36.17-.1-54.26-.1-16.92,0-33.85-.39-50.76.13-12.42.38-18.42-4.17-18-17.22C718.51,594.07,718.31,578.3,718.05,562.55Zm140.06-70.17c.21,11.14-4.79,15.79-15.81,15.72q-54.28-.35-108.56,0c-11.12.06-15.87-5-15.69-15.93q.41-24.51,0-49c-.2-11.2,5-15.76,15.94-15.58,18.67.3,37.35.08,56,.08,17.5,0,35,.26,52.52-.09,11.22-.22,15.82,4.81,15.59,15.83Q857.61,467.87,858.11,492.38Zm0,235c.21,11.13-4.78,15.8-15.8,15.73q-54.27-.32-108.52,0c-11.09.06-15.91-4.92-15.74-15.9q.41-24.49,0-49c-.21-11.19,5-15.75,15.93-15.57,18.67.3,37.34.08,56,.08,17.5,0,35,.25,52.51-.09,11.17-.22,15.86,4.72,15.63,15.78Q857.61,702.86,858.11,727.36Zm0,252.54c.15,11.21-5,15.67-15.89,15.6q-54.24-.35-108.49,0c-11.13.06-15.81-5-15.68-15.92q.36-33.24,0-66.49c-.15-11.3,5.13-15.59,16-15.38,18.07.35,36.16.1,54.24.1s36.17.29,54.24-.1c11.24-.24,15.76,4.67,15.59,15.72Q857.65,946.65,858.11,979.9Zm.09-180.75c-.55,15.74-.31,31.51-.11,47.27.12,9.76-3.25,15.54-14,15.5-37.35-.15-74.7-.09-112.06,0-9.45,0-13.87-4.6-13.84-14,.06-16.92.18-33.85-.09-50.77-.18-11.12,5-15.85,15.93-15.7,18.67.26,37.35.07,56,.07,16.92,0,33.86.37,50.77-.17C853.68,780.94,858.63,786.56,858.2,799.15Zm84.43-526.36c-12.49.11-24.68,2.56-24.53,18.39.14,16,12.34,17.39,24.91,17.64,41.15.82,41.14.92,41.14,42.52q0,308.58,0,617.16c0,26.93,0,27-27.25,27-15.78,0-31.56-.28-47.34,0-11.07.21-16.25-4.59-15.77-15.73.26-5.84,0-11.69,0-17.54q0-350.65,0-701.32c0-6.42.12-12.87-.31-19.27-.72-10.91-6.35-17.66-17.71-17.55s-17.06,7.07-17.3,17.93c-.43,19.86-.29,39.73-.33,59.6-.05,24.55-.33,49.1.08,73.64.2,11.92-4.52,16.79-16.57,16.66-35.06-.4-70.14-.53-105.19.06-13.63.23-18.73-4.87-18.55-18.47.52-38.56.25-77.14.12-115.71-.08-24.16-5.63-33.82-18.86-33.74-13,.08-19.41,10.85-19.42,33.67q-.08,353.29,0,706.58c0,31.16,0,31.18-30.3,31.18q-190.23,0-380.47,0c-23.15,0-23.51-.39-23.52-23.51q0-320,0-640c0-23.11.1-23.19,23.53-23.2q178.83,0,357.66,0c13.33,0,28.69,2.37,31.17-16.82,1.6-12.36-10.09-19.23-31.35-19.24q-203.38-.06-406.77,0c-31.06,0-31.06,0-31.07-31.93,0-10.52.35-21.05,0-31.56-.43-11.82,4.62-17.05,16.62-16.84,21,.38,42.08.06,63.12.06h348.9q199.88,0,399.76,0c26.63,0,26.63.05,26.66,27.39,0,11.1-.79,22.28.19,33.29,1.39,15.83-5.65,20.28-20.51,19.82C996.41,272.06,969.51,272.56,942.63,272.79Z"/><path class="cls-1" d="M481.92,502.34c-13.49-14.37-22.41-13-37.61.73-17.9,16.21-31.52,36.09-44.81,55.89C373.88,597.12,354,637.8,352.75,685.12c-2.39,53.9,43.9,114.33,113.94,113.12,63.89-1.1,115.29-62,107.28-124.64C565.2,605,527.72,551.11,481.92,502.34ZM464,760.38c-53.89.16-86.88-50.36-70.06-107.1,12-40.53,35.16-74.68,60.95-107.39,6.4-8.11,11.78-7.9,17.92.22,29,38.35,56.05,77.49,64,126.69C544,718,509.46,760.24,464,760.38Z"/><path class="cls-1" d="M819.13,274a606.32,606.32,0,0,0-62.66-.26c-9.73.44-15.62,8-15.77,17.91-.16,10.62,7,15.77,16.7,16.54,9.82.78,19.75.17,29.63.17v.15c9.88,0,19.78.4,29.64-.11s16.47-5.83,17.26-16.15S828.74,274.54,819.13,274Z"/></svg>