<svg id="Capa_1" data-name="Capa 1" xmlns="http://www.w3.org/2000/svg" viewBox="0 0 1000 1000"><defs><style>.cls-1{fill:#fff;}</style></defs><path class="cls-1" d="M522.72,255.75c-128.43,0-232.91,104.48-232.91,232.91a232.3,232.3,0,0,0,34.06,120.76l6,9.92-23.27,86.83L394,682.77l9.85,5.88a232.56,232.56,0,0,0,118.9,32.92c128.42,0,232.91-104.48,232.91-232.91S651.14,255.75,522.72,255.75ZM659.53,576.62c-8.67,21-30.19,34.56-52,38.7-20.86,4-38.06-2.68-57.37-9.06-17.23-5.69-33.86-14-49.3-23.44-30.89-18.93-57.58-44.25-79-73.39a318.13,318.13,0,0,1-18.22-27.72c-7.41-12.66-14-26-17.45-40.22a81.18,81.18,0,0,1-2.26-18.2c-.25-21.61,8-43.42,25.09-57.34,9.9-8.06,24.54-11.58,35.65-5.3,12.09,6.83,18.36,24,24,36.12,4.39,9.43,9.36,21.84,7.56,32.44s-10.21,19.56-16.9,27.42c-4.51,5.32-5.18,9.84-1.44,15.58,22.13,36.88,52.87,63.66,93,79.63,5.46,2.2,9.7,1.51,13.25-2.87,6.92-8.54,13.75-25.27,24.43-29.64,13.92-5.7,29.3,2.2,41.12,9.27,11,6.58,29.42,14.67,32.39,28.27C663.38,563.45,662.09,570.39,659.53,576.62Z" transform="translate(0 0)"/><path class="cls-1" d="M500,0C223.85,0,0,223.86,0,500s223.85,500,500,500,500-223.86,500-500S776.14,0,500,0Zm22.72,775.86a286.49,286.49,0,0,1-136.52-34.8L229.85,783l41.7-155.55a286.15,286.15,0,0,1-36-138.74c0-158.36,128.84-287.2,287.2-287.2s287.2,128.84,287.2,287.2S681.08,775.86,522.72,775.86Z" transform="translate(0 0)"/></svg>