<?xml version="1.0" encoding="UTF-8"?>
<svg id="Capa_1" data-name="Capa 1" xmlns="http://www.w3.org/2000/svg" viewBox="0 0 24 24">
  <defs>
    <style>
      .cls-1 {
        fill: #182660;
      }
    </style>
  </defs>
  <path class="cls-1" d="M4.79,12.39c-.22,0-.4.18-.4.4s.18.4.4.4.4-.18.4-.4-.18-.4-.4-.4Z"/>
  <path class="cls-1" d="M6.4,11.85c-.22,0-.4.18-.4.4s.18.4.4.4.4-.18.4-.4-.18-.4-.4-.4Z"/>
  <path class="cls-1" d="M7.97,12.39c-.22,0-.4.18-.4.4s.18.4.4.4.4-.18.4-.4-.18-.4-.4-.4Z"/>
  <path class="cls-1" d="M9.57,11.85c-.22,0-.4.18-.4.4s.18.4.4.4.4-.18.4-.4-.18-.4-.4-.4Z"/>
  <path class="cls-1" d="M11.14,12.39c-.22,0-.4.18-.4.4s.18.4.4.4.4-.18.4-.4-.18-.4-.4-.4Z"/>
  <path class="cls-1" d="M12.75,11.85c-.22,0-.4.18-.4.4s.18.4.4.4.4-.18.4-.4-.18-.4-.4-.4Z"/>
  <path class="cls-1" d="M14.32,12.39c-.22,0-.4.18-.4.4s.18.4.4.4.4-.18.4-.4-.18-.4-.4-.4Z"/>
  <path class="cls-1" d="M15.93,11.85c-.22,0-.4.18-.4.4s.18.4.4.4.4-.18.4-.4-.18-.4-.4-.4Z"/>
  <path class="cls-1" d="M17.5,12.39c-.22,0-.4.18-.4.4s.18.4.4.4.4-.18.4-.4-.18-.4-.4-.4Z"/>
  <path class="cls-1" d="M18.7,12.25c0,.22.18.4.4.4s.4-.18.4-.4-.18-.4-.4-.4-.4.18-.4.4Z"/>
  <path class="cls-1" d="M21.21,11.51h0s0-.06-.04-.13c0,0,0,0,0,0-.03-.05-.09-.13-.2-.26-.08-.1-.21-.25-.25-.29l-4.94-5.28-.68-.72c-.11-.13-.31-.16-.45-.06l-.65.46-1.93-3.03s-.04-.06-.07-.09c-.14-.12-.35-.1-.47.04l-1.07,1.26-.57-.17c-.14-.05-.29,0-.38.12l-1.55,2.12-1.05.16c-.09.01-.18.06-.23.14l-3.81,5.34s-.03.07-.04.11c-.05.07-.08.14-.08.23v2.07s0,0,0,0v2.46s0,0,0,0v5.58h.02c.06.23.26.4.51.4h14.64c.17,0,.3-.13.3-.3s-.13-.3-.3-.3H3.35v-.35l17.3-1.04v1.39h-1.65c-.17,0-.3.13-.3.3s.13.3.3.3h1.72c.29,0,.53-.24.53-.53v-9.81s-.03-.08-.04-.12ZM20.65,13.61c-.14-.03-.25-.08-.37-.14-.21-.11-.47-.25-.96-.25s-.74.14-.96.25c-.19.1-.34.18-.67.18s-.48-.08-.67-.18c-.21-.11-.47-.25-.96-.25s-.74.14-.96.25c-.19.1-.34.18-.67.18s-.48-.08-.67-.18c-.21-.11-.47-.25-.96-.25s-.74.14-.96.25c-.19.1-.34.18-.67.18s-.48-.08-.67-.18c-.21-.11-.47-.25-.96-.25-.4,0-.64.09-.83.19-.07.04-.13.1-.15.17-.03.08-.02.16.02.23.07.15.26.21.4.13.16-.08.3-.13.56-.13.33,0,.48.08.67.18.21.11.47.25.96.25s.74-.14.96-.25c.19-.1.34-.18.67-.18s.48.08.67.18c.21.11.47.25.96.25s.74-.14.96-.25c.19-.1.34-.18.67-.18s.48.08.67.18c.21.11.47.25.96.25s.75-.14.96-.25c.19-.1.34-.18.67-.18s.48.08.67.18c.16.09.36.19.66.23v1.44l-1.22-.33c-.07-.02-.14-.02-.21,0l-1.52.41-1.52-.41c-.07-.02-.14-.02-.21,0l-1.52.41-1.52-.41c-.07-.02-.14-.02-.21,0l-1.52.41-1.52-.41c-.07-.02-.14-.02-.21,0l-1.52.41-1.52-.41c-.07-.02-.14-.02-.21,0l-1.54.41-1.31-.18v-1.74c.14.03.25.09.37.15.21.11.47.25.96.25s.74-.14.96-.25c.19-.1.34-.18.67-.18s.48.08.67.18c.21.11.47.25.96.25.17,0,.3-.13.3-.3s-.13-.3-.3-.3c-.33,0-.48-.08-.67-.18-.21-.11-.47-.25-.96-.25s-.74.14-.96.25c-.19.1-.34.18-.67.18s-.48-.08-.67-.18c-.16-.09-.36-.19-.66-.23v-1.57l1.26.17c.05,0,.11,0,.16-.01l1.53-.41,1.52.41c.07.02.14.02.21,0l1.52-.41,1.52.41c.07.02.14.02.21,0l1.52-.41,1.52.41c.07.02.14.02.21,0l1.52-.41,1.52.41c.07.02.14.02.21,0l1.52-.41,1.33.36v1.84ZM3.35,16.2l1.26.17c.05,0,.11,0,.16-.01l1.53-.41,1.52.41c.07.02.14.02.21,0l1.52-.41,1.52.41c.07.02.14.02.21,0l1.52-.41,1.52.41c.07.02.14.02.21,0l1.52-.41,1.52.41c.07.02.14.02.21,0l1.52-.41,1.33.36v1.84c-.14-.03-.25-.08-.37-.14-.21-.11-.47-.25-.96-.25s-.74.14-.96.25c-.19.1-.34.18-.67.18s-.48-.08-.67-.18c-.21-.11-.47-.25-.96-.25s-.75.14-.96.25c-.19.1-.34.18-.67.18s-.48-.08-.67-.18c-.21-.11-.47-.25-.96-.25s-.74.14-.96.25c-.19.1-.34.18-.67.18s-.48-.08-.67-.18c-.21-.11-.47-.25-.96-.25s-.74.14-.96.25c-.19.1-.34.18-.67.18s-.48-.08-.67-.18c-.21-.11-.47-.25-.96-.25s-.74.14-.96.25c-.19.1-.34.18-.67.18s-.48-.08-.67-.18c-.16-.09-.36-.19-.66-.23v-1.57ZM7.14,6.28l1.06-.17c.09-.01.17-.06.22-.13l.14-.2-.3.93-1.11.31-1.11.8,1.1-1.55ZM7.44,7.64l1.34-.38,1.03-3.19.1-.13.56.17c.13.04.27,0,.35-.1l.92-1.08c.08.13.17.26.25.39.8,1.26,1.56,2.44,2.39,3.66l-1.06.63-.9,2.09c-.04.08-.04.17,0,.26.03.08.1.15.18.18.17.07.37,0,.44-.17l.82-1.89.91-.54.61.89c.1.15.31.19.46.09.07-.05.12-.13.14-.21.02-.09,0-.18-.05-.25l-1.55-2.26.43-.3,5.14,5.48-.51-.14c-.07-.02-.14-.02-.21,0l-1.52.41-1.52-.41c-.07-.02-.14-.02-.21,0l-1.52.41-1.52-.41c-.07-.02-.14-.02-.21,0l-1.52.41-1.52-.41c-.07-.02-.14-.02-.21,0l-1.52.41-1.52-.41c-.07-.02-.14-.02-.21,0l-1.54.41-.97-.13,1.15-1.61,2.6-1.86ZM3.35,20.41v-2.04c.14.03.25.09.37.15.21.11.47.25.96.25s.74-.14.96-.25c.19-.1.34-.18.67-.18s.48.08.67.18c.21.11.47.25.96.25s.74-.14.96-.25c.19-.1.34-.18.67-.18s.48.08.67.18c.21.11.47.25.96.25s.74-.14.96-.25c.19-.1.34-.18.67-.18s.48.08.67.18c.21.11.47.25.96.25s.74-.14.96-.25c.19-.1.34-.18.67-.18s.48.08.67.18c.21.11.47.25.96.25s.75-.14.96-.25c.19-.1.34-.18.67-.18s.48.08.67.18c.16.09.36.19.66.23v.61l-17.3,1.04Z"/>
</svg>