<svg id="Capa_1" data-name="Capa 1" xmlns="http://www.w3.org/2000/svg" viewBox="0 0 1080 1080"><defs><style>.cls-1{fill:#182660;}</style></defs><path class="cls-1" d="M1079.9,902l-29.37-241.21a12.93,12.93,0,0,0-6.51-9.72,12.77,12.77,0,0,0-7.9-2.75H829.27c.72-5.3,1.52-10.68,2.44-16.18,1.53-6.9,26.41-118.47,43.19-156.68,4.54-10.34.92-17-1.65-20-7.48-8.84-19.86-5.58-23.93-4.5-25.64,6.76-76.71,38.57-118.8,74-36.7,30.88-81.73,76.47-95.69,123.39H523.41c-26.41-42-49.74-73.21-51.48-75.53a11.13,11.13,0,0,0-1.19-1.37l-73.43-73.58a13,13,0,0,0,2.15-7.18c0-134.93-45-233.2-75.2-266.33-13.63-15-35.83-21.33-66-19A197.72,197.72,0,0,0,224,211.34L70.74,153.4A33.35,33.35,0,0,0,44,154.57c-14,6.63-25.59,22.61-33.61,46.21C3.51,221.12,0,244.39,0,269.93c0,78.86,17.52,104.71,22.54,110.49L161.75,564.81c.83,14.39,4.06,30.49,9.31,47.21a12.06,12.06,0,0,0,.7,2.18,312.33,312.33,0,0,0,27.88,61.46A290.29,290.29,0,0,0,225.57,713a44.27,44.27,0,0,0,9.61,10.93c14.43,15.35,29.3,26.5,43.48,32.26,10.14,4.12,20.27,4.82,29.79,2.12L261.68,912.09a13,13,0,0,0,2,11.5A12.86,12.86,0,0,0,274,928.84H746.18a12.92,12.92,0,0,0,12.88-13V848.11l103.47,65.27a12.83,12.83,0,0,0,8.46,3.2h196.14a12.83,12.83,0,0,0,9.64-4.38A13,13,0,0,0,1079.9,902ZM560.49,819.8,503.9,718.26a12.83,12.83,0,0,0-17.53-5,13,13,0,0,0-4.92,17.64L525,809.05c-12.08-.39-30.87-2.37-46.54-10a471.09,471.09,0,0,1-4.34-51.55,13.13,13.13,0,0,0-.1-6.9c-.25-62.64,17.61-81.69,22.76-85.87,22.42,35.05,48,79,63.93,118.86A13.2,13.2,0,0,0,562,776c5.55,8.14,26.61,38.67,46.08,61.48H590.79ZM449.21,716.07l-11.73-10.29c-.22-.19-.44-.35-.67-.52.38-9.4,1.08-18.14,2-26.27l13.2,14.7C450.8,700.43,449.85,707.87,449.21,716.07Zm-9.43,60c-1.5-12.87-2.44-25-2.91-36.46l11.61,10.17c.29,10.94,1.08,22.86,2.44,35.84A79.08,79.08,0,0,1,439.78,776.08ZM482.58,633c-5.8,4.11-14.95,13-22.35,31.24l-16-17.86c1.2-5.39,2.47-10.32,3.74-14.76a203.09,203.09,0,0,1,11.8-31.66C465.33,607.74,473.33,619.15,482.58,633Zm-41-54.13c-11.46,20.24-34.2,72.27-30.52,161.42-14.35-20.83-30.22-47.55-47.43-79.89a12.85,12.85,0,0,0-24,3.69c-.51,2.7-1.37,6.44-2.55,10.79.41-2,.8-4.06,1.16-6.18,3.62-21.42,2-36.61-4.82-46.42-2.48-3.56-6-13.53-7.53-29.91-1.33-13.8-.52-23.92.29-27.06,9.38-13.72,22.64-66.62,22.64-78.67,0-.22,0-.45,0-.67ZM373.48,474l-17-17A12.81,12.81,0,0,0,340,455.61c-1.72,1.23-16.84,12.58-16.84,31,0,9.22-12.9,55.45-17.65,63.38-.15.19-.29.41-.44.61a367.15,367.15,0,0,1,12.32-64.48c15.92-55.49,29.85-58,31.39-58.07,7.35-.48,18.27,14.8,23.83,26.61Q373.18,464.18,373.48,474ZM312.42,637.16c2.49,3.56,2.54,12.73,1.09,23.31a201.22,201.22,0,0,1-8-37.55c0-.31-.07-.63-.1-.94A55.65,55.65,0,0,0,312.42,637.16ZM42.7,364.3a4.93,4.93,0,0,0-.8-1c-1.63-2.24-16.16-24.16-16.16-93.38,0-22.68,3-43.12,9-60.76,5.47-16.09,13-27.74,20.24-31.16a7.93,7.93,0,0,1,6.67-.35L218.87,237.1a13.69,13.69,0,0,0,2.17.6c-8.58,16.09-19.35,39.81-29.19,71.66-11.67,37.79-19.68,79.45-23.79,123.84a806.84,806.84,0,0,0-3,93.18Zm153.54,242c-14.87-135.49,2.47-231.12,19.67-287.56,14.72-48.28,31.82-76.81,38.5-86.86,18.65-2.15,40.5-1.36,50.9,10a118.62,118.62,0,0,1,11.5,15.3,48.49,48.49,0,0,0-22.72.72c-38.65,10.65-64.88,67.46-80.17,173.68-11.22,78-15,142.31-11.27,192.1C200.28,617.89,198.13,612.07,196.24,606.29ZM288.3,732.16c-13.55-5.51-28-17.92-41.64-34.23-10.38-16.58-34-76.9-7.26-262.61,7.6-52.79,18-92.92,31-119.25,9.23-18.7,19.73-30.15,30.35-33.11,17-4.74,33.64,12.31,37.71,16.85,11.77,28.53,22.62,65.17,29.08,108.06-6.58-4.21-13.41-6.14-20.45-5.69-22.58,1.44-39.9,25.82-54.51,76.75C278.69,527.51,274.2,579.79,280,626.15c2.61,20.88,11.47,71,37.44,84.76a29.81,29.81,0,0,0,4.73,2c-4.74,8.29-10.33,15.27-16.73,18.78C300.14,734.62,294.7,734.76,288.3,732.16Zm445,105v65.78H291.39L338.52,748a13,13,0,0,0-1.5-10.82c8.51-11.1,14.75-24.65,19.16-36.8,26.79,47.34,50.24,80.37,69.89,98.38,12.23,11.2,21.52,15,28.13,15.78,1.88,1.37,3.81,2.64,5.79,3.83l.17.1c27.48,16.53,62.94,17,75.05,16.55l9.34,5.46.06,0,36.26,21.2a12.86,12.86,0,0,0,6.46,1.75h52.22a13,13,0,0,0,6.8-24C634,831.7,601.93,788.67,584,762.53c-11.82-29.31-28.21-60.15-44.81-88.25h93C634.08,724,647.78,777.92,676,795.73l58.18,36.7A13.19,13.19,0,0,0,733.31,837.14Zm-43.63-63.37c-15.56-9.82-32-52-31.93-111.13,7.36-35,42.77-80.28,97.41-124.49,37.35-30.22,71.61-50.16,90.46-58.4C828.18,528.86,807.47,622.5,806.5,626.9c0,.22-.09.44-.13.66-7.63,45.88-9.57,89.27-5.77,129,3.07,32.05,9.86,61.8,20.2,88.43,2.18,5.62,4.43,10.86,6.7,15.74ZM876.5,890.66c-6.25-7.12-20.49-25.51-32.4-56.89-12.34-32.51-24.24-85-17.74-159.49h199.87l26.35,216.38Z" transform="translate(0 0)"/></svg>
