<svg id="Capa_1" data-name="Capa 1" xmlns="http://www.w3.org/2000/svg" viewBox="0 0 1080 1080"><defs><style>.cls-1{fill:#182660;}</style></defs><path class="cls-1" d="M1057.81,665.21a20.07,20.07,0,1,0,0-40.14H701.23V539.44h356.58a20.07,20.07,0,1,0,0-40.14H701.23V494a54.18,54.18,0,0,0-64.69-53.16c71.81-68.45,57.57-184.18,56.91-189.17a20.06,20.06,0,0,0-19.9-17.45H587.62c-2.31-24.16-4.46-86.4,32.6-98.7,53.48-17.75,102.71,19,166.41,72.75,68,57.42,112.22,54.12,151.24,51.21,5.22-.39,10.15-.76,15.19-1a20.07,20.07,0,1,0-1.9-40.09c-5.58.26-11,.67-16.28,1.06-35.9,2.68-66.9,5-122.35-41.84C741.15,117.28,680.74,73.1,607.58,97.37c-62.91,20.87-63.34,101.57-60.35,136.8H524.94c-2-27.83-2.49-106.34,49.82-145.62C606,65.09,634.86,56.72,665.62,62.2c28.6,5.1,60.39,21.86,103.07,54.34,14.68,11.17,25.94,20.41,35.89,28.57,44.46,36.47,58.17,45.23,142.6,49.1a20.07,20.07,0,0,0,1.84-40.1c-74.33-3.41-80.28-8.29-119-40-9.7-8-21.77-17.86-37-29.48C745,48.05,707.86,29,672.66,22.69c-41.9-7.47-81.81,3.57-122,33.76-66.43,49.88-68.26,140.89-66,177.72H419.15a20.06,20.06,0,0,0-19.89,17.38c-14.12,104.52,31,170.3,44.69,187.54h-.29a54.25,54.25,0,0,0-54.19,54.19v6H22.19a20.07,20.07,0,1,0,0,40.14H389.47v85.63H22.19a20.07,20.07,0,1,0,0,40.14H389.47V793.66H22.19a20.07,20.07,0,1,0,0,40.14H389.47v79H22.19a20.07,20.07,0,1,0,0,40.14H389.47v2A54.17,54.17,0,0,0,453,1008.26v51.67A20.07,20.07,0,0,0,473.1,1080H612.25a20.07,20.07,0,0,0,20.07-20.07v-52.22a54.18,54.18,0,0,0,68.91-52.15v-2.67h356.58a20.07,20.07,0,1,0,0-40.14H701.23v-79h356.58a20.07,20.07,0,1,0,0-40.14H701.23V665.21ZM437.27,274.31H654.72c.54,24.07-1.79,68.7-22.4,106.45V316a20.06,20.06,0,0,0-20.07-20.07H473.1A20.06,20.06,0,0,0,453,316v59.12C443,351.17,434.38,317.22,437.27,274.31Zm6.39,694.63a14.07,14.07,0,0,1-14.05-14.05V493.28A14,14,0,0,1,453,482.84v482.5A14,14,0,0,1,443.66,968.94Zm148.52,70.92h-99v-63a53.89,53.89,0,0,0,4.68-22V493.28a53.89,53.89,0,0,0-4.68-22V336.06h99Zm68.91-84.3a14.05,14.05,0,0,1-28.1,0V494a14,14,0,0,1,28.1,0Z"/><path class="cls-1" d="M207,471.69a20.07,20.07,0,0,0,24.78-31.58c-.52-.41-51.73-41.46-57.69-96.69-3.06-28.44,6.6-56.54,28.74-83.52C245.42,208,272.05,156.44,282,106.58c7.49-37.54,4.49-73.49-8-96.19a20.07,20.07,0,0,0-35.16,19.37c5.95,10.8,10.52,35.34,3.82,69-5.94,29.78-23,77.51-70.81,135.71-29.3,35.72-41.94,73.94-37.57,113.61C142.2,420.2,204.39,469.62,207,471.69Z"/><path class="cls-1" d="M271.83,276.05c-21.66,26.39-31,54.75-27.73,84.29,5.86,53.17,51.47,89.42,53.41,90.94a20.07,20.07,0,1,0,24.79-31.57c-.35-.27-34.45-27.73-38.32-64-2-18.58,4.19-36.31,18.88-54.21,71.26-86.86,65.33-155.29,50.59-182a20.07,20.07,0,1,0-35.15,19.38C325.19,151.35,331.44,203.39,271.83,276.05Z"/></svg>
