<?xml version="1.0" encoding="UTF-8"?>
<svg id="Capa_1" data-name="Capa 1" xmlns="http://www.w3.org/2000/svg" viewBox="0 0 24 24">
  <defs>
    <style>
      .cls-1 {
        fill: #ffffff;
      }
    </style>
  </defs>
  <path class="cls-1" d="M8.47,5.61h-2.76c0,.36-.01.71,0,1.06.01.19.17.3.35.3.2,0,.33-.11.37-.31.02-.09,0-.19.02-.29.02-.21.15-.33.35-.33s.33.11.37.31c.12.62-.29,1.22-.91,1.33-.04,0-.07.01-.11.02-.61.06-1.15-.45-1.17-1.11,0-.32,0-.64,0-.97h-1.01v14.89h11.33v-.28c0-.75,0-1.51,0-2.26,0-.08,0-.16,0-.24.03-.22.16-.34.37-.34.21,0,.34.12.35.35.01.34,0,.67,0,1.01,0,.67,0,1.35,0,2.02,0,.37-.12.48-.47.48-3.95,0-7.9,0-11.85,0-.36,0-.47-.11-.47-.47,0-5.15,0-10.29,0-15.44,0-.35.12-.46.46-.47.42,0,.83,0,1.29,0,0-.19,0-.37,0-.55,0-.68.47-1.18,1.1-1.18s1.09.5,1.09,1.19c0,.17,0,.34,0,.55.31,0,.62-.03.92,0,.47.05.75-.11,1.05-.51,1-1.34,2.4-1.86,4.03-1.52,1.59.33,2.62,1.35,3.05,2.91.27.97.15,1.93-.31,2.83-.07.14-.05.21.05.31.22.22.43.45.64.67.38-.21.46-.2.74.08,1,1,2,1.99,2.99,3,.7.72.53,1.91-.33,2.4-.58.33-1.33.22-1.84-.29-.65-.64-1.29-1.28-1.92-1.93-.06-.06-.09-.15-.13-.23l-.11.08v1c0,.28,0,.56,0,.84,0,.25-.14.4-.35.41-.21,0-.37-.16-.37-.42,0-.78,0-1.56,0-2.34,0-.19-.02-.35-.18-.49-.22-.19-.15-.4,0-.58l-.8-.81c-1.52.75-3.02.72-4.39-.32-1.44-1.09-1.85-2.59-1.45-4.36ZM9.05,6.76c0,1.83,1.46,3.3,3.27,3.31,1.81,0,3.31-1.49,3.31-3.3,0-1.8-1.48-3.28-3.28-3.28-1.8,0-3.31,1.48-3.31,3.28h0ZM17.01,10.29l-1.13,1.14c.95.95,1.9,1.91,2.86,2.86.19.19.44.26.71.19.62-.17.81-.88.34-1.35-.73-.74-1.47-1.47-2.21-2.21-.2-.2-.39-.42-.58-.62ZM6.44,4.86c0-.23.02-.46,0-.68-.02-.2-.16-.31-.36-.31s-.34.12-.36.32c-.02.22,0,.44,0,.67h.73ZM14.99,9.82l.67.73.42-.42-.7-.71-.4.4Z"/>
  <path class="cls-1" d="M9.35,14.43c0,.31,0,.63,0,.94,0,1.04-.67,1.9-1.68,2.18-.15.04-.19.11-.18.25,0,.32,0,.64,0,.96,0,.34-.13.52-.37.51-.23,0-.35-.19-.36-.51,0-.33,0-.66,0-.99,0-.14-.04-.19-.18-.23-1.02-.28-1.68-1.11-1.68-2.16,0-.78,0-1.56.05-2.33s.37-1.47.8-2.11c.33-.48.66-.95,1-1.42.23-.33.49-.34.73-.01.34.48.69.96,1.02,1.46.55.81.84,1.71.84,2.69,0,.26,0,.51,0,.77ZM7.14,10.27c-.08.11-.15.19-.2.28-.32.49-.63.98-.94,1.48-.04.06-.05.19,0,.23.23.26.47.51.71.76l.07-.04v-.23c0-.26,0-.51,0-.77.01-.21.17-.35.37-.34.21.01.32.13.34.34,0,.09,0,.18,0,.26v2.51l.07.02c.22-.22.41-.48.65-.66.4-.3.48-.66.36-1.11-.01-.05-.02-.09-.03-.14-.18-1-.82-1.76-1.41-2.59ZM5.7,13c-.03.18-.06.28-.06.39,0,.71-.01,1.43,0,2.14,0,.14.04.29.1.42.19.45.51.76,1,.89.01-.06.02-.09.02-.12,0-.83,0-1.67,0-2.5,0-.06-.01-.14-.05-.18-.32-.33-.64-.66-1.01-1.03h0ZM7.5,16.81c.79-.1,1.32-1.1,1.09-2.07-.35.36-.7.71-1.04,1.06-.03.03-.05.06-.05.1,0,.3,0,.6,0,.91Z"/>
  <path class="cls-1" d="M12.07,19.2c-.53,0-1.06,0-1.59,0-.35,0-.46-.11-.46-.46,0-.47,0-.93,0-1.4,0-.3.13-.42.43-.43,1.08,0,2.17,0,3.25,0,.3,0,.42.13.43.43,0,.47,0,.95,0,1.42,0,.32-.11.43-.44.44-.54,0-1.07,0-1.61,0ZM10.75,18.45h2.63v-.81h-2.63v.81Z"/>
  <path class="cls-1" d="M12.21,12.09c.49,0,.98,0,1.47,0,.29,0,.44.13.44.36s-.15.36-.44.36c-.98,0-1.96,0-2.93,0-.29,0-.44-.13-.44-.36s.15-.36.44-.36c.49,0,.98,0,1.47,0Z"/>
  <path class="cls-1" d="M12.24,13.67c.48,0,.96,0,1.44,0,.29,0,.44.13.44.36s-.15.36-.44.36c-.98,0-1.96,0-2.93,0-.29,0-.44-.13-.44-.36s.15-.36.44-.36c.5,0,.99,0,1.49,0Z"/>
  <path class="cls-1" d="M11.45,15.25c.24,0,.48,0,.72,0,.25,0,.4.15.4.36s-.15.36-.39.36c-.5,0-.99,0-1.49,0-.25,0-.39-.15-.38-.37,0-.21.14-.34.38-.35.26,0,.51,0,.77,0Z"/>
  <path class="cls-1" d="M16.01,16.15c0,.2-.15.35-.34.35-.2,0-.37-.17-.37-.36,0-.2.16-.35.38-.34.21,0,.34.14.34.35Z"/>
  <path class="cls-1" d="M14.86,6.8c-.02,1.42-1.17,2.53-2.59,2.51-1.36-.02-2.48-1.18-2.46-2.55.01-1.42,1.16-2.53,2.59-2.51,1.38.02,2.49,1.16,2.47,2.55ZM14.13,6.77c0-1.01-.79-1.8-1.8-1.8-1,0-1.8.81-1.8,1.8,0,0,0,0,0,0,0,.99.82,1.81,1.81,1.81.99,0,1.8-.81,1.8-1.8,0,0,0,0,0,0h0Z"/>
</svg>
