<svg id="Capa_1" data-name="Capa 1" xmlns="http://www.w3.org/2000/svg" viewBox="0 0 1025.04 1080"><defs><style>.cls-1{fill:#FFFFFF;}</style></defs><path class="cls-1" d="M333.87,166.91H173c0,21-.8,41.49.32,61.86.62,11.31,9.75,17.46,20.43,17.61,11.42.17,19.5-6.39,21.56-18.21,1-5.49.27-11.24.9-16.81,1.36-12,8.73-19.07,20.28-19.46s19.2,6.55,21.36,18.31A66.62,66.62,0,0,1,198.3,289c-35.61,3.37-67.15-26.37-68.18-64.81-.5-18.65-.09-37.31-.09-56.89H70.8v869.42H732.15v-16.43q0-66.07,0-132.15a111.13,111.13,0,0,1,.42-14c1.62-12.78,9.49-19.86,21.35-19.69,12.11.18,19.72,7.12,20.19,20.47.7,19.66.36,39.36.37,59,0,39.36.12,78.72,0,118.09-.08,21.31-6.72,28-27.55,28q-345.82.06-691.66,0c-21.18,0-27.72-6.43-27.72-27.64q-.06-450.57,0-901.14c0-20.16,7-27,27-27.15,24.32-.11,48.64,0,75.48,0,0-11.33-.09-21.85,0-32.37.36-39.86,27.59-68.91,64.4-68.79S258,52.11,258.26,92.2c.08,9.82,0,19.64,0,31.82,18.31,0,36.08-1.6,53.45.37,27.45,3.12,43.7-6.18,61.22-29.63C431.56,16.3,512.86-14,608.47,6c92.85,19.39,152.74,78.78,178.23,170,15.82,56.59,8.89,112.49-18,165.13-4,7.9-3.06,12.14,2.91,17.93,13.07,12.69,25.39,26.16,37.61,38.88,22.14-12.5,26.74-11.93,43.16,4.49C910.66,460.67,969.31,518.62,1027,577.47c41.11,41.89,30.91,111.61-19.37,139.83-34.08,19.13-77.41,12.61-107.31-16.93q-56.52-55.8-112.18-112.45c-3.46-3.51-5-9-7.37-13.51l-6.32,4.43q0,29.24,0,58.46c0,16.4.24,32.81-.18,49.2-.38,14.8-8.22,23.62-20.25,23.92-12.33.3-21.6-9.22-21.73-24.29q-.57-68.18,0-136.36c.1-11.29-1.43-20.56-10.71-28.62-12.58-10.92-8.66-23.23.4-33.94l-46.9-47.1c-89,43.76-176.44,41.91-256.47-18.82C334.5,357.44,310.61,270,333.87,166.91Zm33.69,67c-.14,106.6,85.12,192.7,191.14,193,105.74.32,193.4-87,193.48-192.81C752.26,129.18,666,42.85,560.75,42.44S367.7,128.87,367.56,233.89ZM832.73,440.25l-65.85,66.47C822.1,562,877.77,618.17,934,673.76c11.15,11,25.68,15.17,41.56,10.82,36.08-9.89,47-51.58,20.07-78.92-42.7-43.35-86.08-86-129-129.18C854.85,464.6,843.74,452,832.73,440.25Zm-617.23-317c0-13.64,1-26.65-.3-39.43C214,72.21,205.57,65.44,194,65.52s-19.85,6.92-20.94,18.6c-1.2,12.78-.27,25.76-.27,39.15ZM714.38,412.76l39.27,42.54,24.8-24.23-40.62-41.68Z" transform="translate(-27.48)"/><path class="cls-1" d="M385.58,681.82c0,18.27.16,36.53,0,54.79-.57,60.61-39.1,111.08-97.79,127.07-8.75,2.38-11,6.33-10.8,14.53.43,18.72.22,37.46.13,56.19-.08,19.74-7.79,30.37-21.54,30-13.25-.34-20.71-10.81-20.8-29.51-.09-19.2-.33-38.4.13-57.59.19-8-2.54-11.27-10.39-13.4-59.81-16.2-97.9-64.73-98-126.35-.11-45.37-.08-90.86,3.09-136.06s21.34-86,46.82-123.3c19-27.82,38.68-55.19,58.19-82.67,13.69-19.27,28.88-19.57,42.34-.71C297,423,317.4,451.05,336.74,479.76c31.91,47.39,48.8,99.69,48.83,157.11Q385.59,659.34,385.58,681.82ZM256.18,439.23c-4.83,6.47-8.71,11-11.92,16.06-18.41,28.72-36.86,57.41-54.7,86.48-2.12,3.46-2.66,10.94-.43,13.51,13.31,15.33,27.65,29.76,41.64,44.49l4-2.36c0-4.55,0-9.11,0-13.66.11-15-.42-30,.57-45,.82-12.46,10-20.29,21.4-19.62,12.09.71,18.69,7.73,20,19.59a147.13,147.13,0,0,1,.46,15.44q0,66.06,0,132.12v14.49l3.95,1.39c12.59-13,23.79-27.92,38.09-38.69,23.12-17.43,28.25-38.76,21-65.06-.74-2.7-1.2-5.48-1.71-8.23C327.75,531.68,290.79,487.47,256.18,439.23Zm-83.7,159.24c-1.6,10.61-3.25,16.6-3.29,22.6-.31,41.62-.59,83.25-.11,124.87.1,8.18,2.46,16.81,5.71,24.41,11.15,26.09,29.74,44.1,58.49,51.74.66-3.42,1.32-5.22,1.32-7q.12-73,0-145.94c0-3.51-.77-8-3-10.35C213,639.33,194,620.28,172.48,598.47ZM277.27,820.92c45.88-5.59,76.8-64.36,63.49-120.77-20.72,21.09-40.65,41.3-60.43,61.64a10,10,0,0,0-2.93,6.1C277.17,785.51,277.27,803.13,277.27,820.92Z" transform="translate(-27.48)"/><path class="cls-1" d="M544.13,960.54c-30.91,0-61.82.18-92.73-.08-20.66-.17-26.93-6.61-27-26.94-.11-27.16-.17-54.33,0-81.49.13-17.28,7.47-24.78,24.94-24.83q94.83-.29,189.68,0c17.4,0,24.74,7.6,24.86,24.88q.29,41.45,0,82.89c-.11,18.55-6.52,25.23-25.62,25.48C606.89,960.84,575.51,960.55,544.13,960.54ZM467.2,916.83H620.61V869.41H467.2Z" transform="translate(-27.48)"/><path class="cls-1" d="M552.53,545c28.54,0,57.08-.1,85.61,0,16.73.08,25.66,7.56,25.68,21s-8.89,21.2-25.63,21.25q-85.62.25-171.23,0c-16.76,0-25.68-7.81-25.68-21.22s8.86-20.92,25.63-21C495.45,544.89,524,545,552.53,545Z" transform="translate(-27.48)"/><path class="cls-1" d="M554,637.36c28.07,0,56.14-.12,84.2,0,16.85.09,25.69,7.56,25.63,21s-9,21.14-25.7,21.19q-85.61.27-171.2,0c-16.76-.06-25.64-7.85-25.62-21.26s8.89-20.88,25.69-21C496,637.26,525,637.37,554,637.36Z" transform="translate(-27.48)"/><path class="cls-1" d="M508.1,729.67c14,0,28.07-.31,42.09.06,14.35.39,23.23,8.62,23.36,20.8s-8.9,21.05-22.94,21.24q-43.49.6-87,0c-14.4-.22-22.59-8.76-22.35-21.48.24-12.12,8.18-20,21.93-20.49C478.16,729.3,493.13,729.69,508.1,729.67Z" transform="translate(-27.48)"/><path class="cls-1" d="M774,782.29c-.11,11.61-8.8,20.65-19.9,20.72-11.43.07-21.75-10-21.63-21.08.13-11.78,9.55-20.43,21.93-20.12C766.56,762.1,774.15,770,774,782.29Z" transform="translate(-27.48)"/><path class="cls-1" d="M707,236.32c-1.24,83.14-68.13,147.74-151.42,146.25-79.16-1.42-144.49-69-143.75-148.67.77-82.81,67.72-147.76,151.1-146.57C643.6,88.47,708.23,155.32,707,236.32Zm-42.37-1.66c-.16-58.87-46.32-105-105.12-105A105.2,105.2,0,0,0,454.23,234.88c0,57.76,47.84,105.51,105.53,105.4A105.09,105.09,0,0,0,664.66,234.66Z" transform="translate(-27.48)"/></svg>
