<svg id="Capa_1" data-name="Capa 1" xmlns="http://www.w3.org/2000/svg" viewBox="0 0 1080 1080"><defs><style>.cls-1{fill:#ffffff;}</style></defs><path class="cls-1" d="M210,631.67c4.6-14.26,6.7-27,12.59-37.68,10.69-19.33,29-28.3,50.82-29.18,14.11-.57,28.27-.2,42.4-.13,37.54.19,62.42,23.32,65.23,60.58.14,1.78.35,3.55.62,6.38H416.4c30.13,0,60.26.22,90.39-.12,10.5-.11,16.45,4.75,22.68,12.93,17.42,22.84,21.54,47.06,12,73.94-.95,2.69-1.13,5.66-2.08,10.72,18.63-12.41,35.74-23.46,52.32-35.24,2.26-1.61,3-7.08,2.51-10.47-1.44-9.53-4.07-18.88-5.93-28.36-2.86-14.63,3.76-23.17,18.65-23.31,27.9-.27,55.8-.08,83.7-.11,2.17,0,4.35-.24,7.18-.41.23-3.39.36-6.27.62-9.12,3.13-33.23,28.2-56.67,61.57-57.37,11.53-.24,23.06-.05,34.59-.05,46.33,0,67.74,19.46,71.87,67,4.47,0,9.16.37,13.78-.06,51.6-4.75,91.27,17.19,86.28,86.44-2,27.39-.23,55.05-.36,82.58-.18,39.49-26.24,65.32-66,65.53-11.07.06-22.13,0-33.77,0-.3,3.63-.59,6.13-.71,8.64-1.68,34.21-26.29,57.92-60.72,58.3-14.5.17-29,.11-43.52,0-36.17-.21-60.81-23.57-63.19-59.79-.12-1.84-.29-3.68-.49-6.33H382.31c-1.45,7.86-2.21,16-4.51,23.64-7.69,25.67-29.59,42-56.48,42.43-15.62.26-31.25.19-46.87,0-34.87-.35-59.2-24.11-60.9-59.25-.11-2.16-.38-4.3-.69-7.69-12.24,0-24,.1-35.83,0-37.36-.4-63.67-26.75-63.87-64.25q-.3-53,0-106c.25-36.26,27-63.21,63.4-64.11C188.4,631.42,200.25,631.67,210,631.67Zm415.75,34.5c2.1,9.79,3.93,18.07,5.63,26.37,2,9.74-.82,17.25-9.48,22.94-32,21-63.78,42.29-95.59,63.55-7.13,4.77-14.27,6.43-21.6.85-7-5.31-8.47-12.12-6.57-20.76,5-22.46,9.25-45.08,13.71-67.66,2.49-12.64-8.35-25.76-21.18-25.77q-26.2,0-52.4,0h-56V831.42H697V666.17ZM247.88,749.84c0,40.14-.11,80.28.05,120.42.08,18.43,9.92,28.2,28.28,28.47,13.37.2,26.75.13,40.13,0,19.25-.15,30.17-10.15,30.23-29.28q.39-119.86,0-239.73c0-19.71-10.85-30.19-30.44-30.68-12.26-.3-24.53-.18-36.79,0-21.45.25-31.43,10.24-31.46,31.49Q247.81,690.19,247.88,749.84Zm583.6,0q0-59.65,0-119.31c0-21.32-10-31.25-31.42-31.53-10.77-.13-21.55,0-32.33,0-25,.08-35,10-35,35.17q-.07,74.7,0,149.41c0,27.88-.12,55.75.05,83.63.13,21.53,10.15,31.45,31.39,31.55q18.4.09,36.79,0c21.24-.12,30.54-9.39,30.58-30.7Q831.57,809,831.48,749.87ZM213.06,832c0-54.16.09-106.84-.32-159.51,0-2.27-4.57-6.24-7.25-6.46a214.82,214.82,0,0,0-28.93-.18c-16.77.9-29,12-29.18,27.83q-.75,55.7,0,111.42c.2,14.87,11.46,25.95,26.25,26.76C186.2,832.52,198.81,832,213.06,832Zm653.23-1.17c2.37.63,3.4,1.14,4.44,1.15,10.4.09,20.8.29,31.19.09,18.59-.36,30.06-11.43,30.2-29.87q.4-52.93,0-105.85c-.13-17.54-11.44-29.39-28.9-30.48-9.62-.6-19.31,0-29-.23-5.48-.14-8.08,1.5-8.07,7.53C866.35,725.49,866.29,777.82,866.29,830.81Z"/><path class="cls-1" d="M674.32,282.66c7.94,3.67,16.34,6.79,24,11.21,42.75,24.62,61.07,74.73,44.66,121.28-15.7,44.56-62.18,71.87-109.85,65.2-4.67-.65-10.11,2.15-14.76,4.27-3.27,1.49-5.46,5.39-8.74,6.79-22.08,9.44-32.77,28.82-43.26,48.52-3.49,6.56-7.25,13-11.22,19.27-8.66,13.68-22.65,13.58-31.12-.35-8.3-13.66-16.42-27.44-24.12-41.45-4.42-8-11-13-18.15-18.52-17.21-13.18-34.35-18.34-57-18.44-48.93-.22-86.23-38.25-93.83-88.42-6.59-43.5,21.32-88.61,65.59-105.29,6.26-2.36,9.24-4.76,9.56-12.22C409,206.7,463.69,150.32,529.24,147c72.71-3.71,131.87,43.35,142.55,113.47C672.91,267.77,673.48,275.18,674.32,282.66ZM539.69,518.74c5.45-9.11,10.44-16.44,14.37-24.29a47,47,0,0,1,23.17-22.7A78.25,78.25,0,0,0,601.77,453c8.32-9.49,16.38-11.8,28.41-8.14,36.79,11.19,75-11.92,83.6-49.73,8.36-36.66-16.79-73.89-54.15-80.17-18-3-21.47-7.56-19.89-26.22,5-58.45-41.31-108.47-100.28-108.41s-105,50.44-99.84,108.84c1.63,18.24-1.84,22.66-20.32,25.85-37.23,6.43-62.24,44-53.67,80.54,8.94,38.15,46.89,60.16,85,48.84,10.59-3.14,18.43-1.36,25.67,7.32,5.17,6.19,11.22,13.14,18.36,15.87,19.42,7.4,29.36,22.72,38.14,39.74C534.52,510.62,536.63,513.68,539.69,518.74Z"/><path class="cls-1" d="M465.64,546.69c-2.36,5.57-3,9.55-5.33,12.09a196.65,196.65,0,0,1-19.71,19.45c-7.44,6.21-15.44,4.92-21.8-1.94-6-6.48-6.55-14.53-1-21.27,6.09-7.36,12.87-14.58,20.66-19.94,4-2.74,11.76-3.24,16.16-1.19C459.4,536.11,462.24,542.48,465.64,546.69Z"/><path class="cls-1" d="M630.61,529.59c5.36,2.86,9.68,4.32,12.89,7.08A174,174,0,0,1,660,553.06c6.78,7.6,6.64,17.76-.07,23.87-7.46,6.81-15.42,6.83-22.85.15-6.31-5.68-13.37-11.19-17.64-18.26-2.93-4.87-3.55-12.92-1.69-18.33C619.33,536,626,533.26,630.61,529.59Z"/></svg>
