<svg id="Capa_1" data-name="Capa 1" xmlns="http://www.w3.org/2000/svg" viewBox="0 0 1080 1080"><defs><style>.cls-1{fill:#ffffff;}</style></defs><path class="cls-1" d="M1080,540.8c-.28,236.82-157.2,448.34-382.46,515.56-263.47,78.61-545.61-50-650.8-302.48-84.6-203-53.15-392.55,84.59-564.11,3.86-4.81,9.75-9.92,15.34-10.8,4.56-.72,13,3.6,14.47,7.62,2,5.34.86,13.94-2.43,18.72-14.57,21.16-31.76,40.58-45.57,62.18-159.35,249.28-71.59,582.16,189.71,721,282.89,150.3,633.5,2.76,724.59-304.91,81.13-274-80.78-563.63-357.4-634.18-167.34-42.67-319.6-7-454.5,101.24-1.83,1.46-3.58,3-5.38,4.51-8.28,6.82-17.25,8.94-24.72-.09s-4.5-17.94,4.46-24.17c32.19-22.39,62.8-47.91,97.28-66C540.33-67.9,839.45,10.8,995.53,249.8,1050,333.23,1080.12,436.94,1080,540.8Z"/><path class="cls-1" d="M541,1015.91c-262.58.19-475.54-212.5-476.09-475.51S278.59,63.22,541.4,64c263.22.74,475.6,213.48,475.37,476.18C1016.54,803.08,803.89,1015.72,541,1015.91Zm.15-919.84C295.83,95.93,97.49,293.7,97,538.93c-.51,245.82,197.8,444.71,443.59,444.86,245.28.15,443.61-197.63,444.13-442.89C985.21,295,787,96.22,541.12,96.07Z"/><path class="cls-1" d="M588.28,560h18.36c78.13,0,156.26.18,234.39-.14,17.62-.07,34.16,3.19,40.85,20.73,7.61,19.94,9.29,41.35-3.83,60.38-7.78,11.28-20.07,14-33.48,14q-127.73-.28-255.44-.09c-116,0-232.06-.15-348.08.15-17.58,0-34.19-2.73-41.12-20.22-7.89-19.91-9.28-41.31,3.45-60.41,7.94-11.91,20.83-14.54,34.69-14.51q118.59.28,237.19.09h18.12V542c0-116,.15-232-.15-348.08-.05-17.51,2.52-33.94,19.7-41.55,18.9-8.37,39.3-8.83,58.11,1.22,11.44,6.11,17.1,17.22,17.12,30.35q.18,119.31.09,238.6c0,10.88-4.66,19-16.14,18.67-12.53-.33-15.53-9.8-15.52-20.78,0-75.32-.19-150.65.22-226,.07-11.64-3.68-15.11-15.25-15.36-12.92-.28-16.8,3.72-16.75,16.73.44,122.57.27,245.15.25,367.73,0,25.52-2.84,28.41-28,28.42q-126.33,0-252.64,0c-16.2,0-23.89,11.62-17.14,26.22,1,2.13,3.85,4,6.22,4.71,3.06.87,6.49.48,9.76.48q297.56,0,595.1.23c12.47,0,17.28-3,17.21-16.45-.06-13.15-5.34-15.42-16.76-15.38-84.68.33-169.36.19-254,.17-25.32,0-28.11-2.84-28.13-28.31,0-21.06-.13-42.11,0-63.16.12-14,6.56-22.81,16.27-21.61,12.1,1.5,15.6,10,15.43,21.23C588.07,519.24,588.28,538.38,588.28,560Z"/><path class="cls-1" d="M541,698.78c71.57,0,143.15.15,214.72-.11,17.38-.06,34.12,2.43,41.47,19.83,8.2,19.43,10.08,41.11-2.55,59-5.77,8.17-19.07,14.7-29.35,15.32-32.64,1.94-65.45.73-98.2.77-10.81,0-19.07-4.38-19-15.84S656.43,762,667.26,762c29.94,0,59.89-.49,89.81.25,11.85.29,14.33-4.63,13.93-15-.36-9.5.44-17-13.44-16.92q-216.84.63-433.67,0c-14,0-12.72,7.83-13.22,17.12-.57,10.73,2.62,14.86,14.14,14.8C410.88,761.8,497,762,583,762c19.12,0,27.79,5.08,27.59,16.09s-8.46,15.52-28.12,15.52c-85.61,0-171.22-.16-256.83.13-17.45.06-34.13-2.44-41.34-19.9-8-19.44-9.2-40.46,2.27-59.35,8-13.25,22.07-15.83,36.89-15.79C396,698.89,468.53,698.78,541,698.78Z"/><path class="cls-1" d="M540.72,932.47c-30.88,0-61.76.13-92.64,0-28-.14-41.91-14.42-42.07-42.66,0-5.61-.25-11.25.12-16.84,1.32-19.84,15.36-34.87,35.15-35q99.64-.75,199.31,0c16.44.1,29.81,9.86,32.6,25.77a121.56,121.56,0,0,1-.09,42.79c-3.23,17-17.65,25.78-36.94,25.93C604.35,932.65,572.53,932.47,540.72,932.47Zm.5-32.09c29.48,0,59-.44,88.41.22,11.84.27,15.36-4,15.08-15.45-.26-10.53-1.71-16.42-14.45-16.31q-89.11.78-178.23,0c-12-.09-15.2,4.4-15.06,15.69.13,10.63,1.8,16.4,14.44,16.08C481.33,899.87,511.28,900.38,541.22,900.38Z"/></svg>
