<svg id="Capa_1" data-name="Capa 1" xmlns="http://www.w3.org/2000/svg" viewBox="0 0 1080 1080"><defs><style>.cls-1{fill:#182660;}</style></defs><path class="cls-1" d="M1020.44,485.58c-4.3-5.21-11.12-13.15-13.53-15.45L742,187.38l-36.38-38.82a17.93,17.93,0,0,0-24-3.06l-34.77,24.59L543.26,8a17.76,17.76,0,0,0-3.94-4.74,18,18,0,0,0-25.24,2L457,72.7l-30.37-9.34a17.81,17.81,0,0,0-20.21,6.34L323.26,183.22,267.07,192a17.87,17.87,0,0,0-12.43,7.37L50.73,485.43a17.78,17.78,0,0,0-3.95,11.21v6l32,5,77.69-109,139.33-99.58L367.39,279,422.61,108l5.1-7,30,9.23a17.92,17.92,0,0,0,18.87-5.53l49.11-57.93L539,67.69C582,135,622.61,198.64,667.09,264l-56.61,33.72-48.31,111.7A17.89,17.89,0,0,0,595,423.57l43.75-101.13,48.48-28.88,32.65,47.81a17.88,17.88,0,0,0,32.33-6.77,17.7,17.7,0,0,0-2.81-13.37L666.55,199.89,689.6,183.6,989.9,503.47l43.45,11.4V505.8C1033.35,503.34,1033.35,501.22,1020.44,485.58Zm-665-285.83-16.15,50L280,266.4,220.33,309l59.06-82.87,56.66-8.84a18,18,0,0,0,11.69-7.09Z"/><ellipse class="cls-1" cx="153.83" cy="575.24" rx="21.43" ry="21.4"/><path class="cls-1" d="M239.83,525a21.4,21.4,0,1,0,21.43,21.4A21.44,21.44,0,0,0,239.83,525Z"/><ellipse class="cls-1" cx="323.99" cy="575.24" rx="21.43" ry="21.4"/><ellipse class="cls-1" cx="409.99" cy="546.36" rx="21.43" ry="21.4"/><ellipse class="cls-1" cx="494.15" cy="575.24" rx="21.43" ry="21.4"/><ellipse class="cls-1" cx="580.15" cy="546.36" rx="21.43" ry="21.4"/><path class="cls-1" d="M664.31,553.84a21.4,21.4,0,1,0,21.43,21.4A21.45,21.45,0,0,0,664.31,553.84Z"/><ellipse class="cls-1" cx="750.31" cy="546.36" rx="21.43" ry="21.4"/><ellipse class="cls-1" cx="834.47" cy="575.24" rx="21.43" ry="21.4"/><path class="cls-1" d="M920.47,525a21.4,21.4,0,1,0,21.43,21.4A21.45,21.45,0,0,0,920.47,525Z"/><path class="cls-1" d="M1019.28,491.69,938,469.87a22,22,0,0,0-11.42,0l-81.48,21.86-81.44-21.85a21.8,21.8,0,0,0-11.42,0l-81.47,21.86-81.45-21.85a21.9,21.9,0,0,0-11.42,0L496.4,491.73,415,469.88a21.83,21.83,0,0,0-11.43,0l-81.46,21.86-81.45-21.85a21.8,21.8,0,0,0-11.42,0L146.67,492,69.35,481.64a21.95,21.95,0,0,0-24.89,21.74V614.16a16.11,16.11,0,0,0,32.21,0V515.09l67.74,9.09a21.63,21.63,0,0,0,8.63-.55l81.86-22,81.47,21.87a22.14,22.14,0,0,0,11.4,0l81.46-21.86,81.47,21.86a21.82,21.82,0,0,0,11.4,0l81.47-21.86L665,523.53a22.14,22.14,0,0,0,11.4,0l81.47-21.86,81.47,21.87a22.1,22.1,0,0,0,11.39,0l81.48-21.86,71.08,19.07V637.55a16.11,16.11,0,0,0,32.21,0V512.87A22,22,0,0,0,1019.28,491.69Z"/><path class="cls-1" d="M322.07,621.46c-17.74,0-25.78-4.31-36-9.78-11.3-6.06-25.36-13.61-51.2-13.61s-39.91,7.55-51.21,13.61c-10.18,5.47-18.22,9.78-36,9.78s-25.78-4.31-36-9.78c-11.3-6.06-25.36-13.61-51.2-13.61a16.12,16.12,0,0,0-16.11,16.09v131.7a16.11,16.11,0,0,0,32.21,0V631.81c7.72,1.71,13.25,4.68,19.85,8.22,11.3,6.06,25.36,13.61,51.21,13.61s39.91-7.55,51.21-13.61c10.18-5.47,18.22-9.78,36-9.78s25.78,4.31,36,9.78c11.3,6.07,25.36,13.61,51.21,13.61a16.09,16.09,0,1,0,0-32.18Z"/><path class="cls-1" d="M1019.43,621.46c-17.74,0-25.78-4.32-36-9.78-11.3-6.07-25.36-13.61-51.21-13.61s-39.91,7.54-51.21,13.61c-10.18,5.46-18.22,9.78-36,9.78s-25.78-4.31-36-9.78c-11.3-6.06-25.36-13.61-51.2-13.61S718,605.62,706.7,611.68c-10.18,5.47-18.22,9.78-36,9.78s-25.78-4.31-36-9.78c-11.3-6.07-25.36-13.61-51.2-13.61s-39.91,7.55-51.21,13.61c-10.18,5.47-18.22,9.78-36,9.78s-25.78-4.31-36-9.78c-11.3-6.06-25.36-13.61-51.21-13.61-21.37,0-34.07,4.88-44.62,10.16A16.09,16.09,0,1,0,379,637c8.33-4.17,16.29-6.75,30.19-6.75,17.74,0,25.78,4.31,36,9.78,11.3,6.06,25.36,13.61,51.2,13.61s39.91-7.55,51.21-13.61c10.18-5.47,18.22-9.78,36-9.78s25.78,4.31,36,9.78c11.3,6.06,25.36,13.61,51.21,13.61S710.64,646.09,722,640c10.18-5.47,18.22-9.78,36-9.78s25.77,4.31,36,9.78c11.29,6.06,25.36,13.61,51.2,13.61S885,646.09,896.29,640c10.18-5.47,18.22-9.78,36-9.78s25.78,4.31,36,9.78c8.59,4.61,19,10.22,35.11,12.53v102.8a16.11,16.11,0,0,0,32.21,0V637.55A16.12,16.12,0,0,0,1019.43,621.46Z"/><path class="cls-1" d="M1019.28,734.18,938,712.35a22,22,0,0,0-11.4,0l-81.48,21.87-81.44-21.86a22,22,0,0,0-11.42,0l-81.47,21.87-81.45-21.86a22,22,0,0,0-11.42,0L496.4,734.22,415,712.36a22,22,0,0,0-11.43,0l-81.46,21.87-81.45-21.86a22,22,0,0,0-11.42,0L146.67,734.5,69.35,724.13a21.95,21.95,0,0,0-24.89,21.73V856.64a16.11,16.11,0,0,0,32.21,0V757.58l67.73,9.09a21.88,21.88,0,0,0,8.64-.56l81.86-22L316.37,766a22,22,0,0,0,11.4,0l81.46-21.86L490.7,766a22,22,0,0,0,11.4,0l81.47-21.86L665,766a22,22,0,0,0,11.4,0l81.47-21.86L839.37,766a22,22,0,0,0,11.4,0l81.48-21.87,71.08,19.08V880a16.11,16.11,0,0,0,32.21,0V755.36A22,22,0,0,0,1019.28,734.18Z"/><path class="cls-1" d="M1019.43,864c-17.74,0-25.78-4.32-36-9.79-11.3-6.06-25.36-13.61-51.21-13.61S892.34,848.1,881,854.17c-10.18,5.46-18.22,9.78-36,9.78s-25.78-4.32-36-9.78c-11.3-6.07-25.36-13.62-51.2-13.62S718,848.1,706.69,854.17c-10.17,5.46-18.21,9.78-36,9.78s-25.79-4.32-36-9.79c-11.3-6.06-25.36-13.61-51.2-13.61s-39.9,7.55-51.21,13.62c-10.18,5.46-18.21,9.78-36,9.78s-25.78-4.32-36-9.79c-11.3-6.06-25.36-13.61-51.21-13.61s-39.9,7.55-51.2,13.62c-10.18,5.46-18.22,9.78-36,9.78s-25.78-4.32-36-9.78c-11.3-6.07-25.36-13.62-51.21-13.62S195,848.1,183.69,854.17c-10.18,5.46-18.22,9.78-36,9.78s-25.78-4.32-36-9.78c-11.3-6.07-25.36-13.62-51.2-13.62a16.12,16.12,0,0,0-16.11,16.09v181.6a28.42,28.42,0,0,0,28.41,28.37H857.21a16.09,16.09,0,1,0,0-32.18H76.67V874.29c7.72,1.71,13.26,4.68,19.85,8.22,11.3,6.07,25.36,13.62,51.21,13.62s39.9-7.55,51.21-13.62c10.18-5.46,18.22-9.78,36-9.78s25.77,4.32,36,9.78c11.3,6.07,25.36,13.62,51.21,13.62s39.91-7.55,51.21-13.62c10.18-5.46,18.22-9.78,36-9.78s25.78,4.32,36,9.78c11.29,6.07,25.36,13.62,51.2,13.62s39.91-7.55,51.22-13.62c10.17-5.46,18.21-9.78,36-9.78s25.77,4.32,36,9.78c11.3,6.07,25.36,13.62,51.21,13.62s39.91-7.55,51.21-13.62c10.18-5.46,18.22-9.78,36-9.78s25.77,4.32,36,9.78c11.3,6.07,25.37,13.62,51.21,13.62s39.91-7.55,51.22-13.62c10.18-5.46,18.22-9.78,36-9.78s25.78,4.32,36,9.78c8.59,4.61,19,10.22,35.11,12.53v139.39H915.08a16.09,16.09,0,1,0,0,32.18h92a28.42,28.42,0,0,0,28.41-28.37V880A16.11,16.11,0,0,0,1019.43,864Z"/><path class="cls-1" d="M1030.47,931a16.18,16.18,0,0,0-12-4.35L59.6,984.39a16.12,16.12,0,0,0-15.14,16.06V1045l8.27-1.59c5.47-1,11.3-1.94,17.81-2.71l6.13-.74V1015.6l926.66-55.83V979l6.76.19c5.23.14,10.87.55,17.75,1.28l7.7.82V942.68A16.12,16.12,0,0,0,1030.47,931Z"/></svg>
