<svg id="Capa_1" data-name="Capa 1" xmlns="http://www.w3.org/2000/svg" viewBox="0 0 1080 1080"><defs><style>.cls-1{fill:#182660;}.cls-2{fill:#182660;}</style></defs><path class="cls-1" d="M969.49,467.89c-1.92-1.23-2.85-4.34-3-8.57-.8-17.77,11.66-30.7,30-30.85,17.26-.15,31.59,13.83,31.15,30.84.1,3-.37,5.39-1.38,6.92,7.12,7.68,13.53,16.93,22.74,17.77a44.29,44.29,0,0,1,10.87,3.26c-1.06-3.94-.39-8.5,2-13.89,1.06-2.41.68-5.53.68-8.33q0-174.57-.1-349.13c0-26.75-11.88-46.49-35-59.73-27.56-15.81-55-31.9-82.67-47.44C918.13-6.21,886.24-1.7,864.87,20.13a92.71,92.71,0,0,1-23.59,17.18Q656,135,470.75,233,306,320.15,141.26,407.43c-6.45,3.42-11,3.94-17.54-.72-29.5-21-60.79-19.95-84.84,1.84C14.08,431,9.39,464.79,27.07,495.24c2.91,5,4.77,10,4.77,15.82q-.09,64.5.05,129c0,7.92-2.76,11.48-11.12,12.66C4.1,655.08.54,659.83.49,677q-.18,58.89,0,117.78c.05,19.67,4.32,24.06,23.77,24.1q73.62.17,147.23,0a54,54,0,0,0,9.78-.53c9-1.67,14.13-7.25,14.27-16.41s-4.72-15.1-13.57-17.08c-4.49-1-9.27-.94-13.93-1-38.79-.07-77.59-.37-116.37.15C39.88,784.19,34.55,781,35,768.25c.77-21,.73-42.08,0-63.08-.43-12.41,4.43-16.26,16.43-16,33.17.57,66.36.19,99.55.19,90.2,0,180.41.22,270.61-.24,13.48-.07,18.27,4.34,17.68,17.76-.85,19.59-1,39.29,0,58.87.73,14.19-4.28,18.6-18.43,18.41-53.74-.69-107.49-.31-161.24-.22-5.57,0-11.39-.07-16.65,1.42-8.47,2.41-13.33,8.59-12.72,17.79.57,8.68,6,13.51,14.17,15,4.53.86,9.3.7,14,.71,34.12,0,68.24.34,102.35-.14,10.84-.15,13.57,4.48,13.51,14.3s-1.73,16.23-13.69,15.86c-18.21-.56-36.46-.45-54.68,0C280,849.44,254.67,853,232,867c-41.41,25.68-62.32,79.66-49.19,127.1,14.33,51.73,54.95,84.95,106.57,85.46,65,.63,129.94.2,194.9.19a35.82,35.82,0,0,0,8.36-.64c8.2-2,13.18-7.37,13.29-15.84.11-8.23-3.87-14.62-12.19-16.74a63.22,63.22,0,0,0-15.26-1.44c-27.58-.14-55.16,0-82.73-.13-4.07,0-9.37,1.65-11.82-2.18-2.87-4.48,2.45-7.42,4.63-10.64,28.07-41.41,28.17-93.29.14-134.31-2-3-6.28-5.75-4.79-9.55,2-5,7.34-3,11.24-3q128.3-.17,256.59,0c3.56,0,8.2-1.46,10.32,2.31,2.28,4.05-2.09,6.68-4.07,9.6-28.71,42.42-28.68,92.64.08,135.39,2,3,6.41,5.65,4.64,9.51-2.13,4.67-7.44,2.8-11.39,2.83-29.44.17-58.89-.07-88.33.21-14.81.14-22.45,6.35-22.75,17.31s7.55,17.26,22.32,17.28c65,.08,129.94.58,194.9-.21,60.12-.73,107.2-48.86,110.12-110.87,2.82-60-42.89-112.13-102.75-118.09-25.23-2.5-50.42-1.66-75.62-1.69-10.78,0-17.61-1.44-17.7-15-.1-13.24,5.79-16.2,17.1-15.12,5.1.48,10.28.08,15.42.07,30.19,0,33.45-3.37,33-34.13a65,65,0,0,0-.32-8.39c-1.32-9.12-5.5-16.34-15.41-17.31-10.33-1-17.51,4.3-18.93,14.53-1.22,8.77-6,10.34-13.41,10.3-33.65-.15-67.31-.38-101,.11-11.31.17-14.61-4.57-14.37-15.09.47-21.49.59-43,0-64.49-.35-11.8,4.4-15.44,15.72-15.27q48.36.75,96.75,0c11-.16,16.66,2.6,15.89,14.83-.75,11.93,4.92,20.58,17.66,20.44,13-.14,17-9.78,17.33-21.18.46-17.76.38-35.39-4.35-52.84-7-25.7-11.9-52-19.81-77.35-4.52-14.52-1.71-25.54,5.58-38C766,453.56,813,371.74,860.26,290Q893.5,232.51,926.69,175l2.93.9v15.3q0,127.59,0,255.19c0,10.82.22,21.65,4.22,31.76,2.06,5.21,2,9.18-.08,12.46,12.33-3.28,23.63-10.87,31.28-17.56A60.27,60.27,0,0,0,969.49,467.89ZM83.05,652.47c-8.68-.09-14.43-2-14.38-12.28q.3-52.4,0-104.79c0-11.22,7.28-10.73,15.16-11,8.68-.33,13.07,2.53,12.9,11.83-.3,17.23-.09,34.46-.09,51.7s-.23,34.47.1,51.69C97,649.49,92.23,652.56,83.05,652.47Zm-1.25-163c-17.26-.41-30.09-14.21-29.7-31.94.38-17.48,12.54-29,30.62-29,18.26,0,30.62,12.49,30.44,30.76C113,476.8,99.38,489.88,81.8,489.47ZM293,1044.85c-46-.86-79-35.93-78-82.92,1-45.15,35.83-77.47,82.64-76.57,43.3.83,77,37,76.28,81.91C373.26,1010.82,336.9,1045.67,293,1044.85ZM752.66,885.33a78.72,78.72,0,0,1,78.89,79.44c-.29,45.92-34.3,80-79.76,79.8-46.3-.15-79.89-34.53-79.54-81.44C672.58,919.25,707.86,885.11,752.66,885.33Zm263.85-490c-12.68-5-25.57-5.31-38.21-.13-10.29,4.21-11.89-.6-11.82-9.5.26-33.11.1-66.22.1-99.33h.23c0-32.18.22-64.36-.13-96.53-.1-9.85,2.41-14.11,12.9-10.49,11.83,4.09,23.89,3.65,35.76-.12,8-2.54,12.32-1.22,12.29,8.46q-.26,100,0,200.06C1027.67,396.69,1024.15,398.39,1016.51,395.37ZM847.42,116.24c2.84-5,6.35-6.57,11.41-3.29a13.15,13.15,0,0,1,1.19.74c7.91,6.21,23.51,7.75,23.46,17.06-.05,8.26-15.46,9.07-24,13.29-10.32,5.12-21.24,9-31.9,13.47l-2.43-2.76C832.6,141.92,840.09,129.12,847.42,116.24ZM199.6,597.49c-5.69,12.83-5.31,26.47-4.8,40,.4,10.62-3.27,15.59-14.45,15-11.64-.59-23.34-.12-35-.2-5.4,0-11.15-.77-11.2-7.65-.24-37.08-.11-74.17-.11-114.82,23,20.85,43.24,39.23,63.52,57.57C200.78,590.3,201.3,593.64,199.6,597.49Zm72.26,54.88c-10.7,0-21.4,0-32.1-.12-5-.06-9.72-1.28-9.8-7.42-.15-10.63-1.87-21.37,2-31.78,6-16,18.07-23.56,34.69-21.47,14.48,1.83,24.61,13.65,25.74,30.17.22,3.25,0,6.51,0,9.77C292.66,652.32,292.66,652.34,271.86,652.37Zm12.27-92.51C268,553.41,251,554.12,235,561.39c-6.45,2.94-11,2.77-16.26-2.15q-33.34-31-67.26-61.41c-6.35-5.68-8.8-11.24-5.54-19.58,2.18-5.57,4.87-12.32,3.56-17.62-4-16.21,6.43-20.89,17.65-26.8q251-132.33,501.75-265.09c29.3-15.49,58.49-31.21,87.73-46.82l1.71,2q-55.24,52.59-110.5,105.2Q477,392.08,306.28,555.22C299.39,561.81,293.71,563.7,284.13,559.86ZM619,818.72c10.71-.15,16.42,2,16.21,14.52-.19,11.33-3.7,15.75-15.41,15.68q-96.72-.55-193.44,0c-11.55.06-15.46-4.14-15.64-15.59-.19-12.4,5.44-14.76,16.24-14.6,32.24.47,64.48.17,96.72.17C555.46,818.89,587.24,819.19,619,818.72ZM475.85,569.49c0-8.31,3.38-11.85,11.73-11.66,12.6.3,25.25.53,37.83-.1,10.49-.52,13.82,3.68,13.67,13.93-.47,33.17-.17,66.35-.17,99.52,0,32.71-.35,65.42.19,98.12.19,10.92-3.37,15.29-14.45,14.67-12.11-.68-24.3-.44-36.44-.09-9,.27-12.42-3.64-12.4-12.54Q476.07,670.42,475.85,569.49Zm73.65-46.32c-27.94-1.56-56-.54-84-.37-19.66.11-26,6.14-26.23,26.08-.39,29-.62,57.92.07,86.85.31,13-4.62,17.18-17.23,16.84-26.13-.69-52.3-.45-78.45-.11-10.08.13-14.46-3.69-14.25-14,.3-14-.47-28.07-5.91-41.3-3-7.38,1.79-11.41,6.15-15.58Q402,512.38,474.44,443.23,556,365.41,637.71,287.69q73.5-70,147-139.95l2.58,1.62q-33.25,57.45-66.5,114.9c-45.95,79.66-92.21,159.15-137.43,239.23C575.23,517.91,566.44,524.11,549.5,523.17Zm111-71.72c10,6.34,21.57,10.17,31.86,19.94L631.7,497.52l-3.12-2.45c8.2-14.05,16.34-28.13,24.64-42.11C654.91,450.11,657.89,449.78,660.52,451.45Zm22.34,201c-15.83-.45-31.68-.12-47.52-.12v0c-16.31,0-32.62-.17-48.92.07-8.77.14-12.78-3.45-12.69-12.42q.33-34.94,0-69.88c-.1-9,3.77-12.39,12.62-12.29,25.16.29,50.32.2,75.48,0,6.87-.05,11.32,1.67,13.11,9.26q8.63,36.7,18.23,73.18C695.67,649.93,692.16,652.75,682.86,652.49Zm47.5-209.59c-2.78,4.5-7.08,3.57-11.11,1.2-9.16-5.38-18.34-10.73-30.35-17.76l63.25-26.73,2.63,2.2C746.67,415.52,738.72,429.34,730.36,442.9Zm19.71-81.15c-17.9,7.7-35.9,15.18-53.87,22.73l-2.32-2q11.29-19.86,22.59-39.72c1.94-3.41,4.57-6.84,8.79-4.64,9.46,4.95,18.94,10,27.71,16.07C758.56,358,753.23,360.39,750.07,361.75Zm46.15-32.19c-2.25,3.91-5.42,4.83-9.41,2.53a12,12,0,0,1-1.24-.63c-8.28-6.53-24.33-8-24.77-17.7-.37-8.15,15.51-9,24.07-13.22,10.3-5.1,21.17-9.07,31.8-13.53l2.37,2.81Q807.64,309.68,796.22,329.56Zm-33.37-58.81-2.5-3.57q10.8-18.63,21.6-37.25c2.73-4.68,6.47-6.68,11.65-3.73,9.58,5.47,19.13,11,31.32,18Zm99.24-55.3c-1.42,2.41-3.21,6-6.07,4.69-11-5-22.24-10-31.06-18.29-3.63-3.4,2.28-4.89,4.89-6,17.91-7.77,35.9-15.39,53.86-23.05l2.33,2Q874.07,195.12,862.09,215.45ZM879.78,83.92c-8.08-4.6-8.36-9.52-4-17,8.74-15,15.79-31.59,34.19-31,7.86.15,12.45.74,16.63,3.17,28.65,16.65,57.43,33.07,85.89,50,12.51,7.46,17.63,19.12,14.43,33.54-2.94,13.22-11.78,20.78-24.89,23.48-7.74,1.6-14.95-.44-21.54-4.21C946.89,122.61,913.46,103.06,879.78,83.92Z"/><path class="cls-1" d="M990.42,689.92c22.17-4.91,24.27-7.46,24.37-29.81,0-5.61,0-11.22,0-16.83.07-18.17.07-18.38,18.56-18.91,12.26-.34,22.78-3.62,25.92-16.76,7-29.06,13.35-58.26,19.58-87.48,1.73-8.11.91-16.91-7.32-21-6.54-3.25-10.38-7.1-11.66-11.87A44.29,44.29,0,0,0,1049,484c-9.21-.84-15.62-10.09-22.74-17.77-1.7,2.57-4.9,2.7-9.41-.67-13.58-10.16-26.13-9.27-39.41.4-3.62,2.63-6.2,3.06-8,1.93A60.27,60.27,0,0,1,965,473c-7.65,6.69-19,14.28-31.28,17.56a17.7,17.7,0,0,1-6.79,5.74c-10.41,5.62-13.55,14.4-10.7,26.06,6.08,24.94,11.38,50.08,17.42,75,6,24.72,7.11,25.4,32.86,27,4.56.28,9.47-.41,12.09,5,4.82,9.88-.36,25.43-10.32,30.55-28.54,14.67-42.7,43.66-35.88,73.44,7.46,32.55,30.26,51.5,63.54,52.81,35.84,1.41,66.45-27,67.44-62.71.29-10.56-3.37-18.94-14.74-20.35-11.74-1.47-18.28,5.2-20.32,16.51-.41,2.3-.45,4.67-.93,6.95-3.19,15.17-17.12,25.17-33.11,23.85a29.6,29.6,0,0,1-27.38-27.1C965.69,706.52,975,693.33,990.42,689.92Zm-29.65-131.5c-.08-.46-.21-.92-.25-1.38-1-11.51-11.11-23.89-5.33-33.48,7.57-12.57,24.24-16.43,36.61-24.66,4-2.62,8-2,11.83.42,2.77,1.72,5.54,3.45,8.36,5.1,30.75,18.05,31.43,18.22,22.59,52.31-9.17,35.38-1,30.32-38.44,30.8C966.29,587.52,966.29,587.52,960.77,558.42Z"/><path class="cls-1" d="M523.21,915.06c20.08,0,40.16-.18,60.24.06,14.67.17,22.51,6.54,22.33,17.41-.16,10.62-8.55,17.63-22.52,17.7q-60.24.3-120.48,0c-13.95-.08-22.3-7.21-22.34-17.88,0-10.86,7.76-17.06,22.53-17.23C483.05,914.89,503.13,915.06,523.21,915.06Z"/><path class="cls-1" d="M521.7,1015.17c-19.61,0-39.23.18-58.84-.06-14.72-.19-22.55-6.53-22.42-17.38.12-10.67,8.44-17.62,22.44-17.69q60.24-.28,120.48,0c14,.07,22.31,7,22.42,17.71s-7.71,17.18-22.44,17.36C562.8,1015.35,542.25,1015.17,521.7,1015.17Z"/><path class="cls-1" d="M801.63,966.07c-.29,28-22.41,49.43-50.52,49a49.93,49.93,0,0,1-49.25-50.57c.31-28.54,21.42-49.31,50.08-49.26C781.36,915.3,802,936.36,801.63,966.07ZM751.87,950.6c-7.91,1.23-14,5.41-14.11,14.18s5.17,14.31,13.9,14.31c8.4,0,14.37-4.75,14.49-13.76C766.25,956.52,760.92,951.87,751.87,950.6Z"/><path class="cls-1" d="M295.21,915.14c28.07.33,49.31,21.93,49.18,50-.13,28.46-22.52,50.37-50.91,49.81-29.06-.57-49.26-21.9-48.88-51.6C245,935.34,266.51,914.79,295.21,915.14Zm-.76,64.33c8.66-1.25,14.25-6,14-14.67s-5.88-13.87-14.55-13.8c-8.82.08-13.86,5.58-13.83,14.31C280.13,974.38,286.36,978.15,294.45,979.47Z"/><path class="cls-2" d="M1017,118.8c-1.41,8.73-6.73,15-17.22,15.34-9.64.34-18.15-8.58-17.09-18.08,1.15-10.34,7.72-15.81,17.87-16C1009.56,99.92,1017.26,108.6,1017,118.8Z"/></svg>
