<svg id="Capa_1" data-name="Capa 1" xmlns="http://www.w3.org/2000/svg" viewBox="0 0 1080 1080"><defs><style>.cls-1{fill:#182660;}.cls-2{fill:none;}</style></defs><path class="cls-1" d="M634.62,421.45A17.53,17.53,0,0,1,617.82,399l81.7-277.42a17.5,17.5,0,0,1,24.3-10.87L849.5,170.45v-14.9L692.8,44.13,582.68,298.26a17.5,17.5,0,0,1-32.12-13.92L669.28,10.39a17.5,17.5,0,0,1,26.2-7.3L877.14,132.25a17.51,17.51,0,0,1,7.36,14.27v51.62a17.5,17.5,0,0,1-25,15.81L727.31,151.12,651.4,408.89A17.52,17.52,0,0,1,634.62,421.45Z"/><path class="cls-1" d="M631.26,425H326.5A17.5,17.5,0,0,1,309,407.61l-.15-36.89a49.26,49.26,0,0,1,31.65-46.17V158.17a17.49,17.49,0,0,1,17.5-17.5H463.71a18,18,0,0,1,3.5.35c36.8,7.5,67.73,43,91.93,105.39a524.67,524.67,0,0,1,21.72,72.11h12.66a55.3,55.3,0,0,1,55.24,55.24v33.78A17.5,17.5,0,0,1,631.26,425ZM343.93,390H613.76V373.76a20.26,20.26,0,0,0-20.24-20.24h-26.9a17.49,17.49,0,0,1-17.22-14.41,494.23,494.23,0,0,0-23.07-80.51c-18.61-47.82-41.48-77.16-64.56-82.93H375.5V338.85a17.49,17.49,0,0,1-17.5,17.5,14.15,14.15,0,0,0-14.15,14.22Z"/><path class="cls-1" d="M566.83,356.35H357.63a17.5,17.5,0,0,1,0-35h209.2a17.5,17.5,0,0,1,0,35Z"/><path class="cls-1" d="M407.91,356.35a17.5,17.5,0,0,1-17.5-17.5V158.39a17.5,17.5,0,1,1,35,0V338.85A17.49,17.49,0,0,1,407.91,356.35Z"/><path class="cls-1" d="M518.34,225.27H408.81a17.5,17.5,0,0,1,0-35H518.34a17.5,17.5,0,0,1,0,35Z"/><path class="cls-1" d="M713.63,153a17.5,17.5,0,0,1-17.11-21.22l18-82.6a17.5,17.5,0,0,1,34.21,7.44l-18,82.6A17.5,17.5,0,0,1,713.63,153Z"/><path class="cls-1" d="M653,601.91H330.7a105.94,105.94,0,1,1,0-211.87H653a105.94,105.94,0,0,1,0,211.87ZM330.7,425a70.94,70.94,0,1,0,0,141.87H653A70.94,70.94,0,0,0,653,425Z"/><path class="cls-1" d="M349.55,560.16a62.39,62.39,0,1,1,62.39-62.39A62.46,62.46,0,0,1,349.55,560.16Zm0-89.78a27.39,27.39,0,1,0,27.39,27.39A27.42,27.42,0,0,0,349.55,470.38Z"/><path class="cls-1" d="M492.31,560.16a62.39,62.39,0,1,1,62.39-62.39A62.46,62.46,0,0,1,492.31,560.16Zm0-89.78a27.39,27.39,0,1,0,27.39,27.39A27.42,27.42,0,0,0,492.31,470.38Z"/><path class="cls-1" d="M640.45,559.26a62.39,62.39,0,1,1,62.39-62.39A62.47,62.47,0,0,1,640.45,559.26Zm0-89.78a27.39,27.39,0,1,0,27.39,27.39A27.43,27.43,0,0,0,640.45,469.48Z"/><path class="cls-1" d="M936.4,321.35h-69a17.2,17.2,0,0,1-17.2-17.2V183.65a51.7,51.7,0,0,1,103.4,0v120.5A17.2,17.2,0,0,1,936.4,321.35ZM884.6,287h34.6V183.65a17.3,17.3,0,0,0-34.6,0Z"/><path class="cls-1" d="M901.9,1025.35a17.2,17.2,0,0,1-17.2-17.2v-703a17.2,17.2,0,0,1,34.4,0v703A17.2,17.2,0,0,1,901.9,1025.35Z"/><path class="cls-1" d="M871.92,406.35a17.2,17.2,0,0,1-9.56-31.51l60-40a17.2,17.2,0,1,1,19.08,28.62l-60,40A17.08,17.08,0,0,1,871.92,406.35Z"/><path class="cls-1" d="M871.92,458.35a17.2,17.2,0,0,1-9.56-31.51l60-40a17.2,17.2,0,1,1,19.08,28.62l-60,40A17.08,17.08,0,0,1,871.92,458.35Z"/><path class="cls-1" d="M871.92,516.35a17.2,17.2,0,0,1-9.56-31.51l60-40a17.2,17.2,0,1,1,19.08,28.62l-60,40A17.08,17.08,0,0,1,871.92,516.35Z"/><path class="cls-1" d="M871.92,574.35a17.2,17.2,0,0,1-9.56-31.51l60-40a17.2,17.2,0,1,1,19.08,28.62l-60,40A17.08,17.08,0,0,1,871.92,574.35Z"/><path class="cls-1" d="M871.92,626.35a17.2,17.2,0,0,1-9.56-31.51l60-40a17.2,17.2,0,1,1,19.08,28.62l-60,40A17.08,17.08,0,0,1,871.92,626.35Z"/><path class="cls-1" d="M871.92,684.35a17.2,17.2,0,0,1-9.56-31.51l60-40a17.2,17.2,0,1,1,19.08,28.62l-60,40A17.08,17.08,0,0,1,871.92,684.35Z"/><path class="cls-1" d="M871.92,736.35a17.2,17.2,0,0,1-9.56-31.51l60-40a17.2,17.2,0,1,1,19.08,28.62l-60,40A17.08,17.08,0,0,1,871.92,736.35Z"/><path class="cls-1" d="M871.92,788.35a17.2,17.2,0,0,1-9.56-31.51l60-40a17.2,17.2,0,0,1,19.08,28.62l-60,40A17.08,17.08,0,0,1,871.92,788.35Z"/><path class="cls-1" d="M871.92,846.35a17.2,17.2,0,0,1-9.56-31.51l60-40a17.2,17.2,0,0,1,19.08,28.62l-60,40A17.08,17.08,0,0,1,871.92,846.35Z"/><path class="cls-1" d="M871.92,892.35a17.2,17.2,0,0,1-9.56-31.51l60-40a17.2,17.2,0,0,1,19.08,28.62l-60,40A17.08,17.08,0,0,1,871.92,892.35Z"/><path class="cls-1" d="M871.92,944.35a17.2,17.2,0,0,1-9.56-31.51l60-40a17.2,17.2,0,0,1,19.08,28.62l-60,40A17.08,17.08,0,0,1,871.92,944.35Z"/><path class="cls-1" d="M871.92,1002.35a17.2,17.2,0,0,1-9.56-31.51l60-40a17.2,17.2,0,0,1,19.08,28.62l-60,40A17.08,17.08,0,0,1,871.92,1002.35Z"/><path class="cls-2" d="M540,640c-1.64,0-4.91,1.63-3.27,3.27,0,3.27,8.18,3.27,8.18,0C544.91,641.6,541.64,640,540,640Z"/><path class="cls-2" d="M432,684.15c-1.64,0-4.91,1.64-3.27,3.27,0,3.27,8.18,3.27,8.18,0C436.91,685.79,433.64,684.15,432,684.15Z"/><path class="cls-2" d="M342,654.69c-3.27,0-4.91,1.64-3.27,3.28,0,3.27,8.18,3.27,8.18,0C346.91,656.33,343.64,654.69,342,654.69Z"/><path class="cls-2" d="M646.36,640c-3.27,0-4.91,1.63-3.27,3.27,0,3.27,8.18,3.27,8.18,0C651.27,641.6,648,640,646.36,640Z"/><path class="cls-2" d="M147.27,697.24a3.52,3.52,0,0,0-3.27,3.27c0,3.28,8.18,3.28,8.18,0C152.18,698.88,148.91,697.24,147.27,697.24Z"/><path class="cls-2" d="M312.55,720.15c-3.28,0-4.91,1.64-3.28,3.27,0,3.27,8.18,3.27,8.18,0C317.45,721.79,314.18,720.15,312.55,720.15Z"/><path class="cls-2" d="M81.82,654.69A3.52,3.52,0,0,0,78.55,658c0,3.27,8.18,3.27,8.18,0C86.73,656.33,83.45,654.69,81.82,654.69Z"/><path class="cls-2" d="M762.55,640a3.52,3.52,0,0,0-3.28,3.27c0,3.27,8.18,3.27,8.18,0C767.45,641.6,764.18,640,762.55,640Z"/><path class="cls-2" d="M245.45,648.15c-1.63,0-4.9,1.64-3.27,3.27,0,3.27,8.18,3.27,8.18,0C250.36,649.79,247.09,648.15,245.45,648.15Z"/><path class="cls-2" d="M252,939.42,410.73,774.15c-44.18,9.82-88.37,19.64-130.91,26.18L152.18,932.88C186.55,937.79,219.27,939.42,252,939.42Z"/><path class="cls-2" d="M787.09,880.51c10-.71,19.94-1.1,29.91-1.33v-30Z"/><path class="cls-2" d="M787.09,723.42,621.82,895.24c37.63-4.91,76.91-9.82,117.82-13.09L817,801.47v-75.9Z"/><path class="cls-2" d="M229.09,805.24c-32.73,1.64-63.82,0-99.82-4.91L32.73,901.79v3.27c26.18,9.82,54,18,80.18,22.91Z"/><path class="cls-2" d="M396,929.6,579.27,736.51C540,743.06,502.36,751.24,468,759.42l-170.18,180Q349.36,934.52,396,929.6Z"/><path class="cls-2" d="M571.09,901.79l171.82-180c-37.64,0-73.64,1.63-111.27,6.54L448.36,921.42C494.18,913.24,528.55,908.33,571.09,901.79Z"/><path class="cls-2" d="M229.09,720.15c-3.27,0-4.91,1.64-3.27,3.27,0,3.27,8.18,3.27,8.18,0C234,721.79,230.73,720.15,229.09,720.15Z"/><path class="cls-2" d="M32.73,775.79v78.54l58.91-62.18C72,788.88,52.36,782.33,32.73,775.79Z"/><path class="cls-2" d="M1012.91,754.51c-5.64-1.53-11.27-2.9-16.91-4.16v21.58Z"/><path class="cls-2" d="M1004.73,622c16.36,0,27.82,13.09,27.82,29.45s-11.46,29.46-27.82,29.46a25.54,25.54,0,0,1-8.73-1.57v38c17.09,3.48,34.18,7.26,51.27,11.06V608.88H996v14.43A28.4,28.4,0,0,1,1004.73,622Z"/><path class="cls-2" d="M1009.64,651.42c0-1.63-3.28-3.27-4.91-3.27a3.53,3.53,0,0,0-3.28,3.27C1001.45,654.69,1009.64,654.69,1009.64,651.42Z"/><path class="cls-2" d="M32.73,605.6V739.79C255.27,820,386.18,723.42,621.82,695.6c71-8.19,132.9-9.54,195.18-5v-85Zm49.09,81.82C67.09,687.42,54,674.33,54,658s11.45-29.46,27.82-29.46S109.64,641.6,109.64,658,98.18,687.42,81.82,687.42ZM147.27,730c-16.36,0-27.82-13.09-27.82-29.46s11.46-29.45,27.82-29.45,27.82,13.09,27.82,29.45S163.64,730,147.27,730Zm81.82,22.91c-16.36,0-27.82-13.09-27.82-29.46S214.36,694,229.09,694s27.82,13.09,27.82,29.45S245.45,752.88,229.09,752.88Zm16.36-72c-16.36,0-27.81-13.09-27.81-29.46S229.09,622,245.45,622s27.82,13.09,27.82,29.45S261.82,680.88,245.45,680.88Zm67.1,72c-16.37,0-27.82-13.09-27.82-29.46S297.82,694,312.55,694s27.81,13.09,27.81,29.45S328.91,752.88,312.55,752.88ZM342,687.42c-16.36,0-27.82-13.09-27.82-29.45s13.09-29.46,27.82-29.46S369.82,641.6,369.82,658,358.36,687.42,342,687.42Zm90,29.46a29.33,29.33,0,0,1-29.45-29.46c0-16.36,14.72-29.45,29.45-29.45s27.82,13.09,27.82,29.45S448.36,716.88,432,716.88Zm108-44.19c-16.36,0-27.82-13.09-27.82-29.45s11.46-29.45,27.82-29.45,27.82,13.09,27.82,29.45S556.36,672.69,540,672.69Zm106.36,0c-16.36,0-27.81-13.09-27.81-29.45s13.09-29.45,27.81-29.45,27.82,13.09,27.82,29.45S662.73,672.69,646.36,672.69Zm116.19,0c-16.37,0-27.82-13.09-27.82-29.45s13.09-29.45,27.82-29.45,27.81,13.09,27.81,29.45S778.91,672.69,762.55,672.69Z"/><path class="cls-1" d="M108,980.33H58.91c-9.82,0-16.36,6.55-16.36,16.36s6.54,16.37,16.36,16.37h47.45c9.82,0,16.37-6.55,16.37-16.37S116.18,980.33,108,980.33Z"/><path class="cls-1" d="M266.73,995.06H219.27c-9.82,0-16.36,6.54-16.36,16.36s6.54,16.37,16.36,16.37h47.46c9.82,0,16.36-6.55,16.36-16.37S276.55,995.06,266.73,995.06Z"/><path class="cls-1" d="M711.82,995.06H664.36c-9.81,0-16.36,6.54-16.36,16.36s6.55,16.37,16.36,16.37h47.46c9.82,0,16.36-6.55,16.36-16.37S721.64,995.06,711.82,995.06Z"/><path class="cls-1" d="M949.09,968.88c0,7.46,3.79,13,9.91,15.26V953.61C952.88,955.85,949.09,961.42,949.09,968.88Z"/><path class="cls-1" d="M780.55,1000c-9.82,0-16.37,6.54-16.37,16.36s6.55,16.36,16.37,16.36H817V1000Z"/><path class="cls-1" d="M492.55,975.42H445.09c-9.82,0-16.36,6.55-16.36,16.37s6.54,16.36,16.36,16.36h47.46c9.81,0,16.36-6.55,16.36-16.36S502.36,975.42,492.55,975.42Z"/><path class="cls-1" d="M595.64,1000H548.18c-9.82,0-16.36,6.54-16.36,16.36s6.54,16.36,16.36,16.36h47.46c9.81,0,16.36-6.54,16.36-16.36S605.45,1000,595.64,1000Z"/><path class="cls-1" d="M392.73,995.06H343.64c-9.82,0-16.37,6.54-16.37,16.36s6.55,16.37,16.37,16.37h49.09c9.82,0,16.36-6.55,16.36-16.37A16.39,16.39,0,0,0,392.73,995.06Z"/><path class="cls-1" d="M634.91,947.6H587.45c-9.81,0-16.36,6.55-16.36,16.37s6.55,16.36,16.36,16.36h47.46c9.82,0,16.36-6.54,16.36-16.36S644.73,947.6,634.91,947.6Z"/><path class="cls-1" d="M803.45,944.33c0-9.82-6.54-16.36-16.36-16.36H739.64c-9.82,0-16.37,6.54-16.37,16.36s6.55,16.36,16.37,16.36h47.45A16.39,16.39,0,0,0,803.45,944.33Z"/><path class="cls-1" d="M81.82,628.51C65.45,628.51,54,641.6,54,658s13.09,29.45,27.82,29.45c16.36,0,27.82-13.09,27.82-29.45S98.18,628.51,81.82,628.51ZM78.55,658a3.52,3.52,0,0,1,3.27-3.28c1.63,0,4.91,1.64,4.91,3.28C86.73,661.24,78.55,661.24,78.55,658Z"/><path class="cls-1" d="M147.27,671.06c-16.36,0-27.82,13.09-27.82,29.45S130.91,730,147.27,730s27.82-13.09,27.82-29.46S163.64,671.06,147.27,671.06ZM144,700.51a3.52,3.52,0,0,1,3.27-3.27c1.64,0,4.91,1.64,4.91,3.27C152.18,703.79,144,703.79,144,700.51Z"/><path class="cls-1" d="M432,658c-14.73,0-29.45,13.09-29.45,29.45A29.33,29.33,0,0,0,432,716.88c16.36,0,27.82-13.09,27.82-29.46S446.73,658,432,658Zm-3.27,29.45c-1.64-1.63,1.63-3.27,3.27-3.27s4.91,1.64,4.91,3.27C436.91,690.69,428.73,690.69,428.73,687.42Z"/><path class="cls-1" d="M540,613.79c-16.36,0-27.82,13.09-27.82,29.45s11.46,29.45,27.82,29.45,27.82-13.09,27.82-29.45S556.36,613.79,540,613.79Zm-3.27,29.45c-1.64-1.64,1.63-3.27,3.27-3.27s4.91,1.63,4.91,3.27C544.91,646.51,536.73,646.51,536.73,643.24Z"/><path class="cls-1" d="M646.36,613.79c-14.72,0-27.81,13.09-27.81,29.45s11.45,29.45,27.81,29.45,27.82-13.09,27.82-29.45S661.09,613.79,646.36,613.79Zm-3.27,29.45c-1.64-1.64,0-3.27,3.27-3.27,1.64,0,4.91,1.63,4.91,3.27C651.27,646.51,643.09,646.51,643.09,643.24Z"/><path class="cls-1" d="M762.55,613.79c-14.73,0-27.82,13.09-27.82,29.45s11.45,29.45,27.82,29.45,27.81-13.09,27.81-29.45S777.27,613.79,762.55,613.79Zm-3.28,29.45a3.52,3.52,0,0,1,3.28-3.27c1.63,0,4.9,1.63,4.9,3.27C767.45,646.51,759.27,646.51,759.27,643.24Z"/><path class="cls-1" d="M1032.55,651.42c0-16.36-11.46-29.45-27.82-29.45a28.4,28.4,0,0,0-8.73,1.34v56a25.54,25.54,0,0,0,8.73,1.57C1021.09,680.88,1032.55,667.79,1032.55,651.42Zm-31.1,0a3.53,3.53,0,0,1,3.28-3.27c1.63,0,4.91,1.64,4.91,3.27C1009.64,654.69,1001.45,654.69,1001.45,651.42Z"/><path class="cls-1" d="M245.45,622c-16.36,0-27.81,13.09-27.81,29.45s11.45,29.46,27.81,29.46,27.82-13.09,27.82-29.46S261.82,622,245.45,622Zm-3.27,29.45c-1.63-1.63,1.64-3.27,3.27-3.27s4.91,1.64,4.91,3.27C250.36,654.69,242.18,654.69,242.18,651.42Z"/><path class="cls-1" d="M229.09,694c-14.73,0-27.82,13.09-27.82,29.45s11.46,29.46,27.82,29.46,27.82-13.09,27.82-29.46S243.82,694,229.09,694Zm-3.27,29.45c-1.64-1.63,0-3.27,3.27-3.27,1.64,0,4.91,1.64,4.91,3.27C234,726.69,225.82,726.69,225.82,723.42Z"/><path class="cls-1" d="M312.55,694c-14.73,0-27.82,13.09-27.82,29.45s11.45,29.46,27.82,29.46,27.81-13.09,27.81-29.46S327.27,694,312.55,694Zm-3.28,29.45c-1.63-1.63,0-3.27,3.28-3.27,1.63,0,4.9,1.64,4.9,3.27C317.45,726.69,309.27,726.69,309.27,723.42Z"/><path class="cls-1" d="M342,628.51c-14.73,0-27.82,13.09-27.82,29.46s11.46,29.45,27.82,29.45,27.82-13.09,27.82-29.45S356.73,628.51,342,628.51ZM338.73,658c-1.64-1.64,0-3.28,3.27-3.28,1.64,0,4.91,1.64,4.91,3.28C346.91,661.24,338.73,661.24,338.73,658Z"/><path class="cls-1" d="M1063.64,574.51H976.18A17.18,17.18,0,0,0,959,591.69h0a17.19,17.19,0,0,0,17.18,17.19h71.09V728.33c-17.09-3.8-34.18-7.58-51.27-11.06q-8.94-1.83-17.87-3.51A16.14,16.14,0,0,0,959,729.63h0a16.15,16.15,0,0,0,13.16,15.87c8,1.49,15.9,3.06,23.84,4.85,5.64,1.26,11.27,2.63,16.91,4.16L996,771.93l-32.62,33.61A15.52,15.52,0,0,0,959,816.35V819c0,14,17,20.83,26.69,10.78L996,819.1,1047.27,766V896.88c-17.51-3.69-34.5-6.34-51.27-8.53q-9.74-1.27-19.39-2.38A15.79,15.79,0,0,0,959,901.65h0a15.53,15.53,0,0,0,13.62,15.4q11.68,1.47,23.38,3.26,25.63,3.91,51.27,9.29v117.82H32.73v-108C288.2,1025.1,530.33,918,817,910.33q10.79-.29,21.66-.38A15.51,15.51,0,0,0,854,894.43h0a15.52,15.52,0,0,0-15.62-15.52q-10.7,0-21.38.27c-10,.23-19.94.62-29.91,1.33L817,849.14l32.71-34.3A15.55,15.55,0,0,0,854,804.13v-2.64c0-14-17-20.83-26.72-10.74L817,801.47l-77.36,80.68c-40.91,3.27-80.19,8.18-117.82,13.09L787.09,723.42,817,725.57,836.66,727A16.15,16.15,0,0,0,854,710.91v-2.37a16.12,16.12,0,0,0-14.57-16.07q-11.25-1.07-22.43-1.88c-62.28-4.53-124.17-3.18-195.18,5C386.18,723.42,255.27,820,32.73,739.79V605.6H838.55A15.45,15.45,0,0,0,854,590.15h0a14,14,0,0,0-14-14H16.36A16.37,16.37,0,0,0,0,592.51v471.28a16.37,16.37,0,0,0,16.36,16.36H1063.64a16.37,16.37,0,0,0,16.36-16.36V590.88A16.4,16.4,0,0,0,1063.64,574.51Zm-432,153.82c37.63-4.91,73.63-6.54,111.27-6.54l-171.82,180c-42.54,6.54-76.91,11.45-122.73,19.63Zm-52.37,8.18L396,929.6q-46.63,4.92-98.18,9.82L468,759.42C502.36,751.24,540,743.06,579.27,736.51ZM410.73,774.15,252,939.42c-32.73,0-65.45-1.63-99.82-6.54L279.82,800.33C322.36,793.79,366.55,784,410.73,774.15Zm-378,1.64c19.63,6.54,39.27,13.09,58.91,16.36L32.73,854.33Zm0,126,96.54-101.46c36,4.91,67.09,6.55,99.82,4.91L112.91,928c-26.18-4.91-54-13.09-80.18-22.91Z"/><path class="cls-1" d="M817,1000v32.72h11c9.82,0,16.36-6.54,16.36-16.36A16.39,16.39,0,0,0,828,1000Z"/><path class="cls-1" d="M996,985.24h16.91c9.82,0,16.36-6.55,16.36-16.36a16.4,16.4,0,0,0-16.36-16.37H965.45a18.65,18.65,0,0,0-6.45,1.1v30.53a18.65,18.65,0,0,0,6.45,1.1Z"/><path class="cls-1" d="M996,623.31c-11.56,3.74-19.09,14.85-19.09,28.11A29.72,29.72,0,0,0,996,679.31Z"/></svg>
