<?xml version="1.0" encoding="UTF-8"?>
<svg id="Capa_1" data-name="Capa 1" xmlns="http://www.w3.org/2000/svg" viewBox="0 0 24 24">
  <defs>
    <style>
      .cls-1 {
        fill: none;
      }

      .cls-2 {
        fill: #182660;
      }
    </style>
  </defs>
  <path class="cls-1" d="M8.74,11.75c.26,0,.47-.21.47-.47s-.21-.47-.47-.47-.47.21-.47.47.21.47.47.47Z"/>
  <path class="cls-1" d="M11.18,11.75c.26,0,.47-.21.47-.47s-.21-.47-.47-.47-.47.21-.47.47.21.47.47.47Z"/>
  <path class="cls-1" d="M12.92,8.21c.29,0,.54.14.72.35l1.05-3.55.27-1.26-.34-.24-1.89,4.35s-.06.06-.09.09c.02.1.05.18.06.26h.22Z"/>
  <path class="cls-1" d="M10.66,5.76h-.62v.25h1.02c-.13-.12-.26-.22-.39-.25Z"/>
  <path class="cls-1" d="M8.42,12.46h5.52c.67,0,1.21-.54,1.21-1.21s-.54-1.21-1.21-1.21h-5.52c-.67,0-1.21.54-1.21,1.21s.54,1.21,1.21,1.21ZM13.72,10.19c.59,0,1.07.48,1.07,1.07s-.48,1.07-1.07,1.07-1.07-.48-1.07-1.07.48-1.07,1.07-1.07ZM11.18,10.21c.59,0,1.07.48,1.07,1.07s-.48,1.07-1.07,1.07-1.07-.48-1.07-1.07.48-1.07,1.07-1.07ZM8.74,10.21c.59,0,1.07.48,1.07,1.07s-.48,1.07-1.07,1.07-1.07-.48-1.07-1.07.48-1.07,1.07-1.07Z"/>
  <path class="cls-1" d="M11.77,7.18c-.08-.21-.17-.4-.26-.57h-1.47v1.65h2.06c-.06-.26-.17-.66-.33-1.07Z"/>
  <path class="cls-1" d="M18.49,5.9c0-.16-.13-.3-.3-.3s-.3.13-.3.3v1.77h.59v-1.77Z"/>
  <path class="cls-1" d="M13.26,9.43v-.28c0-.19-.16-.35-.35-.35h-.34s-.07.05-.12.05h-3.58c-.06,0-.13.03-.17.07-.05.05-.07.11-.07.17v.33h4.62Z"/>
  <path class="cls-1" d="M13.72,11.73c.26,0,.47-.21.47-.47s-.21-.47-.47-.47-.47.21-.47.47.21.47.47.47Z"/>
  <polygon class="cls-1" points="17.3 5.42 15.49 4.13 15.35 4.75 17.3 5.67 17.3 5.42"/>
  <rect class="cls-1" x="9.18" y="5.76" width=".26" height="2.49"/>
  <path class="cls-2" d="M8.74,12.35c.59,0,1.07-.48,1.07-1.07s-.48-1.07-1.07-1.07-1.07.48-1.07,1.07.48,1.07,1.07,1.07ZM8.74,10.81c.26,0,.47.21.47.47s-.21.47-.47.47-.47-.21-.47-.47.21-.47.47-.47Z"/>
  <path class="cls-2" d="M11.18,12.35c.59,0,1.07-.48,1.07-1.07s-.48-1.07-1.07-1.07-1.07.48-1.07,1.07.48,1.07,1.07,1.07ZM11.18,10.81c.26,0,.47.21.47.47s-.21.47-.47.47-.47-.21-.47-.47.21-.47.47-.47Z"/>
  <path class="cls-2" d="M13.72,12.33c.59,0,1.07-.48,1.07-1.07s-.48-1.07-1.07-1.07-1.07.48-1.07,1.07.48,1.07,1.07,1.07ZM13.72,10.79c.26,0,.47.21.47.47s-.21.47-.47.47-.47-.21-.47-.47.21-.47.47-.47Z"/>
  <path class="cls-2" d="M3.76,19.54c-.17,0-.28.11-.28.28s.11.28.28.28h.81c.17,0,.28-.11.28-.28s-.11-.28-.25-.28h-.84Z"/>
  <path class="cls-2" d="M6.51,19.79c-.17,0-.28.11-.28.28s.11.28.28.28h.81c.17,0,.28-.11.28-.28s-.11-.28-.28-.28h-.81Z"/>
  <path class="cls-2" d="M14.13,20.35h.81c.17,0,.28-.11.28-.28s-.11-.28-.28-.28h-.81c-.17,0-.28.11-.28.28s.11.28.28.28Z"/>
  <path class="cls-2" d="M19.01,19.34c0,.13.06.22.17.26.03.01.07.02.11.02h.81c.17,0,.28-.11.28-.28s-.14-.28-.28-.28h-.81s-.08,0-.11.02c-.1.04-.17.13-.17.26Z"/>
  <path class="cls-2" d="M16.12,20.44h.81c.17,0,.28-.11.28-.28s-.14-.28-.28-.28h-.81c-.17,0-.28.11-.28.28s.11.28.28.28Z"/>
  <path class="cls-2" d="M10.37,19.46c-.17,0-.28.11-.28.28s.11.28.28.28h.81c.17,0,.28-.11.28-.28s-.11-.28-.28-.28h-.81Z"/>
  <path class="cls-2" d="M12.14,19.88c-.17,0-.28.11-.28.28s.11.28.28.28h.81c.17,0,.28-.11.28-.28s-.11-.28-.28-.28h-.81Z"/>
  <path class="cls-2" d="M8.64,19.79c-.17,0-.28.11-.28.28s.11.28.28.28h.84c.17,0,.28-.11.28-.28s-.14-.28-.28-.28h-.84Z"/>
  <path class="cls-2" d="M13.91,19.26c0-.17-.11-.28-.28-.28h-.81c-.17,0-.28.11-.28.28s.11.28.28.28h.81c.17,0,.28-.11.28-.28Z"/>
  <path class="cls-2" d="M16.23,19.2c.14,0,.28-.11.28-.28s-.11-.28-.28-.28h-.81c-.17,0-.28.11-.28.28s.11.28.28.28h.81Z"/>
  <path class="cls-2" d="M3.68,14.02c0,.28.22.5.48.5.28,0,.48-.22.48-.5s-.2-.5-.48-.5-.48.22-.48.5Z"/>
  <path class="cls-2" d="M4.8,14.75c0,.28.2.5.48.5s.48-.22.48-.5-.2-.5-.48-.5-.48.22-.48.5Z"/>
  <path class="cls-2" d="M9.65,14.52c0,.28.22.5.5.5s.48-.22.48-.5-.22-.5-.48-.5-.5.22-.5.5Z"/>
  <path class="cls-2" d="M11.52,13.77c0,.28.2.5.48.5s.48-.22.48-.5-.2-.5-.48-.5-.48.22-.48.5Z"/>
  <path class="cls-2" d="M13.35,13.77c0,.28.2.5.48.5s.48-.22.48-.5-.22-.5-.48-.5-.48.22-.48.5Z"/>
  <path class="cls-2" d="M15.33,13.77c0,.28.2.5.48.5s.48-.22.48-.5-.22-.5-.48-.5-.48.22-.48.5Z"/>
  <path class="cls-2" d="M7.43,13.91c0-.28-.2-.5-.48-.5s-.48.22-.48.5.2.5.48.5.48-.22.48-.5Z"/>
  <path class="cls-2" d="M6.2,15.14c0,.28.2.5.48.5s.48-.22.48-.5-.22-.5-.48-.5-.48.22-.48.5Z"/>
  <path class="cls-2" d="M7.63,15.14c0,.28.2.5.48.5s.48-.22.48-.5-.22-.5-.48-.5-.48.22-.48.5Z"/>
  <path class="cls-2" d="M9.09,14.02c0-.28-.22-.5-.48-.5s-.48.22-.48.5.2.5.48.5.48-.22.48-.5Z"/>
  <path class="cls-2" d="M19.81,14.39s.1.03.15.03c.28,0,.48-.22.48-.5s-.2-.5-.48-.5c-.05,0-.1,0-.15.02-.2.06-.33.25-.33.48s.14.41.33.48Z"/>
  <path class="cls-2" d="M20.97,12.59h-1.5c-.16,0-.29.13-.29.29s.13.29.29.29h1.22v2.05c-.29-.06-.59-.13-.88-.19-.1-.02-.2-.04-.31-.06-.17-.03-.33.1-.33.27,0,.13.09.25.23.27.14.03.27.05.41.08.1.02.19.05.29.07l-.29.3-.56.58s-.08.12-.08.19v.05c0,.24.29.36.46.18l.18-.18.88-.91v2.24c-.3-.06-.59-.11-.88-.15-.11-.01-.22-.03-.33-.04-.16-.02-.3.11-.3.27,0,.13.1.25.23.26.13.02.27.04.4.06.29.04.59.1.88.16v2.02H3.31v-1.85c4.38,1.47,8.52-.37,13.43-.5.12,0,.25,0,.37,0,.15,0,.26-.12.26-.27s-.12-.27-.27-.27c-.12,0-.24,0-.37,0-.17,0-.34.01-.51.02l.51-.54.56-.59s.07-.12.07-.18v-.05c0-.24-.29-.36-.46-.18l-.18.18-1.32,1.38c-.7.06-1.37.14-2.02.22l2.83-2.94c.17.01.34.02.51.04.11,0,.23.02.34.02.16.01.3-.11.3-.28v-.04c0-.14-.11-.26-.25-.28-.13-.01-.26-.02-.38-.03-1.07-.08-2.13-.05-3.34.09-4.04.48-6.28,2.13-10.09.76v-2.3h13.8c.15,0,.26-.12.26-.26,0-.13-.11-.24-.24-.24h-2.03c.39-.33.64-.82.64-1.37,0-.98-.78-1.77-1.75-1.81l1.21-4.1,2.1,1v1.62c0,.16.13.29.29.29h.3v.66l-.38.26c-.14.09-.17.27-.08.41.06.09.15.13.25.13.06,0,.11-.02.16-.05l.06-.04v.18l-.38.26c-.14.09-.17.27-.08.41.06.09.15.13.25.13.06,0,.11-.02.16-.05l.06-.04v.29l-.38.26c-.14.09-.17.27-.08.41.06.09.15.13.25.13.06,0,.11-.02.16-.05l.06-.04v.29l-.38.26c-.14.09-.17.27-.08.41.06.09.15.13.25.13.06,0,.11-.02.16-.05l.06-.04v.18l-.38.26c-.14.09-.17.27-.08.41.06.09.15.13.25.13.06,0,.11-.02.16-.05l.06-.04v.29l-.38.26c-.14.09-.17.27-.08.41.06.09.15.13.25.13.06,0,.11-.02.16-.05l.06-.04v.18l-.38.26c-.14.09-.17.27-.08.41.06.09.15.13.25.13.06,0,.11-.02.16-.05l.06-.04v.18l-.38.26c-.14.09-.17.27-.08.41.06.09.15.13.25.13.06,0,.11-.02.16-.05l.06-.04v.29l-.38.26c-.14.09-.17.27-.08.41.06.09.15.13.25.13.06,0,.11-.02.16-.05l.06-.04v.08l-.38.26c-.14.09-.17.27-.08.41.06.09.15.13.25.13.06,0,.11-.02.16-.05l.06-.04v.18l-.38.26c-.14.09-.17.27-.08.41.06.09.15.13.25.13.06,0,.11-.02.16-.05l.06-.04v.29l-.38.26c-.14.09-.17.27-.08.41.06.09.15.13.25.13.06,0,.11-.02.16-.05l.06-.04v.19c0,.16.13.29.29.29s.29-.13.29-.29v-.58l.38-.26c.14-.09.17-.27.08-.41-.09-.14-.27-.17-.41-.08l-.06.04v-.29l.38-.26c.14-.09.17-.27.08-.41-.09-.14-.27-.17-.41-.08l-.06.04v-.18l.38-.26c.14-.09.17-.27.08-.41-.09-.14-.27-.17-.41-.08l-.06.04v-.08l.38-.26c.14-.09.17-.27.08-.41-.09-.14-.27-.17-.41-.08l-.06.04v-.29l.38-.26c.14-.09.17-.27.08-.41-.09-.14-.27-.17-.41-.08l-.06.04v-.18l.38-.26c.14-.09.17-.27.08-.41-.09-.14-.27-.17-.41-.08l-.06.04v-.18l.38-.26c.14-.09.17-.27.08-.41-.09-.14-.27-.17-.41-.08l-.06.04v-.29l.38-.26c.14-.09.17-.27.08-.41-.09-.14-.27-.17-.41-.08l-.06.04v-.18l.38-.26c.14-.09.17-.27.08-.41-.09-.14-.27-.17-.41-.08l-.06.04v-.29l.38-.26c.14-.09.17-.27.08-.41-.09-.14-.27-.17-.41-.08l-.06.04v-.29l.38-.26c.14-.09.17-.27.08-.41-.09-.14-.27-.17-.41-.08l-.06.04v-.18l.38-.26c.14-.09.17-.27.08-.41-.09-.14-.27-.17-.41-.08l-.06.04v-.27h.3c.16,0,.29-.13.29-.29v-2.06c0-.49-.4-.89-.89-.89-.13,0-.25.03-.36.08-.02-.03-.04-.05-.06-.07l-3.11-2.21c-.07-.05-.17-.07-.25-.04-.09.02-.16.09-.19.17l-1.83,4.21c-.02-.06-.04-.11-.06-.17-.41-1.07-.94-1.68-1.57-1.8-.02,0-.04,0-.06,0h-1.81c-.17,0-.3.13-.3.3v2.85c-.11.04-.21.11-.3.19-.16.16-.25.37-.25.6v.37c-.82.17-1.44.9-1.44,1.77,0,.55.25,1.04.64,1.37H3.03c-.15,0-.28.13-.28.28v8.07c0,.15.13.28.28.28h17.93c.15,0,.28-.13.28-.28v-8.1c0-.14-.11-.28-.28-.28ZM17.9,5.9c0-.16.13-.3.3-.3s.3.13.3.3v1.77h-.59v-1.77ZM15.49,4.13l1.81,1.29v.26l-1.95-.93.13-.62ZM12.73,7.86l1.89-4.35.34.24-.27,1.26-1.05,3.55c-.17-.21-.43-.35-.72-.35h-.22c-.02-.07-.04-.16-.06-.26.03-.03.07-.05.09-.09ZM10.04,5.76h.62c.13.03.26.13.39.25h-1.02v-.25ZM10.04,6.61h1.47c.09.17.18.36.26.57.16.42.27.81.33,1.07h-2.06v-1.65ZM9.18,5.76h.26v2.49h-.26v-2.49ZM8.71,8.93s.11-.07.17-.07h3.58s.08-.03.12-.05h.34c.19,0,.35.16.35.35v.28h-4.62v-.33c0-.06.02-.13.07-.17ZM7.2,11.25c0-.67.54-1.21,1.21-1.21h5.52c.67,0,1.21.54,1.21,1.21s-.54,1.21-1.21,1.21h-5.52c-.67,0-1.21-.54-1.21-1.21ZM13.57,15.23c.64-.08,1.26-.11,1.91-.11l-2.94,3.08c-.73.11-1.32.2-2.1.34l3.14-3.31ZM12.67,15.37l-3.14,3.31c-.53.06-1.09.11-1.68.17l2.91-3.08c.59-.14,1.23-.28,1.91-.39ZM9.79,16.01l-2.72,2.83c-.56,0-1.12-.03-1.71-.11l2.19-2.27c.73-.11,1.49-.28,2.24-.45ZM3.31,16.04c.34.11.67.22,1.01.28l-1.01,1.06v-1.35ZM3.31,18.2l1.65-1.74c.62.08,1.15.11,1.71.08l-1.99,2.1c-.45-.08-.92-.22-1.37-.39v-.06Z"/>
</svg>