<?xml version="1.0" encoding="UTF-8"?>
<svg id="Capa_1" data-name="Capa 1" xmlns="http://www.w3.org/2000/svg" viewBox="0 0 24 24">
  <defs>
    <style>
      .cls-1 {
        fill: #182660;
      }
    </style>
  </defs>
  <path class="cls-1" d="M8.52,8.64l.72-1.69c.07-.16,0-.35-.17-.42s-.35,0-.42.17l-.77,1.81c-.03.08-.03.17,0,.25l.77,1.82c.05.12.17.19.29.19.04,0,.08,0,.12-.03.16-.07.24-.25.17-.41l-.72-1.7Z"/>
  <path class="cls-1" d="M10.02,7.09c-.16-.07-.35,0-.42.17l-.54,1.25c-.03.08-.03.17,0,.25l.54,1.26c.05.12.17.19.29.19.04,0,.08,0,.12-.03.16-.07.24-.25.17-.41l-.48-1.14.48-1.13c.07-.16,0-.35-.17-.42Z"/>
  <path class="cls-1" d="M16.59,2.88c-.3-.18-.59-.14-.83-.1-.09.01-.17.03-.24.03-.03,0-.05,0-.07.01-.04-.02-.08-.03-.12-.03-.16,0-.31,0-.46,0-.33-.01-.65-.02-.97.02-.56.08-1.12.2-1.67.32-.16.03-.32.07-.47.1-.04-.03-.08-.04-.13-.05-.14-.02-.28-.05-.4-.07-.26-.05-.51-.09-.76-.11-.89-.08-1.68-.14-2.42-.19-.41-.02-.85.28-.91.65-.08.48.2.93.65,1.05.89.24,1.77.46,2.6.64.09.02.18.03.26.03.37,0,.69-.19.85-.52,0-.01,0-.02.01-.03.04,0,.09,0,.14.02.13.02.27.04.42.02.22-.02.44-.05.66-.08.13-.02.26-.04.39-.05,0,0,0,0,0,0,.03.01.07.03.12.04,0,0,.02,0,.03,0,.08.02.21.06.35,0,.15-.06.29-.01.5.09-.05.07-.1.14-.14.22-.09.15-.18.3-.26.46-.44.02-.77.21-.95.58-.02.04-.04.08-.06.12-.13.27-.27.54-.39.83-.14.36-.28.73-.41,1.08-.06.15-.11.31-.17.46-.02.04,0,.09,0,.14-.01.02-.04.03-.04.06-.02.08-.04.16-.06.23-.02.08-.04.16-.06.24-.02.05-.02.1-.03.16,0,.04-.02.09-.02.13,0,.01,0,.03,0,.04-.07.47-.2,1.37-.21,1.46,0,.04-.01.07-.01.1-.07,1-.11,2.02-.15,3-.01.3-.03.59-.04.89l-.04.81c-.07,1.52-.14,3.09-.21,4.64-.02.54.31.93.81.96.02,0,.03,0,.05,0,.48,0,.82-.34.86-.86.06-.72.11-1.46.17-2.17.06-.76.12-1.55.18-2.33.02-.26.04-.53.06-.79.06-.77.11-1.57.22-2.35.08-.54.21-1.08.34-1.64.06-.24.12-.49.17-.73.05-.11.16-.31.31-.6.01-.02.02-.03.03-.05.09-.17.18-.35.27-.52.36-.7.73-1.42,1.06-2.15.35-.78.68-1.57,1-2.35.14-.33.28-.67.42-1,.05-.11.09-.24.08-.38,0-.13-.07-.31-.29-.45ZM10.92,4.37c-.09.19-.29.17-.4.15-.82-.19-1.69-.4-2.57-.64-.16-.04-.21-.19-.19-.32.02-.05.14-.14.25-.13.73.04,1.52.1,2.4.19.23.02.45.06.71.11.01,0,.03,0,.04,0-.08.23-.15.45-.24.65ZM13.74,3.9c-.1,0-.21.02-.32.06-.02,0-.04-.01-.06-.01,0,0-.02,0-.03,0-.06-.02-.15-.06-.27-.05-.15.02-.3.04-.45.06-.22.03-.42.06-.62.08-.03,0-.06,0-.1,0,.02-.07.03-.14.05-.2.14-.03.28-.06.41-.09.53-.11,1.08-.23,1.62-.31.24-.03.51-.03.79-.02l-.41.67c-.18-.09-.39-.18-.62-.18ZM16.21,3.46c-.14.33-.28.67-.42,1-.32.77-.65,1.56-1,2.33-.32.71-.69,1.43-1.05,2.12-.09.17-.18.34-.26.51,0,.01-.02.02-.02.04-.12.23-.28.54-.34.66-.01.02-.02.05-.03.07-.06.26-.12.51-.18.76-.14.56-.28,1.13-.36,1.71-.11.8-.17,1.61-.22,2.39-.02.26-.04.52-.06.78-.06.78-.12,1.57-.18,2.33-.05.71-.11,1.45-.17,2.17-.02.29-.18.28-.25.28-.05,0-.22,0-.21-.3.06-1.55.14-3.12.21-4.64l.04-.81c.01-.3.03-.59.04-.89.04-.98.09-1.99.15-2.99,0,0,0-.02,0-.03,0-.01,0-.02,0-.03.02-.11.14-1,.21-1.45,0,0,0-.01,0-.02,0,0,0-.01,0-.02,0-.03.01-.06.02-.1,0,0,0,0,0-.01,0-.04.01-.06.01-.07,0-.01,0-.02.01-.03.02-.07.04-.15.06-.23.37-.05.52-.38.59-.55.29-.64.6-1.25.86-1.76.28-.54.53-1.02.82-1.48.27-.43.56-.86.84-1.28.11-.16.22-.33.33-.49.07,0,.13-.02.19-.03.17-.03.28-.04.37,0,0,.01-.01.03-.02.05Z"/>
</svg>