<?xml version="1.0" encoding="UTF-8"?>
<svg id="Capa_1" data-name="Capa 1" xmlns="http://www.w3.org/2000/svg" viewBox="0 0 24 24">
  <defs>
    <style>
      .cls-1 {
        fill: #182660;
      }
    </style>
  </defs>
  <g>
    <g>
      <rect class="cls-1" x="10.29" y="9.03" width="2.84" height="0"/>
      <path class="cls-1" d="M10.29,9.03v1.34h-.01s-.52.77-.52.77c-.03.05-.05.1-.05.16v.81l-2.26,7.92c-.02.06-.01.13.01.19l.37.85c.06.14.23.21.37.15.03-.01.06-.03.09-.06l.57-.57s.04-.05.06-.09l1.71-3.84.22,3.74c0,.07.03.14.08.18l.57.57c.11.11.29.11.4,0l.57-.57s.08-.11.08-.18l.22-3.74,1.71,3.84s.03.06.06.09l.57.57c.11.11.29.11.4,0,.03-.03.05-.06.06-.09l.37-.85c.03-.06.03-.13.01-.19l-2.26-7.92v-.81c0-.06-.02-.11-.05-.16l-.52-.78v-.77h0v-.57h-2.84ZM10.85,9.6h1.71v.57h-1.71v-.57ZM10.28,11.39l.44-.65h1.97l.44.65v.48h-2.84v-.48ZM8.42,20.23l-.24.24-.16-.37.32-1.12h.64l-.56,1.26ZM9.23,18.41h-.73l1.71-5.97h1.21v1.08l-2.18,4.89ZM11.99,20.27l-.29.29-.29-.29-.08-1.3h.73l-.08,1.3ZM12.27,15.55l-.17,2.86h-.8l-.17-2.86h0l.57-1.28.57,1.28h0ZM15.38,20.09l-.16.37-.24-.24-.56-1.26h.64l.32,1.12ZM13.19,12.44l1.71,5.97h-.73l-2.18-4.89v-1.08h1.21Z"/>
    </g>
    <path class="cls-1" d="M14.34,11.6h-.86c-.11,0-.2-.12-.2-.27s.09-.27.2-.27h.86c.11,0,.2.12.2.27s-.09.27-.2.27Z"/>
    <g>
      <path class="cls-1" d="M11.98,2.75h-.57c-.79,0-1.41.43-1.41.98v1.07c0,.35.37.62.84.62h.59v3.59c0,.15.12.27.27.27s.27-.12.27-.27v-3.59h.59c.47,0,.84-.27.84-.62v-1.07c0-.55-.62-.98-1.41-.98ZM12.86,4.78s-.13.1-.3.1h-1.71c-.17,0-.28-.07-.3-.1v-1.06c0-.21.37-.44.87-.44h.57c.5,0,.87.23.87.44v1.06Z"/>
      <rect class="cls-1" x="11.17" y="3.76" width="1.07" height=".85" rx=".27" ry=".27"/>
    </g>
  </g>
  <g>
    <path class="cls-1" d="M15.19,11.59c.11,0,.19-.08.2-.19,0-.11-.08-.2-.19-.2-.11,0-.2.08-.2.19,0,.11.09.2.19.2Z"/>
    <path class="cls-1" d="M15.71,11.59c.11,0,.19-.08.2-.19,0-.11-.08-.2-.19-.2-.11,0-.2.08-.2.19,0,.11.09.2.19.2Z"/>
    <path class="cls-1" d="M15.19,12.11c.11,0,.2-.09.19-.2,0-.11-.09-.19-.19-.19-.11,0-.2.09-.2.19,0,.11.09.2.2.2Z"/>
    <path class="cls-1" d="M15.71,12.11c.11,0,.2-.09.19-.2,0-.11-.09-.19-.19-.19-.11,0-.2.09-.2.19,0,.11.09.2.2.2Z"/>
    <path class="cls-1" d="M15.19,12.63c.11,0,.2-.09.19-.2,0-.11-.09-.2-.2-.19-.11,0-.19.09-.19.19,0,.11.09.2.2.2Z"/>
    <path class="cls-1" d="M15.71,12.63c.11,0,.19-.08.2-.19,0-.11-.08-.2-.19-.2-.11,0-.2.09-.2.19,0,.11.09.2.19.2Z"/>
    <path class="cls-1" d="M16.56,10.79v-.13s0-.06,0-.1c0-.12,0-.24,0-.37,0-.32-.25-.58-.57-.58-.35,0-.7,0-1.09,0-.27,0-.51.21-.56.49,0,.04,0,.07-.01.11v.32s0,.01,0,.01c0,0,0,0,0,.01,0,.05,0,.09,0,.14v.06s0,.02,0,.03h0v1.33h0s0,.03,0,.03v.17s0,.02,0,.03v.33s0,.02,0,.02c0,.03,0,.07.01.11.05.28.29.48.56.49.19,0,.38,0,.55,0s.35,0,.52,0c.32,0,.57-.27.57-.6,0-.4,0-.8,0-1.19v-.41s0,0,0,0v-.27ZM16.16,12.65c0,.14-.07.22-.21.22-.33,0-.66,0-.99,0-.14,0-.21-.08-.21-.21,0-.29,0-.57,0-.86v-.35s0-.36,0-.36h0s1.42,0,1.42,0c0,.52,0,1.05,0,1.57ZM16.16,10.66h-1.42c0-.14,0-.29,0-.43,0-.14.07-.22.22-.22.17,0,.33,0,.5,0s.32,0,.48,0c.14,0,.21.07.21.21,0,.14,0,.29,0,.43Z"/>
  </g>
</svg>