<svg id="Capa_1" data-name="Capa 1" xmlns="http://www.w3.org/2000/svg" viewBox="0 0 1080 1080"><defs><style>.cls-1{fill:#FFFFFF;}.cls-2{fill:#FFFFFF;}</style></defs><path class="cls-1" d="M288.25,1028l24.21-62.18,2.65.15,15,62Z"/><path class="cls-2" d="M395,285.23l42.06-98.43a18.47,18.47,0,1,0-34-14.51L358,277.94a18.48,18.48,0,0,0,0,14.48l45.15,106.39a18.47,18.47,0,0,0,34-14.44Z"/><path class="cls-2" d="M482.89,375.93a18.47,18.47,0,0,0,9.78-24.22l-28.16-66.37,28.14-65.87a18.47,18.47,0,0,0-34-14.52l-31.24,73.1a18.52,18.52,0,0,0,0,14.48l31.25,73.61a18.46,18.46,0,0,0,24.22,9.79Z"/><path class="cls-2" d="M824.72,33.87c-.52-7.54-3.89-18.19-16.9-26.09C790.3-2.85,773.3-.19,759.64,2a86.53,86.53,0,0,1-14,1.49,21.77,21.77,0,0,0-3.88.32,18.43,18.43,0,0,0-7.35-1.53c-9.2,0-18.19-.29-26.88-.57C688,1,669.56.44,650.85,3.06,618,7.68,585.23,14.69,553.55,21.48c-9,1.94-18.39,3.93-27.6,5.85a18.55,18.55,0,0,0-7.57-3c-8.35-1.33-16.11-2.69-23.61-4-15.38-2.7-29.91-5.24-44.53-6.61C398.37,8.81,352.17,5.23,309,2.73c-24.13-1.41-49.38,16.63-53,37.82-4.72,27.84,11.5,54.14,37.72,61.16,52.09,14,103.07,26.62,151.52,37.6a69.14,69.14,0,0,0,15.28,1.76c21.66,0,40.24-11,49.54-30.17.3-.63.58-1.26.88-1.89,2.5.24,5.09.59,7.84.95,7.39,1,15.77,2.12,24.54,1.32,13-1.18,25.87-3,38.34-4.83,7.53-1.08,15.3-2.19,22.92-3.13l.14.05a44.08,44.08,0,0,0,7,2.24c.56.12,1.15.29,1.74.45,4.56,1.24,12.19,3.32,20.32-.17,8.84-3.8,16.34-1,29.09,5.1q-4.08,6.44-8.08,12.89c-5.37,8.7-10.51,17.45-15.54,26.33-26,1.17-44.69,12.63-55.5,34.11q-1.71,3.41-3.44,6.8c-7.84,15.51-15.95,31.54-22.69,48.23-8.47,21-16.36,42.51-24,63.34-3.23,8.82-6.57,17.94-9.92,26.93a18.38,18.38,0,0,0-1.06,8.23,19.1,19.1,0,0,0-1.13,3.27c-1.11,4.62-2.28,9.14-3.42,13.5-1.23,4.73-2.39,9.22-3.47,13.78a68.06,68.06,0,0,0-2,9.24c-.5,2.56-.93,5-1.29,7.38-.14.86-.25,1.72-.34,2.55-4.33,27.53-11.54,80.15-12.26,85.38a51.33,51.33,0,0,0-.82,6.12c-3.93,58.4-6.5,117.76-9,175.17Q487.75,680.1,486.6,706l-2.16,47.41c-4,88.75-8.2,180.52-12,270.81-1.31,31.5,18.14,54.42,47.32,55.75q1.37.06,2.7.06c27.78,0,47.81-19.89,50.19-50.28,3.32-42.3,6.55-85.3,9.68-126.88,3.35-44.61,6.82-90.73,10.39-136.07,1.21-15.3,2.33-30.84,3.41-45.87,3.24-45.19,6.59-91.92,12.84-137.16,4.39-31.78,12-63,20-96,3.39-13.94,6.9-28.33,10.16-42.85,3.2-6.27,9.44-18.21,18.2-34.88a28.11,28.11,0,0,0,1.79-3q7.85-15.29,15.76-30.53c21.06-40.66,42.83-82.71,62.15-125.28,20.57-45.31,39.91-91.92,58.62-137C803.64,95.1,811.85,75.31,820,55.92,822.68,49.66,825.3,42.14,824.72,33.87ZM476.82,94.8c-5.24,10.81-16.91,10-23.39,8.49C405.43,92.4,354.92,79.87,303.29,66c-9.07-2.43-12-11.33-10.94-18.78,1.42-2.64,8.38-8,14.49-7.64,42.75,2.48,88.52,6,140,10.85,13.15,1.23,26.34,3.54,41.61,6.22l2.62.46C486.57,70.64,482.35,83.39,476.82,94.8Zm165-27.66A55.75,55.75,0,0,0,623.1,70.4c-1-.28-2.16-.59-3.42-.86L618.22,69c-3.29-1.29-8.78-3.45-15.5-2.65-8.86,1-17.73,2.32-26.3,3.56-12.56,1.8-24.42,3.5-36.45,4.6a38.74,38.74,0,0,1-5.62,0c.9-4,1.83-7.92,2.81-11.8,8.1-1.69,16.22-3.43,24.13-5.13,31-6.64,63.14-13.52,94.7-18,14.28-2,29.68-1.71,45.94-1.2L678.16,77.36C667.67,72.35,655.62,67.14,641.78,67.14ZM786,41.55c-8.23,19.5-16.46,39.34-24.43,58.54C743,144.89,723.75,191.22,703.43,236,684.5,277.68,663,319.3,642.12,359.55q-7.75,15-15.47,29.93a19.48,19.48,0,0,0-1.37,2.22c-7.15,13.59-16.44,31.33-20.12,38.61a18.61,18.61,0,0,0-1.54,4.31c-3.33,14.93-7,29.92-10.51,44.42-7.9,32.45-16.08,66-20.72,99.64-6.42,46.45-9.82,93.79-13.1,139.57-1.08,15-2.19,30.45-3.38,45.62-3.59,45.4-7.06,91.56-10.41,136.2-3.13,41.55-6.36,84.52-9.67,126.76-1.32,16.8-10.47,16.38-14.38,16.2-3.16-.14-12.78-.58-12.08-17.29,3.77-90.23,8-182,12-270.68l2.15-47.42q1.17-25.89,2.28-51.8c2.47-57.19,5-116.33,8.93-174.28a12.9,12.9,0,0,1,.29-1.85,17.46,17.46,0,0,0,.31-2c.9-6.53,8-58.21,12.19-84.83.06-.36.1-.71.14-1.07s.09-.79.15-1.19c.28-1.86.61-3.74,1-5.75,0-.21.08-.42.11-.63.4-2.29.65-3.58.8-4.28a19.54,19.54,0,0,0,.59-2c1-4.26,2.13-8.63,3.32-13.24,21.51-2.82,30.1-21.91,34.71-32.14,16.7-37.1,34.79-72.77,50.28-102.78,16.13-31.25,30.85-59.33,47.6-86.48,15.54-25.2,32.52-50.32,48.93-74.62,6.35-9.39,12.9-19.08,19.32-28.71,3.83-.38,7.49-1,10.89-1.49,10.13-1.58,16.46-2.4,21.83.12C786.9,39.33,786.53,40.31,786,41.55Z"/></svg>
