<?xml version="1.0" encoding="UTF-8"?>
<svg id="Capa_1" data-name="Capa 1" xmlns="http://www.w3.org/2000/svg" viewBox="0 0 24 24">
  <defs>
    <style>
      .cls-1 {
        fill: #ffffff;
      }
    </style>
  </defs>
  <path class="cls-1" d="M21.25,18.2l-.5-4.13c0-.07-.05-.13-.11-.17-.04-.03-.09-.05-.14-.05h-3.54c.01-.09.03-.18.04-.28.03-.12.45-2.03.74-2.68.08-.18.02-.29-.03-.34-.13-.15-.34-.1-.41-.08-.44.12-1.31.66-2.03,1.27-.63.53-1.4,1.31-1.64,2.11h-1.91c-.45-.72-.85-1.25-.88-1.29,0,0-.01-.02-.02-.02l-1.26-1.26s.04-.08.04-.12c0-2.31-.77-3.99-1.29-4.56-.23-.26-.61-.37-1.13-.33-.2.02-.39.05-.59.1l-2.63-.99c-.15-.06-.31-.05-.46.02-.24.11-.44.39-.58.79-.12.35-.18.75-.18,1.18,0,1.35.3,1.79.39,1.89l2.38,3.16c.01.25.07.52.16.81,0,.01,0,.03.01.04.12.37.28.72.48,1.05.13.22.28.44.44.64.04.07.1.13.16.19.25.26.5.45.74.55.17.07.35.08.51.04l-.8,2.63c-.02.07,0,.14.03.2.04.06.11.09.18.09h8.09c.12,0,.22-.1.22-.22h0v-1.16l1.77,1.12s.09.05.14.05h3.36c.06,0,.12-.03.17-.08.04-.05.06-.11.05-.17ZM12.35,16.79l-.97-1.74c-.06-.11-.19-.15-.3-.09,0,0,0,0,0,0-.11.06-.14.2-.08.3l.75,1.34c-.21,0-.53-.04-.8-.17-.04-.29-.07-.59-.07-.88,0-.04,0-.08,0-.12,0-1.07.3-1.4.39-1.47.38.6.82,1.35,1.1,2.04,0,.01.01.03.02.04.1.14.46.66.79,1.05h-.3l-.52-.3ZM10.44,15.02l-.2-.18s0,0-.01,0c0-.16.02-.31.03-.45l.23.25c-.02.12-.04.24-.05.38ZM10.28,16.04c-.03-.22-.04-.43-.05-.62l.2.17c0,.19.02.39.04.61-.07-.05-.13-.1-.19-.16h0ZM11.02,13.59c-.1.07-.26.22-.38.54l-.27-.31c.02-.09.04-.18.06-.25.05-.19.12-.37.2-.54.1.13.23.33.39.57ZM10.31,12.67c-.2.35-.59,1.24-.52,2.77-.25-.36-.52-.81-.81-1.37-.06-.11-.19-.15-.3-.09-.06.03-.1.09-.11.15,0,.05-.02.11-.04.18,0-.03.01-.07.02-.11.06-.37.03-.63-.08-.8-.04-.06-.1-.23-.13-.51-.02-.24,0-.41,0-.46.16-.24.39-1.14.39-1.35h0s1.59,1.58,1.59,1.58ZM9.15,10.87l-.29-.29c-.08-.08-.19-.09-.28-.02-.03.02-.29.22-.29.53,0,.16-.22.95-.3,1.09,0,0,0,0,0,.01.04-.37.11-.74.21-1.1.27-.95.51-.99.54-.99.13,0,.31.25.41.46,0,.11.01.22.01.33ZM8.1,13.66c.04.06.04.22.02.4-.07-.21-.11-.42-.14-.64,0,0,0-.01,0-.02.03.09.07.18.12.26ZM3.48,8.99s0-.01-.01-.02c-.03-.04-.28-.41-.28-1.6,0-.39.05-.74.15-1.04.09-.28.22-.48.35-.53.04-.02.08-.02.11,0l2.69,1.02s.02,0,.04.01c-.15.28-.33.68-.5,1.23-.2.65-.34,1.36-.41,2.12-.05.53-.07,1.06-.05,1.6l-2.1-2.78ZM6.11,13.14c-.25-2.32.04-3.96.34-4.93.25-.83.55-1.32.66-1.49.32-.04.69-.02.87.17.07.08.14.17.2.26-.13-.03-.26-.02-.39.01-.66.18-1.11,1.16-1.37,2.98-.19,1.34-.26,2.44-.19,3.29-.04-.1-.08-.2-.11-.3h0ZM7.69,15.29c-.23-.09-.48-.31-.71-.59-.18-.28-.58-1.32-.12-4.5.13-.9.31-1.59.53-2.04.16-.32.34-.52.52-.57.29-.08.58.21.65.29.2.49.39,1.12.5,1.85-.11-.07-.23-.11-.35-.1-.39.02-.68.44-.93,1.31-.24.83-.31,1.73-.22,2.52.04.36.2,1.22.64,1.45.03.01.05.03.08.03-.08.14-.18.26-.29.32-.09.05-.18.05-.29,0ZM15.31,17.09v1.13h-7.57l.81-2.65c.02-.06,0-.13-.03-.19.15-.19.25-.42.33-.63.46.81.86,1.38,1.2,1.69.21.19.37.26.48.27.03.02.07.05.1.07h0c.47.28,1.08.29,1.29.29l.16.09h0l.62.36s.07.03.11.03h.89c.12,0,.22-.1.22-.22,0-.08-.04-.15-.1-.19-.21-.13-.76-.87-1.07-1.32-.2-.5-.48-1.03-.77-1.51h1.59c.03.85.27,1.78.75,2.08l1,.63s-.01.05-.01.08h0ZM14.56,16c-.27-.17-.55-.89-.55-1.9.13-.6.73-1.38,1.67-2.13.64-.52,1.23-.86,1.55-1-.3.84-.65,2.44-.67,2.52,0,0,0,0,0,.01-.13.79-.16,1.53-.1,2.21.05.55.17,1.06.35,1.51.04.1.08.19.11.27l-2.36-1.49ZM17.76,18.01c-.11-.12-.35-.44-.55-.97-.21-.56-.42-1.46-.3-2.73h3.42l.45,3.71h-3.02Z"/>
</svg>
