<svg id="Capa_1" data-name="Capa 1" xmlns="http://www.w3.org/2000/svg" viewBox="0 0 1080 1080"><defs><style>.cls-1{fill:#e94e1b;}.cls-2{fill:#dadada;}.cls-3{fill:#9d9d9c;}.cls-4{fill:#ca9e67;}.cls-5{fill:#285ebc;}.cls-6{fill:#1d1d1b;}</style></defs><path class="cls-1" d="M482.53,200.1V72.82a167.57,167.57,0,0,0-49.56,28V200.1a15.82,15.82,0,0,1-31.64,0V135.22a168.46,168.46,0,0,0-29.78,96V245h337V231.25a167.3,167.3,0,0,0-29.87-95.77V200.1a15.82,15.82,0,1,1-31.64,0v-99a167.83,167.83,0,0,0-49.56-28.26V200.1a15.82,15.82,0,0,1-15.82,15.82h-83.3A15.82,15.82,0,0,1,482.53,200.1Z"/><path class="cls-1" d="M575.71,344.88a15.82,15.82,0,0,1,0-31.64H720.94a18.23,18.23,0,1,0,0-36.45H359.06a18.23,18.23,0,1,0,0,36.45h147.7a15.82,15.82,0,1,1,0,31.64H407V345H673v-.12Z"/><path class="cls-2" d="M290.61,697.53a15.81,15.81,0,0,1-10.4,19.8,131.8,131.8,0,0,0-93,126.44v10l59.12,29.56,32.1-10.71v-70.5a15.83,15.83,0,0,1,31.65,0V862l28.3-9.45a15.87,15.87,0,0,1,10,0l93.29,31.11L482.66,870l10-64.12-15.6-22.33-20.44,13.63a15.85,15.85,0,0,1-8.78,2.66,16,16,0,0,1-4.43-.63,15.82,15.82,0,0,1-10-8.8l-42.52-96.35-44.73,9.11a15.57,15.57,0,0,1-3.17.32A15.83,15.83,0,0,1,327.52,691c-12.54,1.51-25.24,2-37.09,6C290.49,697.2,290.56,697.36,290.61,697.53Z"/><path class="cls-3" d="M916.19,876.36l-.33.17-73.79,37.9a15.77,15.77,0,0,1-12.23.94l-93.27-31.11-93.29,31.11a15.87,15.87,0,0,1-10,0L540,884.26l-93.27,31.11a15.87,15.87,0,0,1-10,0l-93.29-31.11-93.27,31.11a15.84,15.84,0,0,1-12.08-.86l-73.91-37-.33-.17-26-13L151,917.29h29.73a47.52,47.52,0,0,1,47.46,47.46v67.79a47.23,47.23,0,0,1-2.72,15.79h280A15.81,15.81,0,0,1,521.34,1064c12.38,0,24.84,0,37.31.28v-.1a15.82,15.82,0,0,1,15.82-15.82h280a47.23,47.23,0,0,1-2.72-15.79V964.75a47.52,47.52,0,0,1,47.46-47.46h27.54l12.37-52.73Z"/><path class="cls-1" d="M565.83,45.48A13.86,13.86,0,0,0,552,31.64H528a13.86,13.86,0,0,0-13.84,13.84v138.8h51.66Z"/><path class="cls-4" d="M64.41,964.75v67.79a15.84,15.84,0,0,0,15.82,15.82H180.76a15.84,15.84,0,0,0,15.82-15.82v-18.09h-57.9a15.82,15.82,0,1,1,0-31.64h57.9V964.75a15.84,15.84,0,0,0-15.82-15.82H80.23A15.84,15.84,0,0,0,64.41,964.75Z"/><polygon class="cls-5" points="625.26 760.45 660.52 680.55 640.73 664.2 567.02 721.62 625.26 760.45"/><path class="cls-4" d="M610.89,647.33V614a152.33,152.33,0,0,1-59.52,12H528.63a152.55,152.55,0,0,1-59.53-12v33.3L540,702.57Z"/><polygon class="cls-5" points="439.27 664.2 419.48 680.55 454.74 760.45 512.98 721.62 439.27 664.2"/><path class="cls-4" d="M704.62,426.87h14a25.54,25.54,0,0,0,25.5-25.51v-31a25.54,25.54,0,0,0-23.2-25.4H704.62Z"/><path class="cls-4" d="M335.91,370.4v31a25.54,25.54,0,0,0,25.5,25.51h14V345H359.11A25.54,25.54,0,0,0,335.91,370.4Z"/><path class="cls-4" d="M407,442.69c0,.06,0,.13,0,.2V472.8A121.76,121.76,0,0,0,528.63,594.42h22.74A121.75,121.75,0,0,0,673,472.8V345H407Z"/><path class="cls-4" d="M999.77,948.93H899.24a15.84,15.84,0,0,0-15.82,15.82v18.06h57.9a15.82,15.82,0,0,1,0,31.64h-57.9v18.09a15.84,15.84,0,0,0,15.82,15.82H999.77a15.84,15.84,0,0,0,15.82-15.82V964.75A15.84,15.84,0,0,0,999.77,948.93Z"/><path class="cls-5" d="M522.83,817.91l-6.39,40.85L535,852.57a15.9,15.9,0,0,1,10,0l18.55,6.19-6.39-40.85Z"/><polygon class="cls-5" points="503.41 766.03 517.54 786.24 562.99 786.24 578.01 766.98 540 741.63 503.41 766.03"/><path class="cls-2" d="M786.68,714,689.13,694.1l-42.52,96.34a15.82,15.82,0,0,1-10,8.8,16,16,0,0,1-4.43.63,15.85,15.85,0,0,1-8.78-2.66l-19-12.63-17,21.81L597.34,870l40.93,13.65,93.29-31.11a15.9,15.9,0,0,1,10,0l28.3,9.45V802.08a15.83,15.83,0,0,1,31.65,0v70.49l32,10.68,59.2-30.42v-9.06A132.88,132.88,0,0,0,786.68,714Z"/><path class="cls-6" d="M1047.23,1032.54V964.75a47.51,47.51,0,0,0-47.46-47.46H959.28l18.5-78.83a15.82,15.82,0,0,0-22.63-17.69l-30.92,15.89C921,762,866.79,698,793,683L687,661.37,651.1,631.72a15.71,15.71,0,0,0-8.56-3.5V595.9a153.14,153.14,0,0,0,62.07-123.1V458.51h14a57.22,57.22,0,0,0,57.14-57.15v-31a56.84,56.84,0,0,0-6-25.4H720.89a25.54,25.54,0,0,1,23.2,25.4v31a25.54,25.54,0,0,1-25.5,25.51h-14V345H673V472.8a121.75,121.75,0,0,1-121.6,121.62H528.63A121.76,121.76,0,0,1,407,472.8V442.89c0-.07,0-.14,0-.2V345H375.37v81.87h-14a25.54,25.54,0,0,1-25.5-25.51v-31a25.54,25.54,0,0,1,23.2-25.4H310.25a56.69,56.69,0,0,0-6,25.4v31a57.22,57.22,0,0,0,57.14,57.15h14V472.8a153.12,153.12,0,0,0,62.09,123.11v32.31a15.71,15.71,0,0,0-8.56,3.5L393,661.37l-53.2,10.82A15.82,15.82,0,0,0,343,703.52a15.57,15.57,0,0,0,3.17-.32l44.73-9.11,42.52,96.35a15.82,15.82,0,0,0,10,8.8,16,16,0,0,0,4.43.63,15.85,15.85,0,0,0,8.78-2.66l20.44-13.63,15.6,22.33-10,64.12-40.94,13.65-93.29-31.11a15.87,15.87,0,0,0-10,0L310.12,862V802.07a15.83,15.83,0,0,0-31.65,0v70.5l-32.1,10.71-59.12-29.56v-10a131.8,131.8,0,0,1,93-126.44,15.82,15.82,0,1,0-9.41-30.2A163.23,163.23,0,0,0,155.73,838L121.2,820.69a15.82,15.82,0,0,0-22.43,18l19.64,78.61H80.23a47.51,47.51,0,0,0-47.46,47.46v67.79A47.51,47.51,0,0,0,80.23,1080H180.76l1.09,0H505.53a15.82,15.82,0,0,0,0-31.64h-280a47.23,47.23,0,0,0,2.72-15.79V964.75a47.52,47.52,0,0,0-47.46-47.46H151l-13.22-52.92,26,13,.33.17,73.91,37a15.84,15.84,0,0,0,12.08.86l93.27-31.11,93.29,31.11a15.87,15.87,0,0,0,10,0L540,884.26l93.27,31.11a15.87,15.87,0,0,0,10,0l93.29-31.11,93.27,31.11a15.77,15.77,0,0,0,12.23-.94l73.79-37.9.33-.17,23-11.8-12.37,52.73H899.24a47.52,47.52,0,0,0-47.46,47.46v67.79a47.23,47.23,0,0,0,2.72,15.79h-280a15.82,15.82,0,1,0,0,31.64H898.15l1.09,0H999.77A47.51,47.51,0,0,0,1047.23,1032.54ZM138.52,948.93h42.24a15.84,15.84,0,0,1,15.82,15.82v18.06h-57.9a15.82,15.82,0,1,0,0,31.64h57.9v18.09a15.84,15.84,0,0,1-15.82,15.82H80.23a15.84,15.84,0,0,1-15.82-15.82V964.75a15.84,15.84,0,0,1,15.82-15.82ZM640.73,664.19l19.79,16.36-35.26,79.9L567,721.62ZM469.1,614a152.55,152.55,0,0,0,59.53,12h22.74a152.33,152.33,0,0,0,59.52-12v33.31L540,702.57l-70.9-55.24ZM454.74,760.45l-35.26-79.9,19.79-16.36L513,721.62ZM545,852.57a15.9,15.9,0,0,0-10,0l-18.55,6.19,6.39-40.85h34.34l6.39,40.85Zm18-66.33H517.54L503.41,766,540,741.63,578,767Zm329.75,66.59-59.2,30.42-32-10.68V802.08a15.83,15.83,0,0,0-31.65,0V862l-28.3-9.45a15.9,15.9,0,0,0-10,0l-93.29,31.11L597.34,870l-9.94-63.64,17-21.81,19,12.63a15.85,15.85,0,0,0,8.78,2.66,16,16,0,0,0,4.43-.63,15.82,15.82,0,0,0,10-8.8l42.52-96.34L786.68,714A132.88,132.88,0,0,1,892.74,843.77Zm122.85,179.71a15.84,15.84,0,0,1-15.82,15.82H899.24a15.84,15.84,0,0,1-15.82-15.82v-18.09h57.9a15.82,15.82,0,0,0,0-31.64h-57.9V964.75a15.84,15.84,0,0,1,15.82-15.82H999.77a15.84,15.84,0,0,1,15.82,15.82Z"/><path d="M361.41,344.89c-.77,0-1.54,0-2.3.11h16.26v-.11Z"/><path d="M704.62,344.89V345h16.27c-.76-.07-1.53-.11-2.3-.11Z"/><path class="cls-6" d="M483,39.43a201,201,0,0,0-75.85,42.22c-.46.38-.89.79-1.31,1.21a199.29,199.29,0,0,0-65.91,148.39V249a49.85,49.85,0,0,0-17.55,79.79A57.4,57.4,0,0,0,310.25,345h48.86c.76-.07,1.53-.11,2.3-.11h14V345H407v-.12h99.74a15.82,15.82,0,1,0,0-31.64H359.06a18.23,18.23,0,1,1,0-36.45H720.94a18.23,18.23,0,1,1,0,36.45H575.71a15.82,15.82,0,0,0,0,31.64H673V345h31.65v-.11h14c.77,0,1.54,0,2.3.11h48.87a57.53,57.53,0,0,0-12.09-16.23A49.88,49.88,0,0,0,740.18,249V231.25A200.17,200.17,0,0,0,597,39.38,45.52,45.52,0,0,0,552,0H528A45.51,45.51,0,0,0,483,39.43Zm31.19,6A13.86,13.86,0,0,1,528,31.64h24a13.86,13.86,0,0,1,13.84,13.84v138.8H514.17Zm67.48,170.44a15.82,15.82,0,0,0,15.82-15.82V72.83A167.83,167.83,0,0,1,647,101.09v99a15.82,15.82,0,1,0,31.64,0V135.48a167.3,167.3,0,0,1,29.87,95.77V245h-337V231.25a168.46,168.46,0,0,1,29.78-96V200.1a15.82,15.82,0,0,0,31.64,0V100.86a167.57,167.57,0,0,1,49.56-28V200.1a15.82,15.82,0,0,0,15.82,15.82Z"/></svg>