<svg id="Capa_1" data-name="Capa 1" xmlns="http://www.w3.org/2000/svg" viewBox="0 0 1080 1080"><defs><style>.cls-1{fill:#9d9d9c;}.cls-2{fill:#1c94c9;}.cls-3{fill:#1d1d1b;}.cls-4{fill:#f9b233;}.cls-5{fill:#e94e1b;}</style></defs><path class="cls-1" d="M700.08,507.09v20.5q0,25.14,0,50.3c0,8,4.39,12.38,12.33,12.39q28.92,0,57.84,0c8.15,0,12.46-4.35,12.46-12.58V486H700.08v21.09Zm26.15,69.67a11.38,11.38,0,1,1,11.37-11.47A11.41,11.41,0,0,1,726.23,576.76Zm30.3,0A11.38,11.38,0,1,1,768,565.66,11.41,11.41,0,0,1,756.53,576.76Zm.06-30.35A11.38,11.38,0,1,1,768,534.93,11.41,11.41,0,0,1,756.59,546.41Zm.22-53.12a11.38,11.38,0,1,1-11.61,11.22A11.42,11.42,0,0,1,756.81,493.29Zm-30.54,53.12A11.38,11.38,0,1,1,737.6,534.9,11.41,11.41,0,0,1,726.27,546.41Zm.2-53.12a11.38,11.38,0,1,1-11.63,11.2A11.43,11.43,0,0,1,726.47,493.29Z"/><path class="cls-1" d="M472.62,124.45h99.75c10.16,0,16.42-3.86,17.7-5.73V57c0-12.24-21.79-25.93-51-25.93H505.87c-29.16,0-50.95,13.69-50.95,25.93v61.68C456.2,120.59,462.46,124.45,472.62,124.45Zm18.76-49.78a15.56,15.56,0,0,1,15.56-15.56h31.11a15.56,15.56,0,0,1,15.56,15.56V93.34a15.56,15.56,0,0,1-15.56,15.55H506.94a15.56,15.56,0,0,1-15.56-15.55Z"/><path class="cls-2" d="M782.71,436.73c0-8.2-4.32-12.54-12.49-12.55H712.7c-8.37,0-12.62,4.29-12.62,12.74V462h82.63Z"/><path class="cls-3" d="M506.94,365c0,.48,0,.95.07,1.41h31c0-.46.07-.93.07-1.41V155.56H506.94Z"/><polygon class="cls-4" points="505.9 565.61 435.45 565.61 335.9 914.07 378.48 914.07 505.9 628.45 505.9 565.61"/><polygon class="cls-4" points="505.5 1022.95 522.5 1039.94 539.49 1022.95 543.94 947.25 501.05 947.25 505.5 1022.95"/><polygon class="cls-4" points="489.28 747.16 499.1 914.07 545.89 914.07 555.71 747.16 555.71 747.16 522.5 672.71 489.28 747.16"/><polygon class="cls-4" points="307.77 1012.49 317.2 1034.38 330.93 1020.65 363.68 947.25 326.41 947.25 307.77 1012.49"/><path class="cls-1" d="M606,366.5v-.05H538v.05Z"/><path class="cls-1" d="M507,366.45H440v.05h67Z"/><path class="cls-4" d="M507,366.5h31v-.05H507Z"/><polygon class="cls-4" points="714.06 1020.65 727.78 1034.38 737.22 1012.49 718.58 947.25 681.32 947.25 714.06 1020.65"/><rect class="cls-5" x="472.72" y="399.68" width="99.56" height="33.19"/><polygon class="cls-5" points="439.53 504.27 439.53 532.43 605.46 532.43 605.46 504.27 579.99 466.06 465 466.06 439.53 504.27"/><polygon class="cls-4" points="539.09 628.45 666.51 914.07 709.1 914.07 609.54 565.61 539.09 565.61 539.09 628.45"/><path class="cls-3" d="M539.12,0H505.87c-46,0-82.06,25.05-82.06,57v62.22c0,20.36,21.44,36.3,48.81,36.3h99.75c27.37,0,48.81-15.94,48.81-36.3V57C621.18,25.05,585.14,0,539.12,0Zm51,118.72c-1.28,1.87-7.54,5.73-17.7,5.73H472.62c-10.16,0-16.42-3.86-17.7-5.73V57c0-12.24,21.79-25.93,50.95-25.93h33.25c29.16,0,51,13.69,51,25.93Z"/><path class="cls-3" d="M770.75,1009.07,638.65,546.7V516.62H676.4V485.51H632.84l-27.38-41.07V399.68H606V366.5H440v78.4h-.8L409.13,490a16.56,16.56,0,0,0-2.79,9.2V546.7l-132.1,462.37a16.55,16.55,0,0,0,.72,11.12L296.41,1070a16.6,16.6,0,0,0,27,5.17L356.56,1042a16.34,16.34,0,0,0,3.42-5l99.93-224,12.83,218.19a16.57,16.57,0,0,0,4.84,10.76l33.18,33.19a16.6,16.6,0,0,0,23.47,0L567.41,1042a16.57,16.57,0,0,0,4.84-10.76L585.08,813,685,1037a16.34,16.34,0,0,0,3.42,5l33.18,33.19a16.58,16.58,0,0,0,27-5.17L770,1020.19A16.55,16.55,0,0,0,770.75,1009.07Zm-298-609.39h99.55v33.19H472.72ZM439.53,504.27,465,466.06H580l25.47,38.21v28.16H439.53Zm-108.6,516.38-13.73,13.73-9.43-21.89,18.64-65.24h37.27Zm47.55-106.58H335.9l99.55-348.46H505.9v62.84Zm161,108.88-17,17-17-17-4.45-75.7h42.89Zm16.22-275.79-9.82,166.91H499.1l-9.82-166.91,33.22-74.45,33.21,74.45ZM539.09,628.45V565.61h70.45l99.55,348.46H666.51Zm188.7,405.93-13.73-13.73-32.74-73.4h37.26l18.64,65.24Z"/><rect class="cls-3" x="491.38" y="59.11" width="62.22" height="49.78" rx="15.56"/><path class="cls-3" d="M726.12,516.05a11.38,11.38,0,1,0-11.28-11.56A11.43,11.43,0,0,0,726.12,516.05Z"/><path class="cls-3" d="M756.49,516.05a11.38,11.38,0,1,0-11.29-11.54A11.42,11.42,0,0,0,756.49,516.05Z"/><path class="cls-3" d="M726.33,523.65A11.38,11.38,0,1,0,737.6,534.9,11.4,11.4,0,0,0,726.33,523.65Z"/><path class="cls-3" d="M756.72,523.65A11.38,11.38,0,1,0,768,534.93,11.4,11.4,0,0,0,756.72,523.65Z"/><path class="cls-3" d="M726.05,554a11.38,11.38,0,1,0,11.55,11.29A11.42,11.42,0,0,0,726.05,554Z"/><path class="cls-3" d="M756.78,554A11.38,11.38,0,1,0,768,565.66,11.41,11.41,0,0,0,756.78,554Z"/><path class="cls-3" d="M806.4,469.28l-.08-7.65c0-1.86,0-3.72,0-5.58,0-7,0-14.23-.06-21.38-.29-18.78-14.86-33.7-33.18-34-20.29-.3-41.05-.3-63.46,0-16,.21-29.67,12.17-32.51,28.42-.37,2.14-.53,4.21-.69,6.22l0,18.56,0,.67c0,.27,0,.56,0,.85q0,4,0,8v3.29c0,.5,0,1-.05,1.48l0,.28v77.18l0,.55c0,.5.05,1,.05,1.48v10.11c0,.49,0,1-.05,1.47l0,19,.05.94a62.16,62.16,0,0,0,.69,6.2A34,34,0,0,0,710,613.81c11.3.12,22,.18,32.35.18,10.53,0,20.63-.07,30.42-.19,18.76-.25,33.48-15.66,33.51-35.09,0-23.23,0-46.84,0-69.68V485.08h.08ZM700.08,436.92c0-8.45,4.25-12.73,12.62-12.74h57.52c8.17,0,12.49,4.35,12.49,12.55V462H700.08ZM782.71,486v91.7c0,8.23-4.31,12.58-12.46,12.58q-28.92,0-57.84,0c-7.94,0-12.32-4.41-12.33-12.39q0-25.15,0-50.3V486Z"/></svg>