<svg id="Capa_1" data-name="Capa 1" xmlns="http://www.w3.org/2000/svg" viewBox="0 0 1080 1080"><defs><style>.cls-1{fill:#f9b233;}.cls-2{fill:#e94e1b;}.cls-3{fill:#fff;}.cls-4{fill:#b2b2b2;}.cls-5{fill:#1d71b8;}.cls-6{fill:#1d1d1b;}.cls-7{fill:#432918;}</style></defs><path class="cls-1" d="M593.52,318.51a55.13,55.13,0,0,1,42.21,19.66l60.79-206.39h0l16-73.63-19.72-14L582.68,298.24a17.38,17.38,0,0,1-5.08,6.66c1.3,5.11,2.38,9.7,3.26,13.61Z"/><rect class="cls-1" x="375.5" y="175.65" width="14.91" height="145.69"/><path class="cls-1" d="M919.2,183.64a17.3,17.3,0,0,0-34.6,0v103.3h34.6Z"/><path class="cls-1" d="M485.84,190.26c-7.88-7.63-16-12.58-24.07-14.61H425.41v14.61Z"/><path class="cls-1" d="M593.52,353.51H576.35a17.43,17.43,0,0,1-9.52,2.83H358a14.15,14.15,0,0,0-14.15,14.22l.08,19.47H613.76V373.75A20.26,20.26,0,0,0,593.52,353.51Z"/><polygon class="cls-1" points="849.5 170.44 849.5 155.53 743.55 80.2 735.69 116.34 849.5 170.44"/><path class="cls-2" d="M944.27,899.08a17.18,17.18,0,0,1-2.83,2.37L919.1,916.34V933l3.26-2.18a17.2,17.2,0,0,1,19.08,28.63L919.1,974.34v33.8a17.2,17.2,0,0,1-34.4,0V997.28l-3.26,2.17a17.2,17.2,0,0,1-19.08-28.63l22.34-14.89V939.28l-3.26,2.17a17.2,17.2,0,0,1-19.08-28.63l20.34-13.56a265.66,265.66,0,0,1-28.89-2.52,15.48,15.48,0,0,1-15.15,13.19q-10.87.11-21.66.39C530.33,918,288.2,1025.09,32.73,939.41v108H1047.27V929.59q-25.63-5.4-51.27-9.29-11.68-1.78-23.38-3.26A15.54,15.54,0,0,1,959,901.64a16.14,16.14,0,0,1,.19-2.32C954.22,899.16,949.24,899.09,944.27,899.08Z"/><path class="cls-3" d="M106.36,1013.05H58.91c-9.82,0-16.36-6.55-16.36-16.37s6.54-16.36,16.36-16.36H108c8.18,0,14.73,6.54,14.73,16.36S116.18,1013.05,106.36,1013.05Z"/><path class="cls-3" d="M266.73,1027.77H219.27c-9.82,0-16.36-6.54-16.36-16.36s6.54-16.36,16.36-16.36h47.46c9.82,0,16.36,6.54,16.36,16.36S276.55,1027.77,266.73,1027.77Z"/><path class="cls-3" d="M392.73,1027.77H343.64c-9.82,0-16.37-6.54-16.37-16.36s6.55-16.36,16.37-16.36h49.09a16.39,16.39,0,0,1,16.36,16.36C409.09,1021.23,402.55,1027.77,392.73,1027.77Z"/><path class="cls-3" d="M492.55,1008.14H445.09c-9.82,0-16.36-6.55-16.36-16.37s6.54-16.36,16.36-16.36h47.46c9.81,0,16.36,6.54,16.36,16.36S502.36,1008.14,492.55,1008.14Z"/><path class="cls-3" d="M595.64,1032.68H548.18c-9.82,0-16.36-6.54-16.36-16.36s6.54-16.37,16.36-16.37h47.46c9.81,0,16.36,6.55,16.36,16.37S605.45,1032.68,595.64,1032.68Z"/><path class="cls-3" d="M634.91,980.32H587.45c-9.81,0-16.36-6.55-16.36-16.37s6.55-16.36,16.36-16.36h47.46c9.82,0,16.36,6.55,16.36,16.36S644.73,980.32,634.91,980.32Z"/><path class="cls-3" d="M711.82,1027.77H664.36c-9.81,0-16.36-6.54-16.36-16.36s6.55-16.36,16.36-16.36h47.46c9.82,0,16.36,6.54,16.36,16.36S721.64,1027.77,711.82,1027.77Z"/><path class="cls-3" d="M723.27,944.32c0-9.82,6.55-16.37,16.37-16.37h47.45c9.82,0,16.36,6.55,16.36,16.37a16.39,16.39,0,0,1-16.36,16.36H739.64C729.82,960.68,723.27,954.14,723.27,944.32Z"/><path class="cls-3" d="M828,1032.68H780.55c-9.82,0-16.37-6.54-16.37-16.36s6.55-16.37,16.37-16.37H828a16.4,16.4,0,0,1,16.36,16.37C844.36,1026.14,837.82,1032.68,828,1032.68Z"/><path class="cls-3" d="M965.45,952.5h47.46a16.4,16.4,0,0,1,16.36,16.36c0,9.82-6.54,16.37-16.36,16.37H965.45a18.65,18.65,0,0,1-6.45-1.1c-6.12-2.24-9.91-7.81-9.91-15.27s3.79-13,9.91-15.26A18.65,18.65,0,0,1,965.45,952.5Z"/><path class="cls-3" d="M108,980.32H58.91c-9.82,0-16.36,6.54-16.36,16.36s6.54,16.37,16.36,16.37h47.45c9.82,0,16.37-6.55,16.37-16.37S116.18,980.32,108,980.32Z"/><path class="cls-3" d="M266.73,995.05H219.27c-9.82,0-16.36,6.54-16.36,16.36s6.54,16.36,16.36,16.36h47.46c9.82,0,16.36-6.54,16.36-16.36S276.55,995.05,266.73,995.05Z"/><path class="cls-3" d="M392.73,995.05H343.64c-9.82,0-16.37,6.54-16.37,16.36s6.55,16.36,16.37,16.36h49.09c9.82,0,16.36-6.54,16.36-16.36A16.39,16.39,0,0,0,392.73,995.05Z"/><path class="cls-3" d="M492.55,975.41H445.09c-9.82,0-16.36,6.54-16.36,16.36s6.54,16.37,16.36,16.37h47.46c9.81,0,16.36-6.55,16.36-16.37S502.36,975.41,492.55,975.41Z"/><path class="cls-3" d="M595.64,1000H548.18c-9.82,0-16.36,6.55-16.36,16.37s6.54,16.36,16.36,16.36h47.46c9.81,0,16.36-6.54,16.36-16.36S605.45,1000,595.64,1000Z"/><path class="cls-3" d="M634.91,947.59H587.45c-9.81,0-16.36,6.55-16.36,16.36s6.55,16.37,16.36,16.37h47.46c9.82,0,16.36-6.55,16.36-16.37S644.73,947.59,634.91,947.59Z"/><path class="cls-3" d="M711.82,995.05H664.36c-9.81,0-16.36,6.54-16.36,16.36s6.55,16.36,16.36,16.36h47.46c9.82,0,16.36-6.54,16.36-16.36S721.64,995.05,711.82,995.05Z"/><path class="cls-3" d="M803.45,944.32c0-9.82-6.54-16.37-16.36-16.37H739.64c-9.82,0-16.37,6.55-16.37,16.37s6.55,16.36,16.37,16.36h47.45A16.39,16.39,0,0,0,803.45,944.32Z"/><path class="cls-3" d="M828,1000H780.55c-9.82,0-16.37,6.55-16.37,16.37s6.55,16.36,16.37,16.36H828c9.82,0,16.36-6.54,16.36-16.36A16.4,16.4,0,0,0,828,1000Z"/><path class="cls-3" d="M949.09,968.86c0,7.46,3.79,13,9.91,15.27a18.65,18.65,0,0,0,6.45,1.1h47.46c9.82,0,16.36-6.55,16.36-16.37a16.4,16.4,0,0,0-16.36-16.36H965.45a18.65,18.65,0,0,0-6.45,1.1C952.88,955.84,949.09,961.4,949.09,968.86Z"/><path class="cls-4" d="M640.45,524.25a27.39,27.39,0,1,0-27.4-27.39A27.42,27.42,0,0,0,640.45,524.25Z"/><circle class="cls-4" cx="349.55" cy="497.76" r="27.39"/><path class="cls-1" d="M259.76,496A71,71,0,0,0,330.7,566.9H653A70.94,70.94,0,0,0,653,425H330.7A71,71,0,0,0,259.76,496Zm380.69-61.49a62.39,62.39,0,1,1-62.4,62.39A62.46,62.46,0,0,1,640.45,434.47Zm-148.14.89a62.4,62.4,0,1,1-62.39,62.4A62.47,62.47,0,0,1,492.31,435.36Zm-80.37,62.4a62.39,62.39,0,1,1-62.39-62.4A62.46,62.46,0,0,1,411.94,497.76Z"/><path class="cls-4" d="M492.31,525.15a27.4,27.4,0,1,0-27.39-27.39A27.42,27.42,0,0,0,492.31,525.15Z"/><path class="cls-5" d="M425.41,321.34H545.57a486.56,486.56,0,0,0-19.24-62.75,294.39,294.39,0,0,0-15.25-33.33H425.41Z"/><path class="cls-6" d="M669.28,10.38,562.78,256.14c6.52,18.1,11.41,35.26,14.82,48.76a17.38,17.38,0,0,0,5.08-6.66L692.8,44.12l19.72,14,2-9a17.5,17.5,0,0,1,34.21,7.43l-5.13,23.6,106,75.33v14.9L735.69,116.34l-5,22.86a17.5,17.5,0,1,1-34.2-7.42L635.73,338.17a54.93,54.93,0,0,1,13,35.58V390H653c1.31,0,2.61,0,3.91.07l70.38-239L850.2,209.52V183.64a51.77,51.77,0,0,1,31-47.36,17.45,17.45,0,0,0-4.05-4L695.48,3.08A17.44,17.44,0,0,0,687.4,0h-4.14a16.79,16.79,0,0,0-2.62.49A17.51,17.51,0,0,0,669.28,10.38Z"/><path class="cls-6" d="M343.93,390l-.08-19.47A14.15,14.15,0,0,1,358,356.34h-.37a17.5,17.5,0,0,1,0-35H375.5V175.65h14.91V158.38a17.5,17.5,0,1,1,35,0v17.27h36.36c8.11,2,16.19,7,24.07,14.61h32.5a17.5,17.5,0,0,1,0,35h-7.26a294.39,294.39,0,0,1,15.25,33.33,486.56,486.56,0,0,1,19.24,62.75h21.26a17.49,17.49,0,0,1,9.52,32.17h17.17a20.26,20.26,0,0,1,20.24,20.24V390h6.7l15.27-51.86a55.13,55.13,0,0,0-42.21-19.66H580.86c-.88-3.91-2-8.5-3.26-13.61a17.49,17.49,0,0,1-27-20.57l12.22-28.19q-1.74-4.84-3.64-9.75C534.94,184,504,148.51,467.21,141a17.26,17.26,0,0,0-3.5-.36H358a17.5,17.5,0,0,0-17.5,17.5V324.53a49.26,49.26,0,0,0-31.65,46.18l.09,21.57A105.4,105.4,0,0,1,330.7,390Z"/><path class="cls-6" d="M559.66,307.34a17.47,17.47,0,0,0,17.94-2.44c-3.41-13.5-8.3-30.66-14.82-48.76l-12.22,28.19A17.5,17.5,0,0,0,559.66,307.34Z"/><path class="cls-6" d="M648.76,390V373.75a54.93,54.93,0,0,0-13-35.58L620.46,390Z"/><path class="cls-6" d="M425.41,338.84a17.49,17.49,0,0,1-17.5,17.5H566.83a17.43,17.43,0,0,0,9.52-2.83h-9.73a17.5,17.5,0,0,1-17.22-14.42c0-.16-1.28-7-3.83-17.75H425.41Z"/><path class="cls-6" d="M390.41,338.84v-17.5H375.5v17.5a17.49,17.49,0,0,1-17.5,17.5h49.91A17.5,17.5,0,0,1,390.41,338.84Z"/><path class="cls-6" d="M375.5,338.84v-17.5H357.63a17.5,17.5,0,0,0,0,35H358A17.49,17.49,0,0,0,375.5,338.84Z"/><path class="cls-6" d="M566.62,353.51h9.73a17.49,17.49,0,0,0-9.52-32.17H545.57c2.55,10.78,3.8,17.59,3.83,17.75A17.5,17.5,0,0,0,566.62,353.51Z"/><path class="cls-6" d="M425.41,321.34V225.26h-16.6a17.5,17.5,0,1,1,0-35h16.6V175.65h-35V321.34Z"/><path class="cls-6" d="M425.41,158.38a17.5,17.5,0,1,0-35,0v17.27h35Z"/><path class="cls-6" d="M425.41,338.84v-17.5h-35v17.5a17.5,17.5,0,0,0,35,0Z"/><path class="cls-6" d="M425.41,225.26h85.67c-8-14.77-16.49-26.54-25.24-35H425.41Z"/><path class="cls-6" d="M511.08,225.26h7.26a17.5,17.5,0,0,0,0-35h-32.5C494.59,198.72,503.08,210.49,511.08,225.26Z"/><path class="cls-6" d="M408.81,190.26a17.5,17.5,0,1,0,0,35h16.6v-35Z"/><path class="cls-6" d="M696.52,131.78l3-10.22a17.51,17.51,0,0,1,24.3-10.86l11.87,5.64,7.86-36.14-31-22.06-16,73.63Z"/><path class="cls-6" d="M709.17,110.53a17.53,17.53,0,0,0-9.65,11l-3,10.22a17.5,17.5,0,1,0,34.2,7.42l5-22.86-11.87-5.64A17.48,17.48,0,0,0,709.17,110.53Z"/><path class="cls-6" d="M748.68,56.6a17.5,17.5,0,0,0-34.21-7.43l-2,9,31,22.06Z"/><path class="cls-6" d="M645.61,417.53a17.46,17.46,0,0,1-14.35,7.5H653a70.94,70.94,0,0,1,0,141.87H330.7a70.94,70.94,0,1,1,0-141.87h-4.2A17.5,17.5,0,0,1,309,407.6l-.06-15.32a105.89,105.89,0,0,0-47.41,183.86H722.18a105.89,105.89,0,0,0-65.25-186l-5.53,18.78A17.48,17.48,0,0,1,645.61,417.53Z"/><path class="cls-6" d="M648.76,390v17.5a17.42,17.42,0,0,1-3.15,10,17.48,17.48,0,0,0,5.79-8.65l5.53-18.78c-1.3,0-2.6-.07-3.91-.07Z"/><path class="cls-6" d="M326.5,425H631.26a17.46,17.46,0,0,0,14.35-7.5,17.52,17.52,0,0,1-11,3.91A17.53,17.53,0,0,1,617.82,399l2.64-9H330.7a105.4,105.4,0,0,0-21.76,2.25L309,407.6A17.5,17.5,0,0,0,326.5,425Z"/><path class="cls-6" d="M617.82,399a16.71,16.71,0,1,0,30.94,8.54V390h-28.3Z"/><path class="cls-6" d="M287.16,497.76a62.39,62.39,0,1,0,62.39-62.4A62.46,62.46,0,0,0,287.16,497.76Zm62.39-27.4a27.4,27.4,0,1,1-27.39,27.4A27.42,27.42,0,0,1,349.55,470.36Z"/><path class="cls-6" d="M492.31,560.15a62.4,62.4,0,1,0-62.39-62.39A62.46,62.46,0,0,0,492.31,560.15Zm0-89.79a27.4,27.4,0,1,1-27.39,27.4A27.43,27.43,0,0,1,492.31,470.36Z"/><path class="cls-6" d="M640.45,559.25a62.39,62.39,0,1,0-62.4-62.39A62.46,62.46,0,0,0,640.45,559.25Zm0-89.78a27.39,27.39,0,1,1-27.4,27.39A27.42,27.42,0,0,1,640.45,469.47Z"/><path class="cls-6" d="M884.5,198.13a17.5,17.5,0,0,1-25,15.8l-9.29-4.41v94.62a17.2,17.2,0,0,0,17.2,17.2h17.3v-16.2a17.2,17.2,0,0,1,34.4,0v16.2h17.3a17.2,17.2,0,0,0,17.2-17.2V183.64a51.68,51.68,0,0,0-72.41-47.36,17.47,17.47,0,0,1,3.31,10.22Zm.1-14.49a17.3,17.3,0,0,1,34.6,0v103.3H884.6Z"/><path class="cls-6" d="M850.2,183.64v25.88l9.29,4.41a17.5,17.5,0,0,0,25-15.8V146.5a17.47,17.47,0,0,0-3.31-10.22A51.77,51.77,0,0,0,850.2,183.64Z"/><path class="cls-6" d="M901.9,287.94a17.2,17.2,0,0,0-17.2,17.2v16.2h34.4v-16.2A17.2,17.2,0,0,0,901.9,287.94Z"/><path class="cls-6" d="M884.7,1008.14a17.2,17.2,0,0,0,34.4,0v-33.8l-34.4,22.94Z"/><polygon class="cls-6" points="884.7 411.93 919.1 389 919.1 378.34 884.7 401.28 884.7 411.93"/><polygon class="cls-6" points="884.7 469.93 919.1 447 919.1 430.34 884.7 453.28 884.7 469.93"/><polygon class="cls-6" points="884.7 689.93 919.1 667 919.1 656.34 884.7 679.28 884.7 689.93"/><polygon class="cls-6" points="884.7 845.93 919.1 823 919.1 818.34 884.7 841.28 884.7 845.93"/><polygon class="cls-6" points="884.7 637.93 919.1 615 919.1 598.34 884.7 621.28 884.7 637.93"/><polygon class="cls-6" points="884.7 741.93 919.1 719 919.1 708.34 884.7 731.28 884.7 741.93"/><polygon class="cls-6" points="884.7 799.93 919.1 777 919.1 760.34 884.7 783.28 884.7 799.93"/><polygon class="cls-6" points="884.7 579.93 919.1 557 919.1 546.34 884.7 569.28 884.7 579.93"/><polygon class="cls-6" points="884.7 359.93 919.1 337 919.1 321.34 884.7 321.34 884.7 359.93"/><polygon class="cls-6" points="884.7 897.93 919.1 875 919.1 864.34 884.7 887.28 884.7 897.93"/><polygon class="cls-6" points="884.7 955.93 919.1 933 919.1 916.34 884.7 939.28 884.7 955.93"/><polygon class="cls-6" points="884.7 527.93 919.1 505 919.1 488.34 884.7 511.28 884.7 527.93"/><path class="cls-6" d="M862.36,374.82a17.2,17.2,0,1,0,19.08,28.63l3.26-2.17V359.93Z"/><path class="cls-6" d="M941.44,363.45a17.2,17.2,0,0,0-19.08-28.63L919.1,337v41.34Z"/><polygon class="cls-6" points="884.7 401.28 919.1 378.34 919.1 337 884.7 359.93 884.7 401.28"/><path class="cls-6" d="M941.44,415.45a17.2,17.2,0,0,0-19.08-28.63L919.1,389v41.34Z"/><path class="cls-6" d="M862.36,426.82a17.2,17.2,0,1,0,19.08,28.63l3.26-2.17V411.93Z"/><polygon class="cls-6" points="884.7 453.28 919.1 430.34 919.1 389 884.7 411.93 884.7 453.28"/><path class="cls-6" d="M941.44,473.45a17.2,17.2,0,0,0-19.08-28.63L919.1,447v41.34Z"/><path class="cls-6" d="M862.36,484.82a17.2,17.2,0,1,0,19.08,28.63l3.26-2.17V469.93Z"/><polygon class="cls-6" points="884.7 511.28 919.1 488.34 919.1 447 884.7 469.93 884.7 511.28"/><path class="cls-6" d="M941.44,531.45a17.2,17.2,0,0,0-19.08-28.63L919.1,505v41.34Z"/><path class="cls-6" d="M862.36,542.82a17.2,17.2,0,1,0,19.08,28.63l3.26-2.17V527.93Z"/><polygon class="cls-6" points="884.7 569.28 919.1 546.34 919.1 505 884.7 527.93 884.7 569.28"/><path class="cls-6" d="M941.44,583.45a17.2,17.2,0,0,0-19.08-28.63L919.1,557v41.34Z"/><path class="cls-6" d="M862.36,594.82a17.2,17.2,0,1,0,19.08,28.63l3.26-2.17V579.93Z"/><polygon class="cls-6" points="884.7 621.28 919.1 598.34 919.1 557 884.7 579.93 884.7 621.28"/><path class="cls-6" d="M941.44,641.45a17.2,17.2,0,0,0-19.08-28.63L919.1,615v41.34Z"/><path class="cls-6" d="M862.36,652.82a17.2,17.2,0,1,0,19.08,28.63l3.26-2.17V637.93Z"/><polygon class="cls-6" points="884.7 679.28 919.1 656.34 919.1 615 884.7 637.93 884.7 679.28"/><path class="cls-6" d="M862.36,704.82a17.2,17.2,0,1,0,19.08,28.63l3.26-2.17V689.93Z"/><path class="cls-6" d="M941.44,693.45a17.2,17.2,0,0,0-19.08-28.63L919.1,667v41.34Z"/><polygon class="cls-6" points="884.7 731.28 919.1 708.34 919.1 667 884.7 689.93 884.7 731.28"/><path class="cls-6" d="M862.36,756.82a17.2,17.2,0,1,0,19.08,28.63l3.26-2.17V741.93Z"/><path class="cls-6" d="M941.44,745.45a17.2,17.2,0,0,0-19.08-28.63L919.1,719v41.34Z"/><polygon class="cls-6" points="884.7 783.28 919.1 760.34 919.1 719 884.7 741.93 884.7 783.28"/><path class="cls-6" d="M941.44,803.45a17.2,17.2,0,0,0-19.08-28.63L919.1,777v41.34Z"/><path class="cls-6" d="M862.36,814.82a17.2,17.2,0,1,0,19.08,28.63l3.26-2.17V799.93Z"/><polygon class="cls-6" points="884.7 841.28 919.1 818.34 919.1 777 884.7 799.93 884.7 841.28"/><path class="cls-6" d="M941.44,849.45a17.2,17.2,0,0,0-19.08-28.63L919.1,823v41.34Z"/><path class="cls-6" d="M862.36,860.82a17.2,17.2,0,1,0,19.08,28.63l3.26-2.17V845.93Z"/><polygon class="cls-6" points="884.7 887.28 919.1 864.34 919.1 823 884.7 845.93 884.7 887.28"/><path class="cls-6" d="M941.44,901.45a17.2,17.2,0,0,0-19.08-28.63L919.1,875v41.34Z"/><path class="cls-6" d="M862.36,912.82a17.2,17.2,0,1,0,19.08,28.63l3.26-2.17V897.93Z"/><polygon class="cls-6" points="884.7 939.28 919.1 916.34 919.1 875 884.7 897.93 884.7 939.28"/><path class="cls-6" d="M862.36,970.82a17.2,17.2,0,1,0,19.08,28.63l3.26-2.17V955.93Z"/><path class="cls-6" d="M941.44,959.45a17.2,17.2,0,0,0-19.08-28.63L919.1,933v41.34Z"/><polygon class="cls-6" points="884.7 997.28 919.1 974.34 919.1 933 884.7 955.93 884.7 997.28"/><path class="cls-3" d="M544.91,643.23c0-1.64-3.27-3.28-4.91-3.28s-4.91,1.64-3.27,3.28C536.73,646.5,544.91,646.5,544.91,643.23Z"/><path class="cls-3" d="M436.91,687.41c0-1.64-3.27-3.27-4.91-3.27s-4.91,1.63-3.27,3.27C428.73,690.68,436.91,690.68,436.91,687.41Z"/><path class="cls-3" d="M346.91,658c0-1.63-3.27-3.27-4.91-3.27-3.27,0-4.91,1.64-3.27,3.27C338.73,661.23,346.91,661.23,346.91,658Z"/><path class="cls-3" d="M651.27,643.23c0-1.64-3.27-3.28-4.91-3.28-3.27,0-4.91,1.64-3.27,3.28C643.09,646.5,651.27,646.5,651.27,643.23Z"/><path class="cls-3" d="M152.18,700.5c0-1.64-3.27-3.27-4.91-3.27A3.52,3.52,0,0,0,144,700.5C144,703.77,152.18,703.77,152.18,700.5Z"/><path class="cls-3" d="M317.45,723.41c0-1.64-3.27-3.27-4.9-3.27-3.28,0-4.91,1.63-3.28,3.27C309.27,726.68,317.45,726.68,317.45,723.41Z"/><path class="cls-3" d="M86.73,658c0-1.63-3.28-3.27-4.91-3.27A3.52,3.52,0,0,0,78.55,658C78.55,661.23,86.73,661.23,86.73,658Z"/><path class="cls-3" d="M767.45,643.23c0-1.64-3.27-3.28-4.9-3.28a3.53,3.53,0,0,0-3.28,3.28C759.27,646.5,767.45,646.5,767.45,643.23Z"/><path class="cls-3" d="M250.36,651.41c0-1.64-3.27-3.27-4.91-3.27s-4.9,1.63-3.27,3.27C242.18,654.68,250.36,654.68,250.36,651.41Z"/><path class="cls-3" d="M234,723.41c0-1.64-3.27-3.27-4.91-3.27-3.27,0-4.91,1.63-3.27,3.27C225.82,726.68,234,726.68,234,723.41Z"/><path class="cls-1" d="M817,879.17v-30L787.09,880.5C797.06,879.79,807,879.4,817,879.17Z"/><path class="cls-1" d="M862.4,756.84,884.74,742V731.3l-3.26,2.17a17.18,17.18,0,0,1-25.82-19.8l-1.83-.24A16.12,16.12,0,0,1,836.72,727l-19.66-1.44-29.91-2.15L621.92,895.21c37.63-4.91,76.89-9.82,117.79-13.09l77.35-80.66,10.27-10.71c9.68-10.09,26.72-3.24,26.72,10.74v2.63a15.54,15.54,0,0,1-4.29,10.71l-32.7,34.3v30c7.12-.17,14.24-.24,21.37-.28a15.53,15.53,0,0,1,15.62,15.52,15,15,0,0,1-.2,2.33,265.64,265.64,0,0,0,28.89,2.51l2-1.33V887.26l-3.26,2.17a17.19,17.19,0,1,1-19.08-28.61l22.34-14.89v-4.66l-3.26,2.17a17.19,17.19,0,1,1-19.08-28.61l22.34-14.89V783.29l-3.26,2.17a17.2,17.2,0,1,1-19.08-28.62Z"/><path class="cls-1" d="M996,819.09,985.7,829.78C976,839.82,959,833,959,819v-2.66a15.52,15.52,0,0,1,4.38-10.81L996,771.93l16.91-17.41c-5.64-1.54-11.27-2.9-16.91-4.17-7.94-1.78-15.88-3.36-23.83-4.85A16.13,16.13,0,0,1,959,729.64h0a16,16,0,0,1,.11-1.84c-3.67-.7-7.3-1.42-10.93-2.16a17.21,17.21,0,0,1-6.73,19.83l-22.34,14.89V777l3.26-2.17a17.19,17.19,0,1,1,19.08,28.61l-22.34,14.89V823l3.26-2.17a17.19,17.19,0,1,1,19.08,28.61l-22.34,14.89V875l3.26-2.17a17.2,17.2,0,0,1,21.91,26.25c5,0,9.94.08,14.91.24a15.78,15.78,0,0,1,17.42-13.36c6.44.75,12.89,1.53,19.38,2.38,16.76,2.19,33.75,4.84,51.26,8.53V766Z"/><path class="cls-1" d="M279.82,800.32,152.18,932.86c34.37,4.91,67.09,6.55,99.82,6.55L410.73,774.14C366.55,784,322.36,793.77,279.82,800.32Z"/><path class="cls-1" d="M129.27,800.32,32.73,901.77v3.28c26.18,9.81,54,18,80.18,22.9L229.09,805.23C196.36,806.86,165.27,805.23,129.27,800.32Z"/><path class="cls-1" d="M468.14,759.43,298,939.38q51.54-4.9,98.16-9.81L579.39,736.52C540.12,743.07,502.5,751.25,468.14,759.43Z"/><path class="cls-1" d="M631.74,728.34l-183.23,193c45.81-8.18,80.16-13.09,122.7-19.64L743,721.8C705.36,721.8,669.36,723.43,631.74,728.34Z"/><path class="cls-1" d="M32.73,775.77v78.55l58.91-62.18C72,788.86,52.36,782.32,32.73,775.77Z"/><path class="cls-3" d="M1009.64,651.41c0-1.64-3.28-3.27-4.91-3.27a3.52,3.52,0,0,0-3.28,3.27C1001.45,654.68,1009.64,654.68,1009.64,651.41Z"/><path class="cls-5" d="M871.92,626.34a17.21,17.21,0,0,1-9.56-31.52l4.1-2.73-12.54-.36a15.46,15.46,0,0,1-15.37,13.86H32.73V739.77C255.27,820,386.18,723.41,621.82,695.59c71-8.19,132.9-9.54,195.18-5q11.19.81,22.43,1.87A16.14,16.14,0,0,1,854,708.53v2.36a16.06,16.06,0,0,1-.22,2.52l1.84.23a17.14,17.14,0,0,1,6.74-8.82l22.34-14.89V679.28l-3.26,2.17a17.2,17.2,0,0,1-19.08-28.63l22.34-14.89V621.28l-3.26,2.17A17.16,17.16,0,0,1,871.92,626.34ZM81.82,687.41C67.09,687.41,54,674.32,54,658S65.45,628.5,81.82,628.5s27.82,13.09,27.82,29.45S98.18,687.41,81.82,687.41ZM147.27,730c-16.36,0-27.82-13.09-27.82-29.45s11.46-29.45,27.82-29.45,27.82,13.09,27.82,29.45S163.64,730,147.27,730Zm81.82,22.91c-16.36,0-27.82-13.09-27.82-29.45S214.36,694,229.09,694s27.82,13.1,27.82,29.46S245.45,752.86,229.09,752.86Zm16.36-72c-16.36,0-27.81-13.09-27.81-29.45S229.09,622,245.45,622s27.82,13.1,27.82,29.46S261.82,680.86,245.45,680.86Zm67.1,72c-16.37,0-27.82-13.09-27.82-29.45S297.82,694,312.55,694s27.81,13.1,27.81,29.46S328.91,752.86,312.55,752.86ZM342,687.41c-16.36,0-27.82-13.09-27.82-29.46S327.27,628.5,342,628.5s27.82,13.09,27.82,29.45S358.36,687.41,342,687.41Zm90,29.45a29.33,29.33,0,0,1-29.45-29.45c0-16.36,14.72-29.46,29.45-29.46s27.82,13.1,27.82,29.46S448.36,716.86,432,716.86Zm108-44.18c-16.36,0-27.82-13.09-27.82-29.45s11.46-29.46,27.82-29.46,27.82,13.09,27.82,29.46S556.36,672.68,540,672.68Zm106.36,0c-16.36,0-27.81-13.09-27.81-29.45s13.09-29.46,27.81-29.46,27.82,13.09,27.82,29.46S662.73,672.68,646.36,672.68Zm116.19,0c-16.37,0-27.82-13.09-27.82-29.45s13.09-29.46,27.82-29.46,27.81,13.09,27.81,29.46S778.91,672.68,762.55,672.68Z"/><path class="cls-5" d="M996,608.86H976.18A17.16,17.16,0,0,1,959.07,593q-16,0-31.83-.07l-8.14,5.43V615l3.26-2.18a17.2,17.2,0,0,1,19.08,28.63L919.1,656.34V667l3.26-2.18a17.2,17.2,0,0,1,19.08,28.63L919.1,708.34V719l3.26-2.18a17.16,17.16,0,0,1,25.82,8.8q5.43,1.1,10.92,2.15a16.16,16.16,0,0,1,19-14q8.94,1.69,17.87,3.51c17.09,3.48,34.18,7.27,51.27,11.07V608.86Zm8.73,72A25.53,25.53,0,0,1,996,679.3a29.72,29.72,0,0,1-19.09-27.89c0-13.26,7.53-24.38,19.09-28.11a28.4,28.4,0,0,1,8.73-1.35c16.36,0,27.82,13.1,27.82,29.46S1021.09,680.86,1004.73,680.86Z"/><path class="cls-6" d="M108,980.32H58.91c-9.82,0-16.36,6.54-16.36,16.36s6.54,16.37,16.36,16.37h47.45c9.82,0,16.37-6.55,16.37-16.37S116.18,980.32,108,980.32Z"/><path class="cls-6" d="M266.73,995.05H219.27c-9.82,0-16.36,6.54-16.36,16.36s6.54,16.36,16.36,16.36h47.46c9.82,0,16.36-6.54,16.36-16.36S276.55,995.05,266.73,995.05Z"/><path class="cls-6" d="M711.82,995.05H664.36c-9.81,0-16.36,6.54-16.36,16.36s6.55,16.36,16.36,16.36h47.46c9.82,0,16.36-6.54,16.36-16.36S721.64,995.05,711.82,995.05Z"/><path d="M949.09,968.86c0,7.46,3.79,13,9.91,15.27V953.6C952.88,955.84,949.09,961.4,949.09,968.86Z"/><path class="cls-6" d="M780.55,1000c-9.82,0-16.37,6.55-16.37,16.37s6.55,16.36,16.37,16.36H817V1000Z"/><path class="cls-6" d="M492.55,975.41H445.09c-9.82,0-16.36,6.54-16.36,16.36s6.54,16.37,16.36,16.37h47.46c9.81,0,16.36-6.55,16.36-16.37S502.36,975.41,492.55,975.41Z"/><path class="cls-6" d="M595.64,1000H548.18c-9.82,0-16.36,6.55-16.36,16.37s6.54,16.36,16.36,16.36h47.46c9.81,0,16.36-6.54,16.36-16.36S605.45,1000,595.64,1000Z"/><path class="cls-6" d="M392.73,995.05H343.64c-9.82,0-16.37,6.54-16.37,16.36s6.55,16.36,16.37,16.36h49.09c9.82,0,16.36-6.54,16.36-16.36A16.39,16.39,0,0,0,392.73,995.05Z"/><path class="cls-6" d="M634.91,947.59H587.45c-9.81,0-16.36,6.55-16.36,16.36s6.55,16.37,16.36,16.37h47.46c9.82,0,16.36-6.55,16.36-16.37S644.73,947.59,634.91,947.59Z"/><path class="cls-6" d="M803.45,944.32c0-9.82-6.54-16.37-16.36-16.37H739.64c-9.82,0-16.37,6.55-16.37,16.37s6.55,16.36,16.37,16.36h47.45A16.39,16.39,0,0,0,803.45,944.32Z"/><path class="cls-6" d="M81.82,687.41c16.36,0,27.82-13.09,27.82-29.46S98.18,628.5,81.82,628.5,54,641.59,54,658,67.09,687.41,81.82,687.41Zm0-32.73c1.63,0,4.91,1.64,4.91,3.27,0,3.28-8.18,3.28-8.18,0A3.52,3.52,0,0,1,81.82,654.68Z"/><path class="cls-6" d="M147.27,730c16.37,0,27.82-13.09,27.82-29.45s-11.45-29.45-27.82-29.45-27.82,13.09-27.82,29.45S130.91,730,147.27,730Zm0-32.72c1.64,0,4.91,1.63,4.91,3.27,0,3.27-8.18,3.27-8.18,0A3.52,3.52,0,0,1,147.27,697.23Z"/><path class="cls-6" d="M432,716.86c16.36,0,27.82-13.09,27.82-29.45S446.73,658,432,658s-29.45,13.1-29.45,29.46A29.33,29.33,0,0,0,432,716.86Zm0-32.72c1.64,0,4.91,1.63,4.91,3.27,0,3.27-8.18,3.27-8.18,0C427.09,685.77,430.36,684.14,432,684.14Z"/><path class="cls-6" d="M540,672.68c16.36,0,27.82-13.09,27.82-29.45S556.36,613.77,540,613.77s-27.82,13.09-27.82,29.46S523.64,672.68,540,672.68ZM540,640c1.64,0,4.91,1.64,4.91,3.28,0,3.27-8.18,3.27-8.18,0C535.09,641.59,538.36,640,540,640Z"/><path class="cls-6" d="M646.36,672.68c16.37,0,27.82-13.09,27.82-29.45s-13.09-29.46-27.82-29.46-27.81,13.09-27.81,29.46S630,672.68,646.36,672.68Zm0-32.73c1.64,0,4.91,1.64,4.91,3.28,0,3.27-8.18,3.27-8.18,0C641.45,641.59,643.09,640,646.36,640Z"/><path class="cls-6" d="M762.55,672.68c16.36,0,27.81-13.09,27.81-29.45s-13.09-29.46-27.81-29.46-27.82,13.09-27.82,29.46S746.18,672.68,762.55,672.68Zm0-32.73c1.63,0,4.9,1.64,4.9,3.28,0,3.27-8.18,3.27-8.18,0A3.53,3.53,0,0,1,762.55,640Z"/><path class="cls-6" d="M1032.55,651.41c0-16.36-11.46-29.46-27.82-29.46A28.4,28.4,0,0,0,996,623.3v56a25.53,25.53,0,0,0,8.73,1.56C1021.09,680.86,1032.55,667.77,1032.55,651.41Zm-31.1,0a3.52,3.52,0,0,1,3.28-3.27c1.63,0,4.91,1.63,4.91,3.27C1009.64,654.68,1001.45,654.68,1001.45,651.41Z"/><path class="cls-6" d="M245.45,680.86c16.37,0,27.82-13.09,27.82-29.45S261.82,622,245.45,622s-27.81,13.1-27.81,29.46S229.09,680.86,245.45,680.86Zm0-32.72c1.64,0,4.91,1.63,4.91,3.27,0,3.27-8.18,3.27-8.18,0C240.55,649.77,243.82,648.14,245.45,648.14Z"/><path class="cls-6" d="M229.09,752.86c16.36,0,27.82-13.09,27.82-29.45S243.82,694,229.09,694s-27.82,13.1-27.82,29.46S212.73,752.86,229.09,752.86Zm0-32.72c1.64,0,4.91,1.63,4.91,3.27,0,3.27-8.18,3.27-8.18,0C224.18,721.77,225.82,720.14,229.09,720.14Z"/><path class="cls-6" d="M312.55,752.86c16.36,0,27.81-13.09,27.81-29.45S327.27,694,312.55,694s-27.82,13.1-27.82,29.46S296.18,752.86,312.55,752.86Zm0-32.72c1.63,0,4.9,1.63,4.9,3.27,0,3.27-8.18,3.27-8.18,0C307.64,721.77,309.27,720.14,312.55,720.14Z"/><path class="cls-6" d="M342,687.41c16.36,0,27.82-13.09,27.82-29.46S356.73,628.5,342,628.5,314.18,641.59,314.18,658,325.64,687.41,342,687.41Zm0-32.73c1.64,0,4.91,1.64,4.91,3.27,0,3.28-8.18,3.28-8.18,0C337.09,656.32,338.73,654.68,342,654.68Z"/><path class="cls-7" d="M16.36,1080.14H1063.64a15.94,15.94,0,0,0,2.09-.15H14.27A15.94,15.94,0,0,0,16.36,1080.14Z"/><path class="cls-6" d="M1063.64,574.5H976.18A17.18,17.18,0,0,0,959,591.68h0a17.18,17.18,0,0,0,17.18,17.18h71.09V728.32c-17.09-3.8-34.18-7.59-51.27-11.07q-8.94-1.82-17.87-3.51A16.15,16.15,0,0,0,959,729.62h0a16.13,16.13,0,0,0,13.17,15.86c7.94,1.5,15.88,3.07,23.83,4.85,5.64,1.27,11.27,2.63,16.91,4.17L996,771.92l-32.62,33.61A15.5,15.5,0,0,0,959,816.34V819c0,14,17,20.82,26.69,10.78L996,819.09,1047.27,766V896.86c-17.51-3.68-34.5-6.33-51.27-8.53-6.49-.85-13-1.63-19.39-2.38A15.79,15.79,0,0,0,959,901.64,15.54,15.54,0,0,0,972.62,917q11.68,1.47,23.38,3.26,25.63,3.91,51.27,9.29v117.82H32.73v-108C288.2,1025.09,530.33,918,817,910.32q10.79-.29,21.66-.39a15.52,15.52,0,0,0-.28-31c-7.13,0-14.26.12-21.38.28-10,.23-19.94.62-29.91,1.33L817,849.13l32.71-34.31A15.52,15.52,0,0,0,854,804.11v-2.63c0-14-17-20.83-26.72-10.74L817,801.46l-77.36,80.68c-40.91,3.27-80.19,8.18-117.82,13.09L787.09,723.41c10,.71,20,1.43,29.91,2.15L836.66,727A16.15,16.15,0,0,0,854,710.89v-2.36a16.14,16.14,0,0,0-14.57-16.08q-11.25-1.05-22.43-1.87c-62.28-4.53-124.17-3.18-195.18,5C386.18,723.41,255.27,820,32.73,739.77V605.59H838.55A15.45,15.45,0,0,0,854,590.14a14,14,0,0,0-14-14H722.18A105.48,105.48,0,0,1,653,601.9H330.7a105.53,105.53,0,0,1-69.17-25.76H16.36A16.36,16.36,0,0,0,0,592.5v471.27A16.36,16.36,0,0,0,14.27,1080H1065.73a16.36,16.36,0,0,0,14.27-16.22V590.86A16.4,16.4,0,0,0,1063.64,574.5Zm-432,153.82c37.63-4.91,73.63-6.55,111.27-6.55l-171.82,180c-42.54,6.55-76.91,11.46-122.73,19.64Zm-52.37,8.18L396,929.59q-46.63,4.9-98.18,9.82L468,759.41C502.36,751.23,540,743.05,579.27,736.5ZM410.73,774.14,252,939.41c-32.73,0-65.45-1.64-99.82-6.55L279.82,800.32C322.36,793.77,366.55,784,410.73,774.14Zm-378,1.63c19.63,6.55,39.27,13.09,58.91,16.37L32.73,854.32Zm0,126,96.54-101.45c36,4.91,67.09,6.54,99.82,4.91L112.91,928c-26.18-4.9-54-13.09-80.18-22.9Z"/><path class="cls-6" d="M330.7,601.9H653a105.48,105.48,0,0,0,69.16-25.76H261.53A105.53,105.53,0,0,0,330.7,601.9Z"/><path class="cls-6" d="M828,1000H817v32.73h11c9.82,0,16.36-6.54,16.36-16.36A16.4,16.4,0,0,0,828,1000Z"/><path class="cls-6" d="M959,984.13a18.65,18.65,0,0,0,6.45,1.1h47.46c9.82,0,16.36-6.55,16.36-16.37a16.4,16.4,0,0,0-16.36-16.36H965.45a18.65,18.65,0,0,0-6.45,1.1Z"/><path class="cls-6" d="M976.91,651.41A29.72,29.72,0,0,0,996,679.3v-56C984.44,627,976.91,638.15,976.91,651.41Z"/></svg>