<svg id="Capa_1" data-name="Capa 1" xmlns="http://www.w3.org/2000/svg" viewBox="0 0 1080 1080"><defs><style>.cls-1{fill:#fff;}.cls-2{fill:#9d9d9c;}.cls-3{fill:#285ebc;}.cls-4{fill:#1c94c9;}.cls-5{fill:#182660;}.cls-6{fill:#1d1d1b;}</style></defs><path class="cls-1" d="M1043.62,212.8v0Z"/><path class="cls-1" d="M1035.4,266.87a31.39,31.39,0,0,1-10.73,1.4A31.39,31.39,0,0,0,1035.4,266.87Z"/><path class="cls-1" d="M1043.52,204.58c0,.28,0,.58,0,.87C1043.54,205.16,1043.53,204.86,1043.52,204.58Z"/><path class="cls-1" d="M968.71,305.58l1.37.26Z"/><path class="cls-1" d="M1013.08,268q-10-.19-20-.21Q1003.11,267.78,1013.08,268Z"/><path class="cls-1" d="M1043.61,210.51c0,.42,0,.86,0,1.29C1043.62,211.37,1043.61,210.93,1043.61,210.51Z"/><path class="cls-1" d="M1043.6,208.41c0,.35,0,.73,0,1.1C1043.6,209.14,1043.6,208.76,1043.6,208.41Z"/><path class="cls-1" d="M953.42,304.39h0Z"/><path class="cls-1" d="M956.51,304.5h0Z"/><path class="cls-1" d="M966.55,305.26l.58.07Z"/><path class="cls-1" d="M940.36,268.18l-1.26.05Z"/><path class="cls-1" d="M937,268.38l-1.21.13Z"/><path class="cls-1" d="M940.54,304.08h0Z"/><path class="cls-1" d="M934.63,268.65c-.8.11-1.59.25-2.36.41C933,268.9,933.83,268.76,934.63,268.65Z"/><path class="cls-1" d="M1043.57,206.43c0,.31,0,.63,0,1C1043.58,207.06,1043.57,206.74,1043.57,206.43Z"/><path class="cls-1" d="M1024.72,187.78h0Z"/><path class="cls-1" d="M1040.88,191.91h0l0,0Z"/><path class="cls-1" d="M1041.72,193.32l.06.12Z"/><path class="cls-1" d="M1042,194c0,.11.09.21.13.32C1042.12,194.24,1042.07,194.14,1042,194Z"/><path class="cls-1" d="M188.54,202.37c0-.68.05-1.35.12-2C188.59,201,188.56,201.69,188.54,202.37Z"/><path class="cls-1" d="M1019.71,187.74h0Z"/><path class="cls-1" d="M1022.31,187.75h0Z"/><path class="cls-1" d="M1043.23,199.78l.06.64Z"/><path class="cls-1" d="M1043.45,202.86c0,.25,0,.52,0,.78C1043.47,203.38,1043.46,203.11,1043.45,202.86Z"/><path class="cls-1" d="M1042.35,195c0,.14.09.26.13.4C1042.44,195.22,1042.39,195.09,1042.35,195Z"/><path class="cls-1" d="M1043.36,201.26c0,.23,0,.47,0,.71C1043.39,201.73,1043.37,201.49,1043.36,201.26Z"/><path class="cls-1" d="M1043.07,198.41c0,.19,0,.39.08.58C1043.12,198.8,1043.1,198.6,1043.07,198.41Z"/><path class="cls-1" d="M1042.88,197.15l.09.53Z"/><path class="cls-1" d="M1042.64,196c0,.16.07.31.1.47C1042.71,196.31,1042.67,196.16,1042.64,196Z"/><path class="cls-1" d="M709.39,222.31a13.26,13.26,0,0,0-2-1.23A13.26,13.26,0,0,1,709.39,222.31Z"/><path class="cls-1" d="M678.55,981.69a16.09,16.09,0,0,1-.56,1.81A16.09,16.09,0,0,0,678.55,981.69Z"/><path class="cls-1" d="M677.34,984.92a8.34,8.34,0,0,1-.56.92A8.34,8.34,0,0,0,677.34,984.92Z"/><path class="cls-1" d="M679.6,972.08c-.05,1.39-.12,2.67-.21,3.86C679.48,974.75,679.55,973.47,679.6,972.08Z"/><path class="cls-1" d="M642.86,303.65a23.17,23.17,0,0,0,4.48-1.15A23,23,0,0,1,642.86,303.65Z"/><path class="cls-1" d="M675.23,987.53a8.87,8.87,0,0,1-1.7,1.1A8.87,8.87,0,0,0,675.23,987.53Z"/><path class="cls-1" d="M717.91,368.84v0Z"/><path class="cls-1" d="M188.74,216.34q0-3.94-.07-7.89Q188.75,212.4,188.74,216.34Z"/><path class="cls-1" d="M254.32,990.2a17.51,17.51,0,0,1-2.08-.45A17.51,17.51,0,0,0,254.32,990.2Z"/><path class="cls-1" d="M253.11,304.86a40.74,40.74,0,0,1,6.48-.64A40.74,40.74,0,0,0,253.11,304.86Z"/><path class="cls-1" d="M263,304.15c1.81,0,3.8,0,6,0C266.75,304.13,264.76,304.13,263,304.15Z"/><path class="cls-1" d="M246.4,310.72A11.6,11.6,0,0,1,247,309,11.6,11.6,0,0,0,246.4,310.72Z"/><path class="cls-1" d="M670.51,989.7c-.49.12-1,.23-1.54.32C669.51,989.93,670,989.82,670.51,989.7Z"/><path class="cls-1" d="M736.46,387.3h0a31,31,0,0,1-8.68-.87A31,31,0,0,0,736.46,387.3Z"/><path class="cls-1" d="M673.36,988.72a13.06,13.06,0,0,1-1.46.58A13.06,13.06,0,0,0,673.36,988.72Z"/><path class="cls-1" d="M859.92,229.35a20,20,0,0,0-1.1,4.11A20,20,0,0,1,859.92,229.35Z"/><path class="cls-1" d="M983.43,321.63c.26,2.07.43,4.39.54,7C983.86,326,983.69,323.7,983.43,321.63Z"/><path class="cls-1" d="M982.34,316.18a30.46,30.46,0,0,1,.9,4.14A30.46,30.46,0,0,0,982.34,316.18Z"/><path class="cls-1" d="M983.56,980.77a20,20,0,0,1-.5,2.39A20,20,0,0,0,983.56,980.77Z"/><path class="cls-1" d="M978.45,989a13,13,0,0,1-1.67.61A13,13,0,0,0,978.45,989Z"/><path class="cls-1" d="M979,310.12a12.18,12.18,0,0,1,1.93,2.66A12.18,12.18,0,0,0,979,310.12Z"/><path class="cls-1" d="M973.11,306.63c.46.15.91.32,1.33.49C974,307,973.57,306.78,973.11,306.63Z"/><path class="cls-1" d="M978,309.18a11.13,11.13,0,0,1,1,.93A11.13,11.13,0,0,0,978,309.18Z"/><path class="cls-1" d="M976.49,308.13c.27.15.52.32.77.49C977,308.45,976.76,308.28,976.49,308.13Z"/><path class="cls-1" d="M869.41,220.36a15.14,15.14,0,0,0-1.95.75A15.14,15.14,0,0,1,869.41,220.36Z"/><path class="cls-1" d="M969.46,990.62c-1.07.06-2.21.1-3.45.13C967.25,990.72,968.39,990.68,969.46,990.62Z"/><path class="cls-1" d="M862.76,224.56a14.5,14.5,0,0,0-1.41,1.89A14.5,14.5,0,0,1,862.76,224.56Z"/><path class="cls-1" d="M865.92,221.93q-.45.27-.87.57Q865.47,222.2,865.92,221.93Z"/><path class="cls-1" d="M956.93,990.81Z"/><path class="cls-1" d="M881.72,220.11a20.41,20.41,0,0,0-3.3-.58A20.41,20.41,0,0,1,881.72,220.11Z"/><path class="cls-1" d="M679.72,535.68q0,212,0,424Q679.73,747.67,679.72,535.68Z"/><path class="cls-1" d="M858.16,438.69c-.13,6.13-.19,12.26-.23,18.39,0-6.13.1-12.26.23-18.39.16-7.57-2-12.32-7-14.47C856.19,426.37,858.32,431.12,858.16,438.69Z"/><path class="cls-1" d="M857.7,493.31a25.41,25.41,0,0,0,.44-5.59q-.12-6.14-.18-12.26.06,6.14.18,12.26A25.41,25.41,0,0,1,857.7,493.31Z"/><path class="cls-1" d="M718.08,722.5c-.08,5.49,1.08,9.48,3.65,12.09-2.57-2.61-3.73-6.6-3.65-12.09Z"/><path class="cls-1" d="M842.34,738.43Z"/><path class="cls-1" d="M816.31,423c-8.75,0-17.51-.08-26.26-.09h0C798.8,423,807.56,423,816.31,423Z"/><path class="cls-1" d="M718.08,438.45c-.2-11.19,5-15.76,15.94-15.58h0c-11-.18-16.14,4.39-15.94,15.58q.33,18.38.15,36.77Q718.4,456.83,718.08,438.45Z"/><path class="cls-1" d="M762,423q-7,0-14,0Q755,423,762,423Z"/><path class="cls-1" d="M731.44,990.73a24,24,0,0,1-3-.38A24,24,0,0,0,731.44,990.73Z"/><path class="cls-1" d="M718.24,669.76a27.73,27.73,0,0,0-.16,3.74c0,2.74.07,5.49.11,8.23,0-2.74-.06-5.49-.11-8.23A27.73,27.73,0,0,1,718.24,669.76Z"/><path class="cls-1" d="M721.73,734.59c2.57,2.61,6.55,3.84,12.09,3.82q13.57-.07,27.16-.11-13.58,0-27.16.11C728.28,738.43,724.3,737.2,721.73,734.59Z"/><path class="cls-1" d="M858.14,722.7c.1,5.56-1.09,9.51-3.69,12.06,2.6-2.55,3.79-6.5,3.69-12.06q-.35-18.37-.18-36.76Q857.78,704.32,858.14,722.7Z"/><path class="cls-1" d="M776,658q-7,0-14,0Q769,658.07,776,658Z"/><path class="cls-1" d="M747.73,658.06q-6.87,0-13.72-.14c-4.53-.07-8,.68-10.64,2.36,2.59-1.68,6.11-2.43,10.64-2.36S743.15,658,747.73,658.06Z"/><path class="cls-1" d="M842.53,657.91h0c-17.5.34-35,.09-52.51.09C807.53,658,825,658.25,842.53,657.91Z"/><path class="cls-1" d="M721.86,661.44c0-.05.12-.09.18-.15S721.91,661.39,721.86,661.44Z"/><path class="cls-1" d="M718.85,613.39a11.35,11.35,0,0,0,4.49,6.34A11.35,11.35,0,0,1,718.85,613.39Z"/><path class="cls-1" d="M858,563.44c0-2,.05-4.09.09-6.13,0-.7,0-1.38,0-2,0,.65,0,1.33,0,2C858.09,559.35,858.07,561.4,858,563.44Z"/><path class="cls-1" d="M849.77,423.7l.38.13Z"/><path class="cls-1" d="M786.71,622.23c-14.1,0-28.21-.26-42.3-.05,14.09-.21,28.2.05,42.3.05,11.3,0,22.61-.12,33.92-.11C809.32,622.11,798,622.23,786.71,622.23Z"/><path class="cls-1" d="M842.15,541.77q-20.35.12-40.7.14,20.35,0,40.7-.14Z"/><path class="cls-1" d="M729.88,622.06a17.48,17.48,0,0,1-4.82-1.38A17.48,17.48,0,0,0,729.88,622.06Z"/><path class="cls-1" d="M858.18,608.55A18.44,18.44,0,0,1,856.9,615,18.44,18.44,0,0,0,858.18,608.55Z"/><path class="cls-1" d="M724.69,620.52a11.11,11.11,0,0,1-1.35-.79A11.11,11.11,0,0,0,724.69,620.52Z"/><path class="cls-1" d="M731.86,503.36l-.44,0Z"/><path class="cls-1" d="M849.48,502.57a22.23,22.23,0,0,1-5.24.82A22.23,22.23,0,0,0,849.48,502.57Z"/><path class="cls-1" d="M727,502.59a12.58,12.58,0,0,1-1.85-.65A12.58,12.58,0,0,0,727,502.59Z"/><path class="cls-1" d="M857.7,493.31a15.51,15.51,0,0,1-.58,2.09A15.51,15.51,0,0,0,857.7,493.31Z"/><path class="cls-1" d="M787.89,541.93q-27.14,0-54.26-.13c-4.91,0-8.53,1-11,3,2.51-2,6.13-3,11-3Q760.75,541.93,787.89,541.93Z"/><path class="cls-1" d="M722.59,544.82c-3.23,2.62-4.61,7-4.51,13.07q.09,5.9.17,11.81-.07-5.91-.17-11.81C718,551.78,719.36,547.44,722.59,544.82Z"/><path class="cls-1" d="M849.81,777.8c6.23,2.18,8.73,7.61,8.42,16.68-.21,5.9-.3,11.81-.33,17.72,0-5.91.12-11.82.33-17.72C858.54,785.41,856,780,849.81,777.8Z"/><path class="cls-2" d="M761.75,110.16a531.8,531.8,0,0,0-306.1,1.9l-.39.11L325.68,148.82H893.74Z"/><path class="cls-1" d="M762,776.92c-9.34,0-18.67,0-28-.13-4.49-.07-8,.71-10.56,2.39,2.57-1.68,6.07-2.46,10.56-2.39C743.36,776.92,752.69,776.93,762,776.92Z"/><path class="cls-1" d="M324.85,149.06h0Z"/><path class="cls-1" d="M732,857.21h0q28,0,56-.05Q760,857.16,732,857.21Z"/><path class="cls-1" d="M842.79,149.17c17.3,0,34.6-.08,51.9-.07h0C877.39,149.09,860.09,149.17,842.79,149.17Z"/><path class="cls-1" d="M788.07,857.16q28,0,56,.09a20.65,20.65,0,0,0,5.66-.68,20.65,20.65,0,0,1-5.66.68Q816.08,857.15,788.07,857.16Z"/><path class="cls-1" d="M857.55,848a26.77,26.77,0,0,0,.57-6.25q-.07-5.91-.14-11.82.06,5.91.14,11.82A26.77,26.77,0,0,1,857.55,848Z"/><path class="cls-1" d="M188.68,224.23q0-3.94.06-7.89Q188.72,220.29,188.68,224.23Z"/><path class="cls-1" d="M189.08,254.52c-.12-1.12-.21-2.33-.28-3.65C188.87,252.19,189,253.4,189.08,254.52Z"/><path class="cls-1" d="M192.48,264a12.17,12.17,0,0,1-2.93-6.38A12.17,12.17,0,0,0,192.48,264Z"/><path class="cls-1" d="M188.8,250.87c-.14-2.64-.18-5.68-.2-9.19C188.62,245.19,188.66,248.23,188.8,250.87Z"/><path class="cls-1" d="M195.1,265.85a9,9,0,0,1-2.62-1.85A9,9,0,0,0,195.1,265.85Z"/><path class="cls-1" d="M198.37,266.94a17.23,17.23,0,0,1-2.19-.63A17.23,17.23,0,0,0,198.37,266.94Z"/><path class="cls-1" d="M207.17,267.87a58.65,58.65,0,0,1-6.83-.56A58.65,58.65,0,0,0,207.17,267.87Z"/><path class="cls-1" d="M720.75,852.82a10,10,0,0,1-1.08-1.79A10,10,0,0,0,720.75,852.82Z"/><path class="cls-1" d="M734.1,893c9,.17,18.08.2,27.12.18-9,0-18.08,0-27.12-.18-6.09-.12-10.42,1.17-13,4.3C723.68,894.2,728,892.91,734.1,893Z"/><path class="cls-1" d="M719,901.2a22.31,22.31,0,0,0-.91,7.21q.1,8.33.16,16.66-.06-8.33-.16-16.66A22.31,22.31,0,0,1,719,901.2Z"/><path class="cls-1" d="M733.76,990.81c-.66,0-1.3,0-1.91,0,.61,0,1.25,0,1.91,0q27.12-.15,54.24-.15Q760.88,990.66,733.76,990.81Z"/><path class="cls-1" d="M718.15,966.55c0,2.78,0,5.56-.07,8.35-.05,4.1.58,7.38,2,9.86-1.39-2.48-2-5.76-2-9.86C718.11,972.11,718.12,969.33,718.15,966.55Z"/><path class="cls-1" d="M850.16,894a22.69,22.69,0,0,0-7.58-.94c-4.52.1-9.05.15-13.58.18,4.53,0,9.06-.08,13.58-.18A22.69,22.69,0,0,1,850.16,894Z"/><path class="cls-1" d="M788.34,893.12c-6.78,0-13.56,0-20.34.06,6.78,0,13.56-.06,20.34-.06Z"/><path class="cls-1" d="M725.87,856.35a10.59,10.59,0,0,1-4.23-2.52A10.59,10.59,0,0,0,725.87,856.35Z"/><path class="cls-1" d="M842.25,990.83q-27.11-.17-54.2-.17,27.09,0,54.2.17c9.48.06,14.56-3.28,15.66-11.46C856.81,987.55,851.73,990.89,842.25,990.83Z"/><path class="cls-1" d="M721.55,853.75a7.85,7.85,0,0,1-.8-.93A7.85,7.85,0,0,0,721.55,853.75Z"/><path class="cls-1" d="M721.7,987a10.17,10.17,0,0,1-1.65-2.22A10.17,10.17,0,0,0,721.7,987Z"/><path class="cls-1" d="M828.1,776.94h0Z"/><path class="cls-1" d="M857.89,818.11q0,5.91.09,11.82Q857.91,824,857.89,818.11Z"/><path class="cls-1" d="M858.17,908.75c.08-5.53-1-9.52-3.52-12.1,2.52,2.58,3.6,6.57,3.52,12.1q-.31,20.76-.22,41.52Q857.88,929.51,858.17,908.75Z"/><path class="cls-1" d="M732,857.21a19.52,19.52,0,0,1-6.1-.86A19.52,19.52,0,0,0,732,857.21Z"/><path class="cls-1" d="M158.38,881.44a12.31,12.31,0,0,1,2.33-1.34A12.31,12.31,0,0,0,158.38,881.44Z"/><path class="cls-1" d="M189.61,877.23c1.49,0,2.87.07,4.15.17C192.48,877.3,191.1,877.25,189.61,877.23Z"/><path class="cls-1" d="M156.38,984.67a24.53,24.53,0,0,1-2-8A24.53,24.53,0,0,0,156.38,984.67Z"/><path class="cls-1" d="M207.32,267.88c2.05.07,4.33.1,6.85.11C211.65,268,209.37,268,207.32,267.88Z"/><path class="cls-1" d="M174.64,991.5c-2.37,0-4.47-.1-6.33-.29C170.17,991.4,172.27,991.49,174.64,991.5Z"/><path class="cls-1" d="M193.92,877.41q1.34.12,2.52.3Q195.26,877.53,193.92,877.41Z"/><path class="cls-1" d="M168.12,991.19c-.86-.09-1.67-.2-2.42-.34C166.45,991,167.26,991.1,168.12,991.19Z"/><path class="cls-1" d="M203.39,880.39a10.15,10.15,0,0,1,1,.87A10.15,10.15,0,0,0,203.39,880.39Z"/><path class="cls-1" d="M206.53,884.43a22.63,22.63,0,0,1,1.71,5.81A22.63,22.63,0,0,0,206.53,884.43Z"/><path class="cls-1" d="M202,879.5l.46.28Z"/><path class="cls-1" d="M197.66,877.94a16.25,16.25,0,0,1,3.74,1.23A16.25,16.25,0,0,0,197.66,877.94Z"/><path class="cls-1" d="M717.39,241a107.85,107.85,0,0,1,.64,12.09c.07,19.28.17,38.55.18,57.83,0-19.28-.11-38.55-.18-57.83A105.52,105.52,0,0,0,717.39,241Z"/><path class="cls-1" d="M699.17,219.38a18.89,18.89,0,0,1,6.92,1.13,18.89,18.89,0,0,0-6.92-1.13Z"/><path class="cls-1" d="M228.84,187.86l-7.88,0Z"/><path class="cls-1" d="M893.83,975.09c.06-1.46.09-2.92.1-4.38,0,1.46,0,2.92-.1,4.38-.22,5,.7,8.66,2.75,11.22C894.53,983.75,893.61,980.05,893.83,975.09Z"/><path class="cls-1" d="M862.94,224.34l0,0Z"/><path class="cls-1" d="M921.24,990.7h0Z"/><path class="cls-1" d="M984.18,655.26q0-154.29,0-308.59c0-7.12,0-13-.21-17.93.21,4.9.21,10.81.21,17.93Q984.19,501,984.18,655.26Z"/><path class="cls-1" d="M870.87,220a22.58,22.58,0,0,1,4.9-.56c.65,0,1.28,0,1.89.05-.61,0-1.24-.06-1.89-.05A22.58,22.58,0,0,0,870.87,220Z"/><path class="cls-1" d="M858,333.77c0-12.28.11-24.55.13-36.82,0-9.94,0-19.87,0-29.81,0,9.94,0,19.87,0,29.81C858.12,309.22,858,321.49,858,333.77Z"/><path class="cls-1" d="M893.8,246.59c0,3.21,0,6.43,0,9.65q0,210.39,0,420.79,0-210.4,0-420.79C893.79,253,893.82,249.8,893.8,246.59Z"/><path class="cls-1" d="M208.24,890.24c.17,1,.31,2,.42,3C208.55,892.19,208.41,891.19,208.24,890.24Z"/><path class="cls-1" d="M938.56,304c-10.83-.64-20.3-3.4-20.43-17.48,0-4.94,1.11-8.59,3.11-11.26-2,2.67-3.16,6.32-3.11,11.26C918.26,300.59,927.73,303.35,938.56,304Z"/><path class="cls-1" d="M442.75,187.73H268.3q-7.86,0-15.72.05,7.86,0,15.72-.05Z"/><path class="cls-1" d="M789.05,386.9q26.3,0,52.6.34h0Q815.36,386.94,789.05,386.9Z"/><path class="cls-1" d="M205.18,187.67h0c-10.5-.18-15.68,3.8-16.52,12.72C189.5,191.47,194.68,187.49,205.18,187.67Z"/><path class="cls-1" d="M1043.81,248.43c.89,10.18-1.71,15.65-7.64,18.14,5.93-2.49,8.53-8,7.64-18.14-.85-9.64-.35-19.4-.21-29.13C1043.46,229,1043,238.79,1043.81,248.43Z"/><path class="cls-1" d="M942.66,268.13h0c16.8-.15,33.61-.4,50.41-.36C976.27,267.73,959.46,268,942.66,268.13Z"/><path class="cls-1" d="M858,343c0-3.07,0-6.13,0-9.2C858,336.84,858,339.9,858,343Z"/><path class="cls-1" d="M118,946.09q0-26.61,0-53.22Q118,919.48,118,946.09Z"/><path class="cls-1" d="M642.86,303.65c-5.09.82-10.83.43-16.25.43q-44.72,0-89.43,0,44.72,0,89.43,0C632,304.08,637.77,304.47,642.86,303.65Z"/><path class="cls-1" d="M182.32,839.89c3.79,0,7.59.1,11.38.2.55,0,1.08,0,1.59,0-.51,0-1,0-1.59,0C189.91,840,186.11,839.93,182.32,839.89Z"/><path class="cls-1" d="M253.11,304.86c-3.12.64-5,1.86-6.08,4.16C248.13,306.72,250,305.5,253.11,304.86Z"/><path class="cls-1" d="M93.41,990.81c-3.72,0-6.85,0-9.5-.13,2.65.12,5.78.13,9.5.13a119.83,119.83,0,0,0,14.21-.43A119.83,119.83,0,0,1,93.41,990.81Z"/><path class="cls-1" d="M201.74,795.31a22.46,22.46,0,0,0-8-1.06q-8.29.15-16.61.14,8.31,0,16.61-.14A22.46,22.46,0,0,1,201.74,795.31Z"/><path class="cls-1" d="M246.4,310.72c-1,3.44-1,8.66-1,16.6q0,160,0,320,0-160,0-320C245.42,319.38,245.43,314.16,246.4,310.72Z"/><path class="cls-1" d="M177.13,794.39c-8.33,0-16.65,0-25-.09C160.48,794.34,168.8,794.4,177.13,794.39Z"/><path class="cls-1" d="M649.94,301.25l.69-.43Z"/><path class="cls-1" d="M70.16,845.34c-.22,2.07-.35,4.19-.41,6.37,0,1.2,0,2.41-.07,3.61,0-1.2,0-2.41.07-3.61C69.81,849.53,69.94,847.41,70.16,845.34Z"/><path class="cls-1" d="M152.16,794.3c-8.33,0-16.65,0-25,.06a67.12,67.12,0,0,0-23.35,4.26,67.12,67.12,0,0,1,23.35-4.26C135.51,794.25,143.83,794.27,152.16,794.3Z"/><path class="cls-1" d="M635.5,268.51c-1.08-.12-2.2-.23-3.35-.3C633.3,268.28,634.42,268.39,635.5,268.51Z"/><path class="cls-1" d="M219.66,268h0q203.38,0,406.77,0c2,0,3.9.06,5.72.18-1.82-.12-3.73-.18-5.72-.18Q423,268,219.66,268Z"/><path class="cls-1" d="M82.38,990.59c-1-.07-1.89-.16-2.72-.28C80.49,990.43,81.4,990.52,82.38,990.59Z"/><path class="cls-1" d="M79.66,990.31A14,14,0,0,1,75,988.94,14,14,0,0,0,79.66,990.31Z"/><path class="cls-1" d="M189.58,877.23c-5.38,0-12.22.47-20.92,1.14a24.64,24.64,0,0,0-7.95,1.73,24.64,24.64,0,0,1,7.95-1.73C177.36,877.7,184.2,877.2,189.58,877.23Z"/><path class="cls-1" d="M209.37,974.24c.27,12-4.87,16.25-16.66,16.74-7.3.3-13.24.56-18.06.52,4.82,0,10.76-.22,18.06-.52,11.79-.49,16.93-4.74,16.66-16.74q-.19-9.29-.21-18.59Q209.19,965,209.37,974.24Z"/><path class="cls-1" d="M153.77,933.54h0v21c0,9.6,0,16.77.61,22.12-.61-5.35-.61-12.52-.61-22.12Z"/><path class="cls-1" d="M158.38,881.44c-3.14,2.31-4.65,6.06-4.56,11.85,0,2.51.05,5,.07,7.54,0-2.51,0-5-.07-7.54C153.73,887.5,155.24,883.75,158.38,881.44Z"/><path class="cls-1" d="M74.36,988.58a7.7,7.7,0,0,1-1.09-.87A7.7,7.7,0,0,0,74.36,988.58Z"/><path class="cls-1" d="M209.26,925.89c0-3.71,0-7.43,0-11.14,0-8.52,0-15.19-.52-20.4.48,5.21.52,11.88.52,20.4C209.29,918.46,209.28,922.18,209.26,925.89Z"/><path class="cls-1" d="M69.6,909.53h.07q0-3.6,0-7.19,0,3.58,0,7.19H69.6q0,25.41,0,50.82c0,16.16,0,23.73,3.58,27.29-3.57-3.56-3.58-11.13-3.58-27.29Q69.6,934.94,69.6,909.53Z"/><path class="cls-1" d="M259.73,990.68c2.58.1,5.62.11,9.21.12h0C265.35,990.79,262.31,990.78,259.73,990.68Z"/><path class="cls-3" d="M858.17,908.75c.08-5.53-1-9.52-3.52-12.1a10.8,10.8,0,0,0-4.49-2.69,22.69,22.69,0,0,0-7.58-.94c-4.52.1-9.05.15-13.58.18-13.55.09-27.1-.07-40.66-.08-6.78,0-13.56,0-20.34.06l-6.78,0c-9,0-18.08,0-27.12-.18-6.09-.12-10.42,1.17-13,4.3A11.47,11.47,0,0,0,719,901.2a22.31,22.31,0,0,0-.91,7.21q.1,8.33.16,16.66.12,20.74-.08,41.48c0,2.78,0,5.56-.07,8.35-.05,4.1.58,7.38,2,9.86A10.17,10.17,0,0,0,721.7,987a9.85,9.85,0,0,0,1,.92,11.39,11.39,0,0,0,2.45,1.45,15.29,15.29,0,0,0,3.29,1,24,24,0,0,0,3,.38c.14,0,.27,0,.41,0,.61,0,1.25,0,1.91,0q27.12-.15,54.24-.15h0q27.09,0,54.2.17c9.48.06,14.56-3.28,15.66-11.46.09-.67.16-1.37.2-2.11s0-1.32,0-2q-.17-12.48-.19-25Q857.88,929.51,858.17,908.75Z"/><path class="cls-3" d="M858,685.94q.07-6.12.2-12.25c.14-6.91-1.63-11.43-5.71-13.8a14.06,14.06,0,0,0-4.31-1.55c-.55-.11-1.12-.2-1.72-.27a31.94,31.94,0,0,0-3.89-.16c-17.5.34-35,.09-52.51.09-4.67,0-9.33,0-14,0s-9.34,0-14,0-9.52,0-14.28,0q-6.87,0-13.72-.14c-4.53-.07-8,.68-10.64,2.36a11.07,11.07,0,0,0-1.33,1c-.06.06-.13.1-.18.15-2,1.92-3.2,4.66-3.62,8.32a27.73,27.73,0,0,0-.16,3.74c0,2.74.07,5.49.11,8.23q.22,20.38-.11,40.77c-.08,5.49,1.08,9.48,3.65,12.09s6.55,3.84,12.09,3.82q13.57-.07,27.16-.11,40.44-.1,80.87.13h.49a24.83,24.83,0,0,0,7.14-.87,12.9,12.9,0,0,0,2.75-1.15,10.17,10.17,0,0,0,2.22-1.65c2.6-2.55,3.79-6.5,3.69-12.06Q857.8,704.33,858,685.94Z"/><path class="cls-3" d="M849.81,777.8a24.69,24.69,0,0,0-9-1.11q-6.3.19-12.6.24h-.12c-12.68.11-25.37-.11-38.05-.08-9.34,0-18.68,0-28,.06s-18.67,0-28-.13c-4.49-.07-8,.71-10.56,2.39-3.71,2.42-5.48,6.74-5.37,13.3.27,16.92.15,33.85.09,50.78a17.65,17.65,0,0,0,1.49,7.77,10,10,0,0,0,1.08,1.79,7.85,7.85,0,0,0,.8.93l.09.08a10.59,10.59,0,0,0,4.23,2.52,19.52,19.52,0,0,0,6.1.86h0q28,0,56-.05h0q28,0,56,.09a20.65,20.65,0,0,0,5.66-.68,12.61,12.61,0,0,0,2.4-.93c2.94-1.54,4.62-4.15,5.41-7.64a26.77,26.77,0,0,0,.57-6.25q-.07-5.91-.14-11.82t-.09-11.82c0-2,0-3.94,0-5.91,0-5.91.12-11.82.33-17.72C858.54,785.41,856,780,849.81,777.8Z"/><path class="cls-3" d="M857.93,457.08c0-6.13.1-12.26.23-18.39.16-7.57-2-12.32-7-14.47-.33-.14-.69-.26-1.05-.39l-.38-.13a22.81,22.81,0,0,0-7.2-.83c-8.75.17-17.5.19-26.26.17S798.8,423,790.05,423c-9.34,0-18.68.06-28,.08q-7,0-14,0t-14-.14c-11-.18-16.14,4.39-15.94,15.58q.33,18.38.15,36.77,0,6.12-.15,12.25c-.11,6.85,1.7,11.38,5.79,13.81a12.16,12.16,0,0,0,1.3.66,12.58,12.58,0,0,0,1.85.65,20.91,20.91,0,0,0,4.4.74l.44,0c.62,0,1.25.05,1.92.05q54.27-.3,108.55,0c.66,0,1.29,0,1.91,0a22.23,22.23,0,0,0,5.24-.82,15.24,15.24,0,0,0,1.44-.51,10.6,10.6,0,0,0,6.2-6.66,15.51,15.51,0,0,0,.58-2.09,25.41,25.41,0,0,0,.44-5.59q-.12-6.14-.18-12.26Q857.87,466.27,857.93,457.08Z"/><path class="cls-3" d="M718,605.14a28.2,28.2,0,0,0,.42,6.47,17.81,17.81,0,0,0,.44,1.78,11.35,11.35,0,0,0,4.49,6.34,11.11,11.11,0,0,0,1.35.79l.37.16a17.48,17.48,0,0,0,4.82,1.38,34.2,34.2,0,0,0,6.07.3q4.23-.12,8.46-.18c14.09-.21,28.2.05,42.3.05,11.3,0,22.61-.12,33.92-.11,6.78,0,13.56.06,20.34.22,8.14.18,13.59-1.73,15.93-7.34a18.44,18.44,0,0,0,1.28-6.45c0-.71,0-1.45,0-2.23-.42-14.29-.37-28.59-.15-42.88,0-2,.05-4.09.09-6.13,0-.7,0-1.38,0-2S858,554,858,553.41c-1-8.38-6.29-11.7-15.8-11.64q-20.35.12-40.7.14l-13.56,0q-27.14,0-54.26-.13c-4.91,0-8.53,1-11,3-3.23,2.62-4.61,7-4.51,13.07q.09,5.9.17,11.81c.09,7.88.13,15.76,0,23.63Q718.2,599.24,718,605.14Z"/><path class="cls-3" d="M219.66,268q203.38,0,406.77,0c2,0,3.9.06,5.72.18,1.15.07,2.27.18,3.35.3l1.85.23c14.26,2.06,21.73,8.48,20.43,18.53-.91,7-3.54,11.13-7.15,13.55l-.69.43a15.45,15.45,0,0,1-1.56.82c-.34.16-.69.3-1,.43a23.17,23.17,0,0,1-4.48,1.15c-5.09.82-10.83.43-16.25.43q-44.72,0-89.43,0-134.11,0-268.23,0c-2.2,0-4.19,0-6,0-1.2,0-2.32,0-3.36.07a40.74,40.74,0,0,0-6.48.64c-3.12.64-5,1.86-6.08,4.16a11.6,11.6,0,0,0-.63,1.7c-1,3.44-1,8.66-1,16.6q0,160,0,320t0,320c0,8.67.06,14.15,1.34,17.6a10,10,0,0,0,.75,1.57,7.59,7.59,0,0,0,4.73,3.3,17.51,17.51,0,0,0,2.08.45,35.16,35.16,0,0,0,3.86.4l1.55.08c2.58.1,5.62.11,9.21.12H364q142.68,0,285.37,0c8.87,0,15.13,0,19.56-.79.54-.09,1-.2,1.54-.32s1-.26,1.39-.4a13.06,13.06,0,0,0,1.46-.58,1.4,1.4,0,0,1,.17-.09,8.87,8.87,0,0,0,1.7-1.1,8.06,8.06,0,0,0,1.55-1.69,8.34,8.34,0,0,0,.56-.92,12.42,12.42,0,0,0,.65-1.42,16.09,16.09,0,0,0,.56-1.81,30.42,30.42,0,0,0,.69-4q.09-.82.15-1.71c.09-1.19.16-2.47.21-3.86.11-3.47.11-7.58.11-12.45q0-212,0-423.95,0-141.31,0-282.63c0-8.55.9-15.42,2.72-20.66a25.45,25.45,0,0,1,2.74-5.71,18.18,18.18,0,0,1,1.36-1.81,14.92,14.92,0,0,1,6-4.3,18.26,18.26,0,0,1,6.61-1.19h0a18.89,18.89,0,0,1,6.92,1.13,13.81,13.81,0,0,1,1.3.57,13.26,13.26,0,0,1,2,1.23,13.81,13.81,0,0,1,1.54,1.34,15.67,15.67,0,0,1,1.38,1.62,17.54,17.54,0,0,1,1.22,1.89,23,23,0,0,1,1.54,3.38c.31.82.59,1.69.85,2.61s.49,1.9.69,2.92c.32,1.54.58,3.19.78,5a105.52,105.52,0,0,1,.64,12.09c.07,19.28.17,38.55.18,57.83v0h0q0,21.7-.14,43.39-.06,7.23-.16,14.47v0c-.1,8.48,1.84,13.65,6.64,16.29a15.43,15.43,0,0,0,3.23,1.28,31,31,0,0,0,8.68.87q26.28-.44,52.59-.4t52.6.34a23.6,23.6,0,0,0,9.23-1.4,11.55,11.55,0,0,0,2.58-1.47,10.16,10.16,0,0,0,2.79-3.24c1.43-2.6,2-6.08,2-10.55Q858,356.78,858,343c0-3.07,0-6.13,0-9.2,0-12.28.11-24.55.13-36.82,0-9.94,0-19.87,0-29.81s.1-19.87.31-29.8a28,28,0,0,1,.35-3.88,20,20,0,0,1,1.1-4.11,16.29,16.29,0,0,1,1.43-2.9,14.5,14.5,0,0,1,1.41-1.89c.06-.07.11-.15.18-.22l0,0a13.23,13.23,0,0,1,2.07-1.81q.42-.3.87-.57a15.71,15.71,0,0,1,3.49-1.57c.47-.15,1-.28,1.46-.39a22.58,22.58,0,0,1,4.9-.56c.65,0,1.28,0,1.89.05l.76.07a20.41,20.41,0,0,1,3.3.58c7.4,2,11.18,8,11.76,16.85.21,3.2.29,6.41.32,9.63s0,6.43,0,9.65q0,210.39,0,420.79V957.56c0,2.92.07,5.84.11,8.77,0,1.46,0,2.92,0,4.38s0,2.92-.1,4.38c-.22,5,.7,8.66,2.75,11.22,2.55,3.2,6.87,4.63,13,4.52,3.88-.08,7.77-.11,11.65-.13h.19c11.8,0,23.6.12,35.4.11h.1c3.45,0,6.45,0,9.08-.06,1.24,0,2.38-.07,3.45-.13a40.81,40.81,0,0,0,5.84-.65c.53-.11,1-.24,1.48-.38a13,13,0,0,0,1.67-.61,7.67,7.67,0,0,0,3.89-3.84,12.38,12.38,0,0,0,.72-2,20,20,0,0,0,.5-2.39c.07-.43.13-.89.18-1.36.11-.95.19-2,.25-3.09.09-1.66.14-3.52.16-5.6s0-4.36,0-6.88V655.26q0-154.29,0-308.59c0-7.12,0-13-.21-17.93a.49.49,0,0,0,0-.12c-.11-2.6-.28-4.92-.54-7-.06-.45-.12-.88-.19-1.31a30.46,30.46,0,0,0-.9-4.14,17.68,17.68,0,0,0-.91-2.49c-.15-.32-.3-.62-.46-.91a12.18,12.18,0,0,0-1.93-2.66h0a11.13,11.13,0,0,0-1-.93c-.24-.2-.5-.38-.76-.56s-.5-.34-.77-.49a14.48,14.48,0,0,0-2-1c-.42-.17-.87-.34-1.33-.49a29.53,29.53,0,0,0-3-.79l-1.37-.26-1.58-.25-.58-.07c-2.8-.37-6-.59-9.79-.75h-.25l-2.8-.1h-.29c-3.13-.09-6.58-.16-10.38-.24l-2.24-.06h-.26l-2-.09c-10.83-.64-20.3-3.4-20.43-17.48,0-4.94,1.11-8.59,3.11-11.26a13.93,13.93,0,0,1,2.77-2.76,16.52,16.52,0,0,1,2.53-1.53,18.26,18.26,0,0,1,1.86-.8c.64-.24,1.3-.46,2-.65s1.25-.32,1.89-.45,1.56-.3,2.36-.41l1.12-.14,1.21-.13c.7-.06,1.42-.11,2.14-.15l1.26-.05c.75,0,1.52-.05,2.28-.05h0c16.8-.15,33.61-.4,50.41-.36h.06q10,0,20,.21c3.41.07,6.81.15,10.22.26l1.37,0a31.39,31.39,0,0,0,10.73-1.4l.77-.3c5.93-2.49,8.53-8,7.64-18.14-.85-9.64-.35-19.4-.21-29.13,0-1.39,0-2.78,0-4.17V211.8c0-.43,0-.87,0-1.29v-1c0-.37,0-.75,0-1.1s0-.69,0-1,0-.65,0-1,0-.66,0-1,0-.59,0-.87l0-.94c0-.26,0-.53,0-.78s0-.6,0-.89,0-.48,0-.71,0-.56-.07-.84l-.06-.64c0-.27,0-.53-.08-.79s-.05-.39-.08-.58-.06-.49-.1-.73l-.09-.53c-.05-.23-.09-.46-.14-.68s-.07-.31-.1-.47-.11-.43-.16-.64-.09-.26-.13-.4-.12-.41-.19-.61-.09-.21-.13-.32-.16-.4-.25-.59l-.06-.12a8.52,8.52,0,0,0-.82-1.38l0,0-13.94-4.08-2.2-.05h0l-2.35,0H1017q-199.87,0-399.76,0H268.3q-7.86,0-15.72.05c-7.91,0-15.82.08-23.74.08l-7.88,0q-7.89,0-15.78-.17c-10.5-.18-15.68,3.8-16.52,12.72-.07.63-.1,1.3-.12,2s0,1.4,0,2.14c0,1.32.08,2.63.11,3.94q.08,3.95.07,7.89t-.06,7.89c0,4-.09,7.9-.09,11.84,0,2,0,3.86,0,5.61,0,3.51.06,6.55.2,9.19.07,1.32.16,2.53.28,3.65s.28,2.15.47,3.1a12.17,12.17,0,0,0,2.93,6.38,9,9,0,0,0,2.62,1.85,10.62,10.62,0,0,0,1.08.46,17.23,17.23,0,0,0,2.19.63c.62.14,1.27.27,2,.37a58.65,58.65,0,0,0,6.83.56h.15c2.05.07,4.33.1,6.85.11ZM466.72,793.57c-70,1.21-116.33-59.22-113.94-113.12,1.28-47.31,21.13-88,46.75-126.16,13.29-19.8,26.91-39.67,44.81-55.88,15.2-13.76,24.12-15.1,37.61-.74,45.81,48.77,83.28,102.7,92.05,171.26C582,731.56,530.61,792.47,466.72,793.57ZM756.5,269.06a612,612,0,0,1,62.66.26c9.61.55,15.6,7.82,14.8,18.25s-7.31,15.65-17.26,16.16-19.76.11-29.64.11v-.15c-9.88,0-19.81.6-29.63-.18-9.66-.76-16.86-5.91-16.7-16.54C740.88,277.09,746.77,269.5,756.5,269.06Z"/><path class="cls-2" d="M69.57,887.85q0,7.24.08,14.49,0,3.58,0,7.19H69.6q0,25.41,0,50.82c0,16.16,0,23.73,3.58,27.29a.27.27,0,0,0,.08.07,7.7,7.7,0,0,0,1.09.87,6.44,6.44,0,0,0,.63.36,14,14,0,0,0,4.67,1.37c.83.12,1.74.21,2.72.28.49,0,1,.06,1.53.09,2.65.12,5.78.13,9.5.13a119.83,119.83,0,0,0,14.21-.43,19.58,19.58,0,0,0,3.43-.73,9.63,9.63,0,0,0,2.57-1.27,7.74,7.74,0,0,0,.69-.57C118,984.36,118,977,118,961.27V946.09q0-26.61,0-53.22,0-11.36.07-22.71c0-2.28.07-4.38.18-6.33a52,52,0,0,1,1.1-8.51,27.25,27.25,0,0,1,.77-2.75c3.25-9.46,11-12.05,28-12.4,7.59-.16,15.18-.28,22.78-.31,3.79,0,7.59,0,11.39,0s7.59.1,11.38.2c.55,0,1.08,0,1.59,0a22.86,22.86,0,0,0,5.3-.66,13.14,13.14,0,0,0,3-1.16,10.51,10.51,0,0,0,1.55-1,9.57,9.57,0,0,0,1.78-1.94c3.1-4.5,2.39-11.5,2.38-18.07s.73-13.53-2.34-18.06c-.16-.23-.33-.46-.52-.69a9.51,9.51,0,0,0-2-1.81,12.08,12.08,0,0,0-2.69-1.35,22.46,22.46,0,0,0-8-1.06q-8.29.15-16.61.14h0c-8.33,0-16.65,0-25-.09s-16.65,0-25,.06a67.12,67.12,0,0,0-23.35,4.26q-2.59,1-5,2.24c-15.36,7.78-25.42,22.21-28.26,41.41-.15,1-.28,2-.39,3.07-.22,2.07-.35,4.19-.41,6.37,0,1.2,0,2.41-.07,3.61C69.47,866.16,69.5,877,69.57,887.85Z"/><path class="cls-1" d="M325.34,149.06q144.89.28,289.76.12H842.79c17.3,0,34.6-.08,51.9-.07l-1-.28H325.68l-.83.24Z"/><path class="cls-4" d="M472.81,541.44c-6.14-8.12-11.52-8.33-17.92-.21-25.79,32.7-48.93,66.85-60.95,107.38-16.82,56.75,16.17,107.26,70.06,107.1,45.49-.14,80-42.4,72.77-87.58C528.86,618.93,501.83,579.8,472.81,541.44Z"/><path class="cls-5" d="M0,1011.09c0,.18,0,.34,0,.51V1010C0,1010.38,0,1010.73,0,1011.09Z"/><path class="cls-6" d="M17,1028.13c7.43,1.24,15.12,1.2,22.7,1.2q248.91.09,497.84,0,250.68,0,501.36-.06c8.14,0,16.43-.14,24.39-1.61,8.65-1.6,15.31-7,15.35-16.56,0-9.94-5.9-16.66-15.42-18.67a81.78,81.78,0,0,0-22.62-1.48c-15,1.13-20.6-4.55-20.57-20q.54-323.41,0-646.85c0-15.2,4.71-20.47,20.1-20.36,26.39.2,38.77-12.34,39.42-38.39q.95-37.67,0-75.37c-.69-25.43-15.23-39.51-41-40.61q-4.39-.18-8.82-.32L772.42,73.72a569.67,569.67,0,0,0-327.69,2l-268.58,76,0,.17c-16.29,5.11-25.25,17.91-25.87,37.92q-1.14,36.78,0,73.62c.95,28.61,12.48,40,41.19,40.51,12.36.23,17.95,3.76,17.92,17q-.44,208.6,0,417.22c0,14.18-6.09,18.31-19.09,17.91-18.68-.57-37.41-.49-56.09,0C70.46,757.69,34,795.28,33.86,859.08c0,35.64-.29,71.29.13,106.93.16,13.79.43,25.6-18.57,26.62C6.3,993.12.35,1000.6,0,1010v1.58C.39,1021.71,7.84,1026.61,17,1028.13ZM718.25,569.7q-.07-5.91-.17-11.81c-.1-6.11,1.28-10.45,4.51-13.07,2.51-2,6.13-3,11-3q27.12.13,54.26.13l13.56,0q20.35,0,40.7-.14h0c9.51-.06,14.78,3.26,15.8,11.64.08.6.13,1.22.16,1.87s0,1.33,0,2c0,2-.06,4.09-.09,6.13-.22,14.29-.27,28.59.15,42.88,0,.78,0,1.52,0,2.23A18.44,18.44,0,0,1,856.9,615c-2.34,5.61-7.79,7.52-15.93,7.34-6.78-.16-13.56-.21-20.34-.22-11.31,0-22.62.11-33.92.11-14.1,0-28.21-.26-42.3-.05q-4.23.06-8.46.18a34.2,34.2,0,0,1-6.07-.3,17.48,17.48,0,0,1-4.82-1.38l-.37-.16a11.11,11.11,0,0,1-1.35-.79,11.35,11.35,0,0,1-4.49-6.34,17.81,17.81,0,0,1-.44-1.78,28.2,28.2,0,0,1-.42-6.47q.19-5.89.28-11.81C718.38,585.46,718.34,577.58,718.25,569.7ZM858,475.46q.06,6.14.18,12.26a25.41,25.41,0,0,1-.44,5.59,15.51,15.51,0,0,1-.58,2.09,10.6,10.6,0,0,1-6.2,6.66,15.24,15.24,0,0,1-1.44.51,22.23,22.23,0,0,1-5.24.82c-.62,0-1.25,0-1.91,0q-54.29-.33-108.55,0c-.67,0-1.3,0-1.92-.05l-.44,0a20.91,20.91,0,0,1-4.4-.74,12.58,12.58,0,0,1-1.85-.65,12.16,12.16,0,0,1-1.3-.66c-4.09-2.43-5.9-7-5.79-13.81q.1-6.12.15-12.25.16-18.39-.15-36.77c-.2-11.19,5-15.76,15.94-15.58h0q7,.12,14,.14t14,0c9.34,0,18.68-.08,28-.08h0c8.75,0,17.51.07,26.26.09s17.51,0,26.26-.17a22.81,22.81,0,0,1,7.2.83l.38.13c.36.13.72.25,1.05.39,5,2.15,7.12,6.9,7,14.47-.13,6.13-.19,12.26-.23,18.39S857.9,469.33,858,475.46Zm.18,247.24c.1,5.56-1.09,9.51-3.69,12.06a10.17,10.17,0,0,1-2.22,1.65,12.9,12.9,0,0,1-2.75,1.15,24.83,24.83,0,0,1-7.14.87h-.49q-40.43-.25-80.87-.13-13.58,0-27.16.11c-5.54,0-9.52-1.21-12.09-3.82S718,728,718.08,722.5h0q.33-20.37.11-40.77c0-2.74-.06-5.49-.11-8.23a27.73,27.73,0,0,1,.16-3.74c.42-3.66,1.61-6.4,3.62-8.32,0-.05.12-.09.18-.15a11.07,11.07,0,0,1,1.33-1c2.59-1.68,6.11-2.43,10.64-2.36s9.14.11,13.72.14q7.14,0,14.28,0t14,0c4.67,0,9.33,0,14,0,17.51,0,35,.25,52.51-.09h0a31.94,31.94,0,0,1,3.89.16c.6.07,1.17.16,1.72.27a14.06,14.06,0,0,1,4.31,1.55c4.08,2.37,5.85,6.89,5.71,13.8q-.13,6.12-.2,12.25Q857.78,704.32,858.14,722.7Zm0,252.54c0,.7,0,1.37,0,2s-.11,1.44-.2,2.11c-1.1,8.18-6.18,11.52-15.66,11.46q-27.11-.17-54.2-.17h0q-27.12,0-54.24.15c-.66,0-1.3,0-1.91,0-.14,0-.27,0-.41,0a24,24,0,0,1-3-.38,15.29,15.29,0,0,1-3.29-1,11.39,11.39,0,0,1-2.45-1.45,9.85,9.85,0,0,1-1-.92,10.17,10.17,0,0,1-1.65-2.22c-1.39-2.48-2-5.76-2-9.86,0-2.79,0-5.57.07-8.35q.18-20.74.08-41.48-.06-8.33-.16-16.66a22.31,22.31,0,0,1,.91-7.21,11.47,11.47,0,0,1,2.08-3.87c2.62-3.13,7-4.42,13-4.3,9,.17,18.08.2,27.12.18l6.78,0c6.78,0,13.56-.06,20.34-.06h0c13.56,0,27.11.17,40.66.08,4.53,0,9.06-.08,13.58-.18a22.69,22.69,0,0,1,7.58.94,10.8,10.8,0,0,1,4.49,2.69c2.52,2.58,3.6,6.57,3.52,12.1q-.31,20.76-.22,41.52Q858,962.77,858.14,975.24Zm.09-180.76c-.21,5.9-.3,11.81-.33,17.72,0,2,0,3.94,0,5.91q0,5.91.09,11.82t.14,11.82a26.77,26.77,0,0,1-.57,6.25c-.79,3.49-2.47,6.1-5.41,7.64a12.61,12.61,0,0,1-2.4.93,20.65,20.65,0,0,1-5.66.68q-28-.11-56-.09h0q-28,0-56,.05h0a19.52,19.52,0,0,1-6.1-.86,10.59,10.59,0,0,1-4.23-2.52l-.09-.08a7.85,7.85,0,0,1-.8-.93,10,10,0,0,1-1.08-1.79,17.65,17.65,0,0,1-1.49-7.77c.06-16.93.18-33.86-.09-50.78-.11-6.56,1.66-10.88,5.37-13.3,2.57-1.68,6.07-2.46,10.56-2.39,9.34.13,18.67.14,28,.13s18.68-.06,28-.06c12.68,0,25.37.19,38.05.08h.12q6.3,0,12.6-.24a24.69,24.69,0,0,1,9,1.11C856,780,858.54,785.41,858.23,794.48Zm-403-682.31.39-.11a531.8,531.8,0,0,1,306.1-1.9l132,38.66h37.53a35.62,35.62,0,0,1-6.17.42q-15.2-.17-30.41-.14h0c-17.3,0-34.6.07-51.9.07H615.1q-144.89,0-289.76-.12h-.49l-12.75,0c-5.36,0-11.66,1.12-16.57-.21h30.15ZM207.32,267.88h-.15a58.65,58.65,0,0,1-6.83-.56c-.7-.1-1.35-.23-2-.37a17.23,17.23,0,0,1-2.19-.63,10.62,10.62,0,0,1-1.08-.46,9,9,0,0,1-2.62-1.85,12.17,12.17,0,0,1-2.93-6.38c-.19-.95-.35-2-.47-3.1s-.21-2.33-.28-3.65c-.14-2.64-.18-5.68-.2-9.19,0-1.75,0-3.62,0-5.61,0-3.94,0-7.89.09-11.84q0-3.94.06-7.89t-.07-7.89c0-1.31-.07-2.62-.11-3.94,0-.74,0-1.45,0-2.14s.05-1.35.12-2c.84-8.92,6-12.9,16.52-12.72h0q7.89.15,15.78.17l7.88,0c7.92,0,15.83-.05,23.74-.08q7.86,0,15.72-.05H617.2q199.89,0,399.76,0h5.41l2.35,0h0c9,.14,13.68.83,16.14,4.13h0l0,0a8.52,8.52,0,0,1,.82,1.38l.06.12c.09.19.17.39.25.59s.09.21.13.32.13.41.19.61.09.26.13.4.1.43.16.64.07.31.1.47.09.45.14.68l.09.53c0,.24.07.48.1.73s0,.39.08.58.06.52.08.79l.06.64c0,.28,0,.56.07.84s0,.47,0,.71,0,.59,0,.89,0,.52,0,.78l0,.94c0,.28,0,.58,0,.87s0,.64,0,1,0,.63,0,1,0,.67,0,1,0,.73,0,1.1v1c0,.42,0,.86,0,1.29v3.33c0,1.39,0,2.78,0,4.17-.14,9.73-.64,19.49.21,29.13.89,10.18-1.71,15.65-7.64,18.14l-.77.3a31.39,31.39,0,0,1-10.73,1.4l-1.37,0c-3.41-.11-6.81-.19-10.22-.26q-10-.19-20-.21h-.06c-16.8,0-33.61.21-50.41.36h0c-.76,0-1.53,0-2.28.05l-1.26.05c-.72,0-1.44.09-2.14.15l-1.21.13-1.12.14c-.8.11-1.59.25-2.36.41s-1.28.28-1.89.45-1.34.41-2,.65a18.26,18.26,0,0,0-1.86.8,16.52,16.52,0,0,0-2.53,1.53,13.93,13.93,0,0,0-2.77,2.76c-2,2.67-3.16,6.32-3.11,11.26.13,14.08,9.6,16.84,20.43,17.48l2,.09h.26l2.24.06c3.8.08,7.25.15,10.38.24h.29l2.8.1h.25c3.75.16,7,.38,9.79.75l.58.07,1.58.25,1.37.26a29.53,29.53,0,0,1,3,.79c.46.15.91.32,1.33.49a14.48,14.48,0,0,1,2,1c.27.15.52.32.77.49s.52.36.76.56a11.13,11.13,0,0,1,1,.93h0a12.18,12.18,0,0,1,1.93,2.66c.16.29.31.59.46.91a17.68,17.68,0,0,1,.91,2.49,30.46,30.46,0,0,1,.9,4.14c.07.43.13.86.19,1.31.26,2.07.43,4.39.54,7a.49.49,0,0,1,0,.12c.21,4.9.21,10.81.21,17.93q0,154.31,0,308.59V963.84c0,2.52,0,4.81,0,6.88s-.07,3.94-.16,5.6c-.06,1.12-.14,2.14-.25,3.09,0,.47-.11.93-.18,1.36a20,20,0,0,1-.5,2.39,12.38,12.38,0,0,1-.72,2,7.67,7.67,0,0,1-3.89,3.84,13,13,0,0,1-1.67.61c-.46.14-.95.27-1.48.38a40.81,40.81,0,0,1-5.84.65c-1.07.06-2.21.1-3.45.13-2.63,0-5.63.06-9.08.06h-.1c-11.8,0-23.6-.15-35.4-.11h-.19c-3.88,0-7.77,0-11.65.13-6.14.11-10.46-1.32-13-4.52-2.05-2.56-3-6.26-2.75-11.22.06-1.46.09-2.92.1-4.38s0-2.92,0-4.38c0-2.93-.11-5.85-.11-8.77V677q0-210.4,0-420.79c0-3.22,0-6.44,0-9.65s-.11-6.43-.32-9.63c-.58-8.8-4.36-14.88-11.76-16.85a20.41,20.41,0,0,0-3.3-.58l-.76-.07c-.61,0-1.24-.06-1.89-.05a22.58,22.58,0,0,0-4.9.56c-.5.11-1,.24-1.46.39a15.71,15.71,0,0,0-3.49,1.57q-.45.27-.87.57a13.23,13.23,0,0,0-2.07,1.81l0,0c-.07.07-.12.15-.18.22a14.5,14.5,0,0,0-1.41,1.89,16.29,16.29,0,0,0-1.43,2.9,20,20,0,0,0-1.1,4.11,28,28,0,0,0-.35,3.88c-.21,9.93-.29,19.87-.31,29.8s0,19.87,0,29.81c0,12.27-.11,24.54-.13,36.82,0,3.07,0,6.13,0,9.2q0,13.81.22,27.61c.08,4.47-.54,7.95-2,10.55a10.16,10.16,0,0,1-2.79,3.24,11.55,11.55,0,0,1-2.58,1.47,23.6,23.6,0,0,1-9.23,1.4h0q-26.29-.3-52.6-.34t-52.59.4h0a31,31,0,0,1-8.68-.87,15.43,15.43,0,0,1-3.23-1.28c-4.8-2.64-6.74-7.81-6.64-16.29v0h0q.11-7.24.16-14.47.2-21.69.14-43.39h0v0c0-19.28-.11-38.55-.18-57.83a107.85,107.85,0,0,0-.64-12.09c-.2-1.77-.46-3.42-.78-5-.2-1-.44-2-.69-2.92s-.54-1.79-.85-2.61a23,23,0,0,0-1.54-3.38,17.54,17.54,0,0,0-1.22-1.89,15.67,15.67,0,0,0-1.38-1.62,13.81,13.81,0,0,0-1.54-1.34,13.26,13.26,0,0,0-2-1.23,13.81,13.81,0,0,0-1.3-.57,18.89,18.89,0,0,0-6.92-1.13,18.26,18.26,0,0,0-6.61,1.19,14.92,14.92,0,0,0-6,4.3,18.18,18.18,0,0,0-1.36,1.81,25.45,25.45,0,0,0-2.74,5.71c-1.82,5.24-2.72,12.11-2.72,20.66q0,141.32,0,282.63,0,212,0,424c0,4.87,0,9-.11,12.45-.05,1.39-.12,2.67-.21,3.86q-.06.88-.15,1.71a30.42,30.42,0,0,1-.69,4,16.09,16.09,0,0,1-.56,1.81,12.42,12.42,0,0,1-.65,1.42,8.34,8.34,0,0,1-.56.92,8.06,8.06,0,0,1-1.55,1.69,8.87,8.87,0,0,1-1.7,1.1,1.4,1.4,0,0,0-.17.09,13.06,13.06,0,0,1-1.46.58c-.44.14-.9.28-1.39.4s-1,.23-1.54.32c-4.43.79-10.69.79-19.56.79q-142.68,0-285.37,0h-95.1c-3.59,0-6.63,0-9.21-.12l-1.55-.08a35.16,35.16,0,0,1-3.86-.4,17.51,17.51,0,0,1-2.08-.45,7.59,7.59,0,0,1-4.73-3.3,10,10,0,0,1-.75-1.57c-1.28-3.45-1.34-8.93-1.34-17.6q0-160,0-320t0-320c0-7.94,0-13.16,1-16.6A11.6,11.6,0,0,1,247,309c1.1-2.3,3-3.52,6.08-4.16a40.74,40.74,0,0,1,6.48-.64c1,0,2.16-.06,3.36-.07,1.81,0,3.8,0,6,0q134.12,0,268.23,0,44.72,0,89.43,0c5.42,0,11.16.39,16.25-.43a23,23,0,0,0,4.48-1.15c.35-.13.7-.27,1-.43a15.45,15.45,0,0,0,1.56-.82l.69-.43c3.61-2.42,6.24-6.54,7.15-13.55,1.3-10-6.17-16.47-20.43-18.53l-1.85-.23c-1.08-.12-2.2-.23-3.35-.3-1.82-.12-3.73-.18-5.72-.18Q423,268,219.66,268h-5.49C211.65,268,209.37,268,207.32,267.88ZM192.71,991c-7.3.3-13.24.56-18.06.52h0c-2.37,0-4.47-.1-6.33-.29l-.19,0c-.86-.09-1.67-.2-2.42-.34a19.73,19.73,0,0,1-2.43-.57,13.57,13.57,0,0,1-2-.75l-.59-.3a9.87,9.87,0,0,1-1.6-1.06,10.15,10.15,0,0,1-2.72-3.5,24.53,24.53,0,0,1-2-8c-.61-5.35-.61-12.52-.61-22.12v-21h.1c0-10.9.09-21.81,0-32.71,0-2.51,0-5-.07-7.54-.09-5.79,1.42-9.54,4.56-11.85a12.31,12.31,0,0,1,2.33-1.34,24.64,24.64,0,0,1,7.95-1.73c8.7-.67,15.54-1.17,20.92-1.14h0c1.49,0,2.87.07,4.15.17h.16q1.34.12,2.52.3l1.22.23a16.25,16.25,0,0,1,3.74,1.23l.64.33.46.28a9.31,9.31,0,0,1,.89.61,10.15,10.15,0,0,1,1,.87,10.62,10.62,0,0,1,1.25,1.54l.36.57a11.76,11.76,0,0,1,.55,1.06,22.63,22.63,0,0,1,1.71,5.81c.17,1,.31,2,.42,3,0,.36.08.72.11,1.09.48,5.21.52,11.88.52,20.4,0,3.71,0,7.43,0,11.14,0,9.92-.13,19.85-.1,29.76q0,9.3.21,18.59C209.64,986.24,204.5,990.49,192.71,991Zm-123-139.27c.06-2.18.19-4.3.41-6.37.11-1,.24-2.06.39-3.07,2.84-19.2,12.9-33.63,28.26-41.41q2.43-1.23,5-2.24a67.12,67.12,0,0,1,23.35-4.26c8.32-.11,16.64-.09,25-.06s16.64.1,25,.09h0q8.31,0,16.61-.14a22.46,22.46,0,0,1,8,1.06,12.08,12.08,0,0,1,2.69,1.35,9.51,9.51,0,0,1,2,1.81c.19.23.36.46.52.69,3.07,4.53,2.33,11.51,2.34,18.06s.72,13.57-2.38,18.07a9.57,9.57,0,0,1-1.78,1.94,10.51,10.51,0,0,1-1.55,1,13.14,13.14,0,0,1-3,1.16,22.86,22.86,0,0,1-5.3.66c-.51,0-1,0-1.59,0-3.79-.1-7.59-.16-11.38-.2s-7.6,0-11.39,0c-7.6,0-15.19.15-22.78.31-17,.35-24.79,2.94-28,12.4a27.25,27.25,0,0,0-.77,2.75,52,52,0,0,0-1.1,8.51c-.11,1.95-.17,4-.18,6.33q-.06,11.36-.07,22.71,0,26.61,0,53.22v15.18c0,15.72,0,23.09-3.7,26.54a7.74,7.74,0,0,1-.69.57,9.63,9.63,0,0,1-2.57,1.27,19.58,19.58,0,0,1-3.43.73,119.83,119.83,0,0,1-14.21.43c-3.72,0-6.85,0-9.5-.13-.53,0-1,0-1.53-.09-1-.07-1.89-.16-2.72-.28A14,14,0,0,1,75,988.94a6.44,6.44,0,0,1-.63-.36,7.7,7.7,0,0,1-1.09-.87.27.27,0,0,1-.08-.07c-3.57-3.56-3.58-11.13-3.58-27.29q0-25.41,0-50.82h.07q0-3.6,0-7.19,0-7.25-.08-14.49c-.07-10.85-.1-21.69.11-32.53C69.71,854.12,69.72,852.91,69.75,851.71Z"/><path class="cls-5" d="M858.11,977.26c0-.65,0-1.32,0-2q-.17-12.48-.19-25,0,12.5.19,25C858.15,975.94,858.14,976.61,858.11,977.26Z"/><path class="cls-5" d="M728.46,990.35a15.29,15.29,0,0,1-3.29-1A15.29,15.29,0,0,0,728.46,990.35Z"/><path class="cls-5" d="M768,893.18l-6.78,0Z"/><path class="cls-5" d="M718.23,925.07q.12,20.74-.08,41.48Q718.33,945.81,718.23,925.07Z"/><path class="cls-5" d="M722.72,987.9a9.85,9.85,0,0,1-1-.92A9.85,9.85,0,0,0,722.72,987.9Z"/><path class="cls-5" d="M850.16,894a10.8,10.8,0,0,1,4.49,2.69A10.8,10.8,0,0,0,850.16,894Z"/><path class="cls-5" d="M858.11,977.26c0,.74-.11,1.44-.2,2.11C858,978.7,858.07,978,858.11,977.26Z"/><path class="cls-5" d="M731.85,990.76c-.14,0-.27,0-.41,0C731.58,990.74,731.71,990.76,731.85,990.76Z"/><path class="cls-5" d="M829,893.2c-13.55.09-27.1-.07-40.66-.08h0C801.9,893.13,815.45,893.29,829,893.2Z"/><path class="cls-5" d="M719,901.2a11.47,11.47,0,0,1,2.08-3.87A11.47,11.47,0,0,0,719,901.2Z"/><path class="cls-5" d="M842.34,738.43a24.83,24.83,0,0,0,7.14-.87,24.83,24.83,0,0,1-7.14.87Z"/><path class="cls-5" d="M854.45,734.76a10.17,10.17,0,0,1-2.22,1.65A10.17,10.17,0,0,0,854.45,734.76Z"/><path class="cls-5" d="M852.23,736.41a12.9,12.9,0,0,1-2.75,1.15A12.9,12.9,0,0,0,852.23,736.41Z"/><path class="cls-5" d="M858.16,673.69q-.13,6.12-.2,12.25.07-6.12.2-12.25c.14-6.91-1.63-11.43-5.71-13.8C856.53,662.26,858.3,666.78,858.16,673.69Z"/><path class="cls-5" d="M718.19,681.73q.22,20.38-.11,40.77h0Q718.41,702.13,718.19,681.73Z"/><path class="cls-5" d="M762,658.07q-7.14,0-14.28,0Q754.87,658.09,762,658.07Z"/><path class="cls-5" d="M761,738.3q40.44-.1,80.87.13Q801.43,738.18,761,738.3Z"/><path class="cls-5" d="M842.53,657.91h0a31.94,31.94,0,0,1,3.89.16A31.94,31.94,0,0,0,842.53,657.91Z"/><path class="cls-5" d="M722,661.29a11.07,11.07,0,0,1,1.33-1A11.07,11.07,0,0,0,722,661.29Z"/><path class="cls-5" d="M848.14,658.34a14.06,14.06,0,0,1,4.31,1.55A14.06,14.06,0,0,0,848.14,658.34Z"/><path class="cls-5" d="M718.24,669.76c.42-3.66,1.61-6.4,3.62-8.32C719.85,663.36,718.66,666.1,718.24,669.76Z"/><path class="cls-5" d="M849.81,777.8a24.69,24.69,0,0,0-9-1.11q-6.3.19-12.6.24,6.3,0,12.6-.24A24.69,24.69,0,0,1,849.81,777.8Z"/><path class="cls-5" d="M718.09,792.48c-.11-6.56,1.66-10.88,5.37-13.3-3.71,2.42-5.48,6.74-5.37,13.3.27,16.92.15,33.85.09,50.78a17.65,17.65,0,0,0,1.49,7.77,17.65,17.65,0,0,1-1.49-7.77C718.24,826.33,718.36,809.4,718.09,792.48Z"/><path class="cls-5" d="M852.14,855.64a12.61,12.61,0,0,1-2.4.93A12.61,12.61,0,0,0,852.14,855.64Z"/><path class="cls-5" d="M788.05,857.16h0Z"/><path class="cls-5" d="M790.05,776.86c12.68,0,25.37.19,38.05.08-12.68.11-25.37-.11-38.05-.08-9.34,0-18.68,0-28,.06C771.37,776.9,780.71,776.86,790.05,776.86Z"/><path class="cls-5" d="M732,857.21Z"/><path class="cls-5" d="M852.14,855.64c2.94-1.54,4.62-4.15,5.41-7.64C856.76,851.49,855.08,854.1,852.14,855.64Z"/><path class="cls-5" d="M721.64,853.83l-.09-.08Z"/><path class="cls-5" d="M202.5,879.78a9.31,9.31,0,0,1,.89.61A9.31,9.31,0,0,0,202.5,879.78Z"/><path class="cls-5" d="M196.44,877.71l1.22.23Z"/><path class="cls-5" d="M206,883.37a11.76,11.76,0,0,1,.55,1.06A11.76,11.76,0,0,0,206,883.37Z"/><path class="cls-5" d="M163.27,990.28a13.57,13.57,0,0,1-2-.75A13.57,13.57,0,0,0,163.27,990.28Z"/><path class="cls-5" d="M160.7,989.23a9.87,9.87,0,0,1-1.6-1.06A9.87,9.87,0,0,0,160.7,989.23Z"/><path class="cls-5" d="M189.58,877.23h0Z"/><path class="cls-5" d="M193.76,877.4h0Z"/><path class="cls-5" d="M201.4,879.17l.64.33Z"/><path class="cls-5" d="M204.37,881.26a10.62,10.62,0,0,1,1.25,1.54A10.62,10.62,0,0,0,204.37,881.26Z"/><path class="cls-5" d="M153.89,900.83c.07,10.9,0,21.81,0,32.71h0C153.87,922.64,154,911.73,153.89,900.83Z"/><path class="cls-5" d="M174.65,991.5h0Z"/><path class="cls-5" d="M165.7,990.85a19.73,19.73,0,0,1-2.43-.57A19.73,19.73,0,0,0,165.7,990.85Z"/><path class="cls-5" d="M168.31,991.21l-.19,0Z"/><path class="cls-5" d="M209.16,955.65c0-9.91.05-19.84.1-29.76C209.21,935.81,209.13,945.74,209.16,955.65Z"/><path class="cls-5" d="M858,475.46q-.09-9.19,0-18.38Q857.89,466.26,858,475.46Z"/><path class="cls-5" d="M850.15,423.83c.36.13.72.25,1.05.39C850.87,424.08,850.51,424,850.15,423.83Z"/><path class="cls-5" d="M842.57,422.87a22.81,22.81,0,0,1,7.2.83,22.81,22.81,0,0,0-7.2-.83c-8.75.17-17.5.19-26.26.17C825.07,423.06,833.82,423,842.57,422.87Z"/><path class="cls-5" d="M790.05,423h0c-9.34,0-18.68.06-28,.08C771.37,423,780.71,423,790.05,423Z"/><path class="cls-5" d="M731.42,503.33a20.91,20.91,0,0,1-4.4-.74A20.91,20.91,0,0,0,731.42,503.33Z"/><path class="cls-5" d="M734,422.87h0q7,.12,14,.14Q741,423,734,422.87Z"/><path class="cls-5" d="M733.78,503.41c-.67,0-1.3,0-1.92-.05.62,0,1.25.05,1.92.05q54.27-.3,108.55,0c.66,0,1.29,0,1.91,0-.62,0-1.25,0-1.91,0Q788,503.1,733.78,503.41Z"/><path class="cls-5" d="M850.92,502.06a10.6,10.6,0,0,0,6.2-6.66A10.6,10.6,0,0,1,850.92,502.06Z"/><path class="cls-5" d="M718.08,487.47q.1-6.12.15-12.25,0,6.12-.15,12.25c-.11,6.85,1.7,11.38,5.79,13.81C719.78,498.85,718,494.32,718.08,487.47Z"/><path class="cls-5" d="M858,553.41c-1-8.38-6.29-11.7-15.8-11.64h0C851.66,541.71,856.93,545,858,553.41Z"/><path class="cls-5" d="M801.45,541.91l-13.56,0Z"/><path class="cls-5" d="M858.19,606.32c-.42-14.29-.37-28.59-.15-42.88C857.82,577.73,857.77,592,858.19,606.32Z"/><path class="cls-5" d="M718,605.14q.21-5.89.28-11.81-.07,5.91-.28,11.81a28.2,28.2,0,0,0,.42,6.47A28.2,28.2,0,0,1,718,605.14Z"/><path class="cls-5" d="M841,622.34c-6.78-.16-13.56-.21-20.34-.22,6.78,0,13.56.06,20.34.22,8.14.18,13.59-1.73,15.93-7.34C854.56,620.61,849.11,622.52,841,622.34Z"/><path class="cls-5" d="M725.06,620.68l-.37-.16Z"/><path class="cls-5" d="M729.88,622.06a34.2,34.2,0,0,0,6.07.3q4.23-.12,8.46-.18-4.23.06-8.46.18A34.2,34.2,0,0,1,729.88,622.06Z"/><path class="cls-5" d="M717.91,368.84h0q.11-7.24.16-14.47Q718,361.6,717.91,368.84Z"/><path class="cls-5" d="M841.65,387.24a23.6,23.6,0,0,0,9.23-1.4,23.6,23.6,0,0,1-9.23,1.4Z"/><path class="cls-5" d="M675.23,987.53a8.06,8.06,0,0,0,1.55-1.69A8.06,8.06,0,0,1,675.23,987.53Z"/><path class="cls-5" d="M679.72,535.68q0-141.31,0-282.63c0-8.55.9-15.42,2.72-20.66-1.82,5.24-2.72,12.11-2.72,20.66Q679.72,394.37,679.72,535.68Z"/><path class="cls-5" d="M858.47,237.34c-.21,9.93-.29,19.87-.31,29.8C858.18,257.21,858.26,247.27,858.47,237.34Z"/><path class="cls-5" d="M671.9,989.3c-.44.14-.9.28-1.39.4C671,989.58,671.46,989.44,671.9,989.3Z"/><path class="cls-5" d="M678,983.5a12.42,12.42,0,0,1-.65,1.42A12.42,12.42,0,0,0,678,983.5Z"/><path class="cls-5" d="M219.66,268Z"/><path class="cls-5" d="M673.53,988.63a1.4,1.4,0,0,0-.17.09A1.4,1.4,0,0,1,673.53,988.63Z"/><path class="cls-5" d="M657.78,287.27c1.3-10-6.17-16.47-20.43-18.53,14.26,2.06,21.73,8.48,20.43,18.53-.91,7-3.54,11.13-7.15,13.55C654.24,298.4,656.87,294.28,657.78,287.27Z"/><path class="cls-5" d="M718.07,354.37q.2-21.69.14-43.39Q718.24,332.68,718.07,354.37Z"/><path class="cls-5" d="M269,304.13q134.12,0,268.23,0Q403.07,304.12,269,304.13Z"/><path class="cls-5" d="M648.38,302.07a15.45,15.45,0,0,0,1.56-.82A15.45,15.45,0,0,1,648.38,302.07Z"/><path class="cls-5" d="M247.51,986.45a10,10,0,0,1-.75-1.57A10,10,0,0,0,247.51,986.45Z"/><path class="cls-5" d="M637.35,268.74l-1.85-.23Z"/><path class="cls-5" d="M259.73,990.68l-1.55-.08Z"/><path class="cls-5" d="M715.92,233.15c-.26-.92-.54-1.79-.85-2.61C715.38,231.36,715.66,232.23,715.92,233.15Z"/><path class="cls-5" d="M715.07,230.54a23,23,0,0,0-1.54-3.38A23,23,0,0,1,715.07,230.54Z"/><path class="cls-5" d="M716.61,236.07c-.2-1-.44-2-.69-2.92C716.17,234.08,716.41,235.05,716.61,236.07Z"/><path class="cls-5" d="M712.31,225.27a15.67,15.67,0,0,0-1.38-1.62A15.67,15.67,0,0,1,712.31,225.27Z"/><path class="cls-5" d="M717.39,241c-.2-1.77-.46-3.42-.78-5C716.93,237.61,717.19,239.26,717.39,241Z"/><path class="cls-5" d="M679.24,977.65a30.42,30.42,0,0,1-.69,4A30.42,30.42,0,0,0,679.24,977.65Z"/><path class="cls-5" d="M245.42,647.3q0,160,0,320c0,8.67.06,14.15,1.34,17.6-1.28-3.45-1.34-8.93-1.34-17.6Q245.41,807.29,245.42,647.3Z"/><path class="cls-5" d="M686.58,224.87a18.18,18.18,0,0,0-1.36,1.81A18.18,18.18,0,0,1,686.58,224.87Z"/><path class="cls-5" d="M364,990.81q142.68,0,285.37,0c8.87,0,15.13,0,19.56-.79-4.43.79-10.69.79-19.56.79Q506.73,990.83,364,990.81Z"/><path class="cls-5" d="M707.39,221.08a13.81,13.81,0,0,0-1.3-.57A13.81,13.81,0,0,1,707.39,221.08Z"/><path class="cls-5" d="M1043.6,219.3c0-1.39,0-2.78,0-4.17v0C1043.63,216.52,1043.61,217.91,1043.6,219.3Z"/><path class="cls-5" d="M1043.62,211.8v0Z"/><path class="cls-5" d="M1043.61,209.51v0Z"/><path class="cls-5" d="M984.15,970.72c0,2.08-.07,3.94-.16,5.6C984.08,974.66,984.13,972.8,984.15,970.72Z"/><path class="cls-5" d="M1036.17,266.57l-.77.3Z"/><path class="cls-5" d="M984,328.62a.49.49,0,0,1,0,.12A.49.49,0,0,0,984,328.62Z"/><path class="cls-5" d="M942.64,268.13c-.76,0-1.53,0-2.28.05C941.11,268.15,941.88,268.13,942.64,268.13Z"/><path class="cls-5" d="M953.42,304.39c-3.13-.09-6.58-.16-10.38-.24l-2.24-.06,2.24.06C946.84,304.23,950.29,304.3,953.42,304.39Z"/><path class="cls-5" d="M858.22,370.58c.08,4.47-.54,7.95-2,10.55,1.43-2.6,2-6.08,2-10.55Q858,356.78,858,343,858,356.79,858.22,370.58Z"/><path class="cls-5" d="M1023.3,268.24c-3.41-.11-6.81-.19-10.22-.26C1016.49,268.05,1019.89,268.13,1023.3,268.24Z"/><path class="cls-5" d="M1043.54,205.45c0,.32,0,.64,0,1C1043.56,206.09,1043.55,205.77,1043.54,205.45Z"/><path class="cls-5" d="M1043.49,203.64l0,.94Z"/><path class="cls-5" d="M993.07,267.77h0Z"/><path class="cls-5" d="M1040.88,191.91c-2.46-3.3-7.18-4-16.14-4.13l2.2.05Z"/><path class="cls-5" d="M1017,187.74h0q-199.87,0-399.76,0h0Q817.09,187.73,1017,187.74Z"/><path class="cls-5" d="M1043.4,202c0,.29,0,.58,0,.89C1043.44,202.56,1043.42,202.26,1043.4,202Z"/><path class="cls-5" d="M1043.58,207.39c0,.33,0,.67,0,1C1043.59,208.06,1043.59,207.72,1043.58,207.39Z"/><path class="cls-5" d="M984,976.32c-.06,1.12-.14,2.14-.25,3.09C983.85,978.46,983.93,977.44,984,976.32Z"/><path class="cls-5" d="M977.26,308.62c.26.18.52.36.76.56C977.78,309,977.52,308.8,977.26,308.62Z"/><path class="cls-5" d="M1043.29,200.42c0,.28,0,.56.07.84C1043.34,201,1043.32,200.7,1043.29,200.42Z"/><path class="cls-5" d="M984.15,970.72c0-2.07,0-4.36,0-6.88v0C984.18,966.36,984.18,968.65,984.15,970.72Z"/><path class="cls-5" d="M967.13,305.33l1.58.25Z"/><path class="cls-5" d="M939.1,268.23c-.72,0-1.44.09-2.14.15C937.66,268.32,938.38,268.27,939.1,268.23Z"/><path class="cls-5" d="M881.72,220.11c7.4,2,11.18,8,11.76,16.85.21,3.2.29,6.41.32,9.63,0-3.22-.11-6.43-.32-9.63C892.9,228.16,889.12,222.08,881.72,220.11Z"/><path class="cls-5" d="M956.76,304.51c3.75.16,7,.38,9.79.75C963.75,304.89,960.51,304.67,956.76,304.51Z"/><path class="cls-5" d="M970.08,305.84a29.53,29.53,0,0,1,3,.79A29.53,29.53,0,0,0,970.08,305.84Z"/><path class="cls-5" d="M974.44,307.12a14.48,14.48,0,0,1,2,1A14.48,14.48,0,0,0,974.44,307.12Z"/><path class="cls-5" d="M893.8,677V957.56c0,2.92.07,5.84.11,8.77,0-2.93-.11-5.85-.11-8.77Z"/><path class="cls-5" d="M862.76,224.56c.06-.07.11-.15.18-.22S862.82,224.49,862.76,224.56Z"/><path class="cls-5" d="M979,310.11h0Z"/><path class="cls-5" d="M981,312.78c.16.29.31.59.46.91C981.28,313.37,981.13,313.07,981,312.78Z"/><path class="cls-5" d="M983.24,320.32c.07.43.13.86.19,1.31C983.37,321.18,983.31,320.75,983.24,320.32Z"/><path class="cls-5" d="M932.27,269.06c-.64.13-1.28.28-1.89.45C931,269.34,931.63,269.19,932.27,269.06Z"/><path class="cls-5" d="M921.43,990.7c11.8,0,23.6.12,35.4.11C945,990.82,933.23,990.66,921.43,990.7Z"/><path class="cls-5" d="M928.4,270.16a18.26,18.26,0,0,0-1.86.8A18.26,18.26,0,0,1,928.4,270.16Z"/><path class="cls-5" d="M896.58,986.31c2.55,3.2,6.87,4.63,13,4.52,3.88-.08,7.77-.11,11.65-.13-3.88,0-7.77,0-11.65.13C903.45,990.94,899.13,989.51,896.58,986.31Z"/><path class="cls-5" d="M926.54,271a16.52,16.52,0,0,0-2.53,1.53A16.52,16.52,0,0,1,926.54,271Z"/><path class="cls-5" d="M981.43,313.69a17.68,17.68,0,0,1,.91,2.49A17.68,17.68,0,0,0,981.43,313.69Z"/><path class="cls-5" d="M953.71,304.4l2.8.1Z"/><path class="cls-5" d="M938.56,304l2,.09Z"/><path class="cls-5" d="M983.06,983.16a12.38,12.38,0,0,1-.72,2A12.38,12.38,0,0,0,983.06,983.16Z"/><path class="cls-5" d="M1040.9,191.94a8.52,8.52,0,0,1,.82,1.38A8.52,8.52,0,0,0,1040.9,191.94Z"/><path class="cls-5" d="M878.42,219.53l-.76-.07Z"/><path class="cls-5" d="M870.87,220c-.5.11-1,.24-1.46.39C869.88,220.21,870.37,220.08,870.87,220Z"/><path class="cls-5" d="M200.34,267.31c-.7-.1-1.35-.23-2-.37C199,267.08,199.64,267.21,200.34,267.31Z"/><path class="cls-5" d="M1041.78,193.44c.09.19.17.39.25.59C1042,193.83,1041.87,193.63,1041.78,193.44Z"/><path class="cls-5" d="M207.32,267.88h0Z"/><path class="cls-5" d="M188.68,224.23c0,4-.09,7.9-.09,11.84,0,2,0,3.86,0,5.61,0-1.75,0-3.62,0-5.61C188.59,232.13,188.64,228.18,188.68,224.23Z"/><path class="cls-5" d="M975.3,990a40.81,40.81,0,0,1-5.84.65A40.81,40.81,0,0,0,975.3,990Z"/><path class="cls-5" d="M205.18,187.67h0q7.89.15,15.78.17Q213.07,187.81,205.18,187.67Z"/><path class="cls-5" d="M1019.82,187.74h0Z"/><path class="cls-5" d="M1042.16,194.35c.07.2.13.41.19.61C1042.29,194.76,1042.23,194.55,1042.16,194.35Z"/><path class="cls-5" d="M1022.37,187.75l2.35,0Z"/><path class="cls-5" d="M736.46,387.3h0q26.28-.44,52.59-.4Q762.76,386.89,736.46,387.3Z"/><path class="cls-5" d="M717.91,368.86c-.1,8.48,1.84,13.65,6.64,16.29C719.75,382.51,717.81,377.34,717.91,368.86Z"/><path class="cls-5" d="M956.93,990.81c3.45,0,6.45,0,9.08-.06-2.63,0-5.63.06-9.08.06Z"/><path class="cls-5" d="M1043,197.68c0,.24.07.48.1.73C1043,198.16,1043,197.92,1043,197.68Z"/><path class="cls-5" d="M861.35,226.45a16.29,16.29,0,0,0-1.43,2.9A16.29,16.29,0,0,1,861.35,226.45Z"/><path class="cls-5" d="M867.46,221.11a15,15,0,0,0-1.54.82A15,15,0,0,1,867.46,221.11Z"/><path class="cls-5" d="M1043.15,199c0,.26.06.52.08.79C1043.21,199.51,1043.18,199.25,1043.15,199Z"/><path class="cls-5" d="M692.56,220.57a18.26,18.26,0,0,1,6.61-1.19h0A18.26,18.26,0,0,0,692.56,220.57Z"/><path class="cls-5" d="M252.58,187.78c-7.91,0-15.82.08-23.74.08C236.76,187.86,244.67,187.81,252.58,187.78Z"/><path class="cls-5" d="M865.05,222.5a13.23,13.23,0,0,0-2.07,1.81A13.23,13.23,0,0,1,865.05,222.5Z"/><path class="cls-5" d="M188.54,202.37c0,.69,0,1.4,0,2.14,0,1.32.08,2.63.11,3.94,0-1.31-.07-2.62-.11-3.94C188.53,203.77,188.52,203.06,188.54,202.37Z"/><path class="cls-5" d="M1042.74,196.47c0,.22.09.45.14.68C1042.83,196.92,1042.79,196.69,1042.74,196.47Z"/><path class="cls-5" d="M1042.48,195.36c0,.21.1.43.16.64C1042.58,195.79,1042.53,195.57,1042.48,195.36Z"/><path class="cls-5" d="M976.78,989.59c-.46.14-.95.27-1.48.38C975.83,989.86,976.32,989.73,976.78,989.59Z"/><path class="cls-5" d="M853.46,384.37a10.16,10.16,0,0,0,2.79-3.24A10.16,10.16,0,0,1,853.46,384.37Z"/><path class="cls-5" d="M98.81,800.86c-15.36,7.78-25.42,22.21-28.26,41.41C73.39,823.07,83.45,808.64,98.81,800.86Z"/><path class="cls-5" d="M69.57,887.85c-.07-10.85-.1-21.69.11-32.53C69.47,866.16,69.5,877,69.57,887.85Z"/><path class="cls-5" d="M200.59,839.44a22.86,22.86,0,0,1-5.3.66A22.86,22.86,0,0,0,200.59,839.44Z"/><path class="cls-5" d="M206.4,798.47a9.51,9.51,0,0,0-2-1.81A9.51,9.51,0,0,1,206.4,798.47Z"/><path class="cls-5" d="M119.34,855.32a52,52,0,0,0-1.1,8.51A52,52,0,0,1,119.34,855.32Z"/><path class="cls-5" d="M205.1,837.23a10.51,10.51,0,0,1-1.55,1A10.51,10.51,0,0,0,205.1,837.23Z"/><path class="cls-5" d="M73.27,987.71a.27.27,0,0,1-.08-.07A.27.27,0,0,0,73.27,987.71Z"/><path class="cls-5" d="M114.31,987.81C118,984.36,118,977,118,961.27v0C118,977,118,984.36,114.31,987.81Z"/><path class="cls-5" d="M69.65,902.34q0-7.25-.08-14.49Q69.61,895.09,69.65,902.34Z"/><path class="cls-5" d="M113.62,988.38a9.63,9.63,0,0,1-2.57,1.27A9.63,9.63,0,0,0,113.62,988.38Z"/><path class="cls-5" d="M75,988.94a6.44,6.44,0,0,1-.63-.36A6.44,6.44,0,0,0,75,988.94Z"/><path class="cls-5" d="M118,892.87q0-11.36.07-22.71c0-2.28.07-4.38.18-6.33-.11,1.95-.17,4-.18,6.33Q118,881.52,118,892.87Z"/><path class="cls-5" d="M205.1,837.23a9.57,9.57,0,0,0,1.78-1.94A9.57,9.57,0,0,1,205.1,837.23Z"/><path class="cls-5" d="M209.26,817.22c0,6.57.72,13.57-2.38,18.07,3.1-4.5,2.39-11.5,2.38-18.07s.73-13.53-2.34-18.06C210,803.69,209.25,810.67,209.26,817.22Z"/><path class="cls-5" d="M120.11,852.57c3.25-9.46,11-12.05,28-12.4,7.59-.16,15.18-.28,22.78-.31-7.6,0-15.19.15-22.78.31C131.16,840.52,123.36,843.11,120.11,852.57Z"/><path class="cls-5" d="M925.1,149.24a35.62,35.62,0,0,0,6.17-.42H893.74l1,.28Q909.9,149.1,925.1,149.24Z"/><path class="cls-5" d="M312.1,149l12.75,0,.83-.24H295.53C300.44,150.15,306.74,149,312.1,149Z"/><path class="cls-5" d="M615.1,149.18q-144.89,0-289.76-.12,144.89.28,289.76.12h0Z"/><path class="cls-6" d="M482,497.67c-13.49-14.36-22.41-13-37.61.74-17.9,16.21-31.52,36.08-44.81,55.88-25.62,38.16-45.47,78.85-46.75,126.16-2.39,53.9,43.9,114.33,113.94,113.12,63.89-1.1,115.29-62,107.28-124.64C565.23,600.37,527.76,546.44,482,497.67ZM464,755.71c-53.89.16-86.88-50.35-70.06-107.1,12-40.53,35.16-74.68,60.95-107.38,6.4-8.12,11.78-7.91,17.92.21,29,38.36,56.05,77.49,64,126.69C544,713.31,509.49,755.57,464,755.71Z"/><path class="cls-6" d="M757.43,303.51c9.82.78,19.75.18,29.63.18v.15c9.88,0,19.79.39,29.64-.11s16.48-5.84,17.26-16.16-5.19-17.7-14.8-18.25a612,612,0,0,0-62.66-.26c-9.73.44-15.62,8-15.77,17.91C740.57,297.6,747.77,302.75,757.43,303.51Z"/></svg>