<svg id="Capa_1" data-name="Capa 1" xmlns="http://www.w3.org/2000/svg" viewBox="0 0 1080 1080"><defs><style>.cls-1{fill:#706f6f;}.cls-2{fill:#285ebc;}.cls-3{fill:#1d1d1b;}.cls-4{fill:#f9b233;}</style></defs><rect class="cls-1" x="527.18" y="565.47" width="25.63" height="239.43"/><path class="cls-2" d="M463.41,285.8H476a11.64,11.64,0,0,1,11.64,11.64V501h2.44a11.64,11.64,0,0,1,11.64,11.64V673.61a11.64,11.64,0,0,1-11.64,11.64h-6.46V832h.43a11.64,11.64,0,0,1,11.64,11.64v35.2a11.64,11.64,0,0,1-11.64,11.64h-8.48v7.9H598.15v-9.91h-7.47A11.64,11.64,0,0,1,579,876.79V840.58a11.64,11.64,0,0,1,11.64-11.64h3.45V684.75h-5a11.64,11.64,0,0,1-11.63-11.64V511.18a11.64,11.64,0,0,1,11.63-11.64h1.44V301a11.64,11.64,0,0,1,11.64-11.64h16.52v-32H463.13ZM576.1,816.54a11.65,11.65,0,0,1-11.64,11.64H515.54a11.65,11.65,0,0,1-11.64-11.64V553.83a11.64,11.64,0,0,1,11.64-11.64h48.92a11.64,11.64,0,0,1,11.64,11.64ZM495.51,301.93a11.65,11.65,0,0,1,11.64-11.64h65.7a11.65,11.65,0,0,1,11.64,11.64v13.14a11.64,11.64,0,0,1-11.64,11.64h-65.7a11.64,11.64,0,0,1-11.64-11.64Zm-4.64,73.32a11.64,11.64,0,0,1,11.64-11.64H575.7a11.64,11.64,0,0,1,11.64,11.64v48.56a11.64,11.64,0,0,1-11.64,11.64H502.51a11.64,11.64,0,0,1-11.64-11.64Z"/><rect class="cls-1" x="514.15" y="386.89" width="49.92" height="25.28"/><path class="cls-3" d="M630.41,234h-179a11.64,11.64,0,0,0-11.64,11.75l.5,51.8a11.64,11.64,0,0,0,11.64,11.53h12.5v203.6A11.64,11.64,0,0,0,476,524.32h2.44V662H472a11.64,11.64,0,0,0-11.64,11.63v170A11.64,11.64,0,0,0,472,855.24h.43v11.92H464a11.64,11.64,0,0,0-11.64,11.64V910A11.64,11.64,0,0,0,464,921.62H609.79A11.64,11.64,0,0,0,621.43,910V876.79a11.64,11.64,0,0,0-11.64-11.64h-7.47V852.22h3.45a11.64,11.64,0,0,0,11.64-11.64V673.11a11.64,11.64,0,0,0-11.64-11.64h-5V522.81h1.44a11.64,11.64,0,0,0,11.64-11.63V312.6h16.52A11.64,11.64,0,0,0,642.05,301V245.64A11.64,11.64,0,0,0,630.41,234Zm-11.64,55.32H602.25A11.64,11.64,0,0,0,590.61,301V499.54h-1.44a11.64,11.64,0,0,0-11.63,11.64V673.11a11.64,11.64,0,0,0,11.63,11.64h5V828.94h-3.45A11.64,11.64,0,0,0,579,840.58v36.21a11.64,11.64,0,0,0,11.64,11.64h7.47v9.91H475.59v-7.9h8.48a11.64,11.64,0,0,0,11.64-11.64V843.6A11.64,11.64,0,0,0,484.07,832h-.43V685.25h6.46a11.64,11.64,0,0,0,11.64-11.64V512.68A11.64,11.64,0,0,0,490.1,501h-2.44V297.44A11.64,11.64,0,0,0,476,285.8H463.41l-.28-28.52H618.77Z"/><path class="cls-3" d="M502.51,435.45H575.7a11.64,11.64,0,0,0,11.64-11.64V375.25a11.64,11.64,0,0,0-11.64-11.64H502.51a11.64,11.64,0,0,0-11.64,11.64v48.56A11.64,11.64,0,0,0,502.51,435.45Zm11.64-48.56h49.91v25.28H514.15Z"/><path class="cls-3" d="M564.46,542.19H515.54a11.64,11.64,0,0,0-11.64,11.64V816.54a11.65,11.65,0,0,0,11.64,11.64h48.92a11.65,11.65,0,0,0,11.64-11.64V553.83A11.64,11.64,0,0,0,564.46,542.19ZM552.82,804.9H527.18V565.47h25.64Z"/><rect class="cls-3" x="495.51" y="290.29" width="88.97" height="36.42" rx="11.64"/><path class="cls-3" d="M651.83,1015.54a12.87,12.87,0,0,0-18.22,0c-51.61,51.62-135.61,51.62-187.22,0a12.88,12.88,0,0,0-18.22,18.22,158.35,158.35,0,0,0,223.66,0A12.85,12.85,0,0,0,651.83,1015.54Z"/><path class="cls-3" d="M600.47,982.4a85.6,85.6,0,0,1-120.94,0,12.88,12.88,0,1,0-18.22,18.22,111.43,111.43,0,0,0,157.38,0,12.88,12.88,0,0,0-18.22-18.22Z"/><path class="cls-3" d="M585.55,967.47a12.88,12.88,0,1,0-18.22-18.22,38.68,38.68,0,0,1-54.66,0,12.88,12.88,0,1,0-18.22,18.22A64.48,64.48,0,0,0,585.55,967.47Z"/><path class="cls-4" d="M566.41,23.83a36.65,36.65,0,0,0-14.17-3.16c-28.61-.39-57.63-.28-82.25-.13A35.85,35.85,0,0,0,434.65,56c-.09,10.35-.07,20.89,0,31.09,0,3.4,0,6.79,0,10.19V101c0,.19,0,.38,0,.57,0,.51,0,1.13,0,1.8v14.9c0,.63,0,1.29,0,2v.16a16.63,16.63,0,0,1,0,1.73v17.17q0,3.28,0,6.59c0,1.62,0,3.24,0,4.87,0,6.72,3.75,10.95,9.73,11h.14a9.11,9.11,0,0,0,6.53-2.71,11.41,11.41,0,0,0,3.21-8.31c-.18-20.6-.14-41.52-.11-61.76q0-11.41,0-22.84c0-.16,0-.32,0-.49A9.57,9.57,0,0,1,455.7,59c1.78-2.37,4.72-5.22,8.68-5.38,5.08-.2,8.33,4.67,9.2,6.18a10.5,10.5,0,0,1,1.1,6.3c0,.2,0,.4,0,.6V90.57c0,28.77,0,58.51,0,87.76,0,5.85,1.91,9.52,6.21,11.91a11.93,11.93,0,0,0,11.89-.08,11.7,11.7,0,0,0,5.92-10.22c.12-10.8.09-21.82.07-32.46q0-6.89,0-13.77V66.26c0-.09,0-.22,0-.36A9.23,9.23,0,0,1,500,59.49c1.11-1.59,4.06-5.79,8.78-5.83h.07c4.09,0,7.13,3.08,9,5.68a9.55,9.55,0,0,1,1.4,6.62c0,.16,0,.33,0,.48v44.44q0,44.44,0,88.89c0,6.74,3.4,11.19,9.57,12.52a11.69,11.69,0,0,0,9.29-1.89,11.53,11.53,0,0,0,4.87-8,40.08,40.08,0,0,0,.22-5q0-40.78,0-81.59V66.85c0-.19,0-.39,0-.59a10.32,10.32,0,0,1,1.2-6.45c1.13-1.85,4.26-6.15,9-6.15h0c4.72,0,7.88,4.23,9,6a10.36,10.36,0,0,1,1.27,6.52c0,.21,0,.41,0,.6V92.44c0,29.2,0,59.39,0,89.08,0,6,1.72,9.63,5.79,12.13a11.62,11.62,0,0,0,11.69.39,12.06,12.06,0,0,0,6.49-10.1c0-.3,0-.59,0-.88q0-18.19,0-36.4c0-29.63.06-60.26-.15-90.37C587.39,41.11,580.29,30.19,566.41,23.83Z"/><path class="cls-4" d="M619.26,85.88c-3.67-3.64-7.43-7.31-11.14-10.91,0,11,0,22.23,0,33.3l.93.93c5.8,5.83,11.79,11.85,17.83,17.55,1.74,1.65,4.16,2.37,7.18,2.17,5.26-.36,8.59-2.69,10.46-7.33s1.11-8.89-2.47-12.62C634.3,100.85,626.22,92.8,619.26,85.88Z"/><path class="cls-3" d="M656.41,94.28h0q-12.87-13.1-25.79-26.12-11.68-11.81-23.35-23.62a2.83,2.83,0,0,1-.53-.69C600.14,17.25,578.19.05,550.77,0c-29.34,0-55.27,0-79.29,0a57.31,57.31,0,0,0-40.8,16.5,57.16,57.16,0,0,0-16.53,40.74q0,16,0,32v12.08l0,.24a10.92,10.92,0,0,0,0,2.84V138c0,5.45,0,9.93,0,14.11A30.8,30.8,0,0,0,424.33,175a29.48,29.48,0,0,0,23.12,7.11,32.28,32.28,0,0,0,6.65-1.57c.61,9.62,3.92,19.6,14.79,26.39,10.3,6.43,20.88,7.26,31.06,2.56A32.46,32.46,0,0,0,528.58,233c1,.08,2,.12,3,.12,13.25,0,23.77-7.56,29.38-20.93a33.33,33.33,0,0,0,6.7,2.61,32.26,32.26,0,0,0,40.39-31.37c.09-13.46.07-27.14,0-40.37,0-1.92,0-3.85,0-5.77,1.54,1.5,3.12,3,4.76,4.42a31.63,31.63,0,0,0,25.22,7.45,32.38,32.38,0,0,0,18.32-54.9Zm-68.77,52.38q0,18.19,0,36.4c0,.29,0,.58,0,.88a12.06,12.06,0,0,1-6.49,10.1,11.62,11.62,0,0,1-11.69-.39c-4.07-2.5-5.8-6.13-5.79-12.13.07-29.69,0-59.88,0-89.08V66.82c0-.19,0-.39,0-.6a10.36,10.36,0,0,0-1.27-6.52c-1.14-1.81-4.3-6-9-6h0c-4.77,0-7.9,4.3-9,6.15a10.32,10.32,0,0,0-1.2,6.45c0,.2,0,.4,0,.59v49q0,40.8,0,81.59a40.08,40.08,0,0,1-.22,5,11.53,11.53,0,0,1-4.87,8,11.69,11.69,0,0,1-9.29,1.89c-6.17-1.33-9.57-5.78-9.57-12.52q0-44.45,0-88.89V66.44c0-.15,0-.32,0-.48a9.55,9.55,0,0,0-1.4-6.62c-1.83-2.6-4.87-5.68-9-5.68h-.07c-4.72,0-7.67,4.24-8.78,5.83a9.23,9.23,0,0,0-1.34,6.41c0,.14,0,.27,0,.36v67.45q0,6.89,0,13.77c0,10.64,0,21.66-.07,32.46a11.7,11.7,0,0,1-5.92,10.22,11.93,11.93,0,0,1-11.89.08c-4.3-2.39-6.22-6.06-6.21-11.91,0-29.25,0-59,0-87.76V66.74c0-.2,0-.4,0-.6a10.5,10.5,0,0,0-1.1-6.3c-.87-1.51-4.12-6.38-9.2-6.18-4,.16-6.9,3-8.68,5.38a9.57,9.57,0,0,0-1.57,6.75c0,.17,0,.33,0,.49q0,11.41,0,22.84c0,20.24-.07,41.16.11,61.76a11.41,11.41,0,0,1-3.21,8.31,9.11,9.11,0,0,1-6.53,2.71h-.14c-6-.08-9.72-4.31-9.73-11,0-1.63,0-3.25,0-4.87q0-3.3,0-6.59V122.24a16.63,16.63,0,0,0,0-1.73v-.16c0-.75,0-1.41,0-2v-14.9c0-.67,0-1.29,0-1.8,0-.19,0-.38,0-.57V97.31c0-3.4,0-6.79,0-10.19,0-10.2,0-20.74,0-31.09A35.85,35.85,0,0,1,470,20.54c24.62-.15,53.64-.26,82.25.13a36.65,36.65,0,0,1,14.17,3.16c13.88,6.36,21,17.28,21.08,32.46C587.7,86.4,587.67,117,587.64,146.66ZM608.12,75c3.71,3.6,7.47,7.27,11.14,10.91,7,6.92,15,15,22.81,23.09,3.58,3.73,4.39,7.86,2.47,12.62s-5.2,7-10.46,7.33c-3,.2-5.44-.52-7.18-2.17-6-5.7-12-11.72-17.83-17.55l-.93-.93C608.11,97.2,608.11,86,608.12,75Z"/></svg>