<svg id="Capa_1" data-name="Capa 1" xmlns="http://www.w3.org/2000/svg" viewBox="0 0 1080 1080"><defs><style>.cls-1{fill:#b2b2b2;}.cls-2{fill:#53a20d;}.cls-3{fill:#285ebc;}.cls-4{fill:#1d1d1b;}</style></defs><path class="cls-1" d="M184.82,154.27c.2.26.4.52.62.78C185.22,154.79,185,154.53,184.82,154.27Z"/><path class="cls-1" d="M183.28,152l0-.07Z"/><path class="cls-1" d="M161.14,186.59a4.66,4.66,0,0,0-.32-.68A4.66,4.66,0,0,1,161.14,186.59Z"/><path class="cls-1" d="M155.6,181.3l.31.18Z"/><path class="cls-1" d="M160.21,185c-.15-.19-.32-.39-.5-.58C159.89,184.6,160.06,184.8,160.21,185Z"/><path class="cls-1" d="M160.69,185.7a3.74,3.74,0,0,0-.32-.49A3.74,3.74,0,0,1,160.69,185.7Z"/><path class="cls-1" d="M154.3,180.63l.37.18Z"/><path class="cls-1" d="M182.82,138.48l.08-.14Z"/><path class="cls-1" d="M188.35,132l.1-.07Z"/><path class="cls-1" d="M184.58,135.79l.13-.17Z"/><path class="cls-1" d="M185.69,134.49l.14-.15Z"/><path class="cls-1" d="M183.62,137.12l.11-.16Z"/><path class="cls-1" d="M182.5,150.4a.93.93,0,0,1-.05-.1A.93.93,0,0,0,182.5,150.4Z"/><path class="cls-1" d="M181.9,148.84a.49.49,0,0,0,0-.11Z"/><path class="cls-1" d="M187,133.24l.14-.13Z"/><path class="cls-1" d="M181.28,145.73a.22.22,0,0,1,0-.08A.22.22,0,0,0,181.28,145.73Z"/><path class="cls-1" d="M182.19,139.85l0-.08Z"/><path class="cls-1" d="M150.11,179.18l.37.08Z"/><path class="cls-1" d="M153,180.07l.32.14Z"/><path class="cls-1" d="M147.7,178.9h0Z"/><path class="cls-1" d="M148.85,179l.4.05Z"/><path class="cls-1" d="M157.91,182.8c-.19-.15-.39-.29-.6-.43C157.52,182.51,157.72,182.65,157.91,182.8Z"/><path class="cls-1" d="M181.24,144.2v0Z"/><path class="cls-1" d="M181.49,147.28a.52.52,0,0,0,0-.11A.52.52,0,0,1,181.49,147.28Z"/><path class="cls-1" d="M159,183.68c.23.21.45.42.65.64C159.43,184.1,159.21,183.89,159,183.68Z"/><path class="cls-1" d="M151.71,179.6h0Z"/><path class="cls-1" d="M158.71,183.45l-.49-.41Z"/><path class="cls-2" d="M540.56,983.79c245.28.15,443.61-197.63,444.13-442.89C985.21,295,787,96.22,541.12,96.07,295.83,95.93,97.49,293.7,97,538.93,96.46,784.75,294.77,983.64,540.56,983.79ZM673.1,906.47c-3.23,17-17.65,25.78-36.94,25.93-31.81.25-63.63.07-95.44.07-30.88,0-61.76.13-92.64,0-28-.14-41.91-14.42-42.07-42.66,0-5.61-.25-11.25.12-16.84,1.32-19.84,15.36-34.87,35.15-35q99.64-.75,199.31,0c16.44.1,29.81,9.86,32.6,25.77A121.56,121.56,0,0,1,673.1,906.47Zm121.58-129c-5.77,8.17-19.07,14.7-29.35,15.32-32.64,1.94-65.45.73-98.2.77-10.81,0-19.07-4.38-19-15.84S656.43,762,667.26,762c29.94,0,59.89-.49,89.81.25,11.85.29,14.33-4.63,13.93-15-.36-9.5.44-17-13.44-16.92q-216.84.63-433.67,0c-14,0-12.72,7.83-13.22,17.12-.57,10.74,2.62,14.85,14.14,14.8C410.88,761.8,497,762,583,762c19.12,0,27.79,5.08,27.59,16.09s-8.46,15.51-28.12,15.52c-85.61,0-171.22-.16-256.83.13-17.45.06-34.13-2.44-41.34-19.9-8-19.44-9.2-40.46,2.27-59.35,8-13.25,22.07-15.83,36.89-15.79,72.51.19,145,.08,217.54.08,71.57,0,143.15.15,214.72-.11,17.38-.06,34.12,2.43,41.47,19.83C805.43,737.93,807.31,759.61,794.68,777.5ZM238.07,559.94q118.59.28,237.19.09h18.12V542c0-116,.15-232-.15-348.08-.05-17.51,2.52-33.94,19.7-41.55,18.9-8.37,39.3-8.83,58.11,1.22,11.44,6.11,17.1,17.22,17.12,30.35q.18,119.31.09,238.6c0,10.88-4.66,19-16.14,18.67-12.53-.33-15.53-9.8-15.52-20.78,0-75.32-.19-150.65.22-226,.07-11.64-3.68-15.11-15.25-15.36-12.92-.28-16.8,3.72-16.75,16.73.44,122.57.27,245.15.25,367.73,0,25.52-2.84,28.41-28,28.42q-126.33,0-252.64,0c-16.2,0-23.89,11.62-17.14,26.22,1,2.13,3.85,4,6.22,4.71,3.06.87,6.49.48,9.76.48q297.56,0,595.1.23c12.47,0,17.28-3,17.21-16.45-.06-13.15-5.34-15.42-16.76-15.38-84.68.33-169.36.19-254,.17-25.32,0-28.11-2.84-28.13-28.31,0-21.06-.13-42.11,0-63.16.12-14,6.56-22.81,16.27-21.61,12.1,1.5,15.6,10,15.43,21.23-.29,19.13-.08,38.28-.08,59.92h18.36c78.13,0,156.26.18,234.39-.14,17.62-.07,34.16,3.19,40.85,20.73,7.61,19.94,9.29,41.35-3.83,60.38-7.78,11.28-20.07,14-33.48,14q-127.73-.28-255.44-.09c-116,0-232.06-.15-348.08.15-17.58,0-34.19-2.73-41.12-20.22-7.89-19.91-9.28-41.31,3.45-60.41C211.32,562.54,224.21,559.91,238.07,559.94Z"/><path class="cls-2" d="M630.26,868.84q-89.11.78-178.23,0c-12-.09-15.2,4.4-15.06,15.69.13,10.63,1.8,16.4,14.44,16.08,29.92-.75,59.87-.24,89.81-.24,29.48,0,59-.44,88.41.22,11.84.27,15.36-4,15.08-15.45C644.45,874.62,643,868.73,630.26,868.84Z"/><path class="cls-3" d="M157.91,182.8l.31.24.49.41.27.23c.23.21.45.42.65.64l.08.09c.18.19.35.39.5.58l.16.22a3.74,3.74,0,0,1,.32.49,2.39,2.39,0,0,1,.13.21,4.66,4.66,0,0,1,.32.68c2,5.34.86,13.94-2.43,18.72-14.57,21.16-31.76,40.58-45.57,62.18-159.35,249.28-71.59,582.16,189.71,721,282.89,150.3,633.5,2.76,724.59-304.91,81.13-274-80.78-563.63-357.4-634.17-167.34-42.68-319.6-7-454.5,101.23-1.83,1.46-3.58,3-5.38,4.51-8.28,6.82-17.25,8.94-24.72-.09-.22-.26-.42-.52-.62-.78s-.39-.52-.57-.78c-10.58,7.55-19.31,17.78-27.18,28.71l.24.17C157.52,182.51,157.72,182.65,157.91,182.8ZM541.4,64c263.22.74,475.6,213.48,475.37,476.18-.23,263-212.88,475.59-475.8,475.78-262.58.19-475.54-212.5-476.09-475.51S278.59,63.22,541.4,64Z"/><path class="cls-4" d="M181.47,147.17a11.83,11.83,0,0,1-.19-1.44A11.83,11.83,0,0,0,181.47,147.17Z"/><path class="cls-4" d="M181.86,148.73c-.15-.49-.27-1-.37-1.45C181.59,147.76,181.71,148.24,181.86,148.73Z"/><path class="cls-4" d="M183.25,151.89a16,16,0,0,1-.75-1.49A16,16,0,0,0,183.25,151.89Z"/><path class="cls-4" d="M148.05,178.91l.8.06Z"/><path class="cls-4" d="M149.25,179c.28,0,.57.09.86.16C149.82,179.11,149.53,179.06,149.25,179Z"/><path class="cls-4" d="M150.48,179.26a12.67,12.67,0,0,1,1.23.34A12.67,12.67,0,0,0,150.48,179.26Z"/><path class="cls-4" d="M146.67,179a6.76,6.76,0,0,1,1-.07A6.76,6.76,0,0,0,146.67,179Z"/><path class="cls-4" d="M151.73,179.6c.43.14.86.3,1.29.47C152.59,179.9,152.16,179.74,151.73,179.6Z"/><path class="cls-4" d="M182.45,150.3c-.21-.49-.39-1-.55-1.46C182.06,149.33,182.24,149.81,182.45,150.3Z"/><path class="cls-4" d="M154.67,180.81c.32.16.63.32.93.49C155.3,181.13,155,181,154.67,180.81Z"/><path class="cls-4" d="M153.34,180.21l1,.42Z"/><path class="cls-4" d="M181.27,145.65c0-.49,0-1,0-1.45C181.23,144.68,181.24,145.16,181.27,145.65Z"/><path class="cls-4" d="M187.09,133.11q.6-.54,1.26-1.08Q187.69,132.57,187.09,133.11Z"/><path class="cls-4" d="M185.83,134.34c.36-.37.73-.74,1.12-1.1C186.56,133.6,186.19,134,185.83,134.34Z"/><path class="cls-4" d="M188.45,132c.47-.37,1-.73,1.45-1.08C189.4,131.23,188.92,131.59,188.45,132Z"/><path class="cls-4" d="M157.07,182.2c-.37-.25-.76-.49-1.16-.72.4.23.79.47,1.16.72Z"/><path class="cls-4" d="M183.28,152c.3.51.62,1,1,1.53h0C183.9,153,183.58,152.47,183.28,152Z"/><path class="cls-4" d="M182.9,138.34c.22-.41.46-.82.72-1.22C183.36,137.52,183.12,137.93,182.9,138.34Z"/><path class="cls-4" d="M182.22,139.77q.27-.66.6-1.29Q182.49,139.11,182.22,139.77Z"/><path class="cls-4" d="M181.25,144.16a13.23,13.23,0,0,1,.94-4.31A13,13,0,0,0,181.25,144.16Z"/><path class="cls-4" d="M184.71,135.62c.31-.38.63-.76,1-1.13C185.34,134.86,185,135.24,184.71,135.62Z"/><path class="cls-4" d="M183.73,137a13.36,13.36,0,0,1,.85-1.17A13.36,13.36,0,0,0,183.73,137Z"/><path class="cls-4" d="M995.53,249.8C839.45,10.8,540.33-67.9,287.18,64.88c-34.48,18.09-65.09,43.61-97.28,66-.5.35-1,.71-1.45,1.08l-.1.07q-.66.54-1.26,1.08l-.14.13c-.39.36-.76.73-1.12,1.1l-.14.15c-.35.37-.67.75-1,1.13l-.13.17a13.36,13.36,0,0,0-.85,1.17l-.11.16c-.26.4-.5.81-.72,1.22l-.08.14q-.33.63-.6,1.29l0,.08a13.23,13.23,0,0,0-.94,4.31v0c0,.48,0,1,0,1.45a.22.22,0,0,0,0,.08,11.83,11.83,0,0,0,.19,1.44.52.52,0,0,1,0,.11c.1.48.22,1,.37,1.45a.49.49,0,0,1,0,.11c.16.49.34,1,.55,1.46a.93.93,0,0,0,.05.1,16,16,0,0,0,.75,1.49l0,.07c.3.51.62,1,1,1.53q.27.39.57.78c.2.26.4.52.62.78,7.47,9,16.44,6.91,24.72.09,1.8-1.49,3.55-3,5.38-4.51C350.44,42.35,502.7,6.72,670,49.4c276.62,70.54,438.53,360.18,357.4,634.17-91.09,307.67-441.7,455.21-724.59,304.91-261.3-138.83-349.06-471.71-189.71-721,13.81-21.6,31-41,45.57-62.18,3.29-4.78,4.4-13.38,2.43-18.72a4.66,4.66,0,0,0-.32-.68,2.39,2.39,0,0,0-.13-.21,3.74,3.74,0,0,0-.32-.49l-.16-.22c-.15-.19-.32-.39-.5-.58l-.08-.09c-.2-.22-.42-.43-.65-.64l-.27-.23-.49-.41-.31-.24c-.19-.15-.39-.29-.6-.43l-.24-.17c-.37-.25-.76-.49-1.16-.72l-.31-.18c-.3-.17-.61-.33-.93-.49l-.37-.18-1-.42-.32-.14c-.43-.17-.86-.33-1.29-.47h0a12.67,12.67,0,0,0-1.23-.34l-.37-.08c-.29-.07-.58-.12-.86-.16l-.4-.05-.8-.06h-.35a6.76,6.76,0,0,0-1,.07c-5.59.88-11.48,6-15.34,10.8C-6.41,361.33-37.86,550.85,46.74,753.88c105.19,252.47,387.33,381.09,650.8,302.48C922.8,989.14,1079.72,777.62,1080,540.8,1080.12,436.94,1050,333.23,995.53,249.8Z"/><path class="cls-4" d="M158.22,183l-.31-.24Z"/><path class="cls-4" d="M157.31,182.37l-.24-.17h0Z"/><path class="cls-4" d="M159.63,184.32l.08.09Z"/><path class="cls-4" d="M184.25,153.49h0q.27.39.57.78Q184.52,153.88,184.25,153.49Z"/><path class="cls-4" d="M159,183.68l-.27-.23Z"/><path class="cls-4" d="M160.82,185.91a2.39,2.39,0,0,0-.13-.21A2.39,2.39,0,0,1,160.82,185.91Z"/><path class="cls-4" d="M160.37,185.21l-.16-.22Z"/><path class="cls-4" d="M541,1015.91c262.92-.19,475.57-212.83,475.8-475.78C1017,277.43,804.62,64.69,541.4,64,278.59,63.22,64.32,277.45,64.88,540.4S278.39,1016.1,541,1015.91Zm.15-919.84C787,96.22,985.21,295,984.69,540.9c-.52,245.26-198.85,443-444.13,442.89-245.79-.15-444.1-199-443.59-444.86C97.49,293.7,295.83,95.93,541.12,96.07Z"/><path class="cls-4" d="M199.93,634.86c6.93,17.49,23.54,20.26,41.12,20.22,116-.3,232.05-.15,348.08-.15q127.71,0,255.44.09c13.41,0,25.7-2.74,33.48-14,13.12-19,11.44-40.44,3.83-60.38-6.69-17.54-23.23-20.8-40.85-20.73-78.13.32-156.26.14-234.39.14H588.28c0-21.64-.21-40.79.08-59.92.17-11.23-3.33-19.73-15.43-21.23-9.71-1.2-16.15,7.65-16.27,21.61-.18,21-.07,42.1,0,63.16,0,25.47,2.81,28.3,28.13,28.31,84.68,0,169.36.16,254-.17,11.42,0,16.7,2.23,16.76,15.38.07,13.46-4.74,16.47-17.21,16.45q-297.55-.47-595.1-.23c-3.27,0-6.7.39-9.76-.48-2.37-.67-5.24-2.58-6.22-4.71-6.75-14.6.94-26.21,17.14-26.22q126.32,0,252.64,0c25.19,0,28-2.9,28-28.42,0-122.58.19-245.16-.25-367.73,0-13,3.83-17,16.75-16.73,11.57.25,15.32,3.72,15.25,15.36-.41,75.32-.17,150.65-.22,226,0,11,3,20.45,15.52,20.78,11.48.3,16.15-7.79,16.14-18.67q0-119.29-.09-238.6c0-13.13-5.68-24.24-17.12-30.35-18.81-10-39.21-9.59-58.11-1.22-17.18,7.61-19.75,24-19.7,41.55.3,116,.15,232.06.15,348.08v18H475.26q-118.59,0-237.19-.09c-13.86,0-26.75,2.6-34.69,14.51C190.65,593.55,192,615,199.93,634.86Z"/><path class="cls-4" d="M755.76,698.67c-71.57.26-143.15.11-214.72.11-72.51,0-145,.11-217.54-.08-14.82,0-28.86,2.54-36.89,15.79-11.47,18.89-10.3,39.91-2.27,59.35,7.21,17.46,23.89,20,41.34,19.9,85.61-.29,171.22-.12,256.83-.13,19.66,0,27.92-4.59,28.12-15.52S602.16,762,583,762c-86.08,0-172.16-.2-258.23.22-11.52,0-14.71-4.06-14.14-14.8.5-9.29-.81-17.16,13.22-17.12q216.84.59,433.67,0c13.88,0,13.08,7.42,13.44,16.92.4,10.41-2.08,15.33-13.93,15-29.92-.74-59.87-.2-89.81-.25-10.83,0-19.07,4.36-19.14,15.76s8.2,15.85,19,15.84c32.75,0,65.56,1.17,98.2-.77,10.28-.62,23.58-7.15,29.35-15.32,12.63-17.89,10.75-39.57,2.55-59C789.88,701.1,773.14,698.61,755.76,698.67Z"/><path class="cls-4" d="M640.59,837.91q-99.66-.61-199.31,0c-19.79.15-33.83,15.18-35.15,35-.37,5.59-.15,11.23-.12,16.84.16,28.24,14.1,42.52,42.07,42.66,30.88.16,61.76,0,92.64,0,31.81,0,63.63.18,95.44-.07,19.29-.15,33.71-8.94,36.94-25.93a121.56,121.56,0,0,0,.09-42.79C670.4,847.77,657,838,640.59,837.91Zm-11,62.69c-29.45-.66-58.93-.22-88.41-.22-29.94,0-59.89-.51-89.81.24-12.64.32-14.31-5.45-14.44-16.08-.14-11.29,3-15.78,15.06-15.69q89.1.74,178.23,0c12.74-.11,14.19,5.78,14.45,16.31C645,896.63,641.47,900.87,629.63,900.6Z"/></svg>