<svg id="Capa_1" data-name="Capa 1" xmlns="http://www.w3.org/2000/svg" viewBox="0 0 1080 1080"><defs><style>.cls-1{fill:#7d4e24;}.cls-2{fill:#e94e1b;}.cls-3{fill:#1d71b8;}.cls-4{fill:#285ebc;}.cls-5{fill:#b17f4a;}.cls-6{fill:#432918;}.cls-7{fill:#1d1d1b;}.cls-8{fill:#182660;}.cls-9{fill:#fff;}.cls-10{fill:#f9b233;}</style></defs><path class="cls-1" d="M666.55,207.08l82.89,121.33a17.83,17.83,0,0,1-4.69,24.82,17.91,17.91,0,0,1-24.83-4.68l-32.65-47.81-48.48,28.88L595,430.75a17.89,17.89,0,0,1-32.87-14.13l48.31-111.71,56.61-33.71C622.61,205.82,582,142.15,539,74.87Q532.4,64.47,525.72,54l-49.11,57.92a17.92,17.92,0,0,1-18.87,5.53l-30-9.23-5.1,7L367.39,286.13l-71.6,20.12L156.46,405.82,94.85,492.25l51.82,6.95,82.53-22.15a21.9,21.9,0,0,1,11.42,0l81.45,21.85,81.46-21.86a22,22,0,0,1,11.43,0l81.44,21.85,81.47-21.86a22,22,0,0,1,11.42,0l81.45,21.85,81.47-21.86a22,22,0,0,1,11.42,0l81.44,21.85,81.48-21.86a22,22,0,0,1,11.42,0l27.26,7.31L689.6,190.78Z"/><path class="cls-2" d="M147.73,871.13c17.74,0,25.78-4.32,36-9.78,11.3-6.07,25.36-13.62,51.21-13.62s39.91,7.55,51.21,13.62c10.18,5.46,18.22,9.78,36,9.78s25.78-4.32,36-9.78c11.3-6.07,25.36-13.62,51.2-13.62s39.91,7.55,51.21,13.61c10.18,5.47,18.22,9.79,36,9.79s25.78-4.32,36-9.78c11.31-6.07,25.37-13.62,51.21-13.62s39.9,7.55,51.2,13.61c10.18,5.47,18.22,9.79,36,9.79s25.78-4.32,36-9.78c11.31-6.07,25.37-13.62,51.22-13.62s39.9,7.55,51.2,13.62c10.18,5.46,18.22,9.78,36,9.78s25.79-4.32,36-9.78c11.3-6.07,25.37-13.62,51.21-13.62s39.91,7.55,51.21,13.61c6.48,3.48,12.09,6.48,19.87,8.22V770.4l-71.08-19.07-81.48,21.86a22,22,0,0,1-11.4,0l-81.46-21.86-81.47,21.86a22,22,0,0,1-11.4,0l-81.47-21.86L502.1,773.19a22,22,0,0,1-11.4,0l-81.47-21.86-81.46,21.86a22,22,0,0,1-11.4,0L234.9,751.33l-81.86,22a21.7,21.7,0,0,1-8.64.56l-67.73-9.09v84.07c16.07,2.31,26.41,7.85,35.1,12.52C122,866.81,130,871.13,147.73,871.13Z"/><path class="cls-3" d="M147.73,628.64c17.74,0,25.78-4.31,36-9.78,11.3-6.06,25.36-13.61,51.21-13.61s39.9,7.55,51.2,13.61c10.19,5.47,18.23,9.78,36,9.78A16.1,16.1,0,0,1,335,635.18h21.66a16.06,16.06,0,0,1,7.95-19.77c10.55-5.28,23.25-10.16,44.62-10.16,25.85,0,39.91,7.55,51.21,13.61,10.18,5.47,18.22,9.78,36,9.78s25.78-4.31,36-9.78c11.3-6.06,25.36-13.61,51.21-13.61s39.9,7.55,51.2,13.61c10.19,5.47,18.23,9.78,36,9.78s25.78-4.31,36-9.78c11.3-6.06,25.36-13.61,51.21-13.61s39.9,7.55,51.2,13.61c10.18,5.47,18.22,9.78,36,9.78s25.79-4.31,36-9.78c11.3-6.06,25.37-13.61,51.21-13.61s39.91,7.55,51.21,13.61c6.48,3.47,12.09,6.48,19.87,8.21V527.91l-71.08-19.07-81.48,21.87a22,22,0,0,1-11.39,0l-81.47-21.87-81.47,21.87a22,22,0,0,1-11.4,0l-81.47-21.87L502.1,530.71a22,22,0,0,1-11.4,0l-81.47-21.87-81.46,21.87a22,22,0,0,1-11.4,0L234.9,508.84l-81.86,22a21.63,21.63,0,0,1-8.63.55l-67.74-9.08v84.07c16.07,2.31,26.41,7.85,35.1,12.51C122,624.33,130,628.64,147.73,628.64Zm772.74-96.5A21.4,21.4,0,1,1,899,553.54,21.44,21.44,0,0,1,920.47,532.14Zm-86,28.88A21.41,21.41,0,1,1,813,582.42,21.44,21.44,0,0,1,834.47,561Zm-84.16-28.88a21.4,21.4,0,1,1-21.43,21.4A21.44,21.44,0,0,1,750.31,532.14Zm-86,28.88a21.41,21.41,0,1,1-21.44,21.4A21.44,21.44,0,0,1,664.31,561Zm-84.16-28.88a21.4,21.4,0,1,1-21.44,21.4A21.44,21.44,0,0,1,580.15,532.14Zm-86,28.88a21.41,21.41,0,1,1-21.44,21.4A21.44,21.44,0,0,1,494.15,561ZM410,532.14a21.4,21.4,0,1,1-21.43,21.4A21.44,21.44,0,0,1,410,532.14ZM324,561a21.41,21.41,0,1,1-21.43,21.4A21.44,21.44,0,0,1,324,561Zm-84.16-28.88a21.4,21.4,0,1,1-21.43,21.4A21.44,21.44,0,0,1,239.83,532.14Zm-86,28.88a21.41,21.41,0,1,1-21.43,21.4A21.44,21.44,0,0,1,153.83,561Z"/><path class="cls-4" d="M1003.33,902.22c-16.07-2.31-26.52-7.92-35.11-12.52-10.19-5.47-18.23-9.79-36-9.79s-25.78,4.32-36,9.78c-11.31,6.07-25.37,13.62-51.22,13.62s-39.91-7.55-51.21-13.62c-10.18-5.46-18.22-9.78-36-9.78s-25.78,4.32-36,9.78c-11.3,6.07-25.37,13.62-51.21,13.62s-39.91-7.55-51.21-13.62c-10.19-5.46-18.23-9.78-36-9.78s-25.78,4.32-36,9.78c-11.31,6.07-25.37,13.62-51.22,13.62s-39.91-7.55-51.2-13.62c-10.19-5.46-18.23-9.78-36-9.78s-25.77,4.32-36,9.78c-11.3,6.07-25.37,13.62-51.21,13.62s-39.91-7.55-51.21-13.61c-10.19-5.47-18.23-9.79-36-9.79s-25.78,4.32-36,9.78c-11.31,6.07-25.37,13.62-51.21,13.62s-39.91-7.55-51.21-13.62c-6.59-3.54-12.13-6.51-19.85-8.22V990.54l926.66-55.82Z"/><path class="cls-5" d="M339.28,256.93l16.15-50-7.69,10.49a17.93,17.93,0,0,1-11.69,7.09l-56.66,8.84-59.06,82.87L280,273.58Z"/><path class="cls-6" d="M521.91,7.18h11.66A18,18,0,0,0,521.91,7.18Z"/><path class="cls-7" d="M52,494a22,22,0,0,1,17.38-5.22l25.5,3.43,61.61-86.43,139.33-99.57,71.6-20.12,55.22-170.92,5.1-7,30,9.23a17.92,17.92,0,0,0,18.87-5.53L525.72,54Q532.41,64.47,539,74.87c42.94,67.28,83.57,131,128.05,196.33l-56.61,33.71L562.17,416.62A17.89,17.89,0,0,0,595,430.75l43.75-101.13,48.48-28.88,32.65,47.81a17.88,17.88,0,0,0,32.33-6.76,17.72,17.72,0,0,0-2.81-13.38L666.55,207.08l23.05-16.3L965.23,484.37l54,14.5a22,22,0,0,1,12.25,8.59c-1.68-2.81-4.89-7.2-11.09-14.7-4.3-5.2-11.12-13.15-13.53-15.45L742,194.56l-36.38-38.82a17.92,17.92,0,0,0-24-3.05l-34.77,24.58L543.26,15.18a17.76,17.76,0,0,0-9.69-8H521.91a17.88,17.88,0,0,0-7.83,5.3L457,79.88l-30.37-9.34a17.81,17.81,0,0,0-20.21,6.35L323.26,190.4l-56.19,8.78a17.83,17.83,0,0,0-12.43,7.36L50.73,492.61a17.77,17.77,0,0,0-3.51,7.32A21.84,21.84,0,0,1,52,494ZM279.39,233.35l56.66-8.84a17.93,17.93,0,0,0,11.69-7.09l7.69-10.49-16.15,50L280,273.58l-59.65,42.64Z"/><ellipse class="cls-7" cx="153.83" cy="582.42" rx="21.43" ry="21.4"/><path class="cls-7" d="M239.83,574.94a21.4,21.4,0,1,0-21.43-21.4A21.44,21.44,0,0,0,239.83,574.94Z"/><ellipse class="cls-7" cx="323.99" cy="582.42" rx="21.43" ry="21.4"/><ellipse class="cls-7" cx="409.99" cy="553.54" rx="21.43" ry="21.4"/><ellipse class="cls-7" cx="494.15" cy="582.42" rx="21.43" ry="21.4"/><ellipse class="cls-7" cx="580.15" cy="553.54" rx="21.43" ry="21.4"/><path class="cls-7" d="M664.31,603.83a21.41,21.41,0,1,0-21.44-21.41A21.45,21.45,0,0,0,664.31,603.83Z"/><ellipse class="cls-7" cx="750.31" cy="553.54" rx="21.43" ry="21.4"/><ellipse class="cls-7" cx="834.47" cy="582.42" rx="21.43" ry="21.4"/><path class="cls-7" d="M920.47,574.94A21.4,21.4,0,1,0,899,553.54,21.44,21.44,0,0,0,920.47,574.94Z"/><path class="cls-7" d="M1031.53,507.46c1.82,3.05,1.82,4.24,1.82,5.52v9.07l-43.45-11.4-24.67-26.28L938,477.06a22,22,0,0,0-11.42,0l-81.48,21.86-81.44-21.85a22,22,0,0,0-11.42,0l-81.47,21.86-81.45-21.85a22,22,0,0,0-11.42,0L496.4,498.91,415,477.06a22,22,0,0,0-11.43,0l-81.46,21.86-81.45-21.85a21.9,21.9,0,0,0-11.42,0L146.67,499.2l-51.82-6.95L78.77,514.81l-32-5v-6a18.05,18.05,0,0,1,.44-3.89,21.87,21.87,0,0,0-2.76,10.63V621.32a16.12,16.12,0,0,1,16.11-16.07,113.06,113.06,0,0,1,16.1,1.1V522.28l67.74,9.08a21.63,21.63,0,0,0,8.63-.55l81.86-22,81.47,21.87a22,22,0,0,0,11.4,0l81.46-21.87,81.47,21.87a22,22,0,0,0,11.4,0l81.47-21.87L665,530.71a22,22,0,0,0,11.4,0l81.47-21.87,81.47,21.87a22,22,0,0,0,11.39,0l81.48-21.87,71.08,19.07v99.16a73,73,0,0,0,16.1,1.57,16.12,16.12,0,0,1,16.11,16.09V520.06A21.81,21.81,0,0,0,1031.53,507.46Z"/><path class="cls-7" d="M1019.28,498.87l-54-14.5,24.67,26.28,43.45,11.4V513c0-1.28,0-2.47-1.82-5.52A22,22,0,0,0,1019.28,498.87Z"/><path class="cls-7" d="M46.79,509.8l32,5,16.08-22.56-25.5-3.43a21.92,21.92,0,0,0-22.13,11.11,18.05,18.05,0,0,0-.44,3.89Z"/><path class="cls-7" d="M60.57,637.43a16.11,16.11,0,0,0,16.1-16.09v-15a113.06,113.06,0,0,0-16.1-1.1,16.12,16.12,0,0,0-16.11,16.07v0A16.12,16.12,0,0,0,60.57,637.43Z"/><path class="cls-7" d="M1019.43,628.64a73,73,0,0,1-16.1-1.57v17.66a16.11,16.11,0,1,0,16.1-16.09Z"/><path class="cls-7" d="M1019.43,778.63a16.11,16.11,0,0,1-16.1-16.09V737.08L938,719.53a22.14,22.14,0,0,0-11.4,0L845.07,741.4l-81.44-21.86a21.9,21.9,0,0,0-11.42,0L670.74,741.4l-81.45-21.86a21.9,21.9,0,0,0-11.42,0L496.4,741.4,415,719.54a21.94,21.94,0,0,0-11.43,0L322.07,741.4l-81.45-21.86a21.9,21.9,0,0,0-11.42,0l-82.53,22.14-70-9.39v20.76a16.11,16.11,0,0,1-32.21,0V863.82a16.12,16.12,0,0,1,16.11-16.09,113.06,113.06,0,0,1,16.1,1.1V764.76l67.73,9.09a21.7,21.7,0,0,0,8.64-.56l81.86-22,81.47,21.86a22,22,0,0,0,11.4,0l81.46-21.86,81.47,21.86a22,22,0,0,0,11.4,0l81.47-21.86L665,773.19a22,22,0,0,0,11.4,0l81.47-21.86,81.46,21.86a22,22,0,0,0,11.4,0l81.48-21.86,71.08,19.07v99.16a73.61,73.61,0,0,0,16.1,1.57,16.12,16.12,0,0,1,16.11,16.09V762.54A16.12,16.12,0,0,1,1019.43,778.63Z"/><path class="cls-7" d="M60.57,769.14a16.11,16.11,0,0,0,16.1-16.09V732.29l-7.32-1a21.95,21.95,0,0,0-24.89,21.74v0A16.12,16.12,0,0,0,60.57,769.14Z"/><path class="cls-7" d="M1019.28,741.36l-15.95-4.28v25.46a16.11,16.11,0,0,0,32.21,0h0A22,22,0,0,0,1019.28,741.36Z"/><path class="cls-7" d="M1010.09,986.39l-6.76-.19v55.41H915.08A16.11,16.11,0,0,0,899,1057.7c0,.16,0,.32,0,.48h1v5.11a15.79,15.79,0,0,1-1-5.11h0a16.11,16.11,0,0,0,16.08,15.61h92a28.42,28.42,0,0,0,28.41-28.37V988.49l-7.7-.82C1021,986.94,1015.32,986.53,1010.09,986.39Z"/><path class="cls-7" d="M873,1060.85v-2.67h.29c0-.16,0-.32,0-.48a16.11,16.11,0,0,0-16.1-16.09H76.67v5.56l-6.13.74c-6.51.78-12.34,1.66-17.81,2.71l-7.48,1.44a28.44,28.44,0,0,0,27.62,21.73H857.21a16.11,16.11,0,0,0,16.08-15.61h0A16.78,16.78,0,0,1,873,1060.85Z"/><path class="cls-7" d="M1019.43,903.31a16.11,16.11,0,0,1-16.1-16.09V869.56c-7.78-1.74-13.39-4.74-19.87-8.22-11.3-6.06-25.36-13.61-51.21-13.61s-39.91,7.55-51.21,13.62c-10.18,5.46-18.22,9.78-36,9.78s-25.78-4.32-36-9.78c-11.3-6.07-25.36-13.62-51.2-13.62s-39.91,7.55-51.22,13.62c-10.17,5.46-18.21,9.78-36,9.78s-25.79-4.32-36-9.79c-11.3-6.06-25.36-13.61-51.2-13.61s-39.9,7.55-51.21,13.62c-10.18,5.46-18.21,9.78-36,9.78s-25.78-4.32-36-9.79c-11.3-6.06-25.36-13.61-51.21-13.61s-39.9,7.55-51.2,13.62c-10.18,5.46-18.22,9.78-36,9.78s-25.78-4.32-36-9.78c-11.3-6.07-25.36-13.62-51.21-13.62s-39.91,7.55-51.21,13.62c-10.18,5.46-18.22,9.78-36,9.78s-25.78-4.32-36-9.78c-8.69-4.67-19-10.21-35.1-12.52v15a16.11,16.11,0,0,1-32.21,0v143.81A16.12,16.12,0,0,1,59.6,991.57l17.07-1V881.47c7.72,1.71,13.26,4.68,19.85,8.22,11.3,6.07,25.36,13.62,51.21,13.62s39.9-7.55,51.21-13.62c10.18-5.46,18.22-9.78,36-9.78s25.77,4.32,36,9.79c11.3,6.06,25.36,13.61,51.21,13.61s39.91-7.55,51.21-13.62c10.18-5.46,18.22-9.78,36-9.78s25.78,4.32,36,9.78c11.29,6.07,25.36,13.62,51.2,13.62s39.91-7.55,51.22-13.62c10.17-5.46,18.21-9.78,36-9.78s25.77,4.32,36,9.78c11.3,6.07,25.36,13.62,51.21,13.62s39.91-7.55,51.21-13.62c10.18-5.46,18.22-9.78,36-9.78s25.77,4.32,36,9.78c11.3,6.07,25.37,13.62,51.21,13.62s39.91-7.55,51.22-13.62c10.18-5.46,18.22-9.78,36-9.78s25.78,4.32,36,9.79c8.59,4.6,19,10.21,35.11,12.52v32.5l15.13-.91a16.1,16.1,0,0,1,17.08,16.06V887.22A16.12,16.12,0,0,1,1019.43,903.31Z"/><path class="cls-7" d="M1019.43,871.13a73.61,73.61,0,0,1-16.1-1.57v17.66a16.11,16.11,0,1,0,16.1-16.09Z"/><path class="cls-7" d="M60.57,879.91a16.11,16.11,0,0,0,16.1-16.09v-15a113.06,113.06,0,0,0-16.1-1.1,16.09,16.09,0,1,0,0,32.18Z"/><polygon class="cls-7" points="1003.33 966.96 1003.33 934.72 76.67 990.54 76.67 1022.78 1003.33 966.96"/><path class="cls-8" d="M44.46,1052.21l.79-.15a28.47,28.47,0,0,1-.79-6.64Z"/><path class="cls-7" d="M70.54,1047.91l6.13-.74V990.54l-17.07,1a16.12,16.12,0,0,0-15.14,16.06v37.79a28.47,28.47,0,0,0,.79,6.64l7.48-1.44C58.2,1049.57,64,1048.69,70.54,1047.91Z"/><path class="cls-7" d="M1018.46,933.81l-15.13.91V986.2l6.76.19c5.23.14,10.87.55,17.75,1.28l7.7.82V949.87a16.1,16.1,0,0,0-17.08-16.06Z"/><path class="cls-4" d="M915.08,1041.61h88.25V967L76.67,1022.78v18.83H857.21a16.11,16.11,0,0,1,16.1,16.09c0,.16,0,.32,0,.48H899c0-.16,0-.32,0-.48A16.11,16.11,0,0,1,915.08,1041.61Z"/><path class="cls-9" d="M899,1057.7c0,.16,0,.32,0,.48h0C899,1058,899,1057.86,899,1057.7Z"/><path class="cls-9" d="M873.29,1058.18h0c0-.16,0-.32,0-.48C873.31,1057.86,873.29,1058,873.29,1058.18Z"/><path class="cls-8" d="M873,1060.85a16.78,16.78,0,0,0,.29-2.67H873Z"/><path class="cls-8" d="M900,1058.18h-1a15.79,15.79,0,0,0,1,5.11Z"/><path class="cls-10" d="M968.22,647.21c-10.19-5.47-18.23-9.78-36-9.78s-25.78,4.32-36,9.78c-11.31,6.07-25.37,13.61-51.22,13.61s-39.91-7.55-51.2-13.61c-10.19-5.47-18.23-9.78-36-9.78s-25.78,4.32-36,9.78c-11.31,6.07-25.37,13.61-51.21,13.61s-39.91-7.55-51.21-13.61c-10.18-5.46-18.22-9.78-36-9.78s-25.78,4.31-36,9.78c-11.3,6.06-25.36,13.61-51.21,13.61s-39.9-7.54-51.2-13.61c-10.19-5.46-18.23-9.78-36-9.78-13.9,0-21.86,2.58-30.19,6.75a16.14,16.14,0,0,1-17-1.66,16,16,0,0,1-4.57-5.5,16.28,16.28,0,0,1-.77-1.84H335a16.09,16.09,0,0,1-12.93,25.64c-25.85,0-39.91-7.54-51.21-13.61-10.18-5.46-18.22-9.78-36-9.78s-25.78,4.32-36,9.78c-11.3,6.07-25.36,13.61-51.21,13.61s-39.91-7.54-51.21-13.61c-6.6-3.54-12.13-6.51-19.85-8.22v93.3l70,9.39,82.53-22.14a21.9,21.9,0,0,1,11.42,0l81.45,21.86,81.46-21.86a21.94,21.94,0,0,1,11.43,0L496.4,741.4l81.47-21.86a21.9,21.9,0,0,1,11.42,0l81.45,21.86,81.47-21.86a21.9,21.9,0,0,1,11.42,0l81.44,21.86,81.48-21.87a22.14,22.14,0,0,1,11.4,0l65.38,17.55V659.74C987.26,657.43,976.81,651.82,968.22,647.21Z"/><path class="cls-7" d="M335,635.18a16.1,16.1,0,0,0-12.93-6.54c-17.74,0-25.78-4.31-36-9.78-11.3-6.06-25.36-13.61-51.2-13.61S195,612.8,183.69,618.86c-10.18,5.47-18.22,9.78-36,9.78s-25.78-4.31-36-9.78c-8.69-4.66-19-10.2-35.1-12.51v15a16.11,16.11,0,0,1-32.21,0V753.05a21.95,21.95,0,0,1,24.89-21.74l7.32,1V639c7.72,1.71,13.25,4.68,19.85,8.22,11.3,6.07,25.36,13.61,51.21,13.61s39.91-7.54,51.21-13.61c10.18-5.46,18.22-9.78,36-9.78s25.78,4.32,36,9.78c11.3,6.07,25.36,13.61,51.21,13.61A16.06,16.06,0,0,0,335,635.18Z"/><path class="cls-7" d="M1019.43,660.82a16.11,16.11,0,0,1-16.1-16.09V627.07c-7.78-1.73-13.39-4.74-19.87-8.21-11.3-6.06-25.36-13.61-51.21-13.61S892.34,612.8,881,618.86c-10.18,5.47-18.22,9.78-36,9.78s-25.78-4.31-36-9.78c-11.3-6.06-25.36-13.61-51.2-13.61S718,612.8,706.7,618.86c-10.18,5.47-18.22,9.78-36,9.78s-25.78-4.31-36-9.78c-11.3-6.06-25.36-13.61-51.2-13.61s-39.91,7.55-51.21,13.61c-10.18,5.47-18.22,9.78-36,9.78s-25.78-4.31-36-9.78c-11.3-6.06-25.36-13.61-51.21-13.61-21.37,0-34.07,4.88-44.62,10.16a16.06,16.06,0,0,0-7.95,19.77,16.28,16.28,0,0,0,.77,1.84,16,16,0,0,0,4.57,5.5,16.14,16.14,0,0,0,17,1.66c8.33-4.17,16.29-6.75,30.19-6.75,17.74,0,25.78,4.32,36,9.78,11.3,6.07,25.36,13.61,51.2,13.61s39.91-7.55,51.21-13.61c10.18-5.47,18.22-9.78,36-9.78s25.78,4.32,36,9.78c11.3,6.06,25.36,13.61,51.21,13.61s39.9-7.54,51.21-13.61c10.18-5.46,18.22-9.78,36-9.78s25.77,4.31,36,9.78c11.29,6.06,25.36,13.61,51.2,13.61s39.91-7.54,51.22-13.61c10.18-5.46,18.22-9.78,36-9.78s25.78,4.31,36,9.78c8.59,4.61,19,10.22,35.11,12.53v77.34l15.95,4.28a22,22,0,0,1,16.26,21.18V644.73A16.11,16.11,0,0,1,1019.43,660.82Z"/></svg>