<svg id="Capa_1" data-name="Capa 1" xmlns="http://www.w3.org/2000/svg" viewBox="0 0 1080 1080"><defs><style>.cls-1{fill:#3c3c3b;}.cls-2{fill:#1d1d1b;}.cls-3{fill:#182660;}.cls-4{fill:#063;}.cls-5{fill:#be1622;}.cls-6{fill:#fff;}</style></defs><path class="cls-1" d="M533.76,311.76c.22,0,.44.06.66.09s.64.08,1,.14l.78.18c.26.06.53.12.79.2s.54.16.81.26l.72.26c.26.1.53.21.79.33l.7.33.73.38.72.44c.21.14.43.26.63.41s.53.38.79.58l.49.38.07.06,117,98.4a23,23,0,0,1,10.47,17V462H705a17.57,17.57,0,0,1,17.56,17.57V605.7c0,.17,0,.34,0,.51s0,.34,0,.51v79.35A17.56,17.56,0,0,1,705,703.63h-34.1V733.2H837.7V229.13H444.28v82.55H532.1C532.66,311.68,533.21,311.71,533.76,311.76Z"/><path class="cls-2" d="M855.26,194H426.72a17.57,17.57,0,0,0-17.57,17.56V311.68h35.13V229.13H837.7V733.2H670.85v35.12H855.26a17.57,17.57,0,0,0,17.57-17.56V211.56A17.57,17.57,0,0,0,855.26,194Z"/><polygon class="cls-1" points="602.94 411.79 549.66 366.96 549.66 411.79 602.94 411.79"/><path class="cls-1" d="M444.28,467.16A17.52,17.52,0,0,1,456.72,462h179V446.91H532.1a17.57,17.57,0,0,1-17.57-17.56c0-.3,0-.59.05-.88s-.05-.58-.05-.88V346.8H242.3V850.87H635.72V703.63H593a17.56,17.56,0,0,1-17.56-17.56v-62.8H456.72a17.58,17.58,0,0,1-17.56-17.57V479.56A17.54,17.54,0,0,1,444.28,467.16Z"/><path class="cls-3" d="M532.1,311.68c.56,0,1.11,0,1.66.08C533.21,311.71,532.66,311.68,532.1,311.68Z"/><path class="cls-3" d="M534.42,311.85c.32,0,.64.08,1,.14C535.06,311.93,534.74,311.89,534.42,311.85Z"/><path class="cls-3" d="M542.05,314.78c.27.18.53.38.79.58C542.58,315.16,542.32,315,542.05,314.78Z"/><path class="cls-3" d="M537.76,312.63l.72.26Z"/><path class="cls-3" d="M539.27,313.22l.7.33Z"/><path class="cls-3" d="M536.16,312.17c.26.06.53.12.79.2C536.69,312.29,536.42,312.23,536.16,312.17Z"/><path class="cls-3" d="M540.7,313.93l.72.44Z"/><path class="cls-3" d="M537,312.37c.27.08.54.16.81.26C537.49,312.53,537.22,312.45,537,312.37Z"/><path class="cls-3" d="M538.48,312.89c.26.1.53.21.79.33C539,313.1,538.74,313,538.48,312.89Z"/><path class="cls-3" d="M540,313.55l.73.38Z"/><path class="cls-3" d="M541.42,314.37c.21.14.43.26.63.41C541.85,314.63,541.63,314.51,541.42,314.37Z"/><path class="cls-3" d="M533.76,311.76c.22,0,.44.06.66.09C534.2,311.82,534,311.78,533.76,311.76Z"/><path class="cls-3" d="M535.38,312l.78.18Z"/><path class="cls-3" d="M542.84,315.36l.49.38Z"/><path class="cls-3" d="M665.14,418.26a17.5,17.5,0,0,0-4.76-4.06l4.21,3.54C664.78,417.9,665,418.09,665.14,418.26Z"/><path class="cls-2" d="M653.28,462h17.57V431.18a17.51,17.51,0,0,0-5.71-12.92c-.19-.17-.36-.36-.55-.52l-4.21-3.54-117-98.4-.07-.06-.49-.38c-.26-.2-.52-.4-.79-.58s-.42-.27-.63-.41l-.72-.44-.73-.38-.7-.33c-.26-.12-.53-.23-.79-.33l-.72-.26c-.27-.1-.54-.18-.81-.26s-.53-.14-.79-.2l-.78-.18c-.32-.06-.64-.1-1-.14s-.44-.07-.66-.09c-.55-.05-1.1-.08-1.66-.08H224.74a17.57,17.57,0,0,0-17.57,17.56v539.2A17.57,17.57,0,0,0,224.74,886H653.28a17.57,17.57,0,0,0,17.57-17.56V703.63H635.72V850.87H242.3V346.8H514.53v80.79c0,.3,0,.59.05.88s-.05.58-.05.88a17.57,17.57,0,0,0,17.57,17.56H635.72V462Zm-103.62-50.2V367l53.28,44.83Z"/><path class="cls-4" d="M670.85,497.12H474.29v91H687.38v-91Zm-152.66,64a22,22,0,1,1,22-22A22,22,0,0,1,518.19,561.08Zm63,0a22,22,0,1,1,22-22A22,22,0,0,1,581.19,561.08Zm72.09-.87a21.95,21.95,0,1,1,15.87-21.09A21.81,21.81,0,0,1,653.28,560.21Z"/><polygon class="cls-4" points="670.85 624.28 653.28 624.28 635.72 624.28 610.61 624.28 610.61 668.51 635.72 668.51 653.28 668.51 670.85 668.51 687.38 668.51 687.38 624.28 670.85 624.28"/><rect class="cls-4" x="653.28" y="605.7" width="17.56" height="1.02"/><circle class="cls-5" cx="518.19" cy="539.12" r="21.95" transform="matrix(0.38, -0.92, 0.92, 0.38, -178.19, 811.56)"/><path class="cls-5" d="M653.28,518a21.95,21.95,0,1,0,15.87,21.09A21.81,21.81,0,0,0,653.28,518Z"/><circle class="cls-6" cx="581.19" cy="539.12" r="21.95"/><path class="cls-2" d="M722.51,479.56A17.57,17.57,0,0,0,705,462H456.72a17.57,17.57,0,0,0-17.56,17.57V605.7a17.58,17.58,0,0,0,17.56,17.57H575.48v62.8A17.56,17.56,0,0,0,593,703.63H705a17.56,17.56,0,0,0,17.56-17.56V606.72c0-.17,0-.34,0-.51s0-.34,0-.51Zm-35.13,189H610.61V624.28h76.77Zm0-80.37H474.29v-91H687.38Z"/></svg>