<svg id="Capa_1" data-name="Capa 1" xmlns="http://www.w3.org/2000/svg" viewBox="0 0 1080 1080"><defs><style>.cls-1{fill:#9d9d9c;}.cls-2{fill:#e94e1b;}.cls-3{fill:#f9b233;}.cls-4{fill:#1d1d1b;}</style></defs><path class="cls-1" d="M450.66,444.41c10.59-3.14,18.43-1.36,25.67,7.32,5.17,6.19,11.22,13.14,18.36,15.87,19.42,7.4,29.36,22.72,38.14,39.74,1.69,3.28,3.8,6.34,6.86,11.4,5.45-9.11,10.44-16.44,14.37-24.29a47,47,0,0,1,23.17-22.7A78.25,78.25,0,0,0,601.77,453c8.32-9.49,16.38-11.8,28.41-8.14,36.79,11.19,75-11.92,83.6-49.73,8.36-36.66-16.79-73.89-54.15-80.17-18-3-21.47-7.56-19.89-26.22,5-58.45-41.31-108.47-100.28-108.41s-105,50.44-99.84,108.84c1.63,18.24-1.84,22.66-20.32,25.85-37.23,6.43-62.24,44-53.67,80.54C374.57,433.72,412.52,455.73,450.66,444.41Z"/><path class="cls-2" d="M316.15,599.07c-12.26-.3-24.53-.18-36.79,0-21.45.25-31.43,10.24-31.46,31.49q-.09,59.65,0,119.31c0,40.14-.11,80.28.05,120.42.08,18.43,9.92,28.2,28.28,28.47,13.37.2,26.75.13,40.13,0,19.25-.15,30.17-10.14,30.23-29.28q.39-119.86,0-239.73C346.54,610,335.74,599.56,316.15,599.07Z"/><path class="cls-3" d="M631.35,692.54c2,9.74-.82,17.25-9.48,22.94-32,21-63.78,42.29-95.59,63.55-7.13,4.77-14.27,6.43-21.6.85-7-5.31-8.47-12.12-6.57-20.76,5-22.46,9.25-45.08,13.71-67.66,2.49-12.64-8.35-25.76-21.18-25.77q-26.2,0-52.4,0h-56V831.42H697V666.17H625.72C627.82,676,629.65,684.24,631.35,692.54Z"/><path class="cls-3" d="M205.49,666a214.82,214.82,0,0,0-28.93-.18c-16.77.9-29,12-29.18,27.83q-.75,55.7,0,111.41c.2,14.88,11.46,26,26.25,26.77,12.55.68,25.16.14,39.41.14,0-54.16.09-106.84-.32-159.51C212.72,670.2,208.17,666.23,205.49,666Z"/><path class="cls-2" d="M831.46,630.56c0-21.32-10-31.25-31.42-31.53-10.77-.13-21.55,0-32.33,0-25,.08-35,10-35,35.17q-.07,74.7,0,149.41c0,27.88-.12,55.75.05,83.63.13,21.53,10.15,31.45,31.39,31.55q18.4.09,36.79,0c21.24-.12,30.54-9.39,30.58-30.7q.1-59.1,0-118.19Q831.48,690.22,831.46,630.56Z"/><path class="cls-3" d="M903.23,665.85c-9.62-.6-19.31,0-29-.23-5.48-.14-8.08,1.5-8.07,7.53.15,52.34.09,104.67.09,157.66,2.37.63,3.4,1.14,4.44,1.15,10.4.09,20.8.29,31.19.09,18.59-.36,30.06-11.43,30.2-29.87q.4-52.93,0-105.85C932,678.79,920.69,666.94,903.23,665.85Z"/><path class="cls-4" d="M880.3,631.58c-4.62.43-9.31.06-13.78.06-4.13-47.51-25.54-67-71.87-67-11.53,0-23.06-.19-34.59.05-33.37.7-58.44,24.14-61.57,57.37-.26,2.85-.39,5.73-.62,9.12-2.83.17-5,.41-7.18.41-27.9,0-55.8-.16-83.7.11-14.89.14-21.51,8.68-18.65,23.31,1.86,9.48,4.49,18.83,5.93,28.36.51,3.39-.25,8.86-2.51,10.47-16.58,11.78-33.69,22.83-52.32,35.24.95-5.06,1.13-8,2.08-10.72,9.49-26.88,5.37-51.1-12-73.94-6.23-8.18-12.18-13-22.68-12.93-30.13.34-60.26.12-90.39.12H381.63c-.27-2.83-.48-4.6-.62-6.38-2.81-37.26-27.69-60.39-65.23-60.58-14.13-.07-28.29-.44-42.4.13-21.86.88-40.13,9.85-50.82,29.18-5.89,10.66-8,23.42-12.59,37.68-9.72,0-21.57-.25-33.4.05-36.39.9-63.15,27.85-63.4,64.11q-.36,53,0,106c.2,37.5,26.51,63.85,63.87,64.25,11.79.12,23.59,0,35.83,0,.31,3.39.58,5.53.69,7.69,1.7,35.14,26,58.9,60.9,59.25,15.63.16,31.25.23,46.87,0,26.89-.44,48.79-16.76,56.48-42.43,2.3-7.66,3.06-15.78,4.51-23.64H697.86c.2,2.65.37,4.49.49,6.33,2.38,36.22,27,59.58,63.19,59.79,14.51.09,29,.15,43.52,0,34.43-.38,59-24.09,60.72-58.3.12-2.51.41-5,.71-8.64,11.64,0,22.7.05,33.77,0,39.72-.21,65.78-26,66-65.53.13-27.53-1.62-55.19.36-82.58C971.57,648.77,931.9,626.83,880.3,631.58ZM213.06,832c-14.25,0-26.86.54-39.41-.14C158.86,831,147.6,820,147.4,805.07q-.77-55.7,0-111.41c.21-15.85,12.41-26.93,29.18-27.83a214.82,214.82,0,0,1,28.93.18c2.68.22,7.23,4.19,7.25,6.46C213.15,725.14,213.06,777.82,213.06,832Zm133.51,37.5c-.06,19.14-11,29.13-30.23,29.28-13.38.1-26.76.17-40.13,0-18.36-.27-28.2-10-28.28-28.47-.16-40.14-.05-80.28-.05-120.42q0-59.65,0-119.31c0-21.25,10-31.24,31.46-31.49,12.26-.15,24.53-.27,36.79,0,19.59.49,30.39,11,30.44,30.68Q346.92,749.62,346.57,869.48ZM697,831.42H382.24V665.68h56q26.19,0,52.4,0c12.83,0,23.67,13.13,21.18,25.77-4.46,22.58-8.74,45.2-13.71,67.66-1.9,8.64-.42,15.45,6.57,20.76,7.33,5.58,14.47,3.92,21.6-.85,31.81-21.26,63.62-42.54,95.59-63.55,8.66-5.69,11.47-13.2,9.48-22.94-1.7-8.3-3.53-16.58-5.63-26.37H697Zm134.48,36.64c0,21.31-9.34,30.58-30.58,30.7q-18.39.11-36.79,0c-21.24-.1-31.26-10-31.39-31.55-.17-27.88,0-55.75-.05-83.63q0-74.7,0-149.41c0-25.12,10-35.09,35-35.17,10.78,0,21.56-.11,32.33,0,21.46.28,31.39,10.21,31.42,31.53q.09,59.66,0,119.31Q831.48,809,831.46,868.06Zm100.66-65.88c-.14,18.44-11.61,29.51-30.2,29.87-10.39.2-20.79,0-31.19-.09-1,0-2.07-.52-4.44-1.15,0-53,.06-105.32-.09-157.66,0-6,2.59-7.67,8.07-7.53,9.65.26,19.34-.37,29,.23,17.46,1.09,28.77,12.94,28.9,30.48Q932.51,749.25,932.12,802.18Z"/><path class="cls-4" d="M424.73,480.44c22.68.1,39.82,5.26,57,18.44,7.2,5.51,13.73,10.49,18.15,18.52,7.7,14,15.82,27.79,24.12,41.45,8.47,13.93,22.46,14,31.12.35,4-6.27,7.73-12.71,11.22-19.27,10.49-19.7,21.18-39.08,43.26-48.52,3.28-1.4,5.47-5.3,8.74-6.79,4.65-2.12,10.09-4.92,14.76-4.27C680.8,487,727.28,459.71,743,415.15c16.41-46.55-1.91-96.66-44.66-121.28-7.66-4.42-16.06-7.54-24-11.21-.84-7.48-1.41-14.89-2.53-22.21C661.11,190.33,602,143.27,529.24,147,463.69,150.32,409,206.7,406.05,274.51c-.32,7.46-3.3,9.86-9.56,12.22C352.22,303.41,324.31,348.52,330.9,392,338.5,442.19,375.8,480.22,424.73,480.44ZM419.3,315c18.48-3.19,21.95-7.61,20.32-25.85-5.2-58.4,41-108.77,99.84-108.84s105.25,50,100.28,108.41c-1.58,18.66,1.85,23.19,19.89,26.22,37.36,6.28,62.51,43.51,54.15,80.17-8.61,37.81-46.81,60.92-83.6,49.73-12-3.66-20.09-1.35-28.41,8.14a78.25,78.25,0,0,1-24.54,18.74,47,47,0,0,0-23.17,22.7c-3.93,7.85-8.92,15.18-14.37,24.29-3.06-5.06-5.17-8.12-6.86-11.4-8.78-17-18.72-32.34-38.14-39.74-7.14-2.73-13.19-9.68-18.36-15.87-7.24-8.68-15.08-10.46-25.67-7.32-38.14,11.32-76.09-10.69-85-48.84C357.06,359,382.07,321.46,419.3,315Z"/><path class="cls-4" d="M438.47,535.08c-7.79,5.36-14.57,12.58-20.66,19.94-5.56,6.74-5,14.79,1,21.27,6.36,6.86,14.36,8.15,21.8,1.94a196.65,196.65,0,0,0,19.71-19.45c2.29-2.54,3-6.52,5.33-12.09-3.4-4.21-6.24-10.58-11-12.8C450.23,531.84,442.45,532.34,438.47,535.08Z"/><path class="cls-4" d="M643.5,536.67c-3.21-2.76-7.53-4.22-12.89-7.08-4.61,3.67-11.28,6.4-12.83,10.9-1.86,5.41-1.24,13.46,1.69,18.33,4.27,7.07,11.33,12.58,17.64,18.26,7.43,6.68,15.39,6.66,22.85-.15,6.71-6.11,6.85-16.27.07-23.87A174,174,0,0,0,643.5,536.67Z"/></svg>