<svg id="Capa_1" data-name="Capa 1" xmlns="http://www.w3.org/2000/svg" viewBox="0 0 1080 1080"><defs><style>.cls-1{fill:#9d9d9c;}.cls-2{fill:#706f6f;}.cls-3{fill:#f9b233;}.cls-4{fill:#dadada;}.cls-5{fill:#b2b2b2;}.cls-6{fill:#1d71b8;}.cls-7{fill:#1d1d1b;}</style></defs><path class="cls-1" d="M859.5,144c8.52-4.22,23.93-5,24-13.29,0-9.31-15.55-10.85-23.46-17.06a13.15,13.15,0,0,0-1.19-.74c-5.06-3.28-8.57-1.69-11.41,3.29-7.33,12.88-14.82,25.68-22.25,38.51l2.43,2.76C838.26,153.08,849.18,149.16,859.5,144Z"/><path class="cls-2" d="M751.79,1044.57c45.46.15,79.47-33.88,79.76-79.8a78.72,78.72,0,0,0-78.89-79.44c-44.8-.22-80.08,33.92-80.41,77.8C671.9,1010,705.49,1044.42,751.79,1044.57Zm.15-129.31c29.42,0,50,21.1,49.69,50.81-.29,28-22.41,49.43-50.52,49a49.93,49.93,0,0,1-49.25-50.57C702.17,936,723.28,915.21,751.94,915.26Z"/><path class="cls-3" d="M1027.63,187.73c0-9.68-4.31-11-12.29-8.46-11.87,3.77-23.93,4.21-35.76.12-10.49-3.62-13,.64-12.9,10.49.35,32.17.13,64.35.13,96.53h-.23c0,33.11.16,66.22-.1,99.33-.07,8.9,1.53,13.71,11.82,9.5,12.64-5.18,25.53-4.89,38.21.13,7.64,3,11.16,1.32,11.14-7.58Q1027.38,287.77,1027.63,187.73Z"/><path class="cls-3" d="M523.69,818.89c-32.24,0-64.48.3-96.72-.17-10.8-.16-16.43,2.2-16.24,14.6.18,11.45,4.09,15.65,15.64,15.59q96.72-.52,193.44,0c11.71.07,15.22-4.35,15.41-15.68.21-12.48-5.5-14.67-16.21-14.52C587.24,819.19,555.46,818.89,523.69,818.89Z"/><path class="cls-3" d="M292.43,621.75c-1.13-16.52-11.26-28.34-25.74-30.17C250.07,589.49,238,597,232,613.05c-3.91,10.41-2.19,21.15-2,31.78.08,6.14,4.8,7.36,9.8,7.42,10.7.12,21.4.13,32.1.12,20.8,0,20.8,0,20.6-20.85C292.46,628.26,292.65,625,292.43,621.75Z"/><path class="cls-3" d="M1027.64,459.31c.44-17-13.89-31-31.15-30.84-18.38.15-30.84,13.08-30,30.85.19,4.23,1.12,7.34,3,8.57,1.75,1.13,4.33.7,8-1.93,13.28-9.67,25.83-10.56,39.41-.4,4.51,3.37,7.71,3.24,9.41.67C1027.27,464.7,1027.74,462.32,1027.64,459.31Z"/><path class="cls-3" d="M96.67,587.91c0-17.24-.21-34.47.09-51.7.17-9.3-4.22-12.16-12.9-11.83-7.88.29-15.21-.2-15.16,11q.24,52.4,0,104.79c0,10.3,5.7,12.19,14.38,12.28,9.18.09,13.92-3,13.72-12.87C96.44,622.38,96.68,605.14,96.67,587.91Z"/><path class="cls-3" d="M82.72,428.56c-18.08,0-30.24,11.49-30.62,29-.39,17.73,12.44,31.53,29.7,31.94,17.58.41,31.19-12.67,31.36-30.15C113.34,441.05,101,428.56,82.72,428.56Z"/><path class="cls-4" d="M751.66,979.09c8.4,0,14.37-4.75,14.49-13.76.1-8.81-5.23-13.46-14.28-14.73-7.91,1.23-14,5.41-14.11,14.18S742.93,979.09,751.66,979.09Z"/><path class="cls-3" d="M488.21,783.88c12.14-.35,24.33-.59,36.44.09,11.08.62,14.64-3.75,14.45-14.67-.54-32.7-.19-65.41-.19-98.12,0-33.17-.3-66.35.17-99.52.15-10.25-3.18-14.45-13.67-13.93-12.58.63-25.23.4-37.83.1-8.35-.19-11.75,3.35-11.73,11.66q.18,100.93,0,201.85C475.79,780.24,479.17,784.15,488.21,783.88Z"/><path class="cls-2" d="M297.71,885.36c-46.81-.9-81.69,31.42-82.64,76.57-1,47,32,82.06,78,82.92,43.86.82,80.22-34,80.95-77.58C374.75,922.41,341,886.19,297.71,885.36ZM293.48,1015c-29.06-.57-49.26-21.9-48.88-51.6.36-28,21.91-48.57,50.61-48.22,28.07.33,49.31,21.93,49.18,50C344.26,993.61,321.87,1015.52,293.48,1015Z"/><path class="cls-4" d="M293.92,951c-8.82.08-13.86,5.58-13.83,14.31,0,9.07,6.27,12.84,14.36,14.16,8.66-1.25,14.25-6,14-14.67S302.59,950.93,293.92,951Z"/><path class="cls-3" d="M1002,146.07c13.11-2.7,22-10.26,24.89-23.48,3.2-14.42-1.92-26.08-14.43-33.54-28.46-17-57.24-33.39-85.89-50-4.18-2.43-8.77-3-16.63-3.17-18.4-.54-25.45,16-34.19,31.05-4.37,7.51-4.09,12.43,4,17,33.68,19.14,67.11,38.69,100.72,57.94C987.09,145.63,994.3,147.67,1002,146.07Zm-19.4-30c1.15-10.34,7.72-15.81,17.87-16,9-.15,16.75,8.53,16.44,18.73-1.41,8.73-6.73,15-17.22,15.34C990.09,134.48,981.58,125.56,982.64,116.06Z"/><path class="cls-1" d="M782,229.93q-10.85,18.6-21.6,37.25l2.5,3.57,62.07-26.53c-12.19-7-21.74-12.55-31.32-18C788.42,223.25,784.68,225.25,782,229.93Z"/><path class="cls-1" d="M829.85,195.83c-2.61,1.13-8.52,2.62-4.89,6,8.82,8.26,20.06,13.33,31.06,18.29,2.86,1.29,4.65-2.28,6.07-4.69q12-20.32,23.95-40.67l-2.33-2C865.75,180.44,847.76,188.06,829.85,195.83Z"/><path class="cls-3" d="M243,785.31c5.26-1.49,11.08-1.41,16.65-1.42,53.75-.09,107.5-.47,161.24.22,14.15.19,19.16-4.22,18.43-18.41-1-19.58-.88-39.28,0-58.87.59-13.42-4.2-17.83-17.68-17.76-90.2.46-180.41.24-270.61.24-33.19,0-66.38.38-99.55-.19-12-.21-16.86,3.64-16.43,16,.72,21,.76,42.07,0,63.08C34.55,781,39.88,784.19,51.66,784c38.78-.52,77.58-.22,116.37-.15,4.66,0,9.44,0,13.93,1,8.82,2,13.67,8,13.57,17,11.57.11,23.15.43,34.73.29C230.05,793.46,234.85,787.63,243,785.31Z"/><path class="cls-3" d="M701.94,704c.77-12.23-4.94-15-15.89-14.83q-48.37.71-96.75,0c-11.32-.17-16.07,3.47-15.72,15.27.63,21.48.51,43,0,64.49-.24,10.52,3.06,15.26,14.37,15.09,33.64-.49,67.3-.26,101-.11,7.46,0,12.19-1.53,13.41-10.3,1.42-10.23,8.6-15.55,18.93-14.53.25,0,.48.07.72.1V724.27a22.72,22.72,0,0,1-2.4.15C706.86,724.56,701.19,715.91,701.94,704Z"/><path class="cls-5" d="M563,1045.18c29.44-.28,58.89,0,88.33-.21,4,0,9.26,1.84,11.39-2.83,1.77-3.86-2.65-6.55-4.64-9.51-28.76-42.75-28.79-93-.08-135.39,2-2.92,6.35-5.55,4.07-9.6-2.12-3.77-6.76-2.3-10.32-2.31q-128.29-.11-256.59,0c-3.9,0-9.29-2-11.24,3-1.49,3.8,2.75,6.56,4.79,9.55,28,41,27.93,92.9-.14,134.31-2.18,3.22-7.5,6.16-4.63,10.64,2.45,3.83,7.75,2.16,11.82,2.18,27.57.11,55.15,0,82.73.13a63.22,63.22,0,0,1,15.26,1.44c8.32,2.12,12.3,8.51,12.19,16.74v.08q17.18.3,34.34.42c0-.43,0-.86,0-1.32C540.53,1051.53,548.17,1045.32,563,1045.18ZM463,915.11c20.08-.22,40.16-.05,60.24-.05s40.16-.18,60.24.06c14.67.17,22.51,6.54,22.33,17.41-.16,10.62-8.55,17.63-22.52,17.7q-60.24.3-120.48,0c-13.95-.08-22.3-7.21-22.34-17.88C440.4,921.48,448.2,915.27,463,915.11Zm-.11,100c-14.72-.18-22.55-6.52-22.42-17.37.12-10.67,8.44-17.62,22.44-17.69q60.24-.28,120.48,0c14,.07,22.31,7,22.43,17.71s-7.72,17.18-22.45,17.35c-20.54.25-41.09.07-61.64.07C502.09,1015.17,482.47,1015.35,462.86,1015.1Z"/><path class="cls-3" d="M1012,504.42c-2.82-1.65-5.59-3.38-8.36-5.1-3.87-2.41-7.88-3-11.83-.42-12.37,8.22-29,12.09-36.61,24.66-5.78,9.59,4.35,22,5.33,33.48,0,.46.17.92.25,1.38,5.52,29.1,5.52,29.1,35.37,29.11,37.47-.48,29.27,4.58,38.44-30.8C1043.42,522.64,1042.74,522.47,1012,504.42Z"/><path class="cls-1" d="M753,354.15c-8.77-6-18.25-11.12-27.71-16.07-4.22-2.2-6.85,1.23-8.79,4.64q-11.31,19.84-22.59,39.72l2.32,2c18-7.55,36-15,53.87-22.73C753.23,360.39,758.56,358,753,354.15Z"/><path class="cls-1" d="M688.9,426.34c12,7,21.19,12.38,30.35,17.76,4,2.37,8.33,3.3,11.11-1.2,8.36-13.56,16.31-27.38,24.42-41.09l-2.63-2.2Z"/><path class="cls-6" d="M674.92,567.08c-1.79-7.58-6.24-9.3-13.11-9.25-25.16.17-50.32.26-75.48,0-8.85-.1-12.72,3.27-12.62,12.29q.39,34.93,0,69.88c-.09,9,3.92,12.56,12.69,12.43,16.3-.25,32.61-.08,48.92-.08v0c15.84,0,31.69-.33,47.52.12,9.3.26,12.81-2.56,10.29-12.22Q683.6,603.79,674.92,567.08Z"/><path class="cls-1" d="M653.22,453c-8.3,14-16.44,28.06-24.64,42.11l3.12,2.45,60.68-26.13c-10.29-9.77-21.89-13.6-31.86-19.94C657.89,449.78,654.91,450.11,653.22,453Z"/><path class="cls-1" d="M784.87,300.54c-8.56,4.24-24.44,5.07-24.07,13.22.44,9.73,16.49,11.17,24.77,17.7a12,12,0,0,0,1.24.63c4,2.31,7.16,1.38,9.41-2.53Q807.67,309.7,819,289.82L816.67,287C806,291.47,795.17,295.44,784.87,300.54Z"/><path class="cls-7" d="M969.49,467.89c-1.92-1.23-2.85-4.34-3-8.57-.8-17.77,11.66-30.7,30-30.85,17.26-.15,31.59,13.83,31.15,30.84.1,3-.37,5.39-1.38,6.92,7.12,7.68,13.53,16.93,22.74,17.77a44.29,44.29,0,0,1,10.87,3.26c-1.06-3.94-.39-8.5,2-13.89,1.06-2.41.68-5.53.68-8.33q0-174.57-.1-349.13c0-26.75-11.88-46.49-35-59.73-27.56-15.81-55-31.9-82.67-47.44C918.13-6.21,886.24-1.7,864.87,20.13a92.71,92.71,0,0,1-23.59,17.18Q656,135,470.75,233,306,320.15,141.26,407.43c-6.45,3.42-11,3.94-17.54-.72-29.5-21-60.79-19.95-84.84,1.84C14.08,431,9.39,464.79,27.07,495.24c2.91,5,4.77,10,4.77,15.82q-.09,64.5.05,129c0,7.92-2.76,11.47-11.12,12.66C4.1,655.08.54,659.83.49,677q-.18,58.89,0,117.78c.05,19.67,4.32,24.06,23.77,24.1q73.62.17,147.23,0a54,54,0,0,0,9.78-.53c9-1.67,14.13-7.25,14.27-16.41s-4.72-15.1-13.57-17.08c-4.49-1-9.27-.94-13.93-1-38.79-.07-77.59-.37-116.37.15C39.88,784.19,34.55,781,35,768.25c.77-21,.73-42.08,0-63.08-.43-12.41,4.43-16.26,16.43-16,33.17.57,66.36.19,99.55.19,90.2,0,180.41.22,270.61-.24,13.48-.07,18.27,4.34,17.68,17.76-.85,19.59-1,39.29,0,58.87.73,14.19-4.28,18.6-18.43,18.41-53.74-.69-107.49-.31-161.24-.22-5.57,0-11.39-.07-16.65,1.42-8.47,2.41-13.33,8.59-12.72,17.79.57,8.68,6,13.51,14.17,15,4.53.86,9.3.7,14,.71,34.12,0,68.24.34,102.35-.14,10.84-.15,13.57,4.48,13.51,14.3s-1.73,16.23-13.69,15.86c-18.21-.56-36.46-.45-54.68,0C280,849.44,254.67,853,232,867c-41.41,25.68-62.32,79.66-49.19,127.1,14.33,51.73,54.95,84.95,106.57,85.46,65,.63,129.94.2,194.9.19a35.82,35.82,0,0,0,8.36-.64c8.2-2,13.18-7.37,13.29-15.84.11-8.23-3.87-14.62-12.19-16.74a63.22,63.22,0,0,0-15.26-1.44c-27.58-.14-55.16,0-82.73-.13-4.07,0-9.37,1.65-11.82-2.18-2.87-4.48,2.45-7.42,4.63-10.64,28.07-41.41,28.17-93.29.14-134.31-2-3-6.28-5.75-4.79-9.55,2-5,7.34-3,11.24-3q128.3-.17,256.59,0c3.56,0,8.2-1.46,10.32,2.31,2.28,4.05-2.09,6.68-4.07,9.6-28.71,42.42-28.68,92.64.08,135.39,2,3,6.41,5.65,4.64,9.51-2.13,4.67-7.44,2.8-11.39,2.83-29.44.17-58.89-.07-88.33.21-14.81.14-22.45,6.35-22.75,17.31s7.55,17.26,22.32,17.28c65,.08,129.94.58,194.9-.21,60.12-.73,107.2-48.86,110.12-110.87,2.82-60-42.89-112.13-102.75-118.09-25.23-2.5-50.42-1.66-75.62-1.69-10.78,0-17.61-1.44-17.7-15-.1-13.24,5.79-16.2,17.1-15.12,5.1.48,10.28.08,15.42.08,30.19,0,33.45-3.38,33-34.14a65,65,0,0,0-.32-8.39c-1.32-9.12-5.5-16.34-15.41-17.31-10.33-1-17.51,4.3-18.93,14.53-1.22,8.77-6,10.34-13.41,10.3-33.65-.15-67.31-.38-101,.11-11.31.17-14.61-4.57-14.37-15.09.47-21.49.59-43,0-64.49-.35-11.8,4.4-15.44,15.72-15.27q48.36.76,96.75,0c11-.16,16.66,2.6,15.89,14.83-.75,11.93,4.92,20.58,17.66,20.44,13-.14,17-9.78,17.33-21.18.46-17.76.38-35.39-4.35-52.84-7-25.7-11.9-52-19.81-77.35-4.52-14.52-1.71-25.54,5.58-38C766,453.56,813,371.74,860.26,290Q893.5,232.51,926.69,175l2.93.9v15.3q0,127.59,0,255.19c0,10.82.22,21.65,4.22,31.76,2.06,5.21,2,9.18-.08,12.46,12.33-3.28,23.63-10.87,31.28-17.56A60.27,60.27,0,0,0,969.49,467.89ZM83.05,652.47c-8.68-.09-14.43-2-14.38-12.28q.3-52.4,0-104.79c0-11.22,7.28-10.73,15.16-11,8.68-.33,13.07,2.53,12.9,11.83-.3,17.23-.09,34.46-.09,51.7s-.23,34.47.1,51.69C97,649.49,92.23,652.56,83.05,652.47Zm-1.25-163c-17.26-.41-30.09-14.21-29.7-31.94.38-17.48,12.54-29,30.62-29,18.26,0,30.62,12.49,30.44,30.76C113,476.8,99.38,489.88,81.8,489.47ZM293,1044.85c-46-.86-79-35.93-78-82.92,1-45.15,35.83-77.47,82.64-76.57,43.3.83,77,37,76.28,81.91C373.26,1010.82,336.9,1045.67,293,1044.85ZM752.66,885.33a78.72,78.72,0,0,1,78.89,79.44c-.29,45.92-34.3,80-79.76,79.8-46.3-.15-79.89-34.53-79.54-81.44C672.58,919.25,707.86,885.11,752.66,885.33Zm263.85-490c-12.68-5-25.57-5.31-38.21-.13-10.29,4.21-11.89-.6-11.82-9.5.26-33.11.1-66.22.1-99.33h.23c0-32.18.22-64.36-.13-96.53-.1-9.85,2.41-14.11,12.9-10.49,11.83,4.09,23.89,3.65,35.76-.12,8-2.54,12.32-1.22,12.29,8.46q-.26,100,0,200.06C1027.67,396.69,1024.15,398.39,1016.51,395.37ZM847.42,116.24c2.84-5,6.35-6.57,11.41-3.29a13.15,13.15,0,0,1,1.19.74c7.91,6.21,23.51,7.75,23.46,17.06-.05,8.26-15.46,9.07-24,13.29-10.32,5.12-21.24,9-31.9,13.47l-2.43-2.76C832.6,141.92,840.09,129.12,847.42,116.24ZM199.6,597.49c-5.69,12.83-5.31,26.47-4.8,40,.4,10.62-3.27,15.59-14.45,15-11.64-.59-23.34-.12-35-.2-5.4,0-11.15-.77-11.2-7.65-.24-37.08-.11-74.17-.11-114.82,23,20.85,43.24,39.23,63.52,57.57C200.78,590.3,201.3,593.64,199.6,597.49Zm72.26,54.88c-10.7,0-21.4,0-32.1-.12-5-.06-9.72-1.28-9.8-7.42-.15-10.63-1.87-21.37,2-31.78,6-16,18.07-23.56,34.69-21.47,14.48,1.83,24.61,13.65,25.74,30.17.22,3.25,0,6.51,0,9.77C292.66,652.32,292.66,652.34,271.86,652.37Zm12.27-92.51C268,553.41,251,554.12,235,561.39c-6.45,2.94-11,2.77-16.26-2.15q-33.34-31-67.26-61.41c-6.35-5.68-8.8-11.24-5.54-19.58,2.18-5.57,4.87-12.32,3.56-17.62-4-16.21,6.43-20.89,17.65-26.8q251-132.33,501.75-265.09c29.3-15.49,58.49-31.21,87.73-46.82l1.71,2q-55.24,52.59-110.5,105.2Q477,392.08,306.28,555.22C299.39,561.81,293.71,563.7,284.13,559.86ZM619,818.72c10.71-.15,16.42,2,16.21,14.52-.19,11.33-3.7,15.75-15.41,15.68q-96.72-.55-193.44,0c-11.55.06-15.46-4.14-15.64-15.59-.19-12.4,5.44-14.76,16.24-14.6,32.24.47,64.48.17,96.72.17C555.46,818.89,587.24,819.19,619,818.72ZM475.85,569.49c0-8.31,3.38-11.85,11.73-11.66,12.6.3,25.25.53,37.83-.1,10.49-.52,13.82,3.68,13.67,13.93-.47,33.17-.17,66.35-.17,99.52,0,32.71-.35,65.42.19,98.12.19,10.92-3.37,15.29-14.45,14.67-12.11-.68-24.3-.44-36.44-.09-9,.27-12.42-3.64-12.4-12.54Q476.07,670.42,475.85,569.49Zm73.65-46.32c-27.94-1.56-56-.54-84-.37-19.66.11-26,6.14-26.23,26.08-.39,29-.62,57.92.07,86.85.31,13-4.62,17.18-17.23,16.84-26.13-.68-52.3-.45-78.45-.11-10.08.13-14.46-3.69-14.25-14,.3-14-.47-28.07-5.91-41.3-3-7.38,1.79-11.41,6.15-15.58Q402,512.38,474.44,443.23,556,365.41,637.71,287.69q73.5-70,147-139.95l2.58,1.62q-33.25,57.45-66.5,114.9c-45.95,79.66-92.21,159.15-137.43,239.23C575.23,517.91,566.44,524.11,549.5,523.17Zm111-71.72c10,6.34,21.57,10.17,31.86,19.94L631.7,497.52l-3.12-2.45c8.2-14.05,16.34-28.13,24.64-42.11C654.91,450.11,657.89,449.78,660.52,451.45Zm22.34,201c-15.83-.45-31.68-.12-47.52-.12v0c-16.31,0-32.62-.17-48.92.08-8.77.13-12.78-3.46-12.69-12.43q.33-34.94,0-69.88c-.1-9,3.77-12.39,12.62-12.29,25.16.29,50.32.2,75.48,0,6.87-.05,11.32,1.67,13.11,9.25q8.63,36.72,18.23,73.19C695.67,649.93,692.16,652.75,682.86,652.49Zm47.5-209.59c-2.78,4.5-7.08,3.57-11.11,1.2-9.16-5.38-18.34-10.73-30.35-17.76l63.25-26.73,2.63,2.2C746.67,415.52,738.72,429.34,730.36,442.9Zm19.71-81.15c-17.9,7.7-35.9,15.18-53.87,22.73l-2.32-2q11.29-19.86,22.59-39.72c1.94-3.41,4.57-6.84,8.79-4.64,9.46,4.95,18.94,10,27.71,16.07C758.56,358,753.23,360.39,750.07,361.75Zm46.15-32.19c-2.25,3.91-5.42,4.84-9.41,2.53a12,12,0,0,1-1.24-.63c-8.28-6.53-24.33-8-24.77-17.7-.37-8.15,15.51-9,24.07-13.22,10.3-5.1,21.17-9.07,31.8-13.53l2.37,2.81Q807.64,309.68,796.22,329.56Zm-33.37-58.81-2.5-3.57q10.8-18.63,21.6-37.25c2.73-4.68,6.47-6.68,11.65-3.73,9.58,5.47,19.13,11,31.32,18Zm99.24-55.3c-1.42,2.41-3.21,6-6.07,4.69-11-5-22.24-10-31.06-18.29-3.63-3.4,2.28-4.89,4.89-6,17.91-7.77,35.9-15.39,53.86-23.05l2.33,2Q874.07,195.12,862.09,215.45ZM879.78,83.92c-8.08-4.6-8.36-9.52-4-17,8.74-15,15.79-31.59,34.19-31,7.86.15,12.45.74,16.63,3.17,28.65,16.65,57.43,33.07,85.89,50,12.51,7.46,17.63,19.12,14.43,33.54-2.94,13.22-11.78,20.78-24.89,23.48-7.74,1.6-14.95-.44-21.54-4.21C946.89,122.61,913.46,103.06,879.78,83.92Z"/><path class="cls-7" d="M1071.53,499.13c-6.54-3.25-10.38-7.1-11.66-11.87A44.29,44.29,0,0,0,1049,484c-9.21-.84-15.62-10.09-22.74-17.77-1.7,2.57-4.9,2.7-9.41-.67-13.58-10.16-26.13-9.27-39.41.4-3.62,2.63-6.2,3.06-8,1.93A60.27,60.27,0,0,1,965,473c-7.65,6.69-19,14.28-31.28,17.56a17.7,17.7,0,0,1-6.79,5.74c-10.41,5.62-13.55,14.4-10.7,26.06,6.08,24.94,11.38,50.08,17.42,75,6,24.72,7.11,25.4,32.86,27,4.56.28,9.47-.41,12.09,5,4.82,9.88-.36,25.43-10.32,30.55-28.54,14.67-42.7,43.66-35.88,73.44,7.46,32.55,30.26,51.5,63.54,52.81,35.84,1.41,66.45-27,67.44-62.71.29-10.56-3.37-18.94-14.74-20.35-11.74-1.47-18.28,5.2-20.32,16.51-.41,2.3-.45,4.67-.93,6.95-3.19,15.17-17.12,25.17-33.11,23.85a29.6,29.6,0,0,1-27.38-27.1c-1.21-16.79,8.07-30,23.52-33.39,22.17-4.91,24.27-7.46,24.37-29.81,0-5.61,0-11.22,0-16.83.07-18.17.07-18.38,18.56-18.91,12.26-.34,22.78-3.62,25.92-16.76,7-29.06,13.35-58.26,19.58-87.48C1080.58,512,1079.76,503.22,1071.53,499.13Zm-37,57.6c-9.17,35.38-1,30.32-38.44,30.8-29.85,0-29.85,0-35.37-29.11-.08-.46-.21-.92-.25-1.38-1-11.51-11.11-23.89-5.33-33.48,7.57-12.57,24.24-16.44,36.61-24.66,4-2.62,8-2,11.83.42,2.77,1.72,5.54,3.45,8.36,5.1C1042.74,522.47,1043.42,522.64,1034.58,556.73Z"/><path class="cls-7" d="M583.26,950.23c14-.07,22.36-7.08,22.52-17.7.18-10.87-7.66-17.24-22.33-17.41-20.08-.24-40.16-.06-60.24-.06s-40.16-.17-60.24.05c-14.77.16-22.57,6.37-22.53,17.23,0,10.67,8.39,17.8,22.34,17.88Q523,950.55,583.26,950.23Z"/><path class="cls-7" d="M462.86,1015.1c19.61.25,39.23.07,58.84.07,20.55,0,41.1.18,61.64-.07,14.73-.17,22.56-6.51,22.45-17.35s-8.43-17.64-22.43-17.71q-60.24-.28-120.48,0c-14,.07-22.32,7-22.44,17.69C440.31,1008.58,448.14,1014.92,462.86,1015.1Z"/><path class="cls-7" d="M751.11,1015.09c28.11.41,50.23-21.05,50.52-49,.32-29.71-20.27-50.77-49.69-50.81-28.66,0-49.77,20.72-50.08,49.26A49.93,49.93,0,0,0,751.11,1015.09Zm.76-64.49c9,1.27,14.38,5.92,14.28,14.73-.12,9-6.09,13.75-14.49,13.76-8.73,0-14-5.65-13.9-14.31S744,951.83,751.87,950.6Z"/><path class="cls-7" d="M295.21,915.14c-28.7-.35-50.25,20.2-50.61,48.22-.38,29.7,19.82,51,48.88,51.6,28.39.56,50.78-21.35,50.91-49.81C344.52,937.07,323.28,915.47,295.21,915.14Zm-.76,64.33c-8.09-1.32-14.32-5.09-14.36-14.16,0-8.73,5-14.23,13.83-14.31,8.67-.07,14.31,5.15,14.55,13.8S303.11,978.22,294.45,979.47Z"/><path class="cls-7" d="M999.73,134.14c10.49-.36,15.81-6.61,17.22-15.34.31-10.2-7.39-18.88-16.44-18.73-10.15.18-16.72,5.65-17.87,16C981.58,125.56,990.09,134.48,999.73,134.14Z"/></svg>